<?xml version="1.0" encoding="UTF-8" standalone="no"?>
<svg
   enable-background="new 0 0 512 512"
   version="1"
   viewBox="0 0 16 16"
   id="svg8"
   sodipodi:docname="adobe-acrobat-pro.svg"
   width="16"
   height="16"
   inkscape:version="1.2.1 (9c6d41e410, 2022-07-14)"
   xmlns:inkscape="http://www.inkscape.org/namespaces/inkscape"
   xmlns:sodipodi="http://sodipodi.sourceforge.net/DTD/sodipodi-0.dtd"
   xmlns="http://www.w3.org/2000/svg"
   xmlns:svg="http://www.w3.org/2000/svg">
  <defs
     id="defs12" />
  <sodipodi:namedview
     id="namedview10"
     pagecolor="#ffffff"
     bordercolor="#666666"
     borderopacity="1.0"
     inkscape:showpageshadow="2"
     inkscape:pageopacity="0.0"
     inkscape:pagecheckerboard="0"
     inkscape:deskcolor="#d1d1d1"
     showgrid="false"
     inkscape:zoom="32"
     inkscape:cx="7.984375"
     inkscape:cy="8"
     inkscape:window-width="1366"
     inkscape:window-height="715"
     inkscape:window-x="-8"
     inkscape:window-y="-8"
     inkscape:window-maximized="1"
     inkscape:current-layer="svg8" />
  <g
     id="g298"
     transform="matrix(0.03111264,0,0,0.03111264,0.0351486,-0.1640034)">
    <path
       fill="#e82803"
       d="m 93.867,12.801 h 324.267 c 51.733,0 93.867,42.133 93.867,93.867 v 311.467 c 0,51.733 -42.133,93.867 -93.867,93.867 H 93.867 C 42.134,512.002 0,469.869 0,418.135 V 106.668 C 0.001,54.934 42.134,12.801 93.867,12.801"
       id="path2" />
    <path
       fill="#2b0c0a"
       d="m 98.133,34.134 h 315.733 c 42.667,0 76.8,34.133 76.8,76.8 v 302.933 c 0,42.667 -34.133,76.8 -76.8,76.8 H 98.133 c -42.667,0 -76.8,-34.133 -76.8,-76.8 V 110.934 c 0,-42.666 34.133,-76.8 76.8,-76.8"
       id="path4" />
    <path
       fill="#ffffff"
       d="m 374.831,302.946 c -0.175,-1.754 -1.754,-22.097 -37.88,-21.22 -36.126,0.877 -44.895,3.157 -44.895,3.157 0,0 -27.007,-27.358 -36.828,-48.578 0,0 11.925,-34.899 11.399,-56.82 -0.526,-21.921 -5.787,-34.548 -22.623,-34.373 -16.836,0.175 -19.291,14.907 -17.076,36.836 1.987,19.673 12.166,42.783 12.166,42.783 0,0 -7.775,24.201 -18.063,48.286 -10.288,24.085 -17.303,36.711 -17.303,36.711 0,0 -34.782,11.633 -49.864,25.663 -15.082,14.03 -21.211,24.809 -13.27,35.6 6.839,9.295 30.807,11.399 52.202,-16.66 21.395,-28.059 31.041,-45.597 31.041,-45.597 0,0 32.653,-8.944 42.808,-11.399 10.155,-2.455 22.431,-4.384 22.431,-4.384 0,0 29.813,29.989 58.574,28.936 28.76,-1.053 27.357,-17.187 27.181,-18.941 z m -226.755,63.31 c -17.888,-10.698 37.53,-43.668 47.526,-44.72 -0.001,0 -28.8,55.919 -47.526,44.72 z m 85.055,-192.383 c 0,-17.362 5.612,-22.097 9.996,-22.097 4.384,0 9.295,2.104 9.47,17.186 0.175,15.082 -9.47,44.544 -9.47,44.544 -3.332,-3.507 -9.996,-22.271 -9.996,-39.633 z m 23.092,118.902 c -17.945,4.384 -26.95,8.944 -26.95,8.944 0,0 0,0 7.366,-16.485 7.366,-16.485 14.907,-38.933 14.907,-38.933 10.172,18.94 30.339,41.212 30.339,41.212 0,0 -7.717,0.878 -25.662,5.262 z m 43.14,-1.52 c 0,0 58.34,-10.576 58.34,9.353 0,19.929 -36.126,11.809 -58.34,-9.353 z"
       id="path6" />
  </g>
</svg>
