<?xml version="1.0" encoding="UTF-8" standalone="no"?>
<svg
   viewBox="0 0 16 16"
   version="1.1"
   id="svg10"
   sodipodi:docname="amazon-aws.svg"
   width="16"
   height="16"
   inkscape:version="1.2.1 (9c6d41e410, 2022-07-14)"
   xmlns:inkscape="http://www.inkscape.org/namespaces/inkscape"
   xmlns:sodipodi="http://sodipodi.sourceforge.net/DTD/sodipodi-0.dtd"
   xmlns="http://www.w3.org/2000/svg"
   xmlns:svg="http://www.w3.org/2000/svg">
  <defs
     id="defs14" />
  <sodipodi:namedview
     id="namedview12"
     pagecolor="#ffffff"
     bordercolor="#666666"
     borderopacity="1.0"
     inkscape:showpageshadow="2"
     inkscape:pageopacity="0.0"
     inkscape:pagecheckerboard="0"
     inkscape:deskcolor="#d1d1d1"
     showgrid="false"
     inkscape:zoom="32"
     inkscape:cx="7.984375"
     inkscape:cy="8"
     inkscape:window-width="1366"
     inkscape:window-height="715"
     inkscape:window-x="-8"
     inkscape:window-y="-8"
     inkscape:window-maximized="1"
     inkscape:current-layer="svg10" />
  <g
     id="g301"
     transform="matrix(0.6635496,0,0,0.6635496,0.03752716,0.03710674)">
    <path
       fill="#ff9800"
       d="M 20.189,12.33 H 20.188 Z M 0.106,14.677 c 3.13,2.855 7.272,4.573 11.87,4.573 3.28,0 7.096,-1.04 9.722,-3 0.431,-0.323 0.056,-0.815 -0.383,-0.613 -2.946,1.258 -6.146,1.871 -9.06,1.871 -4.318,0 -8.493,-1.202 -11.877,-3.186 -0.296,-0.177 -0.519,0.13 -0.272,0.355 z"
       id="path2" />
    <path
       fill="#212121"
       d="m 17.181,5.16 c 0,-0.136 -0.073,-0.202 -0.2,-0.202 H 16.24 L 16.206,4.957 c -0.104,0 -0.2,0.03 -0.279,0.082 -0.056,0.048 -0.112,0.154 -0.16,0.315 L 14.386,10.757 13.125,5.354 C 13.094,5.2 13.037,5.087 12.974,5.039 12.91,4.983 12.806,4.958 12.654,4.958 H 12.018 L 11.983,4.957 A 0.535,0.535 0 0 0 11.696,5.039 C 11.633,5.087 11.585,5.193 11.545,5.354 L 10.3,10.693 8.958,5.354 C 8.911,5.2 8.863,5.087 8.798,5.039 8.743,4.983 8.639,4.958 8.488,4.958 H 7.705 C 7.578,4.958 7.514,5.031 7.514,5.16 L 7.515,5.166 C 7.527,5.28 7.552,5.39 7.586,5.484 l 1.875,6.235 c 0.048,0.153 0.104,0.266 0.168,0.314 0.064,0.057 0.16,0.081 0.304,0.081 l 0.686,-0.001 c 0.143,0 0.255,-0.024 0.32,-0.081 0.063,-0.057 0.11,-0.162 0.15,-0.323 l 1.23,-5.193 1.238,5.201 c 0.031,0.162 0.087,0.267 0.15,0.323 0.065,0.057 0.169,0.081 0.32,0.081 h 0.686 l 0.029,10e-4 c 0.102,0 0.197,-0.03 0.275,-0.082 0.064,-0.048 0.12,-0.153 0.168,-0.314 L 17.108,5.492 17.105,5.5 a 1.17,1.17 0 0 0 0.059,-0.21 c 0.008,-0.049 0.017,-0.089 0.017,-0.13 z m 4.501,5.042 v 0.022 a 0.871,0.871 0 0 1 -0.415,0.744 c -0.271,0.178 -0.663,0.267 -1.165,0.267 -0.32,0 -0.631,-0.032 -0.95,-0.097 a 4.315,4.315 0 0 1 -0.878,-0.282 c -0.08,-0.032 -0.152,-0.065 -0.2,-0.081 A 0.453,0.453 0 0 0 17.93,10.751 c -0.119,0 -0.183,0.081 -0.183,0.25 v 0.411 c 0.001,0.082 0.018,0.16 0.048,0.226 0.032,0.073 0.119,0.154 0.247,0.225 0.208,0.121 0.519,0.226 0.918,0.323 a 5.26,5.26 0 0 0 1.228,0.144 3.78,3.78 0 0 0 1.141,-0.169 c 0.343,-0.105 0.638,-0.25 0.886,-0.452 0.247,-0.194 0.439,-0.435 0.583,-0.71 0.135,-0.274 0.207,-0.589 0.207,-0.936 0,-0.419 -0.12,-0.798 -0.367,-1.129 C 22.391,8.604 21.975,8.345 21.401,8.159 L 20.267,7.797 C 19.844,7.66 19.549,7.506 19.39,7.352 A 0.765,0.765 0 0 1 19.15,6.779 c 0,-0.33 0.128,-0.564 0.375,-0.717 0.247,-0.154 0.607,-0.225 1.062,-0.225 h 0.056 a 3.56,3.56 0 0 1 1.476,0.314 L 22.115,6.149 a 0.804,0.804 0 0 0 0.307,0.099 c 0.12,0 0.184,-0.089 0.184,-0.259 V 5.614 A 0.43,0.43 0 0 0 22.535,5.348 L 22.534,5.346 A 0.705,0.705 0 0 0 22.295,5.146 1.583,1.583 0 0 0 21.96,5 6.564,6.564 0 0 0 21.505,4.872 C 21.337,4.84 21.17,4.807 20.987,4.783 A 4.011,4.011 0 0 0 20.452,4.751 c -0.351,0 -0.686,0.041 -1.006,0.137 -0.32,0.096 -0.59,0.233 -0.83,0.419 a 2.06,2.06 0 0 0 -0.575,0.661 1.82,1.82 0 0 0 -0.216,0.895 c 0.002,0.443 0.152,0.851 0.4,1.17 0.263,0.363 0.694,0.637 1.277,0.821 l 1.157,0.364 c 0.391,0.129 0.663,0.267 0.807,0.419 0.134,0.14 0.216,0.332 0.216,0.543 z"
       id="path4" />
    <path
       fill="#ff9800"
       d="m 22.424,18.169 c 1.405,-1.193 1.772,-3.685 1.485,-4.048 -0.287,-0.355 -2.754,-0.661 -4.254,0.403 -0.232,0.17 -0.192,0.396 0.063,0.364 0.854,-0.105 2.738,-0.33 3.074,0.104 0.335,0.428 -0.375,2.227 -0.695,3.025 -0.096,0.241 0.112,0.338 0.327,0.152 z"
       id="path6" />
    <path
       fill="#212121"
       d="M 4.52,7.944 A 6.3,6.3 0 0 0 3.674,7.879 c -0.822,0 -1.468,0.21 -1.955,0.629 -0.487,0.418 -0.726,0.976 -0.726,1.661 0,0.646 0.199,1.162 0.59,1.549 0.391,0.387 0.926,0.58 1.596,0.58 0.942,0 1.725,-0.371 2.347,-1.112 l 0.016,0.037 c 0.076,0.16 0.159,0.315 0.232,0.438 l 0.006,0.01 c 0.083,0.132 0.177,0.257 0.281,0.369 0.079,0.073 0.159,0.114 0.239,0.114 H 6.301 A 0.373,0.373 0 0 0 6.508,12.081 L 7.011,11.743 C 7.115,11.662 7.163,11.581 7.163,11.501 A 0.349,0.349 0 0 0 7.107,11.316 4.331,4.331 0 0 1 6.851,10.734 2.448,2.448 0 0 1 6.763,10.017 L 6.747,10.018 V 7.404 C 6.747,6.517 6.524,5.855 6.085,5.421 5.638,4.985 4.944,4.767 3.994,4.767 H 3.948 c -0.426,0 -0.84,0.056 -1.2,0.153 A 4.573,4.573 0 0 0 1.743,5.283 L 1.739,5.284 A 0.6,0.6 0 0 0 1.519,5.451 C 1.479,5.508 1.463,5.605 1.463,5.734 v 0.395 c 0,0.169 0.056,0.25 0.168,0.25 H 1.632 A 0.455,0.455 0 0 0 1.758,6.356 L 1.774,6.352 A 2.18,2.18 0 0 0 2.038,6.25 C 2.317,6.137 2.605,6.048 2.9,5.975 3.195,5.902 3.483,5.871 3.763,5.871 c 0.614,0 1.045,0.12 1.3,0.371 0.248,0.25 0.375,0.677 0.375,1.29 V 8.121 A 10.764,10.764 0 0 0 4.52,7.944 Z m 0.935,1.081 v 0.338 c 0,0.274 -0.033,0.508 -0.08,0.701 A 1.282,1.282 0 0 1 5.103,10.581 1.777,1.777 0 0 1 4.345,11.097 2.56,2.56 0 0 1 3.523,11.242 C 3.155,11.242 2.876,11.145 2.685,10.943 2.485,10.75 2.39,10.467 2.39,10.088 2.39,9.685 2.517,9.379 2.78,9.162 3.044,8.944 3.435,8.839 3.97,8.839 c 0.265,0 0.525,0.018 0.75,0.048 l 0.034,0.004 c 0.254,0.034 0.503,0.082 0.701,0.134 z"
       id="path8" />
  </g>
</svg>
