<?xml version="1.0" encoding="UTF-8" standalone="no"?>
<svg
   viewBox="0 0 16 16"
   version="1.1"
   id="svg22"
   width="16"
   height="16"
   xmlns="http://www.w3.org/2000/svg"
   xmlns:svg="http://www.w3.org/2000/svg">
  <defs
     id="defs26" />
  <g
     id="g265"
     transform="matrix(0.00428932,0,0,0.00428932,0.06652621,0.65292568)">
    <path
       fill="#0092ff"
       d="m 2285.587,1265.312 h 533.687 v 1385.816 h -533.687 z"
       id="path2" />
    <path
       fill="#0062ff"
       d="m 2285.587,1958.22 h 533.687 v 692.908 h -533.687 z"
       id="path4" />
    <path
       fill="#ff6700"
       d="m 2988.737,985.146 h 533.687 V 2662.37 h -533.687 z"
       id="path6" />
    <path
       fill="#e84d00"
       d="m 2988.737,1708.849 h 533.687 v 953.521 h -533.687 z"
       id="path8" />
    <path
       fill="#12d87e"
       d="m 1612.792,1476.079 h 533.687 v 1175.048 h -533.687 z"
       id="path10" />
    <path
       fill="#19bf70"
       d="m 1612.792,2063.604 h 533.687 v 587.524 h -533.687 z"
       id="path12" />
    <path
       fill="#f4ba73"
       d="m 312.155,2247.941 819.413,-452.866 c 160.089,-88.477 348.87,-109.399 524.448,-58.123 l 821.825,245.37 c 74.99,21.9 124.576,93.106 119.106,171.036 -6.737,95.978 -93.37,166.164 -188.658,152.839 l -644.825,-112.65 164.274,242.872 a 252.547,252.547 0 0 0 140.83,101.628 l 284.478,79.987 a 347.025,347.025 0 0 0 188.513,-0.185 l 741.285,-210 a 450.4,450.4 0 0 1 355.656,47.832 l 20.975,12.671 c 56.9,34.374 51.563,118.568 -9.222,145.482 L 2673.061,3046.5 a 547.215,547.215 0 0 1 -364.303,27.904 L 1180.232,2769.437 695.358,2998.583 Z"
       id="path14" />
    <path
       fill="#0092ff"
       d="m 0.011,2389.29 538.954,-288.961 555.7,1036.464 -538.953,288.96 z"
       id="path16" />
    <circle
       cx="796.00598"
       cy="3077.3201"
       r="125.52"
       fill="#ffffff"
       id="circle18" />
    <path
       fill="#ffb600"
       stroke="#ffb600"
       stroke-miterlimit="10"
       stroke-width="18"
       d="m 3231.228,715.975 221.814,-482.223 -482.223,-221.815 -55.004,119.579 278.09,127.917 -1683.34,602.265 45.661,123.448 1683.34,-602.265 -127.917,278.09 z"
       id="path20" />
  </g>
</svg>
