<?xml version="1.0" encoding="UTF-8" standalone="no"?>
<svg
   enable-background="new 0 0 24 24"
   viewBox="0 0 16 16"
   version="1.1"
   id="svg10"
   sodipodi:docname="atlassian.svg"
   width="16"
   height="16"
   inkscape:version="1.2.1 (9c6d41e410, 2022-07-14)"
   xmlns:inkscape="http://www.inkscape.org/namespaces/inkscape"
   xmlns:sodipodi="http://sodipodi.sourceforge.net/DTD/sodipodi-0.dtd"
   xmlns="http://www.w3.org/2000/svg"
   xmlns:svg="http://www.w3.org/2000/svg">
  <defs
     id="defs14" />
  <sodipodi:namedview
     id="namedview12"
     pagecolor="#ffffff"
     bordercolor="#666666"
     borderopacity="1.0"
     inkscape:showpageshadow="2"
     inkscape:pageopacity="0.0"
     inkscape:pagecheckerboard="0"
     inkscape:deskcolor="#d1d1d1"
     showgrid="false"
     inkscape:zoom="32"
     inkscape:cx="7.984375"
     inkscape:cy="8"
     inkscape:window-width="1366"
     inkscape:window-height="715"
     inkscape:window-x="-8"
     inkscape:window-y="-8"
     inkscape:window-maximized="1"
     inkscape:current-layer="svg10" />
  <g
     id="g301"
     transform="matrix(0.65421435,0,0,0.65421435,0.14961694,0.14971478)">
    <path
       fill="#0052cc"
       d="M 5.971,11.211 0.074,22.977 c -0.234,0.469 0.112,1.017 0.628,1.017 H 8.905 C 9.178,24 9.422,23.844 9.533,23.6 11.31,19.953 10.241,14.398 7.134,11.08 6.772,10.696 6.21,10.719 5.971,11.211 Z"
       id="path2" />
    <path
       fill="#0047b2"
       d="m 6.5,10.818 c -0.213,0.021 -0.41,0.15 -0.528,0.394 L 0.074,22.977 c -0.234,0.469 0.112,1.017 0.628,1.017 H 6.5 Z"
       id="path4" />
    <path
       fill="#0052cc"
       d="m 15.13,24 h 8.166 c 0.525,0 0.863,-0.553 0.628,-1.017 0,0 -10.991,-22.059 -11.268,-22.608 -0.248,-0.497 -0.881,-0.507 -1.2,0.005 V 0.379 C 5.723,9.445 11.058,16.72 14.503,23.606 14.619,23.845 14.863,24 15.13,24 Z"
       id="path6" />
    <path
       fill="#0047b2"
       d="m 12.096,0 h -0.031 c -0.224,0.005 -0.454,0.131 -0.61,0.381 V 0.379 c -5.733,9.066 -0.398,16.341 3.047,23.227 0.099,0.203 0.29,0.345 0.509,0.384 V 5.098 C 13.689,2.446 12.735,0.532 12.656,0.375 12.534,0.132 12.32,0.005 12.096,0 Z"
       id="path8" />
  </g>
</svg>
