<?xml version="1.0" encoding="UTF-8" standalone="no"?>
<svg
   viewBox="0 0 4.2333328 4.2333328"
   version="1.1"
   id="svg6"
   sodipodi:docname="babel.svg"
   width="16"
   height="16"
   inkscape:version="1.2.1 (9c6d41e410, 2022-07-14)"
   xmlns:inkscape="http://www.inkscape.org/namespaces/inkscape"
   xmlns:sodipodi="http://sodipodi.sourceforge.net/DTD/sodipodi-0.dtd"
   xmlns="http://www.w3.org/2000/svg"
   xmlns:svg="http://www.w3.org/2000/svg">
  <defs
     id="defs10" />
  <sodipodi:namedview
     id="namedview8"
     pagecolor="#ffffff"
     bordercolor="#666666"
     borderopacity="1.0"
     inkscape:showpageshadow="2"
     inkscape:pageopacity="0.0"
     inkscape:pagecheckerboard="0"
     inkscape:deskcolor="#d1d1d1"
     showgrid="false"
     inkscape:zoom="32"
     inkscape:cx="7.984375"
     inkscape:cy="8"
     inkscape:window-width="1366"
     inkscape:window-height="715"
     inkscape:window-x="-8"
     inkscape:window-y="-8"
     inkscape:window-maximized="1"
     inkscape:current-layer="svg6" />
  <g
     id="g299"
     transform="matrix(0.03325523,0,0,0.02808539,-0.01233315,0.31807829)">
    <path
       d="M 87.44,43.79 V 43.52 H 87 v 0.27 z m 2.94,7.08 V 51 h 0.31 a 1.18,1.18 0 0 1 0.09,-0.43 V 50.3 c -0.13,0 -0.26,0.21 -0.38,0.58 z M 78.9,59.79 a 14.06,14.06 0 0 0 -2.35,-3 c 0,-0.32 0.5,-0.79 1.59,-1.42 l 3.11,-2.71 a 7.79,7.79 0 0 0 1.23,-4.31 v -0.46 c -0.12,-1.38 -1.12,-2.49 -3,-3.34 q -1.68,-1.13 -6,-1.25 A 35.58,35.58 0 0 0 64,45.94 38.58,38.58 0 0 1 60.37,48.23 v 0.23 a 0.86,0.86 0 0 0 0.36,-0.16 0.21,0.21 0 0 1 0.26,0.21 l 0.23,-0.12 h 0.11 v 0.1 a 12.78,12.78 0 0 1 -2.53,2 l 0.13,0.24 h -0.11 l -0.28,-0.1 c 0,0.08 -0.11,0.14 -0.34,0.16 v 0.1 l 0.27,0.34 a 1,1 0 0 1 -0.39,-0.09 1.88,1.88 0 0 0 -1.16,0.63 l 0.16,-0.69 a 56.31,56.31 0 0 0 1.16,-6.5 v -0.12 a 4.73,4.73 0 0 1 -1.13,-1.05 3.71,3.71 0 0 0 0,-0.49 v -0.1 H 57 q -1.84,2.77 -7.11,9.45 -4,4.75 -4.14,5.28 c -1.09,1.13 -1.61,1.81 -1.56,2 -0.29,0.19 -0.41,0.37 -0.36,0.58 a 0.12,0.12 0 0 1 -0.16,-0.09 3.17,3.17 0 0 1 -2.08,1.45 l -1,0.22 a 0.23,0.23 0 0 0 -0.19,0.28 v 0.12 l 0.36,-0.08 v 0.1 l -0.82,0.32 -1.45,0.34 h -0.76 c -0.11,0.11 0.61,0 0.33,0.06 l -1,0.22 c -0.58,0.13 -0.89,0.08 -1,-0.15 h -0.11 a 0.55,0.55 0 0 1 0,0.24 L 36.07,63 35.31,63.18 q -0.08,-0.53 -3.09,-3.86 c 0,-0.43 0.67,-1.05 2.12,-1.86 l 4.08,-3.59 q 1.37,-1.76 1.63,-5.65 L 40,47.63 c -0.16,-1.83 -1.48,-3.3 -4,-4.44 -1.47,-1 -4.12,-1.53 -7.94,-1.61 A 47.83,47.83 0 0 0 15.69,45 47.39,47.39 0 0 1 10.91,48 v 0.32 a 1.25,1.25 0 0 0 0.48,-0.19 0.27,0.27 0 0 1 0.34,0.26 l 0.32,-0.18 h 0.16 v 0.15 a 18.64,18.64 0 0 1 -3.34,2.6 l 0.18,0.28 H 8.9 L 8.56,51.12 c 0,0.09 -0.15,0.16 -0.48,0.19 v 0.17 l 0.37,0.41 a 1.36,1.36 0 0 1 -0.5,-0.1 3.17,3.17 0 0 0 -2.13,1.57 L 6,53.64 a 4.47,4.47 0 0 1 1.06,-0.85 v 0.46 A 1.53,1.53 0 0 0 6.58,53.44 L 7,54 a 12.62,12.62 0 0 1 2.43,-2 c 0.44,0.11 0.67,0.25 0.68,0.4 h 0.34 a 26,26 0 0 1 7.14,-3.86 v 0.32 q -0.66,1 -0.89,1 a 1,1 0 0 0 0.23,0.59 q 0.06,0.6 -3.21,8.1 Q 6.37,75.88 1.34,84.21 a 1.07,1.07 0 0 0 0.2,0.45 4.16,4.16 0 0 0 1.57,-0.6 h 0.18 v 0.32 H 3.6 L 3.92,84.2 c 0,0.09 0.11,0.14 0.33,0.12 v 0.32 A 2.83,2.83 0 0 1 3.77,86 7.36,7.36 0 0 0 2.69,88.4 v 0.15 H 3 a 19.54,19.54 0 0 0 3.06,-4.41 48.82,48.82 0 0 0 9,-3.38 8.39,8.39 0 0 0 4.74,-1.63 v -0.17 l -0.78,0.23 h -0.18 v -0.17 a 7.07,7.07 0 0 0 3.17,-1 q 4.46,-3.44 6.74,-4.87 4.68,-3.44 6.07,-6.7 l 0.52,-0.12 a 6.82,6.82 0 0 0 0.75,0 c 0,-0.08 0,-0.13 0.1,-0.15 0.7,-0.07 0.36,0 0.81,-0.06 l 1.17,-0.27 c -0.07,0 -0.1,0.06 -0.08,0.13 l 0.18,-0.11 h -0.09 0.2 l -0.09,0.06 a 1.15,1.15 0 0 0 0.43,0 L 38.8,66.27 33.38,74.6 32.2,76.08 31.62,78 h 0.11 l 0.58,-0.24 -0.19,0.75 0.06,0.22 0.16,0.2 c -0.07,0 -0.1,0.07 -0.08,0.15 v 0.12 l 0.24,-0.06 q 0.53,-0.46 0.45,-0.84 a 2.21,2.21 0 0 0 0.76,0.06 v 0.12 c -0.23,0.06 -0.35,0.24 -0.37,0.56 v 0.12 h 0.13 c 1.94,-2.12 6.69,-9.35 10.5,-14.27 q -0.18,-0.8 6,-2.22 h 0.13 q 0.22,1 -1,4.67 A 12.58,12.58 0 0 0 48.39,69.78 18.72,18.72 0 0 0 47.47,73 l -1.45,4.76 a 43.48,43.48 0 0 0 -2.16,7.71 0.94,0.94 0 0 1 0.4,0 l 0.2,-0.18 a 0.12,0.12 0 0 0 0.16,0.09 L 44.63,85 h 0.63 c 0.19,0 0.34,-0.28 0.48,-0.71 0,-0.64 0.1,-1 0.39,-1.06 a 10.28,10.28 0 0 1 0.72,-2.32 10.29,10.29 0 0 1 0.81,-2.6 c 0.55,-2 1,-3 1.21,-3.06 l 0.06,0.24 -0.4,1 a 50.69,50.69 0 0 1 -2.12,7.35 l 0.21,0.89 h 0.13 q 2.6,-5.59 7.48,-22.14 a 2.89,2.89 0 0 1 1.39,-2.25 l -0.19,-0.2 v -0.1 a 1.27,1.27 0 0 0 0.78,-0.44 c 0,-0.08 -0.34,-0.21 -1,-0.37 l 1.62,-7 a 2.4,2.4 0 0 1 0.62,-0.48 v 0.35 a 0.86,0.86 0 0 0 -0.36,0.16 l 0.31,0.44 a 10,10 0 0 1 1.83,-1.57 c 0.34,0.09 0.5,0.21 0.52,0.32 h 0.24 a 19.75,19.75 0 0 1 5.43,-2.91 v 0.23 q -0.49,0.74 -0.67,0.75 a 1,1 0 0 0 0.15,0.45 42.43,42.43 0 0 1 -2.41,6.16 167.45,167.45 0 0 1 -9.44,19.55 0.87,0.87 0 0 0 0.17,0.34 3,3 0 0 0 1.18,-0.46 h 0.11 v 0.23 h 0.26 L 55,75.67 q 0,0.1 0.25,0.08 V 76 A 2.11,2.11 0 0 1 54.85,77.06 5.31,5.31 0 0 0 54,78.88 V 79 h 0.24 a 14.72,14.72 0 0 0 2.32,-3.35 37.54,37.54 0 0 0 6.8,-2.56 6.39,6.39 0 0 0 3.62,-1.24 v -0.12 l -0.61,0.18 h -0.13 v -0.12 a 5.36,5.36 0 0 0 2.4,-0.77 c 2.25,-1.73 4,-3 5.12,-3.7 3.6,-2.62 5.27,-5.13 5.07,-7.55 z m -0.61,0.16 0.08,0.94 c -0.11,0.23 -0.23,0.35 -0.34,0.36 l -0.14,-1.6 c 0.26,0.09 0.39,0.19 0.4,0.3 z M 7.73,52.37 H 7.57 V 52.08 L 8.19,52 v 0.15 A 1.24,1.24 0 0 0 7.72,52.34 Z M 4.59,83.78 a 2,2 0 0 0 -1,-0.21 v -0.46 c 0,-0.18 0.08,-0.3 0.31,-0.34 0.23,-0.04 0.33,0.13 0.34,0.43 a 6.79,6.79 0 0 1 0.89,-1 l 0.34,0.14 c -0.11,0.93 -0.4,1.41 -0.86,1.44 z m 33.55,-35.1 c -0.16,0 -0.48,-0.48 -0.93,-1.45 v -0.29 c 0.3,0 0.61,0.46 0.93,1.45 z M 37.7,45.2 37.57,45.51 33,43.61 q 4.56,0.15 4.69,1.59 z m -19.24,16.52 -0.64,0.06 v -0.29 l 0.64,-0.06 z M 17.94,51.8 h 0.16 v 0.46 c -0.15,0 -0.34,0.23 -0.59,0.66 V 52.6 c 0.29,-0.34 0.44,-0.61 0.42,-0.79 z m -1.36,3.2 0.06,0.61 H 16.48 L 16.42,55 Z m -0.71,1.14 h 0.31 c 0,0.5 -0.17,0.77 -0.42,0.79 H 15.6 a 1.46,1.46 0 0 0 0.27,-0.77 z m -0.53,1.58 h 0.18 v 0.15 l -0.29,0.48 H 14.92 V 58.2 a 0.4,0.4 0 0 0 0.42,-0.49 z m -0.52,1.43 -0.09,0.76 H 14.57 L 14.5,59.16 h 0.32 z M 9.59,74 C 9.38,75 9.16,75.57 8.93,75.59 V 75.44 A 1.67,1.67 0 0 1 9.59,74 Z m -1,2.08 v 0.15 a 0.27,0.27 0 0 1 -0.28,0.34 v -0.15 q 0,-0.27 0.28,-0.34 z m -0.28,4.31 h 0.48 v 0.17 A 1.25,1.25 0 0 0 8.31,80.75 H 8 C 8,80.59 8.08,80.47 8.28,80.41 Z M 22.1,76.13 a 25.55,25.55 0 0 0 -4.8,2.73 Q 12.93,80.39 13,80.77 A 48.06,48.06 0 0 0 7.8,83 1.86,1.86 0 0 1 6.95,82.78 a 1.37,1.37 0 0 1 0.71,-1.3 2.75,2.75 0 0 1 1.31,0.2 12.79,12.79 0 0 1 2.53,-0.83 v -0.32 l -1,0.08 a 13.15,13.15 0 0 1 2.8,-1.31 h 0.48 v 0.15 c -0.83,0.07 -1.29,0.32 -1.39,0.75 0,0.2 0.13,0.28 0.34,0.26 0.62,-0.39 0.93,-0.62 0.92,-0.69 q 1.78,-0.34 9.81,-5.13 v 0.29 c 0,0.14 -0.45,0.53 -1.37,1.2 z m -8.22,2.7 a 3.17,3.17 0 0 0 2,-0.93 c 0.22,0 0.34,0.07 0.35,0.26 a 7.16,7.16 0 0 0 -2.19,1 H 13.88 V 78.85 Z M 27.19,68.64 23.08,71.9 a 42,42 0 0 1 -4.93,3 q -7.3,4 -9.07,4.17 H 8.9 q 0.22,-0.82 6.5,-13.31 a 35.45,35.45 0 0 0 8.71,-2.58 l 1,-0.08 a 5.59,5.59 0 0 1 4.49,1.15 l 0.06,0.61 q -1.12,3.21 -2.45,3.76 z m -8,-4.52 0.66,-0.06 v 0.15 l -0.66,0.06 z m 9.29,-1.57 h 0.48 c 0.45,0.21 0.68,0.4 0.7,0.57 v 0.15 A 1.36,1.36 0 0 1 28.47,62.6 Z m 1.31,-7.48 a 19,19 0 0 1 -3.52,2.62 c -0.63,0.06 -3,1 -7.07,2.76 a 1.29,1.29 0 0 0 -0.65,-0.11 v -0.29 a 3.81,3.81 0 0 1 0.79,-2.22 c 0.32,-1.68 0.66,-2.64 1,-2.87 l 3.4,-7.65 q -0.06,-0.71 2.18,-1.09 h 0.48 v 0.44 c 1.46,-0.22 2.38,-0.35 2.73,-0.38 2.7,-0.23 4.11,0.32 4.22,1.63 h 0.31 L 33.59,47.14 34,47 a 2.12,2.12 0 0 1 1.28,1.59 2.48,2.48 0 0 1 -0.69,1.59 c -0.2,0 -0.33,-0.13 -0.34,-0.43 h -0.34 l -0.07,0.93 q -2.05,3.07 -3,3.16 c -0.56,0.77 -0.9,1.16 -1,1.16 z m 2.09,5.36 a 1.2,1.2 0 0 0 -0.67,-0.26 v -0.46 h 0.31 l 0.68,0.4 a 0.27,0.27 0 0 1 -0.28,0.34 z M 34,63 c 0.3,0.12 0.48,0.25 0.51,0.37 h -0.15 v 0 h -0.09 l -0.22,0.18 z m 0.21,1.29 v -0.12 l 0.39,-0.09 v 0.12 z m 0.94,1.05 c 0.4,-0.07 0.6,-0.09 1.34,-0.26 v 0.12 l -1.42,0.33 a 1.8,1.8 0 0 0 0,-0.19 z m 1.38,0.59 a 6.06,6.06 0 0 0 -1.42,0.2 v -0.12 l 1.18,-0.38 0.57,-0.13 0.06,0.22 c -0.25,0.06 -0.07,0.06 -0.36,0.21 z m 1.26,-0.3 a 0.26,0.26 0 0 1 -0.32,-0.19 l 0.36,-0.08 a 0.22,0.22 0 0 1 0.3,0.19 z m 3.41,-3.67 v -0.12 l 0.59,-0.14 0.06,0.22 h -0.62 z m 3.64,22.34 a 0.92,0.92 0 0 0 0,-0.37 h 0.13 a 0.21,0.21 0 0 1 0.29,0.17 v 0.12 l -0.48,0.11 z M 47.4,62.91 h -0.26 a 7.4,7.4 0 0 1 -1.06,0.35 l -0.24,0.06 a 0.24,0.24 0 0 1 -0.31,-0.17 l 1.71,-0.39 0.56,-0.26 0.19,0.21 a 1.24,1.24 0 0 0 -0.58,0.24 z m 1.31,-0.42 v -0.12 a 0.71,0.71 0 0 0 0.32,-0.21 l 1.21,-0.28 V 62 a 9.37,9.37 0 0 0 -1.53,0.48 z M 48.9,60 a 1,1 0 0 0 -0.34,0.21 c 0,-0.08 -0.19,-0.08 -0.5,0 -0.06,-0.23 0.84,-0.56 2.69,-1 l 0.26,-0.06 0.06,0.22 c -1.3,0.38 -2,0.6 -2.17,0.62 z m 3.26,-3.52 C 52,58 51.51,58.83 50.58,59 v -0.12 l -0.82,0.32 -0.36,0.08 a 0.92,0.92 0 0 1 -0.5,0 L 48.79,59 a 49.26,49.26 0 0 1 3.56,-4.91 h 0.28 a 5.09,5.09 0 0 1 -0.48,2.39 z m 5.77,-4.94 h -0.11 v -0.23 h 0.48 v 0.12 a 1.57,1.57 0 0 0 -0.36,0.15 z m -2.38,23.9 A 1.5,1.5 0 0 0 54.8,75.27 v -0.35 q 0,-0.18 0.22,-0.25 c 0.16,0 0.25,0.09 0.27,0.34 a 4.08,4.08 0 0 1 0.67,-0.77 l 0.25,0.1 c -0.09,0.71 -0.31,1.08 -0.64,1.11 z M 81,48.79 c -0.12,0 -0.35,-0.36 -0.72,-1.12 v -0.23 c 0.23,0 0.48,0.34 0.72,1.09 z m -0.34,-2.66 -0.11,0.24 -3.45,-1.44 c 2.3,0.07 3.49,0.48 3.56,1.2 z M 66.07,58.67 h -0.48 v -0.23 h 0.48 v 0.22 z m -0.4,-7.54 h 0.13 v 0.35 q -0.18,0 -0.45,0.5 v -0.23 a 1.08,1.08 0 0 0 0.31,-0.62 z m -1,2.42 v 0.46 h -0.13 v -0.46 z m -0.55,0.87 h 0.24 q 0,0.59 -0.31,0.62 h -0.13 a 1.26,1.26 0 0 0 0.2,-0.61 z m -0.39,1.19 h 0.11 v 0.12 L 63.63,56.1 H 63.39 V 56 c 0.25,0 0.36,-0.15 0.34,-0.38 z m -0.39,1.08 -0.08,0.6 H 63.15 V 56.7 h 0.24 z m -4,11.3 q -0.24,1.17 -0.5,1.2 v -0.1 a 1.33,1.33 0 0 1 0.51,-1.1 z m -0.74,1.57 v 0.1 a 0.21,0.21 0 0 1 -0.22,0.27 v -0.12 q 0,-0.18 0.22,-0.25 z m -0.21,3.28 h 0.37 v 0.12 A 1.07,1.07 0 0 0 58.4,73.1 h -0.24 q 0,-0.2 0.22,-0.25 z m 10.46,-3.23 a 21.75,21.75 0 0 0 -3.65,2.06 c -2.24,0.78 -3.34,1.27 -3.33,1.46 a 35.34,35.34 0 0 0 -3.87,1.74 1.45,1.45 0 0 1 -0.64,-0.18 1,1 0 0 1 0.54,-1 2.1,2.1 0 0 1 1,0.15 10.82,10.82 0 0 1 1.93,-0.62 v -0.23 l -0.76,0.06 a 10,10 0 0 1 2.14,-1 h 0.37 v 0.1 c -0.63,0.06 -1,0.24 -1.06,0.58 a 0.21,0.21 0 0 0 0.26,0.21 c 0.47,-0.31 0.69,-0.48 0.69,-0.54 q 1.34,-0.24 7.44,-3.9 v 0.23 c 0,0.1 -0.34,0.4 -1,0.91 z m -6.24,2 a 2.5,2.5 0 0 0 1.55,-0.7 0.21,0.21 0 0 1 0.26,0.21 5.93,5.93 0 0 0 -1.66,0.71 h -0.13 v -0.22 z m 10.09,-7.68 -3.1,2.5 a 30.14,30.14 0 0 1 -3.77,2.3 q -5.53,3 -6.89,3.16 h -0.13 q 0.17,-0.63 4.95,-10.1 a 27.26,27.26 0 0 0 6.61,-2 l 0.75,-0.07 a 4.2,4.2 0 0 1 3.4,0.89 v 0.46 c -0.57,1.6 -1.18,2.54 -1.85,2.83 z M 66.61,60.5 h 0.48 v 0.12 h -0.48 z m 7.05,-1.2 h 0.37 c 0.34,0.17 0.52,0.32 0.53,0.44 v 0.1 a 1,1 0 0 1 -0.91,-0.51 z m 1,-5.67 a 14.26,14.26 0 0 1 -2.66,2 35.65,35.65 0 0 0 -5.37,2.08 1.22,1.22 0 0 0 -0.49,-0.07 v -0.23 a 2.93,2.93 0 0 1 0.59,-1.69 c 0.24,-1.29 0.51,-2 0.79,-2.17 l 2.6,-5.81 c 0,-0.34 0.52,-0.62 1.64,-0.84 h 0.37 v 0.35 q 1.65,-0.27 2.07,-0.31 c 2,-0.18 3.12,0.23 3.21,1.24 h 0.24 v -0.56 h 0.24 a 1.55,1.55 0 0 1 1,1.18 1.93,1.93 0 0 1 -0.6,1.2 c -0.16,0 -0.25,-0.09 -0.27,-0.34 h -0.24 l -0.07,0.7 c -1,1.57 -1.79,2.39 -2.26,2.42 -0.42,0.57 -0.68,0.86 -0.8,0.87 z m 1.09,3.88 v -0.35 h 0.24 l 0.52,0.32 a 0.22,0.22 0 0 1 -0.22,0.25 1,1 0 0 0 -0.51,-0.2 z m -43.39,22.62 -0.24,0.06 -0.21,0.18 a 0.21,0.21 0 0 0 0.29,0.17 c 0.16,0 0.22,-0.13 0.19,-0.28 v -0.12 z m -0.92,-1.84 v 0.12 c 0.16,0 0.22,-0.13 0.19,-0.28 v -0.12 a 0.22,0.22 0 0 0 -0.19,0.28 z m 6.56,-15.6 0.28,-0.07 -0.06,-0.24 -0.28,0.07 z m 84.55,7.1 a 15.73,15.73 0 0 1 -3.78,0.57 v 0.23 h 0.26 0.14 v 0 l 0.31,-0.12 c 2.8,-0.31 3.13,-0.2 3.1,-0.51 v -0.11 z m -15.25,2 v 0.23 0 z m -1.75,-6.14 -0.25,-0.08 a 4.21,4.21 0 0 0 -0.3,1 v 0.1 c 0.2,0 0.37,-0.34 0.54,-1 z m 17.58,4.07 v 0.23 l 0.41,0.07 v -0.23 z m -19.29,2.38 -0.63,-0.07 -0.11,0.24 v 0.12 l 3.77,-0.32 v -0.23 l -3,0.26 z m -1.71,-8.26 V 63.72 H 102 l -0.23,0.15 0.13,0.22 c 0.18,0 0.26,-0.1 0.24,-0.26 z M 124.91,68 h 0.18 c 0.1,0 0.15,-0.09 0.14,-0.24 l -0.1,-0.22 a 3,3 0 0 0 -1.46,0.37 V 67.8 l -0.77,0.07 c 0,-0.23 -0.08,-0.35 -0.19,-0.34 h -0.4 c -0.47,0 -0.69,0 -0.92,0.2 0,-0.08 0,-0.12 -0.08,-0.12 h -0.45 l -0.26,0.15 c 0,-0.08 0,-0.12 -0.08,-0.12 l -0.16,0.14 v -0.12 h -0.62 -0.15 v 0.23 l 0.32,0.08 h 0.3 a 0.54,0.54 0 0 0 0.34,0.07 l 0.26,-0.13 V 68 a 19.08,19.08 0 0 1 -2.46,0.47 0.42,0.42 0 0 0 -0.25,-0.1 v 0 a 0.2,0.2 0 0 1 -0.19,-0.21 l 0.52,-0.07 a 3.26,3.26 0 0 0 0.35,0.09 c 0.42,-0.21 0.44,-0.29 0.66,-0.31 v -0.23 a 15.16,15.16 0 0 1 -2.66,0.25 h -0.08 v -0.23 c 2.31,-0.28 1.54,-0.12 2.33,-0.34 0,0.08 0,0.12 0.08,0.12 a 0.54,0.54 0 0 1 0.32,-0.16 h 0.16 a 8.46,8.46 0 0 0 2.68,-0.35 v 0.1 l 0.26,-0.13 h 0.24 c 0,-0.23 0.34,-0.27 0.46,-0.28 v -0.25 c -2.81,0.57 -3.55,0.41 -4.33,0.63 v -0.1 a 3.41,3.41 0 0 1 -1,0.08 0.49,0.49 0 0 0 -0.23,0.15 c 0,-0.08 0,-0.12 -0.09,-0.12 v 0 l -2.39,0.39 c 0,-0.07 0,-0.1 -0.09,-0.09 a 12.17,12.17 0 0 1 -2.56,0.46 0.78,0.78 0 0 0 -0.31,0.13 c 0,-0.07 0,-0.1 -0.13,-0.09 l -1,0.08 -0.68,0.17 c 0,-0.07 0,-0.1 -0.13,-0.09 a 5.43,5.43 0 0 1 -1,0.19 v 0 c -0.17,0 0.08,0 0,-0.1 l -0.21,0.12 c -0.3,0 -0.14,0 -1.16,0 -1.8,0.22 -1.6,0.25 -1.8,0.26 h -0.67 a 0.09,0.09 0 0 1 -0.1,0.11 c -0.76,-0.1 -1.16,-0.22 -1.16,-0.36 q 0.15,-1.09 0.53,-1.12 h 0.13 l -0.11,0.24 h 0.13 c 0.24,-0.13 0.35,-0.25 0.34,-0.36 V 66.7 h -0.24 V 66.47 A 0.84,0.84 0 0 1 105.04,66 l 0.55,-0.89 v 0.23 h 0.26 V 65.11 L 105.7,64.9 a 1,1 0 0 1 0.47,-0.27 v -0.12 h -0.35 v -0.35 a 10,10 0 0 0 1,-2.57 l 0.25,0.1 c 0.16,0 0.23,-0.1 0.22,-0.27 h -0.24 v -0.1 a 0.89,0.89 0 0 1 0.09,-0.49 1.56,1.56 0 0 0 0.52,-1.22 c 0.07,0 0.11,0 0.12,0.11 0.33,-0.19 0.58,-0.68 0.76,-1.5 A 46.85,46.85 0 0 0 110.81,52 c 2,-5.52 2,-6.1 2.25,-7.41 h -0.24 a 0.84,0.84 0 0 1 -0.09,0.48 1,1 0 0 0 -0.39,-0.09 v -0.1 a 2.83,2.83 0 0 1 0.61,-1.71 H 113 l 0.21,0.8 h 0.24 a 7.33,7.33 0 0 1 0.19,-1 c 0,-0.12 -0.1,-0.2 -0.29,-0.21 l -0.23,0.15 c 0,-0.17 0,-0.61 0,-1.3 H 113 a 0.91,0.91 0 0 1 -0.32,-0.51 l -1.33,0.13 a 1.23,1.23 0 0 0 -0.15,-0.41 c 0,-0.12 0.29,-0.24 0.9,-0.36 l 0.27,0.1 0.25,-0.15 c 0,0.08 0.06,0.12 0.15,0.11 l 0.25,-0.15 c 0,0.08 0.06,0.12 0.15,0.11 h 0.12 v -0.27 c -0.19,0 -0.68,0 -1.46,0 l -0.25,0.17 V 40.2 q -9.38,0.77 -10.65,0.89 c -0.11,0 -0.55,0 -1.32,0 0,0.1 -0.08,0.16 -0.27,0.18 l -0.27,-0.12 -0.91,0.23 a 6.08,6.08 0 0 1 -1.08,0 0.93,0.93 0 0 1 -0.51,0.2 l 2.67,-0.17 a 1.22,1.22 0 0 1 -0.65,0.21 0.9,0.9 0 0 1 -0.53,-0.09 15.14,15.14 0 0 1 -2,0.47 l -0.27,-0.1 -4.36,0.67 a 1.09,1.09 0 0 0 -0.59,-0.09 7.26,7.26 0 0 0 -1.16,0.25 l -2.11,0.88 0.16,0.26 a 1.16,1.16 0 0 0 0.43,-0.17 l 0.75,0.07 -0.09,0.7 a 1.88,1.88 0 0 0 -1.2,1.34 c -1,0.46 -1.55,0.78 -1.55,1 v 0.12 h 0.16 l 0.28,-0.15 0.33,0.39 v 0.54 q 0,0.25 -5.21,11 c -3,6.9 -4.6,10.67 -4.75,11.35 -1,0.29 -1.63,0.71 -1.81,1.27 0,0.18 0.33,0.3 0.92,0.34 v 0.27 l -0.27,0.45 v 0.54 q 0,0.42 2.26,0.64 c 0,-0.09 0,-0.15 0.14,-0.16 a 8.14,8.14 0 0 1 -0.28,2 H 78 a 3.47,3.47 0 0 0 1,-1.92 h 0.13 c 0.15,0 0.31,0.16 0.49,0.52 q -0.28,0.11 -2,4.45 l 0.16,0.26 H 78 q 2.05,-5.2 2.58,-5.75 2.7,-0.24 9.33,-1 l 0.28,-0.17 a 0.13,0.13 0 0 0 0.17,0.13 h 0.29 l 0.28,-0.17 a 0.13,0.13 0 0 0 0.17,0.13 l 3.35,-0.29 c 0.89,-0.07 1.3,-0.34 1.27,-0.8 0,-0.12 0.51,-0.26 1.57,-0.41 a 1.28,1.28 0 0 1 0.46,0.08 c 0,-0.08 0.52,-0.17 1.58,-0.26 0,-0.56 0.21,-0.86 0.52,-0.89 v -0.27 a 4.63,4.63 0 0 0 -1,0.23 6.27,6.27 0 0 1 -1.33,-0.16 1.23,1.23 0 0 1 -0.43,0.17 l -2.33,0.07 -0.28,0.15 q 0,-0.13 -0.17,-0.11 h -0.13 l -0.3,0.15 c 0,-0.08 -0.25,-0.15 -0.74,-0.21 l -0.3,0.18 h -0.58 v -0.15 q 4.5,-0.49 4.44,-1.22 a 0.26,0.26 0 0 1 0.32,0.27 L 97.9,68.2 v -0.27 l -7.18,0.2 c 0,0.09 0,0.15 -0.14,0.16 L 89.7,68.22 a 1.06,1.06 0 0 0 -0.56,0.2 L 88.81,68.3 a 10,10 0 0 0 -2,0.33 12.73,12.73 0 0 0 -2,0 l -1.61,0.14 -0.75,-0.08 c 0,-0.48 0.89,-2.81 2.79,-7 a 6.11,6.11 0 0 1 1.54,-2.64 1.08,1.08 0 0 1 0.46,0.11 l 1.15,-0.39 0.59,0.09 a 13.45,13.45 0 0 0 3.45,-0.85 1.61,1.61 0 0 1 0.75,0.07 l 0.88,-0.21 2.61,-0.22 a 17.3,17.3 0 0 0 3.62,-0.74 v -0.27 c -0.48,0 -0.74,0 -0.75,-0.23 0,-0.36 -0.38,-0.51 -1.06,-0.46 v -0.27 l 0.72,-0.21 1.88,-0.16 v -0.27 c -0.07,0 -0.46,0 -1.16,0 v -0.29 l 0.73,-0.07 c 0.2,0 0.28,-0.11 0.26,-0.3 -1,0 -1.47,0 -1.48,-0.15 q -10.23,0.5 -10.26,0.19 a 1.17,1.17 0 0 0 -0.43,0.19 l -0.18,-0.28 q 2.71,-5.76 3.18,-5.8 a 1.61,1.61 0 0 1 -0.23,0.72 v 0.12 h 0.29 c 0.72,-1.71 1.32,-2.6 1.83,-2.64 2.14,-0.19 -0.3,-0.33 4.29,-1 a 0.9,0.9 0 0 0 0.41,0.11 q 2.7,-0.54 7.52,-1.14 v -0.27 l -1.71,0.16 v -0.27 a 0.93,0.93 0 0 0 0.51,-0.2 v 0.15 a 1,1 0 0 0 0.39,-0.19 1.22,1.22 0 0 1 0.68,0.08 9.92,9.92 0 0 1 1.43,-0.29 l 1.07,-0.1 c 0.26,-0.17 0.38,-0.32 0.37,-0.46 v -0.12 a 3.38,3.38 0 0 1 -0.94,-0.06 0.27,0.27 0 0 1 0.24,-0.3 l 2,-0.19 0.91,-0.23 c 0,0.1 0.06,0.14 0.13,0.14 a 1,1 0 0 0 0.39,-0.19 h 0.15 a 7.42,7.42 0 0 0 -0.4,1.09 h -0.26 a 1.14,1.14 0 0 0 -0.15,-0.48 h -0.13 c -2.42,6.75 -3.5,9.89 -5.74,15.07 -0.41,1.32 -0.75,2.06 -1.05,2.22 a 0.21,0.21 0 0 0 0.26,0.21 3.25,3.25 0 0 1 -0.46,1.93 c -1,3 -1.72,4.61 -2.08,4.91 l 0.23,1.41 a 0.22,0.22 0 0 1 -0.22,0.25 h -0.24 c 0,-0.39 -0.18,-0.58 -0.43,-0.55 h -0.13 a 5.54,5.54 0 0 0 -0.72,1.72 h 0.24 a 0.81,0.81 0 0 0 0.45,-0.75 h 0.48 l 0.28,0.1 a 1.5,1.5 0 0 0 -0.31,0.85 l 0.13,0.22 -0.32,0.75 v 0.12 a 1.51,1.51 0 0 1 0.91,0.26 1.63,1.63 0 0 0 0.74,-0.3 c 0.28,0 1.32,0 3.12,0 l 0.9,-0.31 A 21,21 0 0 0 108.5,71 h 0.39 l 0.21,-0.14 v 0.12 A 6.11,6.11 0 0 1 111,71 v 0.12 h -0.55 v 0.23 a 0.79,0.79 0 0 0 0.44,-0.17 c 0.14,0 0.22,0.07 0.23,0.23 a 3.28,3.28 0 0 0 -0.75,0.17 l -0.24,-0.08 c -0.38,0.1 -0.3,0.13 -0.56,0.15 l -0.38,-0.07 a 0.09,0.09 0 0 1 -0.09,0.11 0.2,0.2 0 0 0 0.23,0.21 h 0.39 l 2,-0.18 0.77,-0.17 c 0,0.07 0,0.1 0.1,0.09 l 0.37,-0.14 0.7,-0.06 c 0.54,0 0.53,-0.08 1.7,-0.27 0,-0.07 0,-0.1 0.07,-0.11 v 0.1 a 17.2,17.2 0 0 0 2.34,-0.45 v 0.06 c 0.48,-0.11 0.21,-0.08 0.34,-0.18 0,0.08 0,0.12 0.08,0.12 h 0.34 v -0.25 h -0.68 v 0 h -0.07 -0.09 v 0 a 3.59,3.59 0 0 1 -0.76,0.06 l -1.71,0.09 v -0.12 l 1,-0.13 h 0.34 l 0.2,-0.14 v 0.12 c 1.34,-0.11 1.82,0.22 8,-1.1 0.34,0 0.31,-0.31 0.52,-0.89 a 0.58,0.58 0 0 1 -0.33,-0.07 9.7,9.7 0 0 1 -1.77,0.26 c -0.08,0 -0.15,-0.07 -0.18,-0.21 v -0.1 h 1 a 2.4,2.4 0 0 0 1,-0.34 c 0,0.08 -0.19,0.13 -0.07,0.12 z M 79,68.77 h -0.44 a 8.27,8.27 0 0 1 0.7,-2 h 0.29 a 7.62,7.62 0 0 1 -0.55,2 z m 0.53,-2.12 v -0.12 c 0,-0.15 0.08,-0.25 0.29,-0.3 v 0.12 c 0,0.18 -0.08,0.28 -0.29,0.3 z m 5.82,4.5 v 0.12 l -0.73,0.07 v -0.12 z m -0.88,-0.07 c 0,0.15 -0.21,0.32 -0.7,0.48 L 82.88,71.49 H 82.59 V 71.22 L 84.5,71.04 Z M 90.4,44 H 90 v -0.15 c 0,-0.15 0.07,-0.25 0.26,-0.3 h 0.16 l 0.3,0.12 a 0.26,0.26 0 0 1 -0.27,0.3 z m 6.66,-1.3 h 0.14 v 0.27 h -0.4 a 0.27,0.27 0 0 1 0.24,-0.3 z m -1.68,0.59 -0.66,-0.07 V 43 a 7.16,7.16 0 0 0 1.69,-0.32 c 0,0.1 0.1,0.14 0.27,0.12 v 0.27 h -0.26 a 0.9,0.9 0 0 1 -0.53,-0.09 1.14,1.14 0 0 1 -0.51,0.19 z m 0.83,2.41 v -0.12 l 1.07,-0.1 v 0.12 z m 1.15,-0.93 v -0.15 h 0.52 v 0.15 z m 0.12,-1.83 h -0.14 l 0.12,-0.29 1.19,-0.11 v 0.15 a 7.18,7.18 0 0 0 -1.18,0.24 z m 0.61,2.57 v -0.27 h 0.52 q 0.27,0 0.28,0.25 l -0.78,0.07 z m 3.16,-4.3 -0.67,0.19 h -0.12 a 6.85,6.85 0 0 1 -1.21,0 c 0.87,-0.06 1.7,-0.12 2,-0.17 z m -0.72,3 v 0.12 l -0.92,0.08 v -0.12 z m 1.51,0.72 c 0,-0.11 -0.19,-0.19 -0.55,-0.22 l -0.92,0.26 H 99.86 C 99.7,44.86 99.62,44.78 99.61,44.73 h 0.82 l 1.84,-0.3 h 0.94 v 0.15 a 5.29,5.29 0 0 0 -1.18,0.24 z m 9.49,-2.45 h 0.21 a 3.58,3.58 0 0 1 1.11,-0.75 6.55,6.55 0 0 1 -1.57,3.27 l -0.52,-0.32 a 17.07,17.07 0 0 0 0.77,-2.22 z m -1.6,2.75 h 0.13 c -0.18,0.34 -0.34,0.51 -0.47,0.52 V 45.4 a 0.8,0.8 0 0 0 0.36,-0.16 z m -1,2.47 a 3.5,3.5 0 0 1 0.72,-1.72 V 46 c -0.13,0.93 -0.34,1.43 -0.61,1.46 v 0.59 a 1.32,1.32 0 0 0 -0.32,0.75 h -0.13 l -0.07,-0.81 c 0.15,0 0.27,-0.15 0.35,-0.39 z m -0.4,1.34 a 3.4,3.4 0 0 1 -0.27,1 h -0.13 v -0.35 c 0.18,-0.41 0.33,-0.62 0.43,-0.62 z M 101,70.8 v -0.1 h 0.24 v 0.35 c -0.13,0 -0.22,-0.07 -0.26,-0.23 z m 10.74,0.28 c 0,-0.08 0,-0.12 -0.13,-0.11 L 111,71 v -0.1 0 l 1.43,-0.12 v 0.12 a 1.26,1.26 0 0 0 -0.75,0.18 z m -0.72,-0.3 c 0.06,0 0,0.06 0,0.07 0,0.01 -0.07,0 0,-0.07 z m 0.07,-1.68 -0.8,0.07 V 69 H 111 l 0.63,-0.16 c 0,0.07 0,0.1 0.13,0.09 0.75,-0.13 0.68,-0.17 1,-0.2 0.12,0 0.2,0.07 0.21,0.21 l -1.93,0.17 z m 2.8,-0.24 A 3.19,3.19 0 0 0 113.1,68.8 v -0.1 l 0.72,-0.07 v 0.1 c -0.07,0 0.2,0 0.07,0.12 z m 0.06,-0.13 v -0.1 h 0.39 v 0.1 z m 0.87,-0.07 v -0.1 a 0.68,0.68 0 0 0 0.28,-0.15 0.28,0.28 0 0 1 0.32,0.26 z m 1.11,-0.14 V 68.4 h 0.48 v 0.12 z m 0.66,-0.06 c 0,-0.14 0,-0.22 0.17,-0.24 l 0.16,0.21 a 0.09,0.09 0 0 1 0.07,-0.11 l 0.12,0.22 -0.52,-0.07 z m -7,3 v -0.23 h -0.07 v 0.23 z m 16.37,-4.24 c 0.07,0 0.11,-0.09 -0.07,-0.12 -0.18,-0.03 0.09,0.12 -0.09,0.13 v 0.08 l 0.1,-0.07 -0.1,0.08 v 0 l -0.2,0.25 0.39,-0.14 v 0 -0.23 z m 0.68,0.53 h -0.07 v 0.23 h 0.55 c 0,-0.15 -0.37,-0.2 -0.49,-0.2 z m -0.85,-0.41 z"
       id="path2" />
    <g
       id="g294">
      <path
         fill="#f9dc3e"
         d="m 90,50.13 v 0.15 h 0.31 a 1.18,1.18 0 0 1 0.09,-0.43 v -0.27 c -0.13,0 -0.26,0.21 -0.38,0.58 z M 87,43 V 42.73 H 86.56 V 43 Z m -8.52,16 a 14.07,14.07 0 0 0 -2.35,-3 c 0,-0.32 0.5,-0.79 1.59,-1.42 L 80.84,52 a 7.79,7.79 0 0 0 1.23,-4.31 v -0.46 c -0.12,-1.38 -1.12,-2.49 -3,-3.34 q -1.68,-1.13 -6,-1.25 a 35.58,35.58 0 0 0 -9.41,2.58 38.64,38.64 0 0 1 -3.63,2.29 v 0.23 a 0.87,0.87 0 0 0 0.36,-0.16 0.21,0.21 0 0 1 0.26,0.21 l 0.23,-0.12 h 0.11 v 0.1 a 12.79,12.79 0 0 1 -2.52,2 l 0.13,0.24 h -0.11 l -0.28,-0.1 c 0,0.08 -0.11,0.14 -0.34,0.16 v 0.1 l 0.27,0.34 a 1,1 0 0 1 -0.39,-0.09 1.88,1.88 0 0 0 -1.16,0.63 l 0.16,-0.69 a 56.27,56.27 0 0 0 1.16,-6.5 v -0.12 a 4.73,4.73 0 0 1 -1.13,-1.05 3.71,3.71 0 0 0 0,-0.49 v -0.1 h -0.11 q -1.85,2.77 -7.11,9.45 -4,4.75 -4.14,5.28 c -1.09,1.13 -1.61,1.81 -1.56,2 -0.29,0.19 -0.41,0.37 -0.36,0.58 a 0.12,0.12 0 0 1 -0.16,-0.09 3.17,3.17 0 0 1 -2.08,1.45 l -1,0.22 a 0.23,0.23 0 0 0 -0.19,0.28 v 0.12 l 0.36,-0.08 v 0.1 l -0.82,0.32 -1.45,0.34 H 37.4 c -0.11,0.11 0.61,0 0.33,0.06 l -1,0.22 c -0.58,0.13 -0.89,0.08 -1,-0.15 h -0.11 a 0.54,0.54 0 0 1 0,0.24 l -0.06,-0.23 -0.76,0.18 q -0.08,-0.53 -3.09,-3.86 c 0,-0.43 0.67,-1.05 2.12,-1.86 L 38,53.14 q 1.37,-1.76 1.63,-5.65 l -0.06,-0.61 c -0.16,-1.83 -1.48,-3.3 -4,-4.44 -1.47,-1 -4.12,-1.53 -7.94,-1.61 a 47.82,47.82 0 0 0 -12.36,3.37 47.39,47.39 0 0 1 -4.78,3 v 0.32 a 1.25,1.25 0 0 0 0.48,-0.19 0.27,0.27 0 0 1 0.34,0.26 l 0.32,-0.18 h 0.16 v 0.15 a 18.64,18.64 0 0 1 -3.34,2.6 l 0.18,0.28 H 8.49 L 8.15,50.32 c 0,0.09 -0.15,0.16 -0.48,0.19 v 0.17 l 0.37,0.41 a 1.36,1.36 0 0 1 -0.5,-0.1 3.17,3.17 0 0 0 -2.13,1.57 l 0.18,0.28 A 4.47,4.47 0 0 1 6.66,52 v 0.46 a 1.53,1.53 0 0 0 -0.48,0.19 l 0.38,0.58 a 12.63,12.63 0 0 1 2.43,-2 c 0.44,0.11 0.67,0.25 0.68,0.4 h 0.34 a 26,26 0 0 1 7.14,-3.86 v 0.32 q -0.66,1 -0.89,1 a 1,1 0 0 0 0.23,0.59 q 0.06,0.6 -3.21,8.1 Q 6,75.13 0.92,83.47 a 1.08,1.08 0 0 0 0.2,0.45 4.17,4.17 0 0 0 1.57,-0.6 h 0.18 v 0.32 H 3.18 L 3.5,83.46 c 0,0.09 0.11,0.14 0.33,0.12 v 0.32 a 2.83,2.83 0 0 1 -0.52,1.42 7.37,7.37 0 0 0 -1.08,2.4 v 0.15 h 0.31 a 19.55,19.55 0 0 0 3.06,-4.41 48.85,48.85 0 0 0 9,-3.38 8.39,8.39 0 0 0 4.74,-1.63 v -0.17 l -0.78,0.23 h -0.18 v -0.17 a 7.07,7.07 0 0 0 3.17,-1 q 4.46,-3.44 6.74,-4.87 4.68,-3.44 6.08,-6.7 l 0.52,-0.12 a 6.81,6.81 0 0 0 0.75,0 c 0,-0.08 0,-0.13 0.1,-0.15 0.7,-0.07 0.36,0 0.81,-0.06 L 37.69,65 h 0.2 l -0.09,0.06 a 1.14,1.14 0 0 0 0.43,0 l 0.08,0.34 -5.31,8.45 -1.18,1.48 -0.58,1.94 h 0.11 l 0.58,-0.24 -0.19,0.75 0.06,0.22 0.16,0.2 c -0.07,0 -0.1,0.07 -0.08,0.15 v 0.12 l 0.24,-0.06 q 0.53,-0.46 0.45,-0.84 a 2.21,2.21 0 0 0 0.76,0.06 v 0.12 c -0.23,0.06 -0.35,0.24 -0.37,0.56 v 0.12 h 0.13 c 1.94,-2.12 6.69,-9.35 10.5,-14.27 q -0.18,-0.8 6,-2.22 h 0.13 q 0.22,1 -1,4.67 A 12.58,12.58 0 0 0 48.07,69 18.69,18.69 0 0 0 47.15,72.22 L 45.69,77 a 43.46,43.46 0 0 0 -2.16,7.71 1,1 0 0 1 0.4,0 l 0.21,-0.18 a 0.12,0.12 0 0 0 0.16,0.09 l -0.08,-0.34 h 0.63 c 0.19,0 0.34,-0.28 0.48,-0.71 0,-0.64 0.1,-1 0.39,-1.06 a 10.29,10.29 0 0 1 0.72,-2.32 10.29,10.29 0 0 1 0.81,-2.6 c 0.55,-2 1,-3 1.21,-3.06 l 0.06,0.24 -0.4,1 A 50.68,50.68 0 0 1 46,83.14 l 0.21,0.89 h 0.13 q 2.6,-5.59 7.48,-22.14 a 2.89,2.89 0 0 1 1.39,-2.25 l -0.19,-0.2 v -0.1 A 1.27,1.27 0 0 0 55.8,58.9 c 0,-0.08 -0.34,-0.21 -1,-0.37 l 1.62,-7 a 2.41,2.41 0 0 1 0.62,-0.48 v 0.35 a 0.87,0.87 0 0 0 -0.36,0.16 L 57,52 a 10,10 0 0 1 1.83,-1.57 c 0.34,0.09 0.5,0.21 0.52,0.32 h 0.24 A 19.75,19.75 0 0 1 65,47.85 v 0.23 q -0.49,0.74 -0.67,0.75 a 1,1 0 0 0 0.15,0.45 42.49,42.49 0 0 1 -2.41,6.16 A 167.41,167.41 0 0 1 52.66,75 0.87,0.87 0 0 0 52.83,75.34 3,3 0 0 0 54,74.88 h 0.11 v 0.23 h 0.26 l 0.23,-0.12 q 0,0.1 0.25,0.08 v 0.25 a 2.12,2.12 0 0 1 -0.4,1.06 5.31,5.31 0 0 0 -0.85,1.82 v 0.12 h 0.24 A 14.72,14.72 0 0 0 56.16,74.97 37.55,37.55 0 0 0 63,72.36 6.39,6.39 0 0 0 66.62,71.12 V 71 l -0.61,0.18 H 65.9 v -0.12 a 5.36,5.36 0 0 0 2.4,-0.77 c 2.25,-1.73 4,-3 5.12,-3.7 C 77,64 78.68,61.46 78.48,59 Z m -0.62,0.16 0.08,0.94 c -0.11,0.23 -0.23,0.35 -0.34,0.36 l -0.14,-1.6 c 0.26,0.09 0.39,0.19 0.4,0.3 z M 7.31,51.62 H 7.15 v -0.29 l 0.64,-0.06 v 0.15 A 1.24,1.24 0 0 0 7.32,51.61 Z M 4.17,83 a 2,2 0 0 0 -1,-0.21 v -0.46 c 0,-0.18 0.08,-0.3 0.31,-0.34 0.23,-0.04 0.33,0.13 0.34,0.43 a 6.78,6.78 0 0 1 0.89,-1 l 0.34,0.14 C 4.94,82.49 4.65,82.97 4.19,83 Z M 37.72,47.9 c -0.16,0 -0.48,-0.48 -0.93,-1.45 v -0.29 c 0.3,0 0.61,0.46 0.93,1.45 z m -0.45,-3.48 -0.13,0.31 -4.56,-1.9 q 4.56,0.15 4.69,1.59 z M 18,61 17.36,61.06 V 60.77 L 18,60.71 Z m -0.52,-9.92 h 0.16 v 0.46 c -0.15,0 -0.34,0.23 -0.59,0.66 v -0.32 c 0.29,-0.34 0.44,-0.61 0.42,-0.79 z m -1.35,3.19 0.06,0.61 H 16.03 L 16,54.25 Z m -0.71,1.14 h 0.31 c 0,0.5 -0.17,0.77 -0.42,0.79 h -0.16 a 1.46,1.46 0 0 0 0.27,-0.77 z M 14.92,57 h 0.18 v 0.15 l -0.29,0.48 H 14.5 v -0.15 a 0.4,0.4 0 0 0 0.42,-0.49 z m -0.52,1.43 -0.09,0.76 H 14.15 L 14.08,58.44 H 14.4 Z M 9.17,73.25 c -0.21,1 -0.43,1.57 -0.66,1.59 v -0.15 a 1.67,1.67 0 0 1 0.67,-1.44 z m -1,2.08 v 0.15 a 0.27,0.27 0 0 1 -0.28,0.34 v -0.15 q 0,-0.27 0.28,-0.34 z m -0.28,4.31 h 0.48 v 0.17 A 1.25,1.25 0 0 0 7.89,80 H 7.58 c 0,-0.16 0.08,-0.28 0.28,-0.34 z m 13.79,-4.26 a 25.56,25.56 0 0 0 -4.8,2.73 Q 12.51,79.65 12.55,80 A 48,48 0 0 0 7.38,82.3 1.86,1.86 0 0 1 6.53,82.08 1.37,1.37 0 0 1 7.24,80.78 2.75,2.75 0 0 1 8.55,81 12.78,12.78 0 0 1 11.08,80.17 v -0.32 l -1,0.08 a 13.17,13.17 0 0 1 2.8,-1.31 h 0.48 v 0.15 c -0.83,0.07 -1.29,0.32 -1.39,0.75 0,0.2 0.13,0.28 0.34,0.26 0.62,-0.39 0.93,-0.62 0.92,-0.69 Q 15,78.75 23.04,73.96 v 0.29 c 0,0.14 -0.45,0.53 -1.37,1.2 z m -8.22,2.7 a 3.17,3.17 0 0 0 2,-0.93 c 0.22,0 0.34,0.07 0.35,0.26 a 7.17,7.17 0 0 0 -2.19,1 H 13.46 V 78.1 Z M 26.77,67.9 22.66,71.16 a 40.68,40.68 0 0 1 -4.94,3 q -7.3,4 -9.07,4.17 H 8.47 q 0.22,-0.82 6.5,-13.31 a 35.47,35.47 0 0 0 8.71,-2.58 l 1,-0.08 a 5.59,5.59 0 0 1 4.49,1.15 l 0.06,0.61 c -0.74,2.13 -1.56,3.38 -2.44,3.75 z m -8,-4.52 0.66,-0.06 v 0.15 l -0.66,0.06 z M 28,61.81 h 0.48 c 0.45,0.21 0.68,0.4 0.7,0.57 v 0.15 A 1.36,1.36 0 0 1 28,61.81 Z m 1.31,-7.48 a 19,19 0 0 1 -3.52,2.62 c -0.63,0.06 -3,1 -7.07,2.76 A 1.29,1.29 0 0 0 18.07,59.6 v -0.29 a 3.81,3.81 0 0 1 0.79,-2.22 c 0.32,-1.68 0.66,-2.64 1,-2.87 l 3.4,-7.65 q -0.06,-0.71 2.18,-1.09 h 0.48 v 0.44 c 1.46,-0.22 2.38,-0.35 2.73,-0.38 2.7,-0.23 4.11,0.32 4.22,1.63 h 0.31 L 33.11,46.4 h 0.34 a 2.12,2.12 0 0 1 1.28,1.59 2.48,2.48 0 0 1 -0.69,1.59 c -0.21,0 -0.33,-0.13 -0.34,-0.43 h -0.34 l -0.07,0.93 q -2.05,3.07 -3,3.16 c -0.56,0.77 -0.9,1.16 -1,1.16 z m 2.09,5.36 a 1.2,1.2 0 0 0 -0.67,-0.26 v -0.46 h 0.31 l 0.68,0.4 a 0.27,0.27 0 0 1 -0.28,0.34 z m 2.16,2.56 c 0.3,0.12 0.48,0.25 0.51,0.37 h -0.15 v 0 h -0.09 l -0.22,0.18 -0.06,-0.62 z m 0.2,1.29 v -0.12 l 0.39,-0.09 v 0.12 z m 0.94,1.05 c 0.4,-0.07 0.6,-0.09 1.34,-0.26 v 0.12 l -1.42,0.33 a 1.87,1.87 0 0 0 0,-0.19 z m 1.38,0.59 a 6.06,6.06 0 0 0 -1.42,0.2 v -0.12 l 1.19,-0.38 0.57,-0.13 0.06,0.22 c -0.26,0.06 -0.07,0.06 -0.37,0.21 z m 1.26,-0.3 a 0.26,0.26 0 0 1 -0.32,-0.19 l 0.36,-0.08 a 0.22,0.22 0 0 1 0.3,0.19 z m 3.41,-3.67 v -0.12 l 0.59,-0.14 0.06,0.22 h -0.62 z m 3.64,22.34 a 0.92,0.92 0 0 0 0,-0.37 h 0.13 a 0.21,0.21 0 0 1 0.29,0.17 v 0.12 l -0.48,0.11 z M 47,62.16 h -0.26 a 7.38,7.38 0 0 1 -1.06,0.35 l -0.24,0.06 A 0.24,0.24 0 0 1 45.13,62.4 l 1.68,-0.4 0.56,-0.26 0.19,0.21 a 1.25,1.25 0 0 0 -0.58,0.24 z m 1.31,-0.42 v -0.12 a 0.71,0.71 0 0 0 0.32,-0.21 l 1.21,-0.28 v 0.12 a 9.36,9.36 0 0 0 -1.53,0.48 z m 0.19,-2.45 a 1,1 0 0 0 -0.34,0.21 c 0,-0.08 -0.19,-0.08 -0.5,0 -0.06,-0.23 0.84,-0.56 2.69,-1 l 0.26,-0.06 0.06,0.22 c -1.3,0.38 -2,0.6 -2.17,0.62 z m 3.26,-3.52 c -0.13,1.48 -0.65,2.32 -1.57,2.53 v -0.12 l -0.82,0.32 -0.36,0.08 a 0.91,0.91 0 0 1 -0.5,0 L 48.44,58.25 A 49.32,49.32 0 0 1 52,53.34 h 0.28 a 5.09,5.09 0 0 1 -0.48,2.39 z m 5.77,-4.94 H 57.42 V 50.6 h 0.48 v 0.12 a 1.57,1.57 0 0 0 -0.36,0.15 z m -2.4,23.86 a 1.49,1.49 0 0 0 -0.75,-0.17 v -0.35 q 0,-0.18 0.22,-0.25 c 0.16,0 0.25,0.09 0.27,0.34 a 4.09,4.09 0 0 1 0.67,-0.77 l 0.25,0.1 C 55.7,74.3 55.48,74.67 55.15,74.7 Z M 80.6,48 c -0.12,0 -0.35,-0.36 -0.72,-1.12 v -0.23 c 0.23,0 0.48,0.34 0.72,1.09 z m -0.34,-2.66 -0.11,0.24 -3.45,-1.44 c 2.3,0.07 3.49,0.48 3.56,1.2 z M 65.65,57.93 H 65.17 V 57.7 h 0.48 z m -0.4,-7.54 h 0.13 v 0.35 q -0.18,0 -0.45,0.5 v -0.23 a 1.08,1.08 0 0 0 0.31,-0.62 z m -1,2.42 v 0.46 h -0.13 v -0.46 z m -0.55,0.87 h 0.24 q 0,0.59 -0.31,0.61 H 63.5 a 1.26,1.26 0 0 0 0.2,-0.61 z m -0.39,1.19 h 0.11 V 55 l -0.21,0.37 h -0.24 v -0.12 c 0.25,0 0.36,-0.15 0.34,-0.38 z M 62.9,56 62.82,56.6 H 62.7 v -0.59 h 0.24 z m -4,11.3 q -0.24,1.17 -0.5,1.2 v -0.1 a 1.33,1.33 0 0 1 0.51,-1.1 z m -0.74,1.57 v 0.1 a 0.21,0.21 0 0 1 -0.22,0.27 v -0.12 q 0,-0.18 0.22,-0.25 z M 58,72.11 h 0.37 v 0.12 a 1.07,1.07 0 0 0 -0.36,0.14 h -0.24 q 0,-0.2 0.22,-0.25 z m 10.46,-3.23 a 21.75,21.75 0 0 0 -3.65,2.06 c -2.24,0.78 -3.34,1.27 -3.33,1.46 a 35.33,35.33 0 0 0 -3.9,1.72 1.45,1.45 0 0 1 -0.64,-0.18 1,1 0 0 1 0.54,-1 2.1,2.1 0 0 1 1,0.15 10.83,10.83 0 0 1 1.93,-0.62 v -0.23 l -0.75,0.07 a 10,10 0 0 1 2.14,-1 h 0.37 v 0.1 c -0.63,0.06 -1,0.24 -1.06,0.58 a 0.21,0.21 0 0 0 0.26,0.21 c 0.47,-0.31 0.69,-0.48 0.69,-0.54 q 1.34,-0.24 7.44,-3.9 v 0.23 c 0,0.09 -0.34,0.39 -1,0.9 z m -6.24,2 a 2.5,2.5 0 0 0 1.55,-0.7 c 0.16,0 0.25,0.06 0.26,0.21 a 5.92,5.92 0 0 0 -1.66,0.71 h -0.13 v -0.22 z m 10.08,-7.74 -3.1,2.5 A 30.16,30.16 0 0 1 65.41,68 q -5.53,3 -6.89,3.16 h -0.13 q 0.17,-0.63 4.95,-10.1 a 27.26,27.26 0 0 0 6.61,-2 L 70.7,59 a 4.2,4.2 0 0 1 3.4,0.89 v 0.46 C 73.57,62 73,62.9 72.28,63.18 Z m -6.09,-3.43 h 0.48 v 0.12 h -0.48 z m 7.05,-1.2 h 0.37 c 0.34,0.17 0.52,0.32 0.53,0.44 v 0.1 a 1,1 0 0 1 -0.91,-0.51 z m 1,-5.67 a 14.26,14.26 0 0 1 -2.66,2 A 35.66,35.66 0 0 0 66.2,57 1.23,1.23 0 0 0 65.71,56.93 V 56.7 A 2.92,2.92 0 0 1 66.27,55 c 0.24,-1.29 0.51,-2 0.79,-2.17 L 69.67,47 c 0,-0.34 0.52,-0.62 1.64,-0.84 h 0.37 v 0.35 q 1.65,-0.27 2.07,-0.31 c 2,-0.18 3.12,0.23 3.21,1.24 h 0.24 v -0.56 h 0.24 a 1.55,1.55 0 0 1 1,1.18 1.93,1.93 0 0 1 -0.49,1.22 c -0.16,0 -0.25,-0.09 -0.27,-0.34 h -0.24 l -0.07,0.7 C 76.25,51.16 75.5,52 75,52 c -0.42,0.57 -0.68,0.86 -0.8,0.87 z m 1.09,3.88 v -0.35 h 0.24 l 0.52,0.32 a 0.22,0.22 0 0 1 -0.22,0.25 1,1 0 0 0 -0.51,-0.2 z m -43.41,22.67 -0.24,0.06 -0.21,0.18 a 0.21,0.21 0 0 0 0.29,0.17 c 0.16,0 0.22,-0.13 0.19,-0.28 V 79.4 Z M 31,77.55 v 0.12 c 0.16,0 0.22,-0.13 0.19,-0.28 V 77.27 A 0.22,0.22 0 0 0 31,77.55 Z m 6.6,-12.39 0.18,-0.11 h -0.09 a 0.11,0.11 0 0 0 -0.08,0.13 z m 0,-3.21 0.28,-0.07 -0.06,-0.24 -0.28,0.07 z m 65.85,9.41 -0.63,-0.07 -0.11,0.24 v 0.12 l 3.77,-0.32 V 71.1 l -3,0.26 z m 3.45,-0.29 v 0.23 0 z M 122.7,69 v 0.23 l 0.41,0.07 v -0.23 z m -0.58,0 a 15.72,15.72 0 0 1 -3.78,0.57 v 0.23 h 0.26 0.14 v 0 l 0.31,-0.12 c 2.8,-0.31 3.13,-0.2 3.1,-0.51 V 69 Z m -17,-4.12 -0.25,-0.08 a 4.2,4.2 0 0 0 -0.3,1 v 0.1 c 0.2,0 0.37,-0.34 0.54,-1 z m -3.41,-1.84 V 63 h -0.13 l -0.23,0.15 0.13,0.22 c 0.18,0 0.26,-0.1 0.24,-0.26 z m 7.41,7.66 V 70.47 H 109 v 0.23 z m 15.37,-3.47 h 0.18 c 0.1,0 0.15,-0.09 0.14,-0.24 l -0.1,-0.22 a 3,3 0 0 0 -1.46,0.37 v -0.12 l -0.77,0.07 c 0,-0.23 -0.08,-0.35 -0.19,-0.34 h -0.4 c -0.47,0 -0.69,0 -0.92,0.2 0,-0.08 0,-0.12 -0.08,-0.12 h -0.45 l -0.26,0.15 c 0,-0.08 0,-0.12 -0.08,-0.12 L 119.94,67 v 0 h -0.62 -0.15 v 0.23 l 0.32,0.08 h 0.3 a 0.54,0.54 0 0 0 0.34,0.07 l 0.26,-0.13 v 0.1 a 19.08,19.08 0 0 1 -2.46,0.47 0.43,0.43 0 0 0 -0.25,-0.1 v 0 a 0.2,0.2 0 0 1 -0.19,-0.21 l 0.52,-0.07 a 3.19,3.19 0 0 0 0.35,0.09 c 0.42,-0.21 0.44,-0.29 0.66,-0.31 v -0.23 a 15.19,15.19 0 0 1 -2.66,0.25 h -0.08 v -0.23 c 2.31,-0.28 1.54,-0.12 2.33,-0.34 0,0.08 0,0.12 0.08,0.12 a 0.54,0.54 0 0 1 0.32,-0.16 h 0.16 a 8.46,8.46 0 0 0 2.68,-0.35 v 0.1 l 0.26,-0.13 h 0.24 c 0,-0.23 0.34,-0.27 0.46,-0.28 v -0.25 c -2.81,0.57 -3.55,0.41 -4.33,0.63 v -0.1 a 3.41,3.41 0 0 1 -1,0.08 0.49,0.49 0 0 0 -0.23,0.15 c 0,-0.08 0,-0.12 -0.09,-0.12 v 0 l -2.39,0.39 c 0,-0.07 0,-0.1 -0.09,-0.09 a 12.17,12.17 0 0 1 -2.56,0.46 0.78,0.78 0 0 0 -0.31,0.13 c 0,-0.07 0,-0.1 -0.13,-0.09 l -1,0.08 -0.68,0.17 c 0,-0.07 0,-0.1 -0.13,-0.09 a 5.41,5.41 0 0 1 -1,0.19 v 0 c -0.17,0 0.08,0 0,-0.1 l -0.21,0.12 c -0.3,0 -0.14,0 -1.16,0 -1.8,0.22 -1.6,0.25 -1.8,0.26 h -0.67 a 0.09,0.09 0 0 1 -0.1,0.11 c -0.76,-0.1 -1.16,-0.22 -1.16,-0.36 q 0.15,-1.09 0.53,-1.12 h 0.13 l -0.11,0.24 h 0.13 c 0.24,-0.13 0.35,-0.25 0.34,-0.36 v -0.25 h -0.24 v -0.23 a 0.84,0.84 0 0 1 0.07,-0.47 l 0.55,-0.89 v 0.23 h 0.26 v -0.23 l -0.15,-0.21 a 1,1 0 0 1 0.47,-0.27 v -0.12 h -0.35 v -0.35 a 10,10 0 0 0 1,-2.57 l 0.25,0.1 c 0.16,0 0.23,-0.1 0.22,-0.27 h -0.24 v -0.1 a 0.89,0.89 0 0 1 0.09,-0.49 1.56,1.56 0 0 0 0.52,-1.22 c 0.07,0 0.11,0 0.12,0.11 0.33,-0.19 0.58,-0.68 0.76,-1.5 a 46.87,46.87 0 0 0 2.47,-6.25 c 2.05,-5.52 2,-6.1 2.25,-7.41 h -0.24 a 0.84,0.84 0 0 1 -0.09,0.48 1,1 0 0 0 -0.39,-0.09 v -0.1 a 2.83,2.83 0 0 1 0.61,-1.71 h 0.11 l 0.21,0.8 h 0.24 a 7.3,7.3 0 0 1 0.19,-1 c 0,-0.12 -0.1,-0.2 -0.29,-0.21 l -0.23,0.15 c 0,-0.17 0,-0.61 0,-1.3 h -0.12 a 0.91,0.91 0 0 1 -0.32,-0.51 l -1.33,0.13 a 1.22,1.22 0 0 0 -0.15,-0.41 c 0,-0.12 0.29,-0.24 0.9,-0.36 l 0.27,0.1 0.25,-0.15 c 0,0.08 0.06,0.12 0.15,0.11 l 0.25,-0.15 c 0,0.08 0.06,0.12 0.15,0.11 h 0.12 v -0.27 c -0.19,0 -0.68,0 -1.46,0 l -0.25,0.17 v -0.15 q -9.38,0.77 -10.65,0.89 c -0.11,0 -0.55,0 -1.32,0 0,0.1 -0.08,0.16 -0.27,0.18 L 98.91,40.5 98,40.73 a 6.06,6.06 0 0 1 -1.08,0 0.93,0.93 0 0 1 -0.51,0.2 l 2.67,-0.17 a 1.22,1.22 0 0 1 -0.65,0.21 0.9,0.9 0 0 1 -0.53,-0.09 15.15,15.15 0 0 1 -2,0.47 l -0.27,-0.1 -4.36,0.67 a 1.09,1.09 0 0 0 -0.59,-0.09 7.24,7.24 0 0 0 -1.16,0.25 l -2.11,0.88 0.16,0.26 A 1.17,1.17 0 0 0 88,43.05 l 0.75,0.07 -0.09,0.7 A 1.88,1.88 0 0 0 87.24,45 c -1,0.46 -1.55,0.78 -1.55,1 v 0.12 h 0.16 l 0.28,-0.15 0.33,0.39 v 0.54 q 0,0.25 -5.21,11 c -3,6.9 -4.6,10.67 -4.75,11.35 -1,0.29 -1.63,0.71 -1.81,1.27 0,0.18 0.33,0.3 0.92,0.34 v 0.27 l -0.27,0.45 v 0.54 q 0,0.42 2.26,0.64 c 0,-0.09 0,-0.15 0.14,-0.16 a 8.16,8.16 0 0 1 -0.28,2 h 0.16 a 3.47,3.47 0 0 0 0.88,-1.73 h 0.13 c 0.15,0 0.31,0.16 0.49,0.52 q -0.28,0.11 -2,4.45 l 0.16,0.26 h 0.16 q 2.05,-5.2 2.58,-5.75 2.7,-0.24 9.33,-1 l 0.28,-0.17 a 0.13,0.13 0 0 0 0.17,0.13 h 0.29 l 0.28,-0.17 a 0.13,0.13 0 0 0 0.17,0.13 L 94,70.87 c 0.89,-0.07 1.3,-0.34 1.27,-0.8 0,-0.12 0.51,-0.26 1.57,-0.41 a 1.28,1.28 0 0 1 0.46,0.08 c 0,-0.08 0.52,-0.17 1.58,-0.26 0,-0.56 0.2,-0.86 0.52,-0.89 v -0.27 a 4.63,4.63 0 0 0 -1,0.23 6.26,6.26 0 0 1 -1.33,-0.16 1.23,1.23 0 0 1 -0.43,0.17 l -2.33,0.07 -0.28,0.15 q 0,-0.13 -0.17,-0.11 h -0.13 l -0.3,0.15 c 0,-0.08 -0.25,-0.15 -0.74,-0.21 l -0.3,0.18 H 91.81 V 68.7 q 4.5,-0.49 4.44,-1.22 a 0.26,0.26 0 0 1 0.32,0.27 l 0.88,-0.22 v -0.27 l -7.18,0.2 c 0,0.09 0,0.15 -0.14,0.16 l -0.88,-0.07 a 1.06,1.06 0 0 0 -0.56,0.2 l -0.33,-0.12 a 10,10 0 0 0 -2,0.33 12.73,12.73 0 0 0 -2,0 L 82.75,68.1 81.9,68 c 0,-0.48 0.89,-2.81 2.79,-7 a 6.11,6.11 0 0 1 1.54,-2.64 1.08,1.08 0 0 1 0.46,0.11 l 1.15,-0.39 0.59,0.09 a 13.45,13.45 0 0 0 3.45,-0.85 1.62,1.62 0 0 1 0.75,0.07 L 93.51,57.18 96.09,57 a 17.3,17.3 0 0 0 3.62,-0.74 v -0.27 c -0.48,0 -0.74,0 -0.75,-0.23 0,-0.36 -0.38,-0.51 -1.06,-0.46 v -0.27 l 0.72,-0.21 1.88,-0.16 v -0.27 c -0.07,0 -0.46,0 -1.16,0 V 54.1 l 0.73,-0.07 c 0.2,0 0.28,-0.11 0.26,-0.3 -1,0 -1.47,0 -1.48,-0.15 q -10.23,0.5 -10.26,0.19 a 1.17,1.17 0 0 0 -0.43,0.19 l -0.18,-0.28 q 2.71,-5.76 3.18,-5.8 a 1.69,1.69 0 0 1 -0.22,0.72 v 0.12 h 0.29 c 0.72,-1.71 1.32,-2.6 1.83,-2.64 2.14,-0.19 -0.3,-0.33 4.29,-1 a 0.89,0.89 0 0 0 0.41,0.11 q 2.7,-0.55 7.52,-1.14 v -0.27 l -1.71,0.16 v -0.27 a 0.93,0.93 0 0 0 0.51,-0.2 v 0.15 a 1,1 0 0 0 0.39,-0.19 1.23,1.23 0 0 1 0.68,0.08 9.92,9.92 0 0 1 1.44,-0.29 l 1.07,-0.1 c 0.26,-0.17 0.38,-0.32 0.37,-0.46 v -0.12 a 3.38,3.38 0 0 1 -0.94,-0.06 0.27,0.27 0 0 1 0.24,-0.3 l 2,-0.19 0.91,-0.23 c 0,0.1 0.06,0.14 0.13,0.14 a 1,1 0 0 0 0.39,-0.19 h 0.15 a 7.45,7.45 0 0 0 -0.4,1.09 h -0.26 a 1.14,1.14 0 0 0 -0.15,-0.48 h -0.13 c -2.42,6.75 -3.5,9.89 -5.74,15.07 -0.41,1.32 -0.75,2.06 -1.05,2.22 a 0.21,0.21 0 0 0 0.26,0.21 3.25,3.25 0 0 1 -0.46,1.93 c -1,3 -1.72,4.61 -2.08,4.91 L 101,68 a 0.22,0.22 0 0 1 -0.22,0.25 h -0.24 c 0,-0.39 -0.18,-0.58 -0.43,-0.55 h -0.13 a 5.54,5.54 0 0 0 -0.72,1.72 h 0.24 a 0.81,0.81 0 0 0 0.45,-0.75 h 0.48 l 0.28,0.1 a 1.49,1.49 0 0 0 -0.31,0.85 l 0.13,0.22 -0.32,0.75 v 0.12 a 1.51,1.51 0 0 1 0.91,0.26 1.63,1.63 0 0 0 0.74,-0.3 c 0.28,0 1.32,0 3.12,0 l 0.9,-0.31 a 20.9,20.9 0 0 0 2.23,-0.07 h 0.39 l 0.21,-0.14 v 0.12 a 6.11,6.11 0 0 1 1.84,0.07 v 0.12 H 110 v 0.23 a 0.79,0.79 0 0 0 0.44,-0.17 c 0.14,0 0.22,0.07 0.23,0.23 a 3.28,3.28 0 0 0 -0.75,0.17 l -0.24,-0.08 c -0.38,0.1 -0.3,0.13 -0.56,0.15 l -0.38,-0.07 a 0.09,0.09 0 0 1 -0.09,0.11 0.2,0.2 0 0 0 0.23,0.21 h 0.39 l 2,-0.18 0.77,-0.17 c 0,0.07 0,0.1 0.1,0.09 l 0.37,-0.14 0.7,-0.06 c 0.54,0 0.53,-0.08 1.71,-0.27 0,-0.07 0,-0.1 0.07,-0.11 v 0.1 A 17.2,17.2 0 0 0 117.4,70 v 0.06 c 0.48,-0.11 0.21,-0.08 0.34,-0.18 0,0.08 0,0.12 0.08,0.12 h 0.34 v -0.25 h -0.68 v 0 h -0.07 -0.09 v 0 a 3.59,3.59 0 0 1 -0.76,0.06 l -1.71,0.09 v -0.12 l 1,-0.13 h 0.34 l 0.2,-0.14 v 0.12 c 1.34,-0.11 1.82,0.22 8,-1.1 0.34,0 0.31,-0.31 0.52,-0.89 a 0.58,0.58 0 0 1 -0.33,-0.07 9.7,9.7 0 0 1 -1.77,0.26 c -0.08,0 -0.15,-0.07 -0.18,-0.21 v -0.1 h 1 a 2.4,2.4 0 0 0 1,-0.34 c 0,0.08 -0.2,0.13 -0.08,0.12 z M 78.61,68 h -0.44 a 8.26,8.26 0 0 1 0.7,-2 h 0.29 a 7.62,7.62 0 0 1 -0.55,2 z m 0.53,-2.12 v -0.12 c 0,-0.15 0.08,-0.25 0.29,-0.3 v 0.12 c 0,0.18 -0.08,0.28 -0.29,0.3 z M 85,70.4 v 0.12 l -0.73,0.07 v -0.12 z m -0.88,-0.07 c 0,0.15 -0.21,0.32 -0.7,0.48 l -0.89,-0.07 h -0.29 v -0.27 l 1.91,-0.18 z M 90,43.22 h -0.44 v -0.15 c 0,-0.15 0.07,-0.25 0.26,-0.3 h 0.16 l 0.3,0.12 a 0.26,0.26 0 0 1 -0.27,0.3 z m 6.66,-1.3 h 0.14 v 0.27 h -0.4 a 0.27,0.27 0 0 1 0.24,-0.3 z M 95,42.5 94.34,42.43 V 42.3 A 7.15,7.15 0 0 0 96,42 c 0,0.1 0.1,0.14 0.27,0.12 v 0.27 h -0.26 a 0.9,0.9 0 0 1 -0.53,-0.09 1.14,1.14 0 0 1 -0.51,0.19 z m 0.83,2.41 v -0.12 l 1.07,-0.1 v 0.12 z M 96.94,44 v -0.15 h 0.52 V 44 Z m 0.12,-1.83 h -0.14 l 0.12,-0.29 1.19,-0.11 v 0.15 a 7.2,7.2 0 0 0 -1.18,0.24 z m 0.61,2.57 v -0.27 h 0.52 q 0.27,0 0.28,0.25 l -0.78,0.07 z m 3.16,-4.3 -0.67,0.19 H 100 a 6.85,6.85 0 0 1 -1.21,0 c 0.87,-0.06 1.7,-0.12 2,-0.17 z m -0.72,3 v 0.12 l -0.92,0.08 v -0.12 z m 1.51,0.72 c 0,-0.11 -0.19,-0.19 -0.55,-0.22 l -0.92,0.26 H 99.44 C 99.28,44.09 99.2,44.01 99.19,43.96 h 0.82 l 1.84,-0.3 h 0.94 v 0.15 a 5.28,5.28 0 0 0 -1.18,0.24 z m 9.49,-2.45 h 0.21 a 3.57,3.57 0 0 1 1.11,-0.75 6.55,6.55 0 0 1 -1.57,3.27 l -0.52,-0.32 a 17,17 0 0 0 0.77,-2.22 z m -1.6,2.75 h 0.13 c -0.18,0.34 -0.34,0.51 -0.47,0.52 v -0.35 a 0.79,0.79 0 0 0 0.36,-0.16 z m -1,2.47 a 3.5,3.5 0 0 1 0.72,-1.72 v 0.12 c -0.13,0.93 -0.34,1.43 -0.61,1.46 v 0.59 a 1.32,1.32 0 0 0 -0.32,0.75 h -0.13 l -0.07,-0.81 c 0.15,0 0.27,-0.15 0.35,-0.39 z m -0.4,1.34 a 3.41,3.41 0 0 1 -0.27,1 h -0.13 v -0.35 c 0.18,-0.41 0.33,-0.62 0.43,-0.62 z m -7.52,21.82 v -0.1 h 0.24 v 0.35 c -0.13,0 -0.22,-0.07 -0.26,-0.23 z m 10.74,0.28 c 0,-0.08 0,-0.12 -0.13,-0.11 l -0.61,0.06 V 70.2 h 0.06 L 112,70 v 0.12 a 1.26,1.26 0 0 0 -0.75,0.18 z m -0.72,-0.3 c 0.06,0 0,0.06 0,0.07 0,0.01 -0.07,0 0,-0.07 z m 0.07,-1.68 -0.8,0.07 V 68.3 l 0.73,-0.07 0.63,-0.16 c 0,0.07 0,0.1 0.13,0.09 0.75,-0.13 0.68,-0.17 1,-0.2 0.12,0 0.2,0.07 0.21,0.21 l -1.93,0.17 z m 2.8,-0.24 a 3.19,3.19 0 0 0 -0.79,-0.06 V 68 l 0.72,-0.07 V 68 c -0.07,0 0.2,0 0.07,0.12 z m 0.06,-0.13 v -0.1 h 0.39 v 0.1 z m 0.87,-0.07 v -0.1 a 0.68,0.68 0 0 0 0.28,-0.15 0.28,0.28 0 0 1 0.32,0.26 z m 1.11,-0.14 V 67.69 H 116 v 0.12 z m 0.66,-0.06 c 0,-0.14 0,-0.22 0.17,-0.24 l 0.16,0.21 a 0.09,0.09 0 0 1 0.07,-0.11 l 0.12,0.22 -0.52,-0.07 z m 9.17,-1.08 z m 0.17,-0.12 c 0.07,0 0.11,-0.09 -0.07,-0.12 -0.18,-0.03 0.09,0.12 -0.09,0.13 v 0.08 l 0.1,-0.07 -0.1,0.08 v 0 l -0.2,0.25 0.39,-0.14 v 0 -0.23 z m 0.68,0.53 h -0.07 v 0.23 h 0.55 c 0,-0.15 -0.37,-0.2 -0.49,-0.2 z"
         id="path4" />
    </g>
  </g>
</svg>
