<?xml version="1.0" encoding="UTF-8" standalone="no"?>
<svg
   viewBox="0 0 16 16"
   version="1.1"
   id="svg6"
   sodipodi:docname="bootstrap.svg"
   width="16"
   height="16"
   inkscape:version="1.2.1 (9c6d41e410, 2022-07-14)"
   xmlns:inkscape="http://www.inkscape.org/namespaces/inkscape"
   xmlns:sodipodi="http://sodipodi.sourceforge.net/DTD/sodipodi-0.dtd"
   xmlns="http://www.w3.org/2000/svg"
   xmlns:svg="http://www.w3.org/2000/svg">
  <defs
     id="defs10" />
  <sodipodi:namedview
     id="namedview8"
     pagecolor="#ffffff"
     bordercolor="#666666"
     borderopacity="1.0"
     inkscape:showpageshadow="2"
     inkscape:pageopacity="0.0"
     inkscape:pagecheckerboard="0"
     inkscape:deskcolor="#d1d1d1"
     showgrid="false"
     inkscape:zoom="22.291667"
     inkscape:cx="11.95514"
     inkscape:cy="7.7607475"
     inkscape:window-width="1366"
     inkscape:window-height="715"
     inkscape:window-x="-8"
     inkscape:window-y="-8"
     inkscape:window-maximized="1"
     inkscape:current-layer="svg6" />
  <g
     id="g295"
     transform="scale(0.66666667)">
    <path
       fill="#543b79"
       d="M 22,0 H 2 A 2,2 0 0 0 0,2 v 20 a 2,2 0 0 0 2,2 h 20 a 2,2 0 0 0 2,-2 V 2 A 2,2 0 0 0 22,0 Z m -4.187,16.853 v 0.002 c -0.2,0.482 -0.517,0.907 -0.923,1.234 -0.42,0.34 -0.952,0.62 -1.607,0.82 -0.654,0.203 -1.432,0.305 -2.333,0.305 H 6.518 v -14 h 6.802 c 1.258,0 2.266,0.283 3.02,0.86 0.76,0.58 1.138,1.444 1.138,2.61 0,0.705 -0.172,1.31 -0.518,1.81 -0.344,0.497 -0.84,0.886 -1.48,1.156 v 0.046 c 0.854,0.18 1.515,0.585 1.95,1.215 0.435,0.63 0.658,1.426 0.658,2.387 0,0.538 -0.104,1.05 -0.3,1.528 z"
       id="path2" />
    <path
       fill="#543b79"
       d="m 15.037,13.405 c -0.41,-0.375 -0.986,-0.558 -1.73,-0.558 H 8.985 v 4.368 h 4.334 c 0.74,0 1.32,-0.192 1.73,-0.58 0.41,-0.385 0.62,-0.934 0.62,-1.64 -0.007,-0.69 -0.21,-1.224 -0.62,-1.59 z m -0.604,-2.823 h 0.004 c 0.396,-0.336 0.59,-0.817 0.59,-1.444 0,-0.704 -0.175,-1.204 -0.53,-1.49 -0.352,-0.285 -0.86,-0.433 -1.528,-0.433 h -4 v 3.863 h 4 c 0.583,0 1.08,-0.17 1.464,-0.496 z"
       id="path4" />
  </g>
</svg>
