<?xml version="1.0" encoding="UTF-8" standalone="no"?>
<svg
   width="16"
   height="16"
   viewBox="0 0 16 16"
   version="1.1"
   preserveAspectRatio="xMidYMid"
   id="svg27"
   sodipodi:docname="chrome-seeklogo.com.svg"
   inkscape:version="1.2.1 (9c6d41e410, 2022-07-14)"
   xmlns:inkscape="http://www.inkscape.org/namespaces/inkscape"
   xmlns:sodipodi="http://sodipodi.sourceforge.net/DTD/sodipodi-0.dtd"
   xmlns="http://www.w3.org/2000/svg"
   xmlns:svg="http://www.w3.org/2000/svg">
  <sodipodi:namedview
     id="namedview29"
     pagecolor="#ffffff"
     bordercolor="#666666"
     borderopacity="1.0"
     inkscape:showpageshadow="2"
     inkscape:pageopacity="0.0"
     inkscape:pagecheckerboard="0"
     inkscape:deskcolor="#d1d1d1"
     showgrid="false"
     inkscape:zoom="32"
     inkscape:cx="7.984375"
     inkscape:cy="8"
     inkscape:window-width="1366"
     inkscape:window-height="715"
     inkscape:window-x="-8"
     inkscape:window-y="-8"
     inkscape:window-maximized="1"
     inkscape:current-layer="svg27" />
  <defs
     id="defs7">
    <linearGradient
       x1="127.46958"
       y1="82.259033"
       x2="127.46958"
       y2="173.66614"
       id="linearGradient-1"
       gradientUnits="userSpaceOnUse">
      <stop
         stop-color="#86BBE5"
         offset="0%"
         id="stop2" />
      <stop
         stop-color="#1072BA"
         offset="100%"
         id="stop4" />
    </linearGradient>
  </defs>
  <g
     id="g25"
     transform="matrix(0.06232023,0,0,0.06232023,0.01588636,0.00725995)">
    <path
       d="m 127.78872,0.0352132 c 0,0 75.32105,-3.3804677 115.25282,72.3279228 H 121.37992 c 0,0 -22.959012,-0.739477 -42.572767,27.114168 C 73.17304,111.16809 67.116369,123.211 73.912517,146.9447 64.123246,130.35928 21.937827,56.904539 21.937827,56.904539 c 0,0 29.755158,-53.8762034 105.850893,-56.8693258 z"
       fill="#ef3f36"
       id="path9" />
    <path
       d="m 239.13288,192.22889 c 0,0 -34.75544,66.9403 -120.2531,63.63026 10.56396,-18.27566 60.84842,-105.35791 60.84842,-105.35791 0,0 12.14855,-19.50812 -2.18322,-50.42531 -7.28913,-10.740029 -14.71912,-21.973041 -38.6641,-27.959286 19.26162,-0.176066 103.94938,0 103.94938,0 0,0 31.7271,52.714166 -3.69738,120.112246 z"
       fill="#fcd900"
       id="path11" />
    <path
       d="m 16.972765,192.75708 c 0,0 -40.600825,-63.55983 5.035488,-135.95818 10.528748,18.275653 60.813205,105.35791 60.813205,105.35791 0,0 10.845667,20.2828 44.755982,23.31114 12.92325,-0.95076 26.37469,-1.76066 43.55874,-19.4729 C 161.66382,182.75653 119.16149,256 119.16149,256 c 0,0 -61.552687,1.12682 -102.188725,-63.24292 z"
       fill="#61bc5b"
       id="path13" />
    <path
       d="m 118.84457,256.49298 17.11361,-71.41238 c 0,0 18.80386,-1.47895 34.57937,-18.76863 -9.78927,17.21925 -51.69298,90.18101 -51.69298,90.18101 z"
       fill="#5ab055"
       id="path15" />
    <path
       d="m 70.461623,129.0564 c 0,-31.480609 25.529574,-57.010183 57.010177,-57.010183 31.48061,0 57.01018,25.529574 57.01018,57.010183 0,31.4806 -25.52957,57.01017 -57.01018,57.01017 C 95.991197,186.03136 70.461623,160.537 70.461623,129.0564 Z"
       fill="#ffffff"
       id="path17" />
    <path
       d="m 80.004402,129.0564 c 0,-26.19863 21.233558,-47.467404 47.467398,-47.467404 26.19863,0 47.4674,21.233564 47.4674,47.467404 0,26.19862 -21.23356,47.4674 -47.4674,47.4674 -26.19862,0 -47.467398,-21.26878 -47.467398,-47.4674 z"
       fill="url(#linearGradient-1)"
       id="path19"
       style="fill:url(#linearGradient-1)" />
    <path
       d="m 242.79505,72.151857 -70.46163,20.670151 c 0,0 -10.63438,-15.599449 -33.48775,-20.670151 19.82503,-0.10564 103.94938,0 103.94938,0 z"
       fill="#eaca05"
       id="path21" />
    <path
       d="M 72.539202,144.33893 C 62.644292,127.1901 21.937827,56.904539 21.937827,56.904539 L 74.123796,108.5271 c 0,0 -5.352407,11.02173 -3.345254,26.79725 z"
       fill="#df3a32"
       id="path23" />
  </g>
</svg>
