<?xml version="1.0" encoding="UTF-8" standalone="no"?>
<svg
   data-name="Layer 1"
   viewBox="0 0 16 16"
   version="1.1"
   id="svg28"
   width="16"
   height="16"
   xmlns="http://www.w3.org/2000/svg"
   xmlns:svg="http://www.w3.org/2000/svg">
  <defs
     id="defs32" />
  <g
     id="g328"
     transform="matrix(0.52172124,0,0,0.52172124,-0.26706602,-0.4288606)">
    <rect
       width="9"
       height="33"
       x="-27.127417"
       y="-17.030331"
       fill="#e0e0e2"
       rx="2"
       ry="2"
       transform="rotate(-135)"
       id="rect2" />
    <line
       x1="18.452999"
       x2="15.625"
       y1="12.839"
       y2="10.011"
       fill="none"
       stroke="#000000"
       stroke-linecap="round"
       stroke-linejoin="round"
       id="line4" />
    <line
       x1="14.918"
       x2="13.504"
       y1="13.547"
       y2="12.132"
       fill="none"
       stroke="#000000"
       stroke-linecap="round"
       stroke-linejoin="round"
       id="line6" />
    <line
       x1="12.797"
       x2="11.382"
       y1="15.668"
       y2="14.254"
       fill="none"
       stroke="#000000"
       stroke-linecap="round"
       stroke-linejoin="round"
       id="line8" />
    <path
       d="M 29.413,6.122 25.878,2.586 a 2.56,2.56 0 0 0 -3.535,0 l -0.707,0.707 v 0 l -2.12,2.12 v 0 0 l -2.122,2.122 v 0 0 l -10.6,10.6 v 0 0 l -2.128,2.128 v 0 l -2.121,2.121 v 0 L 1.839,23.09 a 2.5,2.5 0 0 0 0,3.535 l 3.535,3.536 a 2.5,2.5 0 0 0 3.535,0 L 29.413,9.657 a 2.5,2.5 0 0 0 0,-3.535 z M 28.706,8.95 8.2,29.457 a 1.536,1.536 0 0 1 -2.121,0 L 2.544,25.921 a 1.5,1.5 0 0 1 0,-2.121 l 0.354,-0.354 2.474,2.475 A 0.5,0.5 0 0 0 6.079,25.214 L 3.6,22.739 l 1.414,-1.414 1.06,1.06 A 0.5,0.5 0 0 0 6.781,21.678 L 5.721,20.618 7.14,19.2 8.2,20.264 a 0.5,0.5 0 0 0 0.707,-0.707 l -1.06,-1.057 9.9,-9.9 1.06,1.06 a 0.5,0.5 0 0 0 0.707,-0.707 l -1.06,-1.06 1.414,-1.414 1.061,1.06 A 0.5,0.5 0 0 0 21.636,6.832 L 20.575,5.772 21.99,4.357 24.465,6.832 A 0.5,0.5 0 0 0 25.172,6.125 L 22.7,3.647 23.054,3.293 a 1.5,1.5 0 0 1 2.121,0 l 3.535,3.536 a 1.5,1.5 0 0 1 0,2.121 z"
       id="path10" />
    <path
       fill="#f5bdaf"
       d="m 29.5,26.667 -2.83,2.83 a 2,2 0 0 1 -2.83,0 l -18.392,-18.39 -2.29,-5.97 -1.24,-3.22 3.23,1.24 5.96,2.29 18.392,18.391 a 2,2 0 0 1 0,2.829 z"
       id="path12" />
    <polygon
       fill="#57565e"
       points="21.638,24.467 24.467,21.638 25.878,20.217 27.367,21.717 25.958,23.128 23.128,25.958 21.717,27.367 20.217,25.878 "
       id="polygon14" />
    <path
       fill="#ed4569"
       d="m 29.5,26.667 -2.83,2.83 a 2,2 0 0 1 -2.83,0 l -2.12,-2.13 1.41,-1.41 2.83,-2.83 1.41,-1.41 2.13,2.12 a 2,2 0 0 1 0,2.83 z"
       id="path16" />
    <path
       fill="#e13442"
       d="m 25.878,20.217 -1.41,1.42 L 11.7,8.867 a 2.006,2.006 0 0 1 -0.59,-1.42 v -2 z M 21.637,24.467 20.24,25.9 5.448,11.107 h 2 a 2.006,2.006 0 0 1 1.42,0.59 z"
       id="path18" />
    <path
       fill="#e0e0e2"
       d="m 29.492981,26.664553 -2.828428,2.828428 a 2,2 0 0 1 -2.828427,0 l -2.12132,-2.121321 5.656854,-5.656854 2.121321,2.12132 a 2,2 0 0 1 0,2.828427 z"
       id="path20" />
    <path
       fill="#57565e"
       d="m 5.148,3.157 v 0.01 a 3.191,3.191 0 0 1 -1.99,1.97 l -1.24,-3.22 z"
       id="path22" />
    <path
       fill="#ed4569"
       d="M 24.467,21.637 11.7,8.867 a 2.006,2.006 0 0 0 -1.42,-0.59 h -1 a 1,1 0 0 0 -1,1 v 1 a 2.006,2.006 0 0 0 0.59,1.42 l 12.77,12.77 z"
       id="path24" />
    <path
       d="M 29.85,23.485 26.239,19.874 V 19.867 H 26.232 L 11.465,5.1 A 0.5,0.5 0 0 0 11.298,4.991 H 11.291 L 2.1,1.452 A 0.5,0.5 0 0 0 1.454,2.098 l 3.535,9.192 v 0.007 a 0.5,0.5 0 0 0 0.109,0.168 l 14.761,14.758 0.007,0.01 0.01,0.007 1.488,1.488 2.121,2.121 a 2.531,2.531 0 0 0 0.389,0.318 c 0.025,0.017 0.053,0.027 0.079,0.042 a 2.469,2.469 0 0 0 0.357,0.188 l 0.024,0.007 a 2.475,2.475 0 0 0 1.851,0 h 0.008 a 2.468,2.468 0 0 0 0.367,-0.193 c 0.023,-0.014 0.048,-0.023 0.07,-0.038 a 2.53,2.53 0 0 0 0.389,-0.318 l 2.829,-2.828 A 2.5,2.5 0 0 0 29.85,23.485 Z M 11.611,6.661 25.172,20.221 24.465,20.927 12.05,8.513 A 1.493,1.493 0 0 1 11.611,7.451 Z M 11.347,9.224 23.758,21.635 21.635,23.758 9.224,11.347 A 1.5,1.5 0 0 1 8.78,10.28 v -1 a 0.5,0.5 0 0 1 0.5,-0.5 h 1 a 1.5,1.5 0 0 1 1.067,0.444 z M 2.789,2.789 4.467,3.434 A 2.66,2.66 0 0 1 3.432,4.462 Z m 1,2.6 A 3.647,3.647 0 0 0 5.4,3.792 L 10.611,5.8 V 7.451 A 2.51,2.51 0 0 0 10.647,7.816 2.51,2.51 0 0 0 10.281,7.78 h -1 a 1.5,1.5 0 0 0 -1.5,1.5 v 1 A 2.5,2.5 0 0 0 7.817,10.647 2.454,2.454 0 0 0 7.454,10.611 H 5.8 Z M 20.221,25.169 6.661,11.611 h 0.792 a 1.508,1.508 0 0 1 1.06,0.439 v 0 l 12.415,12.415 z m 0.707,0.707 1.035,-1.034 c 0.009,-0.008 0.021,-0.011 0.03,-0.02 0.009,-0.009 0.012,-0.021 0.02,-0.03 l 2.781,-2.78 c 0.009,-0.008 0.021,-0.011 0.029,-0.02 0.008,-0.009 0.012,-0.02 0.02,-0.029 l 1.036,-1.036 0.789,0.789 -4.949,4.95 z m 8.214,0.436 -2.829,2.828 a 1.5,1.5 0 0 1 -2.121,0 l -1.768,-1.768 4.949,-4.95 1.769,1.768 a 1.5,1.5 0 0 1 0.001,2.124 z"
       id="path26" />
  </g>
</svg>
