<?xml version="1.0" encoding="UTF-8" standalone="no"?>
<!-- Generator: Adobe Illustrator 24.1.0, SVG Export Plug-In . SVG Version: 6.00 Build 0)  -->

<svg
   version="1.1"
   id="Layer_1"
   x="0px"
   y="0px"
   viewBox="0 0 16 16"
   xml:space="preserve"
   sodipodi:docname="adobe-dreamweaver-seeklogo.com.svg"
   width="16"
   height="16"
   inkscape:version="1.2.1 (9c6d41e410, 2022-07-14)"
   xmlns:inkscape="http://www.inkscape.org/namespaces/inkscape"
   xmlns:sodipodi="http://sodipodi.sourceforge.net/DTD/sodipodi-0.dtd"
   xmlns="http://www.w3.org/2000/svg"
   xmlns:svg="http://www.w3.org/2000/svg"><defs
   id="defs19" /><sodipodi:namedview
   id="namedview17"
   pagecolor="#ffffff"
   bordercolor="#666666"
   borderopacity="1.0"
   inkscape:showpageshadow="2"
   inkscape:pageopacity="0.0"
   inkscape:pagecheckerboard="0"
   inkscape:deskcolor="#d1d1d1"
   showgrid="false"
   inkscape:zoom="32"
   inkscape:cx="7.984375"
   inkscape:cy="8"
   inkscape:window-width="1366"
   inkscape:window-height="715"
   inkscape:window-x="-8"
   inkscape:window-y="-8"
   inkscape:window-maximized="1"
   inkscape:current-layer="Layer_1" />
<style
   type="text/css"
   id="style2">
	.st0{fill:#470137;}
	.st1{fill:#FF61F6;}
</style>
<g
   id="Layer_2_1_"
   transform="matrix(0.06630841,0,0,0.06630841,0.0429908,0.24191603)">
	<g
   id="Surfaces">
		<g
   id="UI_UX_Surface">
			<g
   id="Outline_no_shadow">
				<path
   class="st0"
   d="m 42.5,0 h 155 C 221,0 240,19 240,42.5 v 149 C 240,215 221,234 197.5,234 H 42.5 C 19,234 0,215 0,191.5 V 42.5 C 0,19 19,0 42.5,0 Z"
   id="path4" />
			</g>
		</g>
	</g>
	<g
   id="Outlined_Mnemonics_Logos">
		<g
   id="Dw">
			<path
   class="st1"
   d="M 22.8,163.8 V 61.4 c -0.1,-0.6 0.4,-1.2 1,-1.3 0,0 0,0 0.1,0 1.5,-0.1 3.8,-0.2 6.7,-0.2 3,-0.1 6.4,-0.1 10.4,-0.2 4,-0.1 8.2,-0.1 12.7,-0.1 12.2,0 22.4,2.2 30.4,6.6 7.7,4.1 14,10.4 18.1,18.1 4,7.7 6,16.5 6,26.5 0.1,7 -0.9,13.9 -3.1,20.5 -1.9,5.6 -4.8,10.8 -8.6,15.4 -3.5,4.2 -7.7,7.8 -12.3,10.7 -4.5,2.8 -9.5,4.9 -14.7,6.3 -5,1.3 -10.2,2 -15.4,2 H 42.8 c -4,0 -7.8,0 -11.2,-0.1 -3.5,-0.1 -6.1,-0.1 -7.8,-0.2 -0.7,0 -1,-0.6 -1,-1.6 z M 43.9,79.4 v 66.7 c 1.1,0 2.1,0 3.1,0.1 0.9,0.1 1.9,0.1 2.8,0.2 1,0.1 2.1,0.1 3.3,0.1 4.6,0.1 9.2,-0.7 13.6,-2.3 4,-1.4 7.5,-3.7 10.5,-6.8 3,-3.2 5.3,-7 6.7,-11.1 1.6,-4.8 2.4,-9.9 2.4,-15 C 86.4,106.5 85.6,101.7 84,97.2 81.2,89.4 74.9,83.4 66.9,81 62.6,79.7 58.2,79 53.7,79.1 c -2,0 -3.7,0 -5.1,0.1 -1.4,0 -3,0.1 -4.7,0.2 z"
   id="path9" />
			<path
   class="st1"
   d="m 197.8,165.4 h -18.7 c -0.4,0.1 -0.9,-0.1 -1.2,-0.4 -0.3,-0.4 -0.5,-0.8 -0.6,-1.2 -1.9,-8 -3.5,-15.2 -4.8,-21.3 -1.3,-6.2 -2.4,-11.4 -3.2,-15.7 -0.8,-4.3 -1.5,-7.9 -2.1,-10.9 -0.5,-3 -1,-5.5 -1.3,-7.6 h -0.1 c -1,4.4 -1.9,8.7 -2.8,12.8 -0.8,4.1 -1.8,8.3 -2.8,12.5 -1,4.2 -2.1,8.8 -3.4,13.8 -1.2,5 -2.6,10.5 -4.1,16.4 -0.2,1.1 -0.7,1.6 -1.6,1.6 h -18.7 c -0.5,0.1 -1,-0.1 -1.4,-0.3 -0.3,-0.3 -0.5,-0.7 -0.7,-1.1 L 110.8,86.7 c -0.3,-0.9 0.1,-1.3 1.2,-1.3 h 18.9 c 0.9,0 1.4,0.3 1.5,1 2,8.8 3.7,16.4 5,22.8 1.3,6.4 2.4,11.8 3.1,16.3 0.7,4.5 1.4,8.2 1.9,11 0.5,2.8 0.9,5.2 1.2,7 h 0.3 c 0.2,-1.6 0.4,-3.1 0.7,-4.7 0.4,-1.9 0.9,-4.4 1.5,-7.5 0.6,-3.1 1.3,-6.7 2.2,-10.9 0.9,-4.2 1.9,-9 3.1,-14.6 1.1,-5.5 2.7,-11.8 4.6,-18.9 0,-0.4 0.2,-0.9 0.4,-1.3 0.1,-0.2 0.5,-0.3 1.1,-0.3 h 19.6 c 0.6,0 0.9,0.4 1,1.1 1.7,7.3 3.1,13.7 4.3,19.2 1.1,5.5 2.1,10.4 3,14.7 0.8,4.2 1.5,7.9 1.9,10.9 0.4,3.1 0.9,5.6 1.3,7.7 0.3,1.7 0.6,3.4 0.7,5.1 h 0.3 c 0.5,-2 0.9,-4.4 1.3,-7.1 0.4,-2.7 0.9,-5.7 1.6,-9.1 0.6,-3.4 1.3,-7.1 2.1,-11.2 0.7,-4.1 1.7,-8.6 2.8,-13.7 1.1,-5 2.3,-10.5 3.7,-16.4 0.2,-0.9 0.6,-1.3 1.3,-1.3 h 17.5 c 0.9,0 1.2,0.5 1,1.4 l -21.6,77.1 c -0.1,0.4 -0.3,0.8 -0.6,1.1 0,0.5 -0.4,0.7 -0.9,0.6 z"
   id="path11" />
		</g>
	</g>
</g>
</svg>
