<?xml version="1.0" encoding="UTF-8" standalone="no"?>
<svg
   viewBox="0 0 16 16"
   version="1.1"
   id="svg4"
   sodipodi:docname="express.svg"
   width="16"
   height="16"
   inkscape:version="1.2.1 (9c6d41e410, 2022-07-14)"
   xmlns:inkscape="http://www.inkscape.org/namespaces/inkscape"
   xmlns:sodipodi="http://sodipodi.sourceforge.net/DTD/sodipodi-0.dtd"
   xmlns="http://www.w3.org/2000/svg"
   xmlns:svg="http://www.w3.org/2000/svg">
  <defs
     id="defs8" />
  <sodipodi:namedview
     id="namedview6"
     pagecolor="#ffffff"
     bordercolor="#666666"
     borderopacity="1.0"
     inkscape:showpageshadow="2"
     inkscape:pageopacity="0.0"
     inkscape:pagecheckerboard="0"
     inkscape:deskcolor="#d1d1d1"
     showgrid="false"
     inkscape:zoom="32"
     inkscape:cx="7.984375"
     inkscape:cy="8"
     inkscape:window-width="1366"
     inkscape:window-height="715"
     inkscape:window-x="-8"
     inkscape:window-y="-8"
     inkscape:window-maximized="1"
     inkscape:current-layer="svg4" />
  <path
     d="M 5.0002858,9.7638333 V 6.3053709 h 0.1877379 v 0.5440569 a 0.71136024,0.71136024 0 0 0 0.061302,-0.076633 0.92974909,0.92974909 0 0 1 0.8480131,-0.5261762 c 0.4278378,-0.012773 0.7752166,0.145592 0.9795571,0.5261762 a 1.6909173,1.6909173 0 0 1 0.040867,1.5504339 C 6.927472,8.7497942 6.4574889,8.9617981 5.9543005,8.8838918 A 0.94124326,0.94124326 0 0 1 5.2033493,8.388367 V 9.7638333 Z M 5.1880237,7.5288591 c 0.016603,0.1685815 0.022988,0.2886316 0.042144,0.4061277 0.074074,0.462319 0.3473789,0.7369023 0.7764939,0.7867109 A 0.88249539,0.88249539 0 0 0 6.9760028,8.1610375 1.5031796,1.5031796 0 0 0 6.9427975,6.9247781 0.86461559,0.86461559 0 0 0 6.0322054,6.4215897 0.8416273,0.8416273 0 0 0 5.279977,7.0435506 4.2656073,4.2656073 0 0 0 5.1880237,7.5288591 Z M 11.115174,7.9988435 A 1.0114853,1.0114853 0 0 1 10.126677,8.8928319 C 9.3399667,8.9324204 8.9708764,8.410078 8.9121288,7.8072732 a 1.7394482,1.7394482 0 0 1 0.1532551,-0.9578454 1.0689561,1.0689561 0 0 1 1.1123791,-0.5964197 1.0217023,1.0217023 0 0 1 0.90676,0.7777714 5.2477186,5.2477186 0 0 1 0.08813,0.5747082 H 9.1049753 C 9.0666587,8.1520974 9.3604014,8.5914295 9.7767439,8.6974309 10.295257,8.8251393 10.738422,8.6003681 10.899341,8.1073982 10.935102,7.9809646 11.000237,7.9630831 11.115174,7.9988369 Z M 9.1049753,7.4305209 H 10.95298 C 10.941519,6.8481505 10.578781,6.4266977 10.087086,6.4203125 9.5302583,6.4113505 9.1292404,6.8174995 9.1049753,7.4305209 Z m 2.3907837,0.5810934 h 0.181352 a 0.72668579,0.72668579 0 0 0 0.426561,0.6257919 1.1149326,1.1149326 0 0 0 0.968063,-0.025547 0.43550061,0.43550061 0 0 0 0.255426,-0.4278373 0.39463253,0.39463253 0 0 0 -0.265644,-0.3946302 C 12.862286,7.7153233 12.650283,7.6744519 12.447219,7.6093184 A 4.501876,4.501876 0 0 1 11.829089,7.3832673 C 11.502145,7.2236259 11.48171,6.6016642 11.85208,6.4049871 a 1.3039477,1.3039477 0 0 1 1.246478,-0.019153 0.65644374,0.65644374 0 0 1 0.332053,0.6692145 h -0.15581 c 0,-0.00762 -0.01404,-0.014044 -0.01404,-0.021708 C 13.241611,6.536538 12.825265,6.3832828 12.378269,6.4267049 a 1.1711263,1.1711263 0 0 0 -0.383139,0.1162187 0.38313837,0.38313837 0 0 0 -0.222219,0.3831388 0.38313837,0.38313837 0 0 0 0.255426,0.36015 c 0.196678,0.071523 0.402295,0.117496 0.604082,0.1736895 0.162194,0.044698 0.330775,0.074069 0.487862,0.1277122 a 0.5759847,0.5759847 0 0 1 0.39591,0.5197903 0.61429854,0.61429854 0 0 1 -0.330775,0.6385638 C 12.758851,8.9873454 12.056431,8.9234887 11.743534,8.6182595 A 0.85184432,0.85184432 0 0 1 11.495759,8.0116169 Z m 4.319246,-0.9565698 h -0.169858 c 0,-0.022989 -0.009,-0.043424 -0.01146,-0.062578 a 0.55555065,0.55555065 0 0 0 -0.452103,-0.5338392 1.1149326,1.1149326 0 0 0 -0.716468,0.034479 0.43550061,0.43550061 0 0 0 -0.315452,0.4150671 0.40101816,0.40101816 0 0 0 0.306511,0.4035721 c 0.255426,0.079186 0.517238,0.1277135 0.776494,0.1992325 a 2.1711173,2.1711173 0 0 1 0.247764,0.075351 0.63856396,0.63856396 0 0 1 0.03448,1.1890063 1.4214434,1.4214434 0 0 1 -1.149415,0.01146 0.79692782,0.79692782 0 0 1 -0.480201,-0.773939 h 0.07153 0.09452 A 0.93102629,0.93102629 0 0 0 15.468955,8.6054429 0.45593466,0.45593466 0 0 0 15.714163,8.1788817 0.39463253,0.39463253 0 0 0 15.444689,7.7868035 C 15.245411,7.7127641 15.03341,7.6731691 14.830346,7.6080348 A 4.5248642,4.5248642 0 0 1 14.208385,7.3845381 C 13.889102,7.2274514 13.863558,6.6105984 14.227536,6.4139203 a 1.2860678,1.2860678 0 0 1 1.266912,-0.014044 0.6679379,0.6679379 0 0 1 0.320558,0.6551661 z M 4.6899438,8.8302525 A 0.29246229,0.29246229 0 0 1 4.3272395,8.6923228 C 4.1190677,8.3807029 3.8891847,8.0831326 3.6682414,7.7791768 L 3.5724569,7.6514642 C 3.3093685,8.0039503 3.0462801,8.3423904 2.80618,8.6936001 A 0.28096814,0.28096814 0 0 1 2.4613554,8.8289764 L 3.4485754,7.5045942 2.5303206,6.3079253 A 0.30523357,0.30523357 0 0 1 2.8943021,6.4356376 C 3.1075824,6.7472571 3.3438511,7.0448278 3.5788427,7.3602785 3.8151113,7.0473823 4.0488256,6.7485343 4.2672146,6.4394688 A 0.27458249,0.27458249 0 0 1 4.6094847,6.3117567 L 4.2531661,6.7842941 C 4.093525,6.9950196 3.9364384,7.2070232 3.7704118,7.412641 a 0.12771279,0.12771279 0 0 0 0,0.1902922 c 0.3052335,0.4048491 0.6079129,0.8109755 0.919532,1.2273193 z M 8.8814778,6.295154 V 6.4739515 A 0.92591775,0.92591775 0 0 0 7.8955346,7.4305209 q 0,0.6309008 0,1.2618019 c 0,0.044693 0,0.089401 0,0.143039 H 7.7129056 V 6.3053709 H 7.8917038 V 6.8238846 C 8.112647,6.4458549 8.4536398,6.3053709 8.8814778,6.295154 Z M 0.09611468,7.4879915 C 0.12293412,7.3602785 0.13953683,7.2210716 0.1765738,7.0908042 0.39751691,6.3053709 1.2978922,5.9784263 1.9172992,6.4650119 2.2800036,6.7498115 2.3706796,7.1533836 2.3527998,7.6080412 H 0.30939505 C 0.27618927,8.4202954 0.86239149,8.910712 1.6120656,8.6603957 A 0.7777709,0.7777709 0 0 0 2.106314,8.1099529 C 2.1459051,7.9822446 2.2097619,7.9605285 2.3310886,7.9975674 A 1.0370278,1.0370278 0 0 1 1.8355629,8.7549022 1.2005003,1.2005003 0 0 1 0.43710786,8.576104 1.2579709,1.2579709 0 0 1 0.12293435,7.8379243 c 0,-0.043418 -0.0166032,-0.086849 -0.02554211,-0.1277123 Q 0.09611866,7.5965472 0.09611866,7.4879915 Z M 0.31194936,7.433076 H 2.1599534 C 2.1484595,6.8443207 1.7768149,6.4266995 1.2812894,6.4228688 0.72957013,6.4152504 0.3349376,6.8238864 0.31067214,7.4305227 Z"
     id="path2"
     style="stroke-width:0.127713" />
</svg>
