<?xml version="1.0" encoding="UTF-8" standalone="no"?>
<svg
   width="16"
   height="16"
   viewBox="0 0 16 16"
   version="1.1"
   preserveAspectRatio="xMidYMid"
   id="svg8"
   sodipodi:docname="facebook-seeklogo.com.svg"
   inkscape:version="1.2.1 (9c6d41e410, 2022-07-14)"
   xmlns:inkscape="http://www.inkscape.org/namespaces/inkscape"
   xmlns:sodipodi="http://sodipodi.sourceforge.net/DTD/sodipodi-0.dtd"
   xmlns="http://www.w3.org/2000/svg"
   xmlns:svg="http://www.w3.org/2000/svg">
  <defs
     id="defs12" />
  <sodipodi:namedview
     id="namedview10"
     pagecolor="#ffffff"
     bordercolor="#666666"
     borderopacity="1.0"
     inkscape:showpageshadow="2"
     inkscape:pageopacity="0.0"
     inkscape:pagecheckerboard="0"
     inkscape:deskcolor="#d1d1d1"
     showgrid="false"
     inkscape:zoom="32"
     inkscape:cx="7.984375"
     inkscape:cy="8"
     inkscape:window-width="1366"
     inkscape:window-height="715"
     inkscape:window-x="-8"
     inkscape:window-y="-8"
     inkscape:window-maximized="1"
     inkscape:current-layer="svg8" />
  <g
     id="g6"
     transform="scale(0.0625)">
    <path
       d="m 241.871,256.001 c 7.802,0 14.129,-6.326 14.129,-14.129 V 14.129 C 256,6.325 249.673,0 241.871,0 H 14.129 C 6.324,0 0,6.325 0,14.129 v 227.743 c 0,7.803 6.324,14.129 14.129,14.129 h 227.742"
       fill="#395185"
       id="path2" />
    <path
       d="m 176.635,256.001 v -99.137 h 33.277 l 4.982,-38.635 H 176.635 V 93.561 c 0,-11.186 3.107,-18.809 19.148,-18.809 l 20.459,-0.009 V 40.188 c -3.54,-0.471 -15.684,-1.523 -29.812,-1.523 -29.498,0 -49.692,18.005 -49.692,51.071 v 28.493 h -33.362 v 38.635 h 33.362 v 99.137 h 39.897"
       fill="#ffffff"
       id="path4" />
  </g>
</svg>
