<?xml version="1.0" encoding="UTF-8" standalone="no"?>
<svg
   data-name="Layer 1"
   viewBox="0 0 16 16"
   version="1.1"
   id="svg42"
   width="16"
   height="16"
   xmlns="http://www.w3.org/2000/svg"
   xmlns:svg="http://www.w3.org/2000/svg">
  <defs
     id="defs46" />
  <g
     id="g349"
     transform="matrix(0.03169291,0,0,0.03169291,-0.11338496,-0.11338496)">
    <rect
       width="148"
       height="497"
       x="34"
       y="7.5"
       fill="#e4222e"
       rx="30"
       id="rect2" />
    <path
       fill="#c0232c"
       d="m 152,7.5 h -30 a 30,30 0 0 1 30,30 v 437 a 30,30 0 0 1 -30,30 h 30 a 30,30 0 0 0 30,-30 v -437 a 30,30 0 0 0 -30,-30 z"
       id="path4" />
    <rect
       width="148"
       height="497"
       x="182"
       y="7.5"
       fill="#24b378"
       rx="30"
       id="rect6" />
    <path
       fill="#17a454"
       d="m 300,7.5 h -30 a 30,30 0 0 1 30,30 v 437 a 30,30 0 0 1 -30,30 h 30 a 30,30 0 0 0 30,-30 v -437 a 30,30 0 0 0 -30,-30 z"
       id="path8" />
    <rect
       width="148"
       height="497"
       x="330"
       y="7.5"
       fill="#fed947"
       rx="30"
       id="rect10"
       style="fill:#ffcc00" />
    <path
       fill="#fed030"
       d="m 448,7.5 h -30 a 30,30 0 0 1 30,30 v 437 a 30,30 0 0 1 -30,30 h 30 a 30,30 0 0 0 30,-30 v -437 a 30,30 0 0 0 -30,-30 z"
       id="path12"
       style="fill:#ffcc00" />
    <circle
       cx="108"
       cy="431"
       r="22.5"
       fill="#ffffff"
       id="circle14" />
    <path
       fill="#e1e1e3"
       d="m 108,408.5 a 22.454,22.454 0 0 0 -7.5,1.285 22.502,22.502 0 0 1 0,42.43 22.5,22.5 0 1 0 7.5,-43.715 z"
       id="path16" />
    <circle
       cx="256"
       cy="431"
       r="22.5"
       fill="#ffffff"
       id="circle18" />
    <path
       fill="#e1e1e3"
       d="m 256,408.5 a 22.454,22.454 0 0 0 -7.5,1.285 22.502,22.502 0 0 1 0,42.43 22.5,22.5 0 1 0 7.5,-43.715 z"
       id="path20" />
    <circle
       cx="404"
       cy="431"
       r="22.5"
       fill="#ffffff"
       id="circle22" />
    <path
       fill="#e1e1e3"
       d="m 404,408.5 a 22.454,22.454 0 0 0 -7.5,1.285 22.502,22.502 0 0 1 0,42.43 22.5,22.5 0 1 0 7.5,-43.715 z"
       id="path24" />
    <rect
       width="88"
       height="209"
       x="64"
       y="37.5"
       fill="#ffffff"
       rx="10"
       id="rect26" />
    <rect
       width="88"
       height="209"
       x="212"
       y="37.5"
       fill="#ffffff"
       rx="10"
       id="rect28" />
    <rect
       width="88"
       height="209"
       x="360"
       y="37.5"
       fill="#ffffff"
       rx="10"
       id="rect30" />
    <path
       fill="#e1e1e3"
       d="m 438,37.5 h -19.48 a 10,10 0 0 1 10,10 v 189 a 10,10 0 0 1 -10,10 H 438 a 10,10 0 0 0 10,-10 v -189 a 10,10 0 0 0 -10,-10 z m -148,0 h -19.48 a 10,10 0 0 1 10,10 v 189 a 10,10 0 0 1 -10,10 H 290 a 10,10 0 0 0 10,-10 v -189 a 10,10 0 0 0 -10,-10 z m -148,0 h -19.48 a 10,10 0 0 1 10,10 v 189 a 10,10 0 0 1 -10,10 H 142 a 10,10 0 0 0 10,-10 v -189 a 10,10 0 0 0 -10,-10 z"
       id="path32" />
    <path
       fill="#fed947"
       d="m 418,75 h -28 a 7.5,7.5 0 0 1 0,-15 h 28 a 7.5,7.5 0 0 1 0,15 z m 0,30 h -28 a 7.5,7.5 0 0 1 0,-15 h 28 a 7.5,7.5 0 0 1 0,15 z"
       id="path34" />
    <path
       fill="#24b378"
       d="m 270,75 h -28 a 7.5,7.5 0 0 1 0,-15 h 28 a 7.5,7.5 0 0 1 0,15 z m 0,30 h -28 a 7.5,7.5 0 0 1 0,-15 h 28 a 7.5,7.5 0 0 1 0,15 z"
       id="path36" />
    <path
       fill="#e4222e"
       d="M 122,75 H 94 a 7.5,7.5 0 0 1 0,-15 h 28 a 7.5,7.5 0 0 1 0,15 z m 0,30 H 94 a 7.5,7.5 0 0 1 0,-15 h 28 a 7.5,7.5 0 0 1 0,15 z"
       id="path38" />
    <path
       fill="#ffffff"
       d="M 137,313 H 79 a 7.5,7.5 0 0 1 0,-15 h 58 a 7.5,7.5 0 0 1 0,15 z m 0,45 H 79 a 7.5,7.5 0 0 1 0,-15 h 58 a 7.5,7.5 0 0 1 0,15 z m 148,-45 h -58 a 7.5,7.5 0 0 1 0,-15 h 58 a 7.5,7.5 0 0 1 0,15 z m 0,45 h -58 a 7.5,7.5 0 0 1 0,-15 h 58 a 7.5,7.5 0 0 1 0,15 z m 148,-45 h -58 a 7.5,7.5 0 0 1 0,-15 h 58 a 7.5,7.5 0 0 1 0,15 z m 0,45 h -58 a 7.5,7.5 0 0 1 0,-15 h 58 a 7.5,7.5 0 0 1 0,15 z"
       id="path40" />
  </g>
</svg>
