<?xml version="1.0" encoding="UTF-8" standalone="no"?>
<svg
   viewBox="0 0 16 16"
   version="1.1"
   id="svg10"
   sodipodi:docname="firebase.svg"
   width="16"
   height="16"
   inkscape:version="1.2.1 (9c6d41e410, 2022-07-14)"
   xmlns:inkscape="http://www.inkscape.org/namespaces/inkscape"
   xmlns:sodipodi="http://sodipodi.sourceforge.net/DTD/sodipodi-0.dtd"
   xmlns="http://www.w3.org/2000/svg"
   xmlns:svg="http://www.w3.org/2000/svg">
  <defs
     id="defs14" />
  <sodipodi:namedview
     id="namedview12"
     pagecolor="#ffffff"
     bordercolor="#666666"
     borderopacity="1.0"
     inkscape:showpageshadow="2"
     inkscape:pageopacity="0.0"
     inkscape:pagecheckerboard="0"
     inkscape:deskcolor="#d1d1d1"
     showgrid="false"
     inkscape:zoom="22.291667"
     inkscape:cx="11.95514"
     inkscape:cy="4.8897196"
     inkscape:window-width="1366"
     inkscape:window-height="715"
     inkscape:window-x="-8"
     inkscape:window-y="-8"
     inkscape:window-maximized="1"
     inkscape:current-layer="svg10" />
  <g
     id="g301"
     transform="matrix(0.65109462,0,0,0.65109462,0.18686456,0.18696094)">
    <path
       fill="#ffa000"
       d="m 14.714,8.669 -2.4,2.235 -2.228,-4.496 1.151,-2.585 c 0.291,-0.516 0.767,-0.522 1.058,0 z"
       id="path2" />
    <path
       fill="#f57f17"
       d="M 12.314,10.903 3.335,19.254 10.086,6.408 Z"
       id="path4" />
    <path
       fill="#ffca28"
       d="m 17.346,5.251 c 0.43,-0.41 0.873,-0.271 0.985,0.31 l 2.334,13.58 -7.742,4.648 C 12.651,23.941 11.931,24 11.931,24 c 0,0 -0.655,-0.08 -0.906,-0.218 L 3.336,19.254 Z"
       id="path6" />
    <path
       fill="#ffa000"
       d="M 10.086,6.408 3.336,19.254 6.344,0.477 c 0.113,-0.582 0.443,-0.641 0.74,-0.126 z"
       id="path8" />
  </g>
</svg>
