<?xml version="1.0" encoding="UTF-8" standalone="no"?>
<svg
   width="16"
   height="16"
   preserveAspectRatio="xMinYMin"
   viewBox="0 0 16 16"
   version="1.1"
   id="svg4"
   sodipodi:docname="flask.svg"
   inkscape:version="1.2.1 (9c6d41e410, 2022-07-14)"
   xmlns:inkscape="http://www.inkscape.org/namespaces/inkscape"
   xmlns:sodipodi="http://sodipodi.sourceforge.net/DTD/sodipodi-0.dtd"
   xmlns="http://www.w3.org/2000/svg"
   xmlns:svg="http://www.w3.org/2000/svg">
  <defs
     id="defs8" />
  <sodipodi:namedview
     id="namedview6"
     pagecolor="#ffffff"
     bordercolor="#666666"
     borderopacity="1.0"
     inkscape:showpageshadow="2"
     inkscape:pageopacity="0.0"
     inkscape:pagecheckerboard="0"
     inkscape:deskcolor="#d1d1d1"
     showgrid="false"
     inkscape:zoom="32"
     inkscape:cx="7.078125"
     inkscape:cy="7.6875"
     inkscape:window-width="1366"
     inkscape:window-height="715"
     inkscape:window-x="-8"
     inkscape:window-y="-8"
     inkscape:window-maximized="1"
     inkscape:current-layer="svg4" />
  <path
     d="M 5.5294365,9.8679744 C 5.0616967,9.500019 4.5626302,9.147415 4.2216838,8.6505553 3.5039551,7.7743709 2.9514943,6.7601667 2.5738003,5.6941995 2.3454474,5.0009853 2.2672509,4.2578307 1.9726947,3.5915292 1.6649938,3.1074304 2.0257053,2.5786205 2.5559063,2.424818 2.7917911,2.3793393 3.2068082,2.1566472 2.705823,2.3160146 2.2566008,2.6453994 2.2133288,2.016661 2.6738727,1.9768432 2.9881939,1.9351544 3.1039055,1.6779695 2.9963015,1.4464502 2.6587611,1.2262527 3.8144863,0.98465894 3.2329058,0.65618568 2.6274825,0.00278909 4.0801145,-0.12299695 3.721658,0.61919831 3.6359775,1.1898408 4.7370611,0.5143765 4.4813635,1.1734818 4.7411389,1.4900581 5.4538785,1.2456818 5.4359844,1.689531 5.814302,1.715533 5.9441657,2.0336435 6.2989287,2.0581099 6.6672197,2.2243854 7.3341927,2.3551608 7.4593073,2.7698902 7.0942302,3.0588335 6.2490842,2.172958 6.2082588,2.9729132 6.3186936,4.1548797 6.2905335,5.3723946 6.7228205,6.4978967 6.9272831,7.1793096 7.4232311,7.7156994 7.8708701,8.2465238 8.2994159,8.7662667 8.8797493,9.1323992 9.4714042,9.4404363 9.9902355,9.6851001 10.549605,9.84725 11.11521,9.9492412 c 0.229313,-0.1753908 0.634254,-0.8275396 0.991848,-0.5527489 0.01728,0.3093802 -0.709813,0.6462487 -0.03412,0.6120437 0.397123,-0.1198372 0.672251,0.306741 0.999093,-0.078144 0.301176,0.3567276 1.251623,-0.2277294 1.037422,0.5013196 -0.289851,0.187001 -0.7124,0.07403 -1.002543,0.331303 -0.47839,-0.239051 -0.859298,0.213626 -1.389115,0.156539 -0.588153,0.105355 -1.186763,0.147757 -1.7830243,0.148619 C 8.9563126,10.990981 7.9572203,10.958407 7.0264419,10.617701 6.5019496,10.465337 5.990314,10.166656 5.5294344,9.8679744 Z m 0.8262924,0.3582636 c 0.5119712,0.221158 1.0126688,0.454548 1.5738607,0.525117 0.8902888,0.123626 1.8096973,0.314321 2.7031044,0.140561 -0.40432,-0.182538 -0.8225022,0.07091 -1.2252865,-0.130488 C 8.9243161,10.865239 8.4058209,10.734757 7.9144781,10.670421 7.3560686,10.42173 6.7532359,10.250753 6.2302785,9.9275569 5.5764983,9.6888895 6.5681549,10.233771 6.7447445,10.278049 7.1531895,10.509761 6.2954746,10.159076 6.1743417,10.062794 5.8321962,9.8708045 5.7886362,9.9109585 6.1405679,10.105776 c 0.070856,0.04145 0.1408493,0.08506 0.2151603,0.120461 z M 5.3813909,9.5376775 C 5.8776745,9.7215117 5.3791826,9.1888157 5.1520783,9.2196151 5.0513343,9.0448476 4.7671885,8.9344137 4.9676209,8.8406254 4.6071974,8.9658356 4.589927,8.3647305 4.4205812,8.4507469 4.0390974,8.3302852 4.2721517,7.9036109 3.8176046,7.6414365 3.7761557,7.3653022 3.3661756,7.1259634 3.2356882,6.709651 3.1779763,6.4963615 2.772362,5.884366 3.0214394,6.4539533 3.2334814,7.0022879 3.6064741,7.4722828 3.9170533,7.94127 4.1579753,8.3879013 4.4428409,8.855066 4.8817007,9.1336468 5.0297944,9.275744 5.172467,9.4931108 5.3813428,9.5376775 Z M 3.9522177,7.9682308 c 0.017175,-0.074983 0.090669,0.1621498 0,0 z m 2.0236587,1.7896445 c 0.109763,-0.049216 -0.1581203,-0.062077 0,0 z m 0.2691301,0.098249 c -0.027875,-0.135572 -0.1229556,0.075893 0,0 z M 6.582259,9.9966854 c 0.1602788,-0.1528901 -0.2475424,-0.096426 0,0 z m 0.5778387,0.3220456 c 0.097529,-0.143969 -0.3121626,-0.05421 0,0 z M 6.0505707,9.5452579 c 0.2489813,-0.1612869 -0.3221889,-0.00225 0,0 z M 6.30339,9.6713319 c -0.00724,-0.085057 -0.090045,0.038231 0,0 z m 1.2638572,0.7889201 c 0.2032631,0.128329 1.1867638,0.281076 0.5709783,0.05268 -0.1032872,0.02168 -1.1419088,-0.293933 -0.5709783,-0.05268 z M 5.560859,8.8974258 c -0.019765,-0.085249 -0.3156644,-0.094411 0,0 z m 0.5881527,0.3432494 c 0.153371,-0.1069799 -0.3177751,-0.082515 0,0 z m 0.4949891,0.303335 c 0.2199094,-0.082802 -0.3562979,-0.083136 0,0 z M 5.3211844,8.6367391 C 5.5596117,8.8195653 6.2830493,8.6602473 5.6863093,8.5275993 5.4149722,8.3829604 4.8032643,8.2838948 5.2202485,8.6148151 Z m 1.6582454,1.0119973 c 0.099401,-0.1691062 -0.4166482,-0.096667 0,0 z M 6.4755664,9.248399 C 7.0584423,9.4131396 5.985279,8.8794844 6.3316464,9.1875712 l 0.076902,0.034825 z m 1.0102219,0.5838351 c 0.5520769,0.00529 -0.4988266,-0.076181 0,0 z M 5.1088544,8.3173328 c -0.021684,-0.1028549 -0.1361482,0.00853 0,0 z m 3.3107827,2.0387692 c 0.014728,-0.185657 -0.1800921,0.138355 0,0 z M 6.0511944,8.8942598 c -0.03358,-0.097865 -0.1725122,-0.00409 0,0 z M 5.1611933,8.2527605 c 0.3169116,-0.019096 -0.4341585,-0.1396021 0,0 z M 4.1068357,7.5713476 c -0.039482,-0.1520756 -0.3447362,-0.27316 0,0 z m 2.7678206,1.7564953 c -0.058048,-0.066253 -0.027343,0.014392 0,0 z m 1.722482,1.0571871 c -0.00527,-0.101365 -0.093788,0.03818 0,0 z M 6.7221971,9.1703461 c 0.031086,-0.1304875 -0.2703778,-0.039577 0,0 z M 5.4388149,8.3569106 c 0.2359328,-0.025137 -0.3780297,-0.159367 0,0 z m 2.1708885,1.3489619 c 0.3676197,-0.1455988 -0.3582645,-0.070949 0,0 z M 6.4806514,8.9394988 C 6.9041121,8.9939958 5.9765476,8.6511787 6.3874874,8.9087005 Z M 7.9524728,9.844467 C 8.348109,9.6082948 8.2176216,10.398175 8.6235717,9.911297 9.0238129,9.6189479 8.2778278,10.27268 8.7709935,9.963399 9.1279632,9.7246351 9.6549499,10.076616 9.9878367,10.191128 10.227128,10.179518 10.459942,10.39818 10.705518,10.265108 11.17796,10.137728 9.7814076,10.076322 10.147444,9.8507036 9.7152044,9.9765864 9.3958938,9.7007874 9.1831805,9.4237891 8.69817,9.3117717 8.1376017,9.0639893 7.8954327,8.6345322 7.7966077,8.4736299 8.0379133,8.6574627 7.8101362,8.3939464 7.5180744,8.1341707 7.3722357,7.8389428 7.1761206,7.5230864 6.9417712,7.3982121 6.9141861,7.0302565 6.8906311,7.5109026 6.8925682,7.2075195 6.6076848,7.0032972 6.5380273,7.0880181 6.5367875,6.7959085 6.8429938,6.9424191 6.6286971,6.7262992 6.5826426,6.4235395 6.4307592,6.1080189 6.3852325,5.766065 6.3144241,5.6013727 6.37516,5.2484809 6.1431112,5.6214257 6.0586783,6.0157662 6.1151911,5.1370871 6.2466379,5.4266539 6.4191495,5.1311386 6.1844642,5.1659192 6.1750615,5.2067444 6.2874152,4.9573789 6.2463019,4.6034799 6.1456073,4.7383809 6.2055246,4.4739023 6.240353,3.7652884 6.0562315,3.8910746 6.1678656,3.6144125 6.2679856,2.6255383 5.7829274,3.0027046 5.5865727,3.005487 5.2462499,3.073945 5.0856353,3.1539165 5.5897389,3.4318739 5.0347835,3.2542767 4.8293139,3.2100453 4.8026408,3.4672781 4.5993778,3.35622 4.345263,3.3587146 4.7512133,3.4088946 4.147613,3.7736838 3.9152303,3.6319706 3.6128065,3.7762745 4.1759173,4.1370337 3.9211789,4.2486678 3.9526016,4.4165265 3.4581406,4.1878853 3.496759,4.5762295 3.2034022,4.4525543 3.4566052,5.0367251 3.6034036,4.8391233 4.1025182,4.9743122 3.9547603,5.282061 3.9672814,5.5746981 3.8860145,5.7450036 3.5657447,5.1741209 3.8960409,5.2005061 3.6353539,4.7772375 3.6078173,5.0473753 3.3913137,5.2440661 c -0.05018,0.014152 0.5521249,0.2797802 0.1741431,0.4109394 0.332503,0.051476 0.3422417,0.3425776 0.4100279,0.526747 C 4.1752936,6.3899567 4.1341325,5.9517203 4.3735674,6.2021416 4.2219717,5.9790655 3.5716933,5.5736912 4.0953222,5.7036986 4.0924452,5.4793755 4.0005269,5.2983241 4.161141,5.3026898 4.3202205,5.0150418 3.9945775,6.0123109 4.3528424,5.6465624 c 0.099064,-0.043272 0.123915,-0.2879839 0.302088,0.02322 0.2587681,0.2547385 0.0935,0.4390998 -0.2716729,0.2057576 0.065243,0.221781 0.4884162,0.3007929 0.4087326,0.647496 0.084337,0.3049185 0.2023515,0.1925648 0.3052062,0.1750066 0.080595,0.2961395 0.1265057,0.078437 0.1302476,-0.062749 0.3692026,0.079156 0.2826109,0.2974349 0.3983225,0.4498943 C 5.8801695,7.1999406 5.2616014,6.306869 5.6983026,6.8166335 6.1577911,7.2316508 5.8708145,7.4047868 5.45834,7.3383437 5.7193149,7.3172339 5.8033161,7.6912834 6.1299666,7.6780907 6.4276412,7.8198517 6.6293688,8.363821 6.1161519,8.137291 5.9382668,7.9766767 5.3079932,7.7787384 5.8228427,8.0839927 6.2977789,8.3041904 6.6754726,8.4356372 7.1337616,8.7120594 7.4616117,8.9460735 7.6033244,9.2141965 7.7275754,9.2673028 7.4518726,9.3989892 6.8969652,9.1621928 7.3091041,9.0897533 7.0518711,9.0429797 6.7626883,8.9128278 7.0088873,9.2330979 c 0.2095474,0.1750544 0.7419072,0.1564887 0.8376139,0.176254 -0.080931,0.178221 -0.2198617,0.192373 0.0031,0.2061412 -0.2487895,0.1326944 0.080021,0.1534188 0.1029026,0.2289764 z M 7.4436679,8.407427 C 7.292168,8.2490183 7.2529741,7.9525914 7.4167084,8.2103517 c 0.084097,0.033919 0.2688903,0.4847702 0.02696,0.1970753 z m 1.6573343,1.0527739 c 0.094412,-0.00625 0.00279,0.071765 0,0 z M 7.2047124,8.0190827 c -0.00604,-0.2393871 0.054499,0.1846967 0,0 z M 7.0399725,7.7975898 c -0.1906943,-0.3679555 0.2399624,0.1041501 0,0 z M 5.0435626,6.4198439 c 0.1120178,-0.029888 0.055218,0.19127 0,0 z m 1.5889245,0.8610734 c 0.068698,-0.2581926 0.080643,0.2165032 0,0 z M 5.5100553,6.5003913 c -0.079012,-0.142385 0.1653639,0.1337017 0,0 z M 6.4731195,6.8090996 C 6.2927399,6.4050684 6.6011125,6.5882303 6.5132735,6.8753026 Z M 4.8120914,5.7013956 C 4.7314962,5.5687495 4.5981305,5.179734 4.6411145,5.0609038 4.6796852,5.2544283 5.0523898,5.8934328 4.823653,5.3256687 4.5711694,4.8497733 5.125789,5.4799508 5.1828773,5.5988766 5.2095504,5.7168432 5.0269639,5.5665904 5.150543,5.8435407 4.9250206,5.52826 5.0175131,6.0176838 4.8120914,5.7013956 Z M 4.2988728,5.3475927 c 0.021012,-0.3083727 0.1173427,0.2114182 0,0 z m 0.2308957,0.079636 c 0.1100992,-0.2326704 0.1866161,0.3243961 0,0 z M 3.9741895,4.9975313 C 3.7831118,4.8073647 3.6447567,4.632358 3.9832562,4.8795166 4.1134559,4.8845566 3.6934494,4.4814823 4.0146792,4.751524 4.3521716,4.813074 4.1811947,5.30528 3.9741895,4.9975313 Z m 0.2917257,-0.00753 c 0.1111063,-0.1100993 0.059006,0.1082276 0,0 z m 0.179756,0.057375 c -0.1684822,-0.3152807 0.2042225,0.1324063 0,0 z M 4.0887017,4.7064291 C 3.5331708,4.2116325 4.7866656,4.9648612 4.1793711,4.7979623 Z M 5.6806964,5.6311628 C 5.4401102,5.4871469 5.6167,4.6163831 5.6989264,5.2117799 5.9326521,5.1361259 5.6859737,5.5195286 5.8601168,5.5157388 5.8328668,5.7575244 5.7547672,5.844548 5.6806964,5.6311628 Z m 0.5888245,0.3481903 c 0.023507,-0.2625099 0.049557,0.1795159 0,0 z M 6.16729,5.8780332 c 0.026336,-0.1119699 0.00248,0.1320704 0,0 z M 4.1975053,4.5438952 c -0.3569215,-0.492542 1.037423,0.4981072 0.2287368,0.124875 -0.084433,-0.02226 -0.1863284,-0.030129 -0.2287368,-0.124875 z m 1.1340412,0.6011061 c -0.033821,-0.4147295 0.075318,0.068603 0,0 z m 0.8607851,0.5523168 c 0.066491,-0.2361731 0.00509,0.156297 0,0 z M 4.2524347,4.3559838 C 4.4645249,4.3105052 5.1314019,4.7283528 4.5190705,4.4751976 4.4510438,4.3998793 4.305781,4.4340839 4.2524347,4.3559358 Z M 6.0740295,5.2638311 C 6.0967195,4.839747 6.2008712,5.0106758 6.074999,5.3247091 L 6.0740295,5.2637829 Z M 4.410219,4.208274 C 4.4967629,4.0814804 4.1805228,3.6351369 4.4556498,4.0482349 4.5746235,4.1426467 4.7997623,4.2063552 4.6009129,4.2461728 4.9136509,4.5219719 4.5247313,4.3208674 4.410219,4.2082733 Z m 1.5737649,0.9231988 c 0.05968,-0.4830914 0.052771,0.2829464 0,0 z M 4.2295035,3.7621702 c 0.066204,-0.028304 0.035116,0.088079 0,0 z m 0.4106516,0.244376 c 0.1056372,-0.2218285 0.1947716,0.2471586 0,0 z M 5.7979911,4.65054 c -9.695e-4,-0.085008 0.021923,0.1239152 0,0 z M 5.7308285,4.5022065 c -0.1606148,-0.3965475 0.1496769,0.2098354 0,0 z M 5.6322912,4.2420954 c -0.026864,-0.1637812 0.09163,0.2058053 0,0 z M 5.7929058,3.9811204 C 5.6825193,3.7868766 5.9322682,3.1247008 5.9601889,3.5353523 5.8437575,3.8553344 5.9266087,4.0341789 6.0074907,3.6050096 6.1575033,3.2674694 5.9752045,4.2716469 5.7929058,3.9811204 Z M 5.9579341,2.9964201 c 0.048069,-0.059006 0.010692,0.071146 0,0 z M 5.6822795,8.4274799 c -0.065292,-0.057085 0.0084,0.036124 0,0 z M 6.2500438,8.7145515 C 6.5659002,8.7958186 6.564365,8.6655666 6.2788275,8.6266652 6.1254572,8.4839917 5.6407829,8.3324447 6.0746536,8.6091082 c 0.02859,0.072824 0.1192616,0.070908 0.1753906,0.1054455 z M 5.1289072,7.9697662 C 5.3026667,8.0997255 5.7841749,8.3374337 5.3766894,8.0194185 5.514085,7.8596673 5.1137956,7.7747063 5.2465379,7.6677742 4.9086618,7.4609609 4.9798062,7.4794789 5.2167466,7.4860991 4.8107964,7.3044241 5.2753699,7.3182405 5.253446,7.2251243 5.0969091,7.1943256 4.4757506,6.9489898 4.8412113,7.2451762 4.4698018,7.0559697 4.7527005,7.3157452 4.640443,7.2884483 4.2604944,7.1849218 4.9786549,7.5777272 4.5801885,7.4801494 4.7979394,7.6526616 5.1665184,7.9224635 4.6721053,7.6626879 4.6071975,7.7564759 5.0260045,7.8986207 5.1288592,7.9697654 Z M 5.722673,8.3110963 c 0.7218546,0.2324787 -0.354187,-0.2845299 0,0 z m 3.0397813,1.8414077 c 0.00941,-0.143345 -0.098537,0.122331 0,0 z m 0.3124501,0.131447 c 0.1665635,-0.161191 0.00691,0.257232 0.2760387,-0.03948 0.00279,-0.212427 -0.00816,-0.3378287 -0.309284,-0.07973 -0.083185,0.04615 -0.1201252,0.241545 0.033248,0.119262 z M 4.115327,7.1693311 c -0.051188,-0.201104 -0.3586006,-0.2002405 0,0 z m 0.3334145,0.2185663 c -0.123915,-0.2054216 -0.4420262,-0.1859923 0,0 z M 6.3469496,8.532589 C 6.5324147,8.6973296 7.1980445,8.6533855 6.5719445,8.553023 6.479356,8.4159156 5.9834082,8.4488729 6.3469496,8.532589 Z m 2.609029,1.611568 c 0.2851535,-0.239387 -0.2763261,0.106644 0,0 z m 0.5932382,0.407437 c 0.00182,-0.07686 -0.1229555,0.03358 0,0 z m 9.696e-4,-0.107604 c 0.3158554,-0.334375 -0.3058781,0.01976 0,0 z M 3.2946475,6.4822573 C 3.0255172,6.0982788 3.1274603,5.925719 2.8677328,5.6120212 2.8184164,5.3720586 2.4223007,4.8280892 2.6628869,5.4043448 2.8830843,5.7415971 2.9483281,6.2635469 3.2946954,6.4822573 Z m 6.156368,3.8553757 c 0.5813415,-0.3755346 -0.2383797,-0.163446 0,0 z m 0.4436089,0.173759 c 0.2911026,-0.249749 -0.1841693,-0.0521 0,0 z M 4.016454,6.7447675 c 0.083186,-0.1239151 -0.2151604,-0.015976 0,0 z m 5.7855822,3.6480345 c 0.2816998,-0.181579 -0.064908,-0.153707 -0.051091,0.0166 z M 5.9786586,7.9829587 c -0.00969,-0.1229554 -0.1489573,0.010363 0,0 z m 0.2362207,0.1358604 c -0.07527,-0.1518356 -0.1154237,0.023841 0,0 z m 4.0392097,2.3966979 c 0.361047,-0.260447 -0.218615,-0.04993 -0.0756,0.04955 z m -0.138307,-0.06683 c 0.294221,-0.246294 -0.3102918,0.109136 0,0 z m 0.706359,0.470187 c 0.197409,-0.132071 -0.239915,-0.04265 0,0 z M 4.1975053,6.6553932 c 0.2644289,0.059247 1.0574278,0.6515254 0.589736,0.041113 C 4.5476146,6.6256015 4.6912946,6.0398953 4.4469186,6.1434217 4.6109873,6.4175894 4.5817236,6.5339245 4.2372752,6.3614604 3.8047477,6.149994 3.9941944,6.4659465 4.0789632,6.5531619 3.9634435,6.5795013 4.2313744,6.6532342 4.1974573,6.6553451 Z M 2.9919358,5.7033624 c 0.04735,-0.1961147 -0.4363652,-1.0779122 -0.228353,-0.4420259 0.074935,0.1333178 0.067162,0.3858013 0.228353,0.4420259 z m 2.2128173,1.3642174 c -0.1364362,-0.1138409 -0.00657,-0.016311 0,0 z m 0.3353335,0.078196 c 0,-0.2077245 -0.3707378,-0.084433 0,0 z m 2.9080468,1.8329168 c -0.055506,-0.1418567 -0.2192385,-0.00321 0,0 z m 0.1396023,0.1018953 c -0.020773,-0.079346 -0.080691,0.015401 0,0 z m 1.1525107,0.7262207 c 0.1107703,-0.081842 -0.1383547,-0.010604 0,0 z M 3.593953,5.8570692 c 0.3171036,-0.1227157 -0.3397951,-0.087551 0,0 z m 4.5981465,2.8966289 c -0.00368,-0.205134 -0.2023036,0.051188 0,0 z M 3.4687426,5.5649596 c 0.2035988,-0.068603 -0.1885351,-0.045095 0,0 z M 4.059774,5.8513599 c -0.0035,-0.067403 -0.062414,0.025763 0,0 z m 7.210389,4.4216051 c 0.261935,-0.05302 0.858914,0.133366 0.955197,-0.06927 -0.318063,-0.0078 -1.100123,-0.2246586 -1.137159,0.05138 l 0.06966,0.01103 0.112353,0.0068 z M 4.2476374,5.8987581 c 0.0048,-0.2080127 -0.1621498,-0.00783 0,0 z M 2.6936856,4.8205577 c -0.070569,-0.3962595 -0.2685546,-0.059967 0,0 z m 0.3704501,0.093164 c 0.00476,-0.1273688 -0.3391713,-0.1145121 0,0 z m 0.2117542,0.10415 c -0.061166,-0.049605 -0.047686,0.062366 0,0 z M 4.6087806,5.872708 c 0.062797,-0.057761 -0.1486694,-0.042648 0,0 z M 3.1350402,4.7832342 c -0.036027,-0.2992573 -0.4294572,-0.044854 0,0 z M 2.374903,4.2900688 c -0.010703,-0.1380193 -0.07407,0.052052 0,0 z M 2.48812,4.2048198 c -0.01847,-0.1638289 -0.097242,0.020629 0,0 z M 3.1124927,4.5774289 C 3.3766338,4.4739023 2.6315123,4.3628438 3.0585228,4.5579994 Z M 11.470691,9.740317 c 0.169059,-0.1549534 -0.214584,-0.047975 0,0 z m 1.009791,0.523245 c 0.06778,-0.200097 -0.170688,0.02639 0,0 z M 3.1762973,4.2502507 c 0.027968,-0.193812 -0.2094996,0.038569 0,0 z M 2.2876875,3.6549018 C 2.240002,3.381358 2.2465743,2.9010491 2.7030404,3.063247 2.0937794,3.1843316 3.1249658,3.8207457 2.9947663,3.3182251 3.2510397,3.3308421 3.4960873,3.1667733 3.3614743,3.415467 3.8665373,3.3599619 4.2163588,2.9220615 4.7041036,2.9835632 5.0839562,2.9330953 5.4993093,2.8951005 5.9087133,2.7420176 6.2452942,2.717839 6.5693063,2.3554965 6.3849445,2.1406242 5.9259838,2.1017657 5.4453392,2.1591418 4.9381173,2.2601735 4.376014,2.3768447 3.865338,2.5989132 3.2981015,2.6943321 2.7450171,2.7686913 3.4091598,2.8988424 3.2507039,2.9280102 2.9623843,3.028082 3.5948645,3.095533 3.2133809,3.2012182 2.9778315,3.1564111 2.7324961,3.0754801 2.8331921,2.8270263 2.3036626,2.896012 1.8381295,3.1155859 2.2566487,3.6545181 l 0.031087,2.879e-4 z M 3.5641616,3.0048634 C 3.6880766,2.5475338 4.2291677,3.381358 3.7674245,3.0657416 3.7124951,3.0242926 3.6214896,2.9907112 3.5641616,3.0048634 Z m 0.024083,-0.2218285 c 0.1791804,-0.1332699 0.095083,0.075031 0,0 z m 0.2274416,0.00384 c 0.016408,-0.2105083 0.5211342,0.1113448 0.083186,0.075604 L 3.8156856,2.7868244 Z M 4.1268887,2.6617094 c 0.1138887,-0.133078 0.033006,0.1179184 0,0 z m 0.079732,-0.053299 c 0.1894462,-0.22744 1.0718674,-0.1453097 0.4259546,-0.022354 -0.1731837,-0.1304874 -0.30583,0.076853 -0.4259546,0.022354 z m 1.151839,-0.1775961 c -0.028496,-0.6214943 0.5725136,0.2205334 0,0 z m 0.3269382,-0.00191 c 0.1194536,-0.3130272 0.4639019,-0.1257393 0.055505,-0.063039 0.00873,0.033582 -0.012233,0.16191 -0.055505,0.063037 z M 3.0474889,4.089636 c 0.3569215,-0.2186622 -0.3789891,-0.1897344 0,0 z m 0.264093,0.073112 c 0.1252105,-0.1329823 -0.2722965,-0.053971 0,0 z M 2.5336467,3.6109584 c 0.2038866,-0.1568728 -0.2415457,-0.059582 0,0 z M 13.076455,10.206474 c 0.006,-0.181963 -0.155913,0.08184 0,0 z M 12.005163,9.4752166 c 0.03043,-0.2091639 -0.137684,0.018231 0,0 z m 1.365849,0.8018734 c 0.285201,9.63e-4 0.864191,-0.08885 0.243704,-0.08851 -0.09753,0.01511 -0.567428,0.012 -0.243704,0.08851 z M 3.5437729,4.0343707 C 3.7746685,4.0186836 3.9048201,3.7799203 3.4988699,3.7934488 2.8699396,3.728541 4.0537773,4.008993 3.4182747,3.9286857 c -0.085297,0.056465 0.120413,0.1213724 0.1254982,0.105685 z m 0.2032629,0.1029506 c -0.024178,-0.1480933 -0.071576,0.078675 0,0 z M 3.9882456,3.4941912 c 0.1000721,-0.1242508 -0.1386429,-0.033246 0,0 z M 3.2202887,2.210905 C 3.6325236,2.0710148 4.1959222,1.9135184 4.390454,2.2799866 4.192468,2.041895 4.3104824,1.8072096 4.4974344,2.1557357 c 0.264429,0.352316 0.3967393,-0.160279 0.2248511,-0.2785811 0.1961149,0.2434166 0.418807,0.3586006 0.131111,0.015447 0.312786,-0.3761589 -0.6258119,0.049221 -0.8391013,0.044807 -0.102567,0.046054 -1.0596827,0.2440403 -0.7939585,0.273496 z M 3.4618344,1.7485862 c 0.2350213,-0.1772135 0.8128119,0.1056857 0.4420263,-0.17635 -0.036364,-0.03195 -0.8118047,0.213961 -0.4420263,0.17635 z m 0.8567555,0.035404 C 4.5933811,1.7908987 4.2000478,1.4144519 4.5275138,1.5850931 4.4738796,1.4094627 4.1460779,1.3765051 3.985799,1.3062722 c -0.09067,0.1606146 0.1843615,0.479925 0.3327909,0.477718 z M 3.6120869,1.0062949 c 0.095083,-0.12890422 -0.1668513,0.06558 0,0 z m 0.3502053,0.083713 C 4.4054697,1.0313844 3.849267,0.89931421 3.8727738,1.0853574 l 0.08947,0.00465 z M 3.3084158,0.5787088 C 2.9962534,0.17122342 3.8953693,0.64711873 3.5781697,0.22044405 3.3112462,0.00811413 3.0549728,0.45983094 3.3084158,0.5787088 Z m 4.004333,2.1567364 c 0.143152,-0.2535389 -0.5906476,-0.3419538 -0.096282,-0.089806 0.045478,0.015111 0.035211,0.107316 0.096282,0.089806 z M 4.4071967,12.177601 c -0.031663,0.125018 -0.051283,0.334806 -0.058623,0.629266 0,0.05786 -0.026049,0.08684 -0.078292,0.08684 -0.052242,0 -0.088607,-0.02528 -0.1091876,-0.0756 -0.055937,-0.136149 -0.1089,-0.231089 -0.1594635,-0.285299 -0.059583,-0.06333 -0.1388348,-0.101602 -0.2377078,-0.114656 -0.1062611,-0.01679 -0.3709777,-0.02519 -0.7941983,-0.02519 -0.096906,0 -0.1603748,0.01031 -0.1901183,0.0309 -0.018661,0.01295 -0.027968,0.04097 -0.027968,0.0839 v 1.266928 c 0,0.04289 0.027009,0.06333 0.080979,0.06155 0.1660357,-0.0019 0.4065259,-0.01325 0.7215187,-0.03358 0.061599,-0.0076 0.1031432,-0.02758 0.1245388,-0.06027 0.021588,-0.03262 0.042552,-0.116863 0.062941,-0.253059 0.012952,-0.07461 0.056897,-0.103528 0.1314469,-0.08664 0.063324,0.01306 0.090574,0.04198 0.081218,0.08664 -0.052292,0.253683 -0.069177,0.583692 -0.050516,0.99017 0.00198,0.04835 -0.028784,0.07454 -0.092252,0.07829 -0.052291,0.0056 -0.084912,-0.02241 -0.097865,-0.08396 -0.048357,-0.233007 -0.138499,-0.357545 -0.269802,-0.373471 -0.1314468,-0.01574 -0.3455517,-0.02369 -0.6418829,-0.02369 -0.033582,0 -0.050324,0.01205 -0.050324,0.03632 v 1.258581 c 0,0.09326 0.034396,0.156728 0.1033346,0.190165 0.05421,0.02798 0.170689,0.0532 0.3495815,0.07556 0.091485,0.0093 0.131447,0.0495 0.1204131,0.120221 -0.011274,0.06155 -0.093212,0.08582 -0.2462471,0.07277 -0.4418341,-0.0355 -0.8064314,-0.03358 -1.0934558,0.0057 -0.08026,0.01104 -0.1202211,-0.02158 -0.1202211,-0.09792 0,-0.0486 0.039962,-0.07652 0.1202211,-0.08395 0.1827304,-0.02059 0.2740236,-0.180956 0.2740236,-0.481028 v -2.394254 c 0,-0.122908 -0.021971,-0.217511 -0.065676,-0.283762 -0.043896,-0.06623 -0.1254983,-0.126444 -0.2446641,-0.180462 -0.074647,-0.03358 -0.1025676,-0.0792 -0.083954,-0.13706 0.0093,-0.03535 0.024274,-0.05503 0.044663,-0.05868 0.018661,-0.0057 0.06817,-0.0019 0.1481896,0.01121 0.1175346,0.01862 0.3944846,0.02798 0.830706,0.02798 0.5147058,0 0.9592745,-0.01128 1.3341379,-0.03358 0.1248746,-0.0076 0.1874318,0.0027 0.1874318,0.03071 0,0.0076 -9.617e-4,0.01493 -0.00292,0.02236 z m 1.8137272,3.550361 c 0,0.0746 -0.041977,0.107217 -0.125834,0.09787 -0.2571369,-0.02427 -0.5760636,-0.02062 -0.956396,0.01108 -0.076518,0.0076 -0.1234834,0.0056 -0.1413295,-0.0054 -0.01775,-0.01128 -0.02648,-0.04199 -0.02648,-0.09249 0,-0.04462 0.050707,-0.08232 0.1523153,-0.113217 C 5.224952,15.595145 5.275611,15.503282 5.275611,15.350438 V 12.81922 c 0,-0.151116 -0.021924,-0.26203 -0.065627,-0.332934 -0.043896,-0.07087 -0.1207967,-0.125838 -0.2307516,-0.164888 -0.057856,-0.02062 -0.086831,-0.0495 -0.086831,-0.08684 0,-0.05594 0.041977,-0.09787 0.1258821,-0.125834 0.1268414,-0.04102 0.2583362,-0.104295 0.3944846,-0.190166 0.1118736,-0.06717 0.1827783,-0.100602 0.2124737,-0.100602 0.068938,0 0.1035745,0.0474 0.1035745,0.142527 0,-0.0074 -0.00373,0.08586 -0.011322,0.279686 -0.00542,0.184553 -0.00734,0.366324 -0.00542,0.545456 l 0.011033,2.497492 c 0,0.113791 0.028017,0.196353 0.083954,0.247637 0.055937,0.05124 0.1520755,0.08525 0.288032,0.101991 0.083857,0.0093 0.1258339,0.04097 0.1258339,0.09513 z M 8.7505088,15.56303 c 0,0.03924 -0.071288,0.09834 -0.2138647,0.177502 -0.1427209,0.0793 -0.256945,0.118925 -0.3426256,0.118925 -0.072824,0 -0.1370598,-0.03535 -0.1929967,-0.106259 -0.055937,-0.07086 -0.095227,-0.106215 -0.1175348,-0.106215 -0.016743,0 -0.1053011,0.03822 -0.2657721,0.114561 -0.1601827,0.07652 -0.3215652,0.1148 -0.4837628,0.1148 -0.1528428,0 -0.2806441,-0.04486 -0.383163,-0.134182 -0.1118738,-0.09892 -0.1678107,-0.23315 -0.1678107,-0.40288 0,-0.322572 0.3692026,-0.553708 1.1076082,-0.69355 0.1266495,-0.02427 0.1911258,-0.07556 0.1928528,-0.153849 l 0.00571,-0.179038 c 0.011227,-0.305734 -0.1239631,-0.458577 -0.4055666,-0.458577 -0.080211,0 -0.1561533,0.07167 -0.228065,0.215209 -0.071624,0.143728 -0.1747668,0.221013 -0.3089962,0.232287 -0.152843,0.01478 -0.2293605,-0.0495 -0.2293605,-0.193044 0,-0.08958 0.1137926,-0.193813 0.3412343,-0.313267 0.2387152,-0.124875 0.4681237,-0.187432 0.6881292,-0.187432 0.3784134,0 0.5657972,0.180044 0.5621034,0.539892 l -0.011274,1.152175 c -0.00175,0.121228 0.049556,0.181771 0.1538505,0.181771 0.020578,0 0.059775,-0.0045 0.1174867,-0.01395 0.057904,-0.0093 0.091485,-0.01401 0.1008402,-0.01401 0.053971,0 0.080979,0.03651 0.080979,0.109136 z M 7.8891481,14.925464 c 0.00194,-0.04668 -0.00897,-0.07758 -0.032287,-0.0923 -0.023314,-0.01492 -0.059967,-0.01789 -0.1103387,-0.0085 -0.4494141,0.08021 -0.674121,0.226625 -0.674121,0.439146 0,0.214441 0.116527,0.321614 0.3495815,0.321614 0.09326,0 0.1893985,-0.01764 0.2880317,-0.05301 0.1157596,-0.04116 0.1734715,-0.09047 0.1734715,-0.148381 l 0.00565,-0.458578 z m 2.9407159,0.315808 c 0,0.197651 -0.07618,0.354859 -0.228016,0.471338 -0.151931,0.116577 -0.359321,0.174816 -0.6223103,0.174816 -0.1751989,0 -0.3505894,-0.01861 -0.5257878,-0.05594 -0.1511161,-0.03357 -0.2387152,-0.06428 -0.2629418,-0.09225 -0.014969,-0.02625 -0.022356,-0.153803 -0.022356,-0.383213 0,-0.09883 0.022356,-0.150155 0.067162,-0.153802 0.044711,-0.0057 0.082993,0.01867 0.1146562,0.07263 0.1397946,0.244328 0.3654608,0.366516 0.6768567,0.366516 0.262749,0 0.394245,-0.09149 0.394245,-0.274263 0,-0.08001 -0.02974,-0.14723 -0.08951,-0.201248 -0.06529,-0.06155 -0.191894,-0.133364 -0.3802852,-0.215398 -0.2723011,-0.121132 -0.45412,-0.227393 -0.5454131,-0.318878 -0.098873,-0.09691 -0.1482373,-0.227394 -0.1482373,-0.391558 0,-0.20144 0.07738,-0.357929 0.2321427,-0.469804 0.143536,-0.108231 0.3356212,-0.162197 0.5760639,-0.162197 0.151116,0 0.289039,0.01199 0.414106,0.03632 0.134229,0.02427 0.204126,0.05401 0.209739,0.08951 0.01478,0.104295 0.04568,0.255409 0.0923,0.453156 0.0056,0.02408 -0.02062,0.0437 -0.0783,0.05862 -0.0616,0.01304 -0.10257,0.0027 -0.123148,-0.0307 -0.147231,-0.240636 -0.333654,-0.360857 -0.55937,-0.360857 -0.2554096,0 -0.3831625,0.08203 -0.3831625,0.246103 0,0.09144 0.034541,0.164069 0.1034778,0.218088 0.061599,0.04663 0.2060457,0.119453 0.4335357,0.218327 0.238667,0.102528 0.400864,0.194818 0.486737,0.276805 0.111874,0.106214 0.16781,0.248981 0.16781,0.427874 z m 3.290347,0.489472 c 0,0.06524 -0.04389,0.09979 -0.131496,0.103485 -0.130533,0.0019 -0.301272,0.01122 -0.511778,0.02798 -0.104485,0.02058 -0.179085,0.0076 -0.223749,-0.03905 -0.29465,-0.31696 -0.544591,-0.648888 -0.749726,-0.995783 -0.01669,-0.02975 -0.03809,-0.04466 -0.06428,-0.04466 -0.03166,0 -0.08659,0.02797 -0.164884,0.08395 -0.0878,0.04835 -0.131496,0.117439 -0.131496,0.206765 0,0.06352 0.0018,0.15481 0.0056,0.274312 0.0038,0.119214 0.03345,0.197459 0.08938,0.234781 0.0392,0.02625 0.129767,0.04663 0.271289,0.0616 0.08764,0.01121 0.131543,0.04385 0.131543,0.09786 0,0.04294 -0.0069,0.06957 -0.02101,0.07965 -0.01391,0.0102 -0.05085,0.01262 -0.110532,0.0069 -0.186424,-0.01669 -0.501466,-0.0074 -0.945218,0.02797 -0.111875,0.0093 -0.172511,-0.0047 -0.181819,-0.04199 -0.0037,-0.01295 -0.0057,-0.03166 -0.0057,-0.05594 0,-0.05766 0.05694,-0.101612 0.170785,-0.131254 0.102517,-0.02629 0.153755,-0.146511 0.153755,-0.360904 v -2.44448 c 0,-0.152843 -0.01487,-0.259104 -0.04486,-0.318735 -0.04097,-0.07652 -0.126842,-0.136196 -0.257328,-0.179083 -0.06141,-0.02038 -0.09225,-0.04931 -0.09225,-0.08664 0,-0.0542 0.04389,-0.09614 0.131447,-0.125833 A 1.7536646,1.7536646 0 0 0 11.837789,11.9186 c 0.102612,-0.06702 0.166083,-0.100645 0.190166,-0.100645 0.07656,0 0.114801,0.04836 0.114801,0.145502 0,-0.01319 -9.62e-4,0.07925 -0.0029,0.276806 a 44.87285,44.87285 0 0 0 -0.0026,0.54824 l 0.0056,1.750739 c 0,0.04856 0.013,0.07263 0.03905,0.07263 0.02797,0 0.0709,-0.02407 0.12876,-0.07263 0.154762,-0.121229 0.344928,-0.279685 0.570451,-0.475464 0.04486,-0.04659 0.06717,-0.08391 0.06717,-0.111874 0,-0.05028 -0.07551,-0.08586 -0.226434,-0.106215 -0.06524,-0.0076 -0.09614,-0.04389 -0.09249,-0.109191 0.0057,-0.06524 0.03833,-0.09321 0.09791,-0.08391 0.134421,0.01871 0.330201,0.02898 0.587338,0.0309 0.179085,0.0018 0.357162,0.0027 0.534326,0.0027 0.05766,0.0019 0.08664,0.03632 0.08664,0.103528 0,0.06333 -0.04566,0.09786 -0.136962,0.103527 -0.14373,0.0054 -0.278918,0.03805 -0.405519,0.09787 -0.177166,0.08001 -0.366517,0.22082 -0.567909,0.42226 -0.01478,0.01123 -0.02236,0.02519 -0.02236,0.04193 0,0.02605 0.03166,0.0886 0.09518,0.187432 0.233054,0.354282 0.453108,0.621733 0.659969,0.802688 0.132454,0.113697 0.256369,0.170546 0.371937,0.170546 0.08586,0 0.139026,0.0061 0.159415,0.01823 0.02063,0.01214 0.03094,0.04433 0.03094,0.09642 z"
     id="path2"
     style="stroke-width:0.0479733" />
</svg>
