<?xml version="1.0" encoding="UTF-8" standalone="no"?>
<svg
   height="16"
   viewBox="31.982589 32.284523 0.86748798 0.87636529"
   width="16"
   version="1.1"
   id="svg10"
   sodipodi:docname="git-bash-seeklogo.com.svg"
   inkscape:version="1.2.1 (9c6d41e410, 2022-07-14)"
   xmlns:inkscape="http://www.inkscape.org/namespaces/inkscape"
   xmlns:sodipodi="http://sodipodi.sourceforge.net/DTD/sodipodi-0.dtd"
   xmlns="http://www.w3.org/2000/svg"
   xmlns:svg="http://www.w3.org/2000/svg">
  <defs
     id="defs14" />
  <sodipodi:namedview
     id="namedview12"
     pagecolor="#ffffff"
     bordercolor="#666666"
     borderopacity="1.0"
     inkscape:showpageshadow="2"
     inkscape:pageopacity="0.0"
     inkscape:pagecheckerboard="0"
     inkscape:deskcolor="#d1d1d1"
     showgrid="false"
     inkscape:zoom="32"
     inkscape:cx="7.984375"
     inkscape:cy="8"
     inkscape:window-width="1366"
     inkscape:window-height="715"
     inkscape:window-x="-8"
     inkscape:window-y="-8"
     inkscape:window-maximized="1"
     inkscape:current-layer="svg10" />
  <g
     id="g301"
     transform="matrix(0.00649214,0,0,0.00649214,31.769051,32.073743)">
    <path
       d="M 95.72,81.45 V 94 l -30.11,-30.1 10,-10 15.19,15.2 a 9.75,9.75 0 0 0 -0.61,3.43 9.91,9.91 0 0 0 5.53,8.92 z m 9.23,1.81 4.68,4.68 -4.68,4.69 z M 133.59,64 115.5,82.07 109.41,76 a 9.83,9.83 0 0 0 0.54,-4.67 10,10 0 0 0 -9.39,-8.68 9.64,9.64 0 0 0 -3.89,0.6 L 81.47,48 94.35,35.16 a 7.36,7.36 0 0 1 10.42,0 z"
       fill="#ff8080"
       id="path2" />
    <path
       d="M 89.74,105.53 62.38,132.89 35.23,106 a 8.49,8.49 0 0 1 0.09,-11.86 l 28,-28 26.42,26.51 a 9.12,9.12 0 0 1 0,12.88 z"
       fill="#80b3ff"
       id="path4" />
    <path
       d="m 105,108.79 v 11.49 a 9.46,9.46 0 0 1 4.46,9.88 9.32,9.32 0 0 1 -7.42,7.53 A 9.47,9.47 0 0 1 95.72,120 v -12.7 a 1,1 0 0 0 -1.63,-0.68 l -28.67,28.66 29.5,29.5 a 7.33,7.33 0 0 0 10.36,0 L 133.11,137 Z"
       fill="#ffe680"
       id="path6" />
    <path
       d="M 163.54,107.45 137,134 108.42,105.42 a 8.56,8.56 0 0 1 0,-12.1 L 111.71,90 119,97.27 a 9.92,9.92 0 1 0 5.88,-5.88 L 117.63,84.15 136.17,65.62 163.54,93 a 10.19,10.19 0 0 1 0,14.45 z"
       fill="#8dd35f"
       id="path8" />
  </g>
</svg>
