<?xml version="1.0" encoding="UTF-8" standalone="no"?>
<svg
   viewBox="0 0 16 16"
   version="1.1"
   id="svg8"
   sodipodi:docname="github.svg"
   width="16"
   height="16"
   inkscape:version="1.2.1 (9c6d41e410, 2022-07-14)"
   xmlns:inkscape="http://www.inkscape.org/namespaces/inkscape"
   xmlns:sodipodi="http://sodipodi.sourceforge.net/DTD/sodipodi-0.dtd"
   xmlns="http://www.w3.org/2000/svg"
   xmlns:svg="http://www.w3.org/2000/svg">
  <defs
     id="defs12" />
  <sodipodi:namedview
     id="namedview10"
     pagecolor="#ffffff"
     bordercolor="#666666"
     borderopacity="1.0"
     inkscape:showpageshadow="2"
     inkscape:pageopacity="0.0"
     inkscape:pagecheckerboard="0"
     inkscape:deskcolor="#d1d1d1"
     showgrid="false"
     inkscape:zoom="32"
     inkscape:cx="7.984375"
     inkscape:cy="8"
     inkscape:window-width="1366"
     inkscape:window-height="715"
     inkscape:window-x="-8"
     inkscape:window-y="-8"
     inkscape:window-maximized="1"
     inkscape:current-layer="svg8" />
  <g
     fill="#181616"
     id="g6"
     transform="matrix(0.13102041,0,0,0.13102041,-0.38537175,-0.38529244)">
    <path
       fill-rule="evenodd"
       d="m 64,5.103 c -33.347,0 -60.388,27.035 -60.388,60.388 0,26.682 17.303,49.317 41.297,57.303 3.017,0.56 4.125,-1.31 4.125,-2.905 0,-1.44 -0.056,-6.197 -0.082,-11.243 -16.8,3.653 -20.345,-7.125 -20.345,-7.125 -2.747,-6.98 -6.705,-8.836 -6.705,-8.836 -5.48,-3.748 0.413,-3.67 0.413,-3.67 6.063,0.425 9.257,6.223 9.257,6.223 5.386,9.23 14.127,6.562 17.573,5.02 0.542,-3.903 2.107,-6.568 3.834,-8.076 -13.413,-1.525 -27.514,-6.704 -27.514,-29.843 0,-6.593 2.36,-11.98 6.223,-16.21 -0.628,-1.52 -2.695,-7.662 0.584,-15.98 0,0 5.07,-1.623 16.61,6.19 C 53.7,35 58.867,34.327 64,34.304 c 5.13,0.023 10.3,0.694 15.127,2.033 11.526,-7.813 16.59,-6.19 16.59,-6.19 3.287,8.317 1.22,14.46 0.593,15.98 3.872,4.23 6.215,9.617 6.215,16.21 0,23.194 -14.127,28.3 -27.574,29.796 2.167,1.874 4.097,5.55 4.097,11.183 0,8.08 -0.07,14.583 -0.07,16.572 0,1.607 1.088,3.49 4.148,2.897 23.98,-7.994 41.263,-30.622 41.263,-57.294 C 124.388,32.14 97.35,5.104 64,5.104 Z"
       clip-rule="evenodd"
       id="path2" />
    <path
       d="m 26.484,91.806 c -0.133,0.3 -0.605,0.39 -1.035,0.185 -0.44,-0.196 -0.685,-0.605 -0.543,-0.906 0.13,-0.31 0.603,-0.395 1.04,-0.188 0.44,0.197 0.69,0.61 0.537,0.91 z m -0.743,-0.55 m 3.189,3.279 c -0.287,0.267 -0.85,0.143 -1.232,-0.28 -0.396,-0.42 -0.47,-0.983 -0.177,-1.254 0.298,-0.266 0.844,-0.14 1.24,0.28 0.394,0.426 0.472,0.984 0.17,1.255 z m -0.575,-0.618 m 2.957,4.095 c -0.37,0.258 -0.976,0.017 -1.35,-0.52 -0.37,-0.538 -0.37,-1.183 0.01,-1.44 0.373,-0.258 0.97,-0.025 1.35,0.507 0.368,0.545 0.368,1.19 -0.01,1.452 z m 0,0 m 3.261,3.361 c -0.33,0.365 -1.036,0.267 -1.552,-0.23 -0.527,-0.487 -0.674,-1.18 -0.343,-1.544 0.336,-0.366 1.045,-0.264 1.564,0.23 0.527,0.486 0.686,1.18 0.333,1.543 z m 0,0 m 4.5,1.951 c -0.147,0.473 -0.825,0.688 -1.51,0.486 -0.683,-0.207 -1.13,-0.76 -0.99,-1.238 0.14,-0.477 0.823,-0.7 1.512,-0.485 0.683,0.206 1.13,0.756 0.988,1.237 z m 0,0 m 4.943,0.361 c 0.017,0.498 -0.563,0.91 -1.28,0.92 -0.723,0.017 -1.308,-0.387 -1.315,-0.877 0,-0.503 0.568,-0.91 1.29,-0.924 0.717,-0.013 1.306,0.387 1.306,0.88 z m 0,0 m 4.598,-0.782 c 0.086,0.485 -0.413,0.984 -1.126,1.117 -0.7,0.13 -1.35,-0.172 -1.44,-0.653 -0.086,-0.498 0.422,-0.997 1.122,-1.126 0.714,-0.123 1.354,0.17 1.444,0.663 z m 0,0"
       id="path4" />
  </g>
</svg>
