<?xml version="1.0" encoding="UTF-8" standalone="no"?>
<svg
   width="16"
   height="16"
   preserveAspectRatio="xMinYMin"
   viewBox="0 0 1.6384 1.6381779"
   version="1.1"
   id="svg16"
   sodipodi:docname="gitlab.svg"
   inkscape:version="1.2.1 (9c6d41e410, 2022-07-14)"
   xmlns:inkscape="http://www.inkscape.org/namespaces/inkscape"
   xmlns:sodipodi="http://sodipodi.sourceforge.net/DTD/sodipodi-0.dtd"
   xmlns="http://www.w3.org/2000/svg"
   xmlns:svg="http://www.w3.org/2000/svg">
  <defs
     id="defs20" />
  <sodipodi:namedview
     id="namedview18"
     pagecolor="#ffffff"
     bordercolor="#666666"
     borderopacity="1.0"
     inkscape:showpageshadow="2"
     inkscape:pageopacity="0.0"
     inkscape:pagecheckerboard="0"
     inkscape:deskcolor="#d1d1d1"
     showgrid="false"
     inkscape:zoom="32"
     inkscape:cx="7.984375"
     inkscape:cy="8"
     inkscape:window-width="1366"
     inkscape:window-height="715"
     inkscape:window-x="-8"
     inkscape:window-y="-8"
     inkscape:window-maximized="1"
     inkscape:current-layer="svg16" />
  <g
     id="g310"
     transform="matrix(0.00635989,0,0,0.00635989,0.0046577,0.06715692)">
    <path
       fill="#e24329"
       d="M 128.075,236.075 175.179,91.105 H 80.97 l 47.104,144.97 z"
       id="path2" />
    <path
       fill="#fc6d26"
       d="M 128.075,236.074 80.97,91.104 H 14.956 Z"
       id="path4" />
    <path
       fill="#fca326"
       d="M 14.956,91.104 0.642,135.16 a 9.752,9.752 0 0 0 3.542,10.903 L 128.075,236.075 14.955,91.105 Z"
       id="path6" />
    <path
       fill="#e24329"
       d="M 14.956,91.105 H 80.97 L 52.601,3.79 c -1.46,-4.493 -7.816,-4.492 -9.275,0 z"
       id="path8" />
    <path
       fill="#fc6d26"
       d="m 128.075,236.074 47.104,-144.97 h 66.015 l -113.12,144.97 z"
       id="path10" />
    <path
       fill="#fca326"
       d="m 241.194,91.104 14.314,44.056 a 9.752,9.752 0 0 1 -3.543,10.903 l -123.89,90.012 113.119,-144.97 z"
       id="path12" />
    <path
       fill="#e24329"
       d="M 241.194,91.105 H 175.179 L 203.549,3.79 c 1.46,-4.493 7.816,-4.492 9.275,0 z"
       id="path14" />
  </g>
</svg>
