<?xml version="1.0" encoding="UTF-8" standalone="no"?>
<!-- Generator: Adobe Illustrator 24.0.1, SVG Export Plug-In . SVG Version: 6.00 Build 0)  -->

<svg
   version="1.1"
   id="svg60"
   x="0px"
   y="0px"
   viewBox="-260.552 -146.192 16 16"
   enable-background="new -260.552 -146.192 720 340"
   xml:space="preserve"
   sodipodi:docname="gmail-new-2020-seeklogo.com-3.svg"
   width="16"
   height="16"
   inkscape:version="1.2.1 (9c6d41e410, 2022-07-14)"
   xmlns:inkscape="http://www.inkscape.org/namespaces/inkscape"
   xmlns:sodipodi="http://sodipodi.sourceforge.net/DTD/sodipodi-0.dtd"
   xmlns="http://www.w3.org/2000/svg"
   xmlns:svg="http://www.w3.org/2000/svg"><defs
   id="defs11" /><sodipodi:namedview
   id="namedview9"
   pagecolor="#ffffff"
   bordercolor="#666666"
   borderopacity="1.0"
   inkscape:showpageshadow="2"
   inkscape:pageopacity="0.0"
   inkscape:pagecheckerboard="0"
   inkscape:deskcolor="#d1d1d1"
   showgrid="false"
   inkscape:zoom="32"
   inkscape:cx="7.984375"
   inkscape:cy="8"
   inkscape:window-width="1366"
   inkscape:window-height="715"
   inkscape:window-x="-8"
   inkscape:window-y="-8"
   inkscape:window-maximized="1"
   inkscape:current-layer="svg60" />
<g
   id="g18"
   transform="matrix(0.19853444,0,0,0.18186581,-253.46853,-138.42824)">
	<path
   id="path8"
   fill="#4285f4"
   d="m -29.532,30.953 h 12.581 V 0.399 L -34.924,-13.08 v 38.642 c 10e-4,2.977 2.415,5.391 5.392,5.391 z" />
	<path
   id="path10"
   fill="#34a853"
   d="m 26.183,30.953 h 12.582 c 2.978,0 5.392,-2.414 5.392,-5.392 V -13.081 L 26.183,0.399 Z" />
	<path
   id="path12"
   fill="#fbbc04"
   d="M 26.183,-22.963 V 0.399 L 44.156,-13.08 v -7.187 c 0,-4.466 -3.621,-8.087 -8.088,-8.087 -1.75,0 -3.452,0.568 -4.852,1.618 z" />
	<path
   id="path14"
   fill="#ea4335"
   d="M -16.95,0.399 V -22.963 L 4.616,-6.789 26.182,-22.964 V 0.399 L 4.616,16.573 Z" />
	<path
   id="path16"
   fill="#c5221f"
   d="m -34.923,-20.268 v 7.187 l 17.973,13.48 v -23.362 l -5.033,-3.774 c -3.573,-2.68 -8.642,-1.956 -11.322,1.617 -1.051,1.4 -1.618,3.103 -1.618,4.852 z" />
</g>
</svg>
