<?xml version="1.0" encoding="UTF-8" standalone="no"?>
<svg
   width="16"
   height="16"
   viewBox="0 0 16 16"
   version="1.1"
   id="svg14"
   sodipodi:docname="google-pay-seeklogo.com.svg"
   inkscape:version="1.2.1 (9c6d41e410, 2022-07-14)"
   xmlns:inkscape="http://www.inkscape.org/namespaces/inkscape"
   xmlns:sodipodi="http://sodipodi.sourceforge.net/DTD/sodipodi-0.dtd"
   xmlns="http://www.w3.org/2000/svg"
   xmlns:svg="http://www.w3.org/2000/svg">
  <defs
     id="defs18" />
  <sodipodi:namedview
     id="namedview16"
     pagecolor="#ffffff"
     bordercolor="#666666"
     borderopacity="1.0"
     inkscape:showpageshadow="2"
     inkscape:pageopacity="0.0"
     inkscape:pagecheckerboard="0"
     inkscape:deskcolor="#d1d1d1"
     showgrid="false"
     inkscape:zoom="32"
     inkscape:cx="7.984375"
     inkscape:cy="8"
     inkscape:window-width="1366"
     inkscape:window-height="715"
     inkscape:window-x="-8"
     inkscape:window-y="-8"
     inkscape:window-maximized="1"
     inkscape:current-layer="svg14" />
  <g
     fill="none"
     fill-rule="nonzero"
     id="g12"
     transform="matrix(0.03643906,0,0,0.03643906,0.02029994,4.8444567)">
    <path
       fill="#5f6368"
       d="m 207.2,84.6 v 50.8 H 191.1 V 10 h 42.7 c 10.3,-0.2 20.2,3.7 27.7,10.9 7.5,6.7 11.7,16.4 11.5,26.4 0.2,10.1 -4,19.8 -11.5,26.6 -7.5,7.1 -16.7,10.7 -27.6,10.7 z m 0,-59.2 v 43.8 h 27 c 6,0.2 11.8,-2.2 15.9,-6.5 8.5,-8.2 8.6,-21.7 0.4,-30.2 l -0.4,-0.4 c -4.1,-4.4 -9.9,-6.8 -15.9,-6.6 z m 102.9,21.4 c 11.9,0 21.3,3.2 28.2,9.5 6.9,6.4 10.3,15.1 10.3,26.2 v 52.8 h -15.4 v -11.9 h -0.7 c -6.7,9.8 -15.5,14.7 -26.6,14.7 -9.4,0 -17.4,-2.8 -23.7,-8.4 -6.2,-5.2 -9.7,-12.9 -9.5,-21 0,-8.9 3.4,-15.9 10.1,-21.2 6.7,-5.3 15.7,-7.9 26.9,-7.9 9.6,0 17.4,1.8 23.6,5.2 v -3.7 c 0,-5.5 -2.4,-10.7 -6.6,-14.2 -4.3,-3.8 -9.8,-5.9 -15.5,-5.9 -9,0 -16.1,3.8 -21.4,11.4 l -14.2,-8.9 c 7.7,-11.1 19.2,-16.7 34.5,-16.7 z m -20.8,62.3 c 0,4.2 2,8.1 5.3,10.5 3.6,2.8 8,4.3 12.5,4.2 6.8,0 13.3,-2.7 18.1,-7.5 5.3,-5 8,-10.9 8,-17.7 -5,-4 -12,-6 -21,-6 -6.5,0 -12,1.6 -16.4,4.7 -4.3,3.2 -6.5,7.1 -6.5,11.8 z M 437,49.6 383.2,173.2 h -16.6 l 20,-43.2 -35.4,-80.3 h 17.5 l 25.5,61.6 h 0.4 l 24.9,-61.6 z"
       id="path2" />
    <path
       fill="#4285f4"
       d="m 142.1,73.6 c 0,-4.9 -0.4,-9.8 -1.2,-14.6 H 73 v 27.7 h 38.9 c -1.6,8.9 -6.8,16.9 -14.4,21.9 v 18 h 23.2 c 13.6,-12.5 21.4,-31 21.4,-53 z"
       id="path4" />
    <path
       fill="#34a853"
       d="m 73,144 c 19.4,0 35.8,-6.4 47.7,-17.4 l -23.2,-18 C 91,113 82.7,115.5 73,115.5 54.2,115.5 38.3,102.8 32.6,85.8 H 8.7 v 18.6 C 20.9,128.6 45.8,144 73,144 Z"
       id="path6" />
    <path
       fill="#fbbc04"
       d="m 32.6,85.8 c -3,-8.9 -3,-18.6 0,-27.6 V 39.7 H 8.7 a 71.39,71.39 0 0 0 0,64.6 z"
       id="path8" />
    <path
       fill="#ea4335"
       d="m 73,28.5 c 10.3,-0.2 20.2,3.7 27.6,10.8 L 121.1,18.8 C 108.1,6.5 90.9,-0.2 73,0 45.8,0 20.9,15.4 8.7,39.7 L 32.6,58.3 C 38.3,41.2 54.2,28.5 73,28.5 Z"
       id="path10" />
  </g>
</svg>
