<?xml version="1.0" encoding="UTF-8" standalone="no"?>
<svg
   viewBox="0 0 16 16"
   version="1.1"
   id="svg4"
   sodipodi:docname="graphql.svg"
   width="16"
   height="16"
   inkscape:version="1.2.1 (9c6d41e410, 2022-07-14)"
   xmlns:inkscape="http://www.inkscape.org/namespaces/inkscape"
   xmlns:sodipodi="http://sodipodi.sourceforge.net/DTD/sodipodi-0.dtd"
   xmlns="http://www.w3.org/2000/svg"
   xmlns:svg="http://www.w3.org/2000/svg">
  <defs
     id="defs8" />
  <sodipodi:namedview
     id="namedview6"
     pagecolor="#ffffff"
     bordercolor="#666666"
     borderopacity="1.0"
     inkscape:showpageshadow="2"
     inkscape:pageopacity="0.0"
     inkscape:pagecheckerboard="0"
     inkscape:deskcolor="#d1d1d1"
     showgrid="false"
     inkscape:zoom="22.291667"
     inkscape:cx="11.95514"
     inkscape:cy="8.4785045"
     inkscape:window-width="1366"
     inkscape:window-height="715"
     inkscape:window-x="-8"
     inkscape:window-y="-8"
     inkscape:window-maximized="1"
     inkscape:current-layer="svg4" />
  <path
     fill="#df34a6"
     d="M 3.2136081,3.5794437 A 1.3603224,1.3603224 0 0 0 1.3377059,4.0891571 1.412467,1.412467 0 0 0 1.1943083,4.4580801 C 1.0170165,5.2083107 1.4706747,5.962452 2.2072171,6.142351 l -6.517e-4,3.7146513 a 1.3674923,1.3674923 0 0 0 -0.6687545,0.3930397 1.412467,1.412467 0 0 0 0.044974,1.972369 1.3557597,1.3557597 0 0 0 1.9391276,-0.04563 l 3.1632221,1.855696 a 1.4183333,1.4183333 0 0 0 -0.056708,0.396951 c 6.517e-4,0.769783 0.6146544,1.392912 1.3714031,1.39226 0.1460048,0 0.2900543,-0.02412 0.4295411,-0.0704 0.7195955,-0.24182 1.1106802,-1.031159 0.8721186,-1.763791 l 3.1430166,-1.845919 a 1.3609742,1.3609742 0 0 0 2.212886,-0.230087 c 0.06714,-0.117967 0.117972,-0.245727 0.148613,-0.378696 0.175336,-0.746971 -0.278323,-1.49655 -1.012259,-1.6744931 V 6.1436546 A 1.3492417,1.3492417 0 0 0 14.151592,5.9983015 1.4105117,1.4105117 0 0 0 14.661304,4.0898089 1.3837875,1.3837875 0 0 0 14.419485,3.7788968 1.3577152,1.3577152 0 0 0 12.476446,3.8290859 L 9.3138752,1.9714343 C 9.35168,1.8417246 9.3718861,1.7054968 9.3712343,1.569269 9.3705823,0.80013616 8.7565797,0.17765986 7.9998311,0.17831166 c -0.1323169,0 -0.264634,0.0189026 -0.3910846,0.0573592 C 6.8845883,0.45402625 6.4700387,1.2290255 6.6851352,1.9675235 L 3.5206094,3.8251751 A 1.3257766,1.3257766 0 0 0 3.2136081,3.5794437 Z M 9.0140437,13.488874 A 1.3603224,1.3603224 0 0 0 7.9998311,13.033912 c -0.3884773,0 -0.738498,0.162301 -0.9868367,0.425631 l -3.1651775,-1.858956 0.013689,-0.0541 h 8.2766521 c 0.0072,0.03129 0.01499,0.06192 0.02412,0.09256 z M 8.9840607,2.5430696 12.1538,4.4059356 12.14142,4.4528646 c -0.181854,0.7469714 0.264634,1.5024163 0.998569,1.686878 v 3.7198657 c -0.01695,0.00456 -0.03585,0.00913 -0.0528,0.014991 L 8.9469075,2.5808744 a 0.40607611,0.40607611 0 0 0 0.037153,-0.037805 z M 7.6185236,2.9119927 c 0.2489906,0.073003 0.5136244,0.073003 0.7639186,0 l 4.1409328,7.2911193 a 1.4111635,1.4111635 0 0 0 -0.386522,0.680486 H 3.8634603 A 1.4183333,1.4183333 0 0 0 3.4788938,10.205067 Z M 3.843906,4.4013729 7.0136462,2.5424177 7.052103,2.5815257 2.913125,9.8746006 2.8590247,9.8596095 V 6.1390918 l 0.048886,-0.013688 C 3.6346758,5.9122629 4.053788,5.1411745 3.843906,4.4013729 Z"
     id="path2"
     style="stroke-width:0.651809" />
</svg>
