<?xml version="1.0" encoding="UTF-8" standalone="no"?>
<svg
   viewBox="0 0 16 16"
   version="1.1"
   id="svg4"
   sodipodi:docname="gulp.svg"
   width="16"
   height="16"
   inkscape:version="1.2.1 (9c6d41e410, 2022-07-14)"
   xmlns:inkscape="http://www.inkscape.org/namespaces/inkscape"
   xmlns:sodipodi="http://sodipodi.sourceforge.net/DTD/sodipodi-0.dtd"
   xmlns="http://www.w3.org/2000/svg"
   xmlns:svg="http://www.w3.org/2000/svg">
  <defs
     id="defs8" />
  <sodipodi:namedview
     id="namedview6"
     pagecolor="#ffffff"
     bordercolor="#666666"
     borderopacity="1.0"
     inkscape:showpageshadow="2"
     inkscape:pageopacity="0.0"
     inkscape:pagecheckerboard="0"
     inkscape:deskcolor="#d1d1d1"
     showgrid="false"
     inkscape:zoom="32"
     inkscape:cx="7.984375"
     inkscape:cy="8"
     inkscape:window-width="1366"
     inkscape:window-height="715"
     inkscape:window-x="-8"
     inkscape:window-y="-8"
     inkscape:window-maximized="1"
     inkscape:current-layer="svg4" />
  <path
     fill="#eb4a4b"
     fill-rule="evenodd"
     d="M 4.5217057,4.3277957 C 4.6345377,5.5156029 4.7464787,6.6967203 4.8609873,7.9043416 5.0476766,7.5833301 5.1827713,7.275442 5.3865727,7.0232649 5.5763486,6.7883275 5.8155309,6.5715325 6.0758149,6.421384 6.415611,6.2253028 6.8611669,6.4099262 6.9713021,6.7577063 c 0.029593,0.093279 -0.041035,0.218339 -0.065741,0.32886 C 6.822443,7.0426902 6.7152685,7.018506 6.6609743,6.9513427 6.4302829,6.666099 6.2913275,6.6323893 6.036191,6.8789057 5.5602699,7.3390006 5.2926529,7.9154069 5.1904957,8.5632196 5.1708124,8.6885365 5.2491656,8.829164 5.2822331,8.9627157 5.4123046,8.9179425 5.5633596,8.9014728 5.6684761,8.8232458 6.0102025,8.5688809 6.2219804,8.2229085 6.3388049,7.8093894 6.3641635,7.7198403 6.5015635,7.6620707 6.5875098,7.5896344 6.6286817,7.6742939 6.7226045,7.7740072 6.7029216,7.8410402 6.5218931,8.4637638 6.3254259,9.0824995 6.1193103,9.6975038 6.0984588,9.7597745 5.984079,9.7907846 5.9129365,9.8363302 5.8842542,9.7545009 5.8239003,9.6688121 5.833552,9.5917435 5.8551622,9.4170206 5.9113885,9.2465432 5.9506331,9.0864881 L 5.0191204,9.5153186 c 0.052098,0.5946744 0.1061389,1.2617874 0.1702188,1.9279994 0.049155,0.508731 0.1323935,0.640479 0.6334031,0.736976 0.5846404,0.112569 1.1802163,0.184501 1.7745068,0.228246 0.8781185,0.06473 1.7485154,-0.01532 2.6028329,-0.244972 0.318052,-0.08542 0.444913,-0.294636 0.467687,-0.606898 0.02083,-0.287561 0.06741,-0.573319 0.09972,-0.860106 0.06343,-0.564956 0.125063,-1.130038 0.189906,-1.7186672 -0.214479,0.1358673 -0.383154,0.2879459 -0.580394,0.3524058 -0.143593,0.04696 -0.324743,-0.021742 -0.4893026,-0.038983 C 9.9192154,9.1402709 9.9172834,8.9700501 9.9901104,8.842675 10.108737,8.6345 10.276254,8.4539868 10.422929,8.2617661 l -0.06317,-0.076039 C 10.254635,8.2478722 10.124044,8.2886555 10.049293,8.3767891 9.8972134,8.5561438 9.74835,8.7481079 9.6465787,8.9583411 9.4762397,9.3102316 9.3464184,9.6816787 9.1939554,10.042446 9.1276978,10.1989 9.0705611,10.438212 8.8486263,10.346862 8.6112436,10.24895 8.7782409,10.039874 8.8339058,9.8911406 8.9225473,9.6538877 9.039636,9.4271851 9.1188914,9.2527197 c -0.2246439,0.026764 -0.452376,0.059055 -0.681137,0.078999 -0.096761,0.00823 -0.2117778,-0.044773 -0.2909043,-0.009 C 7.8837357,9.4416035 7.716989,9.3938696 7.6623092,9.1025787 7.540463,9.1817052 7.4372783,9.2888816 7.3156932,9.3177013 7.168124,9.3528286 6.9679192,9.3758594 6.8598435,9.3021355 6.7732506,9.2430806 6.7417305,9.0211379 6.7713233,8.890932 6.8301294,8.6320641 6.939999,8.3832319 7.0443444,8.137101 7.1089329,7.9846369 7.1738999,7.741208 7.3918588,7.8472261 7.6072394,7.9518277 7.411678,8.1283519 7.3620087,8.2700089 7.2849459,8.488992 7.2064556,8.7075886 7.128745,8.926314 L 7.2522606,9.000938 C 7.369857,8.8987807 7.5164034,8.8155357 7.5987471,8.6902188 7.7335838,8.4853893 7.8150276,8.2460776 7.9426618,8.0358442 7.9955341,7.9487394 8.109407,7.8988192 8.1957389,7.8320436 8.2132357,7.9429495 8.2551818,8.0569446 8.2412819,8.1639913 8.2274721,8.2721952 8.1514716,8.3711372 8.115065,8.4781838 8.060386,8.6384972 8.0162555,8.8024121 7.9606713,8.9888434 8.2235277,8.9988858 8.3361077,8.8882284 8.4103444,8.6930498 8.645282,8.076373 8.8827916,7.4603392 9.1410165,6.8531828 9.1851481,6.749224 9.3351676,6.6905548 9.4364249,6.610784 9.4481122,6.7361011 9.5039735,6.8781436 9.4642117,6.9837753 9.2525629,7.543326 9.0149242,8.0928414 8.7915671,8.6480182 8.7538703,8.7415557 8.7417758,8.8453855 8.71798,8.944455 9.1115569,8.7675447 9.4400303,8.5719783 9.5599436,8.1536983 9.5892821,8.0520556 9.7094545,7.9765309 9.7878045,7.8889124 l 0.1821847,0.1929928 c 0.055342,-0.046572 0.1060288,-0.099584 0.1661038,-0.1383119 0.189133,-0.1218432 0.392805,-0.2292754 0.592232,-0.040529 0.206373,0.1951801 0.05017,0.3853425 -0.05764,0.5541467 C 10.553343,8.6413265 10.409628,8.8084582 10.277364,8.9829242 10.57483,8.7912176 10.981017,8.7052717 11.035056,8.2909798 11.166811,7.279053 11.2826,6.2650681 11.400068,5.2513403 11.434928,4.9513004 11.453588,4.6493307 11.480728,4.336682 9.1377923,4.903953 6.8451635,4.9074268 4.5216568,4.327792 Z M 5.527328,12.223651 c 0.1128316,0.298113 0.2842147,0.590947 0.3291183,0.902053 0.094818,0.662221 0.1188863,1.334481 0.1860442,2.001207 0.00972,0.09715 0.072693,0.230562 0.151181,0.273277 1.1553856,0.627873 2.3219635,0.736718 3.5007659,0.05005 0.1758795,-0.102412 0.2084313,-0.237634 0.2312033,-0.427796 0.1102723,-0.923922 -0.1352153,-1.90394 0.4554643,-2.773953 -1.6540794,0.410303 -3.2683998,0.423039 -4.8537741,-0.02483 z M 9.5146924,4.4936412 C 10.075916,4.4394746 10.630321,4.3077246 11.185369,4.1988765 11.289973,4.1784192 11.382864,4.0987772 11.481162,4.0464121 11.351607,3.9325467 11.239535,3.8777361 11.122452,3.8639692 10.539616,3.7951351 9.9547162,3.7421261 9.3722629,3.669947 9.2842586,3.6590054 9.1271622,3.5504197 9.1337242,3.5306062 9.3036867,3.0185315 9.2953235,2.4389091 9.6810521,2.007377 10.168554,1.46185 10.661072,0.9210837 11.149859,0.38005998 10.78626,-0.01107245 10.78137,-0.01158709 10.451868,0.33078267 10.265563,0.52429033 10.095344,0.73606797 9.893215,0.91130568 9.1453032,1.5595047 8.6199761,2.3272308 8.5175607,3.3394147 8.4940232,3.5716496 8.3665164,3.6555374 8.1226979,3.6591396 7.317789,3.6708554 6.5119786,3.6929773 5.7088695,3.7458587 5.3109185,3.7719776 4.9178554,3.8741348 4.5224784,3.9418108 l -0.00364,0.1478332 c 0.2474165,0.076295 0.490074,0.1765244 0.7427657,0.22503 1.4080773,0.2699328 2.829406,0.3162512 4.2530511,0.1789688 z M 9.0648899,4.140078 c -0.3186957,0.2573239 -0.5820665,0.2573239 -0.8364319,0 z"
     clip-rule="evenodd"
     id="path2"
     style="stroke-width:0.128661" />
</svg>
