<?xml version="1.0" encoding="UTF-8" standalone="no"?>
<svg
   data-name="Layer 1"
   viewBox="0 0 16 16"
   version="1.1"
   id="svg28"
   sodipodi:docname="hand.svg"
   width="16"
   height="16"
   inkscape:version="1.2.1 (9c6d41e410, 2022-07-14)"
   xmlns:inkscape="http://www.inkscape.org/namespaces/inkscape"
   xmlns:sodipodi="http://sodipodi.sourceforge.net/DTD/sodipodi-0.dtd"
   xmlns="http://www.w3.org/2000/svg"
   xmlns:svg="http://www.w3.org/2000/svg">
  <defs
     id="defs32" />
  <sodipodi:namedview
     id="namedview30"
     pagecolor="#ffffff"
     bordercolor="#000000"
     borderopacity="0.25"
     inkscape:showpageshadow="2"
     inkscape:pageopacity="0.0"
     inkscape:pagecheckerboard="0"
     inkscape:deskcolor="#d1d1d1"
     showgrid="false"
     inkscape:zoom="32"
     inkscape:cx="7.984375"
     inkscape:cy="8"
     inkscape:window-width="1366"
     inkscape:window-height="715"
     inkscape:window-x="-8"
     inkscape:window-y="-8"
     inkscape:window-maximized="1"
     inkscape:current-layer="svg28" />
  <g
     data-name="&lt;Group&gt;"
     id="g26"
     transform="matrix(0.0327611,0,0,0.0327611,-0.38677608,-0.38689417)">
    <g
       data-name=" Group 2"
       id="g24">
      <g
         data-name="&lt;Group&gt;"
         id="g22">
        <g
           data-name="&lt;Group&gt;"
           id="g10">
          <path
             fill="#f7caa5"
             d="m 439.5,200.14 -1.64,-67.18 a 28.094,28.094 0 0 1 25.33,-29.38 l 23.02,145.27 a 84.868,84.868 0 0 1 -15.97,50.87 l -56.35,68.2 a 31.525,31.525 0 0 0 -7.14,22.43 l 1.51,20.14 -78.46,-37.37 0.3,-0.64 a 83.346,83.346 0 0 1 29.54,-81.63 l 4.47,-3.59 a 59.56,59.56 0 0 0 16.51,-20.85 l 21.54,-45.22 a 37.244,37.244 0 0 1 37.34,-21.05 z"
             data-name="&lt;Group&gt;"
             id="path2" />
          <polygon
             fill="#00efd1"
             points="308.28,362.87 329.8,373.12 408.26,410.49 417.09,414.7 393.48,464.29 284.66,412.46 "
             data-name="&lt;Group&gt;"
             id="polygon4" />
          <polygon
             fill="#00efd1"
             points="118.52,464.29 94.91,414.7 103.74,410.49 182.2,373.12 203.72,362.87 227.34,412.46 "
             data-name="&lt;Group&gt;"
             id="polygon6" />
          <path
             fill="#f7caa5"
             d="m 72.5,200.14 a 37.244,37.244 0 0 1 37.34,21.05 l 21.54,45.22 a 59.56,59.56 0 0 0 16.51,20.85 l 4.47,3.59 a 83.346,83.346 0 0 1 29.54,81.63 l 0.3,0.64 -78.46,37.37 1.51,-20.14 A 31.525,31.525 0 0 0 98.11,367.92 L 41.76,299.72 A 84.868,84.868 0 0 1 25.79,248.85 L 48.81,103.58 a 28.1,28.1 0 0 1 25.37,27.94 c 0,0.48 -0.02,0.96 -0.04,1.44 z"
             data-name="&lt;Group&gt;"
             id="path8" />
        </g>
        <g
           data-name="&lt;Group&gt;"
           id="g20">
          <path
             fill="#083863"
             d="m 471.092,102.328 a 8.006,8.006 0 0 0 -8.68,-6.71 36.045,36.045 0 0 0 -32.547,37.636 l 1.439,58.928 A 45.338,45.338 0 0 0 394.938,217.75 L 373.4,262.968 a 51.878,51.878 0 0 1 -14.3,18.054 l -4.466,3.586 a 90.93,90.93 0 0 0 -34.124,75.227 l -8.791,-4.188 a 8,8 0 0 0 -10.663,3.783 l -23.62,49.59 a 8,8 0 0 0 3.782,10.663 l 108.82,51.83 a 8,8 0 0 0 10.664,-3.784 l 23.609,-49.59 a 8,8 0 0 0 -3.78,-10.66 l -4.642,-2.214 -1.162,-15.5 a 23.419,23.419 0 0 1 5.328,-16.745 l 56.35,-68.2 q 0.171,-0.205 0.327,-0.423 a 93.475,93.475 0 0 0 17.475,-55.666 7.917,7.917 0 0 0 -0.1,-1.129 z m -81.4,351.3 -94.373,-44.95 16.739,-35.144 94.372,44.946 z m 74.2,-158.791 -56.171,67.983 a 39.355,39.355 0 0 0 -8.955,28.129 l 0.479,6.39 -61.845,-29.463 a 75.028,75.028 0 0 1 27.252,-70.788 l 4.466,-3.587 a 67.971,67.971 0 0 0 18.729,-23.65 l 21.541,-45.223 a 29.3,29.3 0 0 1 29.33,-16.526 q 0.974,0.1 1.938,0.258 l -31.485,66.11 a 8,8 0 1 0 14.445,6.88 l 35.4,-74.33 a 8,8 0 0 0 -3.784,-10.663 45.438,45.438 0 0 0 -7.889,-2.893 l -1.482,-60.7 c 0,-0.071 0,-0.14 -0.008,-0.211 a 20.059,20.059 0 0 1 10.841,-18.873 l 21.527,135.846 a 77.389,77.389 0 0 1 -14.321,45.31 z m -366.62,94.915 -1.163,15.515 -4.642,2.212 a 8,8 0 0 0 -3.78,10.66 l 23.609,49.59 a 8,8 0 0 0 10.664,3.784 l 108.82,-51.83 a 8,8 0 0 0 3.782,-10.663 l -23.62,-49.59 a 8,8 0 0 0 -10.663,-3.783 l -8.791,4.188 a 90.926,90.926 0 0 0 -34.119,-75.223 l -4.475,-3.594 A 51.86,51.86 0 0 1 138.6,262.97 L 117.06,217.752 A 45.363,45.363 0 0 0 80.695,192.18 l 1.441,-58.953 c 0.023,-0.569 0.044,-1.138 0.044,-1.707 a 35.954,35.954 0 0 0 -32.594,-35.9 8,8 0 0 0 -8.678,6.71 L 17.889,247.6 a 7.917,7.917 0 0 0 -0.1,1.129 93.475,93.475 0 0 0 17.475,55.666 q 0.156,0.218 0.327,0.423 l 56.354,68.205 a 23.411,23.411 0 0 1 5.327,16.729 z m 119.4,18.925 -94.372,44.95 -16.73,-35.147 80.071,-38.137 14.3,-6.81 z M 33.782,249.527 55.311,113.669 A 20,20 0 0 1 66.18,131.52 c 0,0.366 -0.018,0.732 -0.034,1.1 0,0.048 0,0.1 0,0.146 l -1.481,60.7 a 45.5,45.5 0 0 0 -7.89,2.893 8,8 0 0 0 -3.784,10.663 l 35.4,74.33 a 8,8 0 1 0 14.445,-6.88 L 71.348,208.361 q 0.971,-0.165 1.954,-0.261 a 29.29,29.29 0 0 1 29.315,16.53 l 21.541,45.222 a 67.968,67.968 0 0 0 18.723,23.648 l 4.475,3.594 a 75.024,75.024 0 0 1 27.244,70.784 l -61.855,29.464 0.48,-6.4 a 39.347,39.347 0 0 0 -8.952,-28.115 L 48.1,294.836 A 77.389,77.389 0 0 1 33.782,249.527 Z"
             data-name="&lt;Compound Path&gt;"
             id="path12" />
          <polygon
             fill="#083863"
             points="137.556,130.12 199.523,192.077 210.836,180.763 160.185,130.12 210.836,79.477 199.523,68.163 "
             data-name="&lt;Path&gt;"
             id="polygon14" />
          <polygon
             fill="#083863"
             points="351.815,130.12 301.164,180.763 312.477,192.077 374.444,130.12 312.477,68.163 301.164,79.477 "
             data-name="&lt;Path&gt;"
             id="polygon16" />
          <rect
             width="183.021"
             height="15.999"
             x="164.489"
             y="122.121"
             fill="#083863"
             data-name="&lt;Path&gt;"
             transform="rotate(-74.802,255.999,130.12)"
             id="rect18" />
        </g>
      </g>
    </g>
  </g>
</svg>
