<?xml version="1.0" encoding="UTF-8" standalone="no"?>
<!-- Created with Inkscape (http://www.inkscape.org/) -->

<svg
   width="16"
   height="16"
   viewBox="0 0 16 16"
   version="1.1"
   id="svg15263"
   xmlns="http://www.w3.org/2000/svg"
   xmlns:svg="http://www.w3.org/2000/svg">
  <defs
     id="defs15260" />
  <g
     id="g956"
     transform="translate(-0.71433091,-0.25390148)">
    <rect
       width="10.697515"
       height="14.748784"
       x="3.3655736"
       y="0.87950945"
       rx="0.53711379"
       ry="0.52831465"
       fill="#ffffff"
       stroke="#000000"
       id="rect3471"
       style="stroke-width:0.3;stroke-dasharray:none" />
    <g
       id="use3298-81"
       transform="matrix(0.00248134,0,0,0.00244069,4.8329555,2.7099707)">
      <path
         d="m 0,-500 c 100,250 355,400 355,685 a 150,150 0 0 1 -300,0 10,10 0 0 0 -20,0 c 0,200 50,215 95,315 h -260 c 45,-100 95,-115 95,-315 a 10,10 0 0 0 -20,0 150,150 0 0 1 -300,0 c 0,-285 255,-435 355,-685 z"
         fill="#000000"
         id="path874-74" />
    </g>
    <g
       id="g573"
       transform="translate(0.24262451,0.47087588)">
      <g
         id="use3296-8"
         transform="matrix(0.00556732,0,0,0.00547614,6.8085218,5.2635512)">
        <path
           d="m -260,100 c 300,0 220,360 520,360 M -175,0 v -285 a 175,175 0 0 1 350,0 v 570 a 175,175 0 0 1 -350,0 z"
           stroke="#000000"
           stroke-width="80"
           stroke-linecap="square"
           stroke-miterlimit="1.5"
           fill="none"
           id="path878-9" />
      </g>
      <g
         id="use3296-8-7"
         transform="matrix(-0.00556732,0,0,-0.00547614,10.134891,10.3025)">
        <path
           d="m -260,100 c 300,0 220,360 520,360 M -175,0 v -285 a 175,175 0 0 1 350,0 v 570 a 175,175 0 0 1 -350,0 z"
           stroke="#000000"
           stroke-width="80"
           stroke-linecap="square"
           stroke-miterlimit="1.5"
           fill="none"
           id="path878-9-2"
           style="stroke:#ff0000" />
      </g>
    </g>
    <g
       id="use3298-8"
       transform="matrix(0.00571119,0,0,-0.00561763,5.9839968,12.007477)">
      <path
         d="m 0,-500 c 100,250 355,400 355,685 a 150,150 0 0 1 -300,0 10,10 0 0 0 -20,0 c 0,200 50,215 95,315 h -260 c 45,-100 95,-115 95,-315 a 10,10 0 0 0 -20,0 150,150 0 0 1 -300,0 c 0,-285 255,-435 355,-685 z"
         fill="#000000"
         id="path874-7" />
    </g>
    <g
       id="use3473"
       style="stroke-width:3.89276;stroke-dasharray:none"
       transform="matrix(0.00507226,0,0,0.00473227,11.330971,3.8630364)">
      <path
         d="m 0,-300 c 0,-100 100,-200 200,-200 100,0 200,100 200,250 C 400,0 0,400 0,500 0,400 -400,0 -400,-250 c 0,-150 100,-250 200,-250 100,0 200,100 200,200 z"
         fill="#ff0000"
         id="path862" />
    </g>
    <g
       id="use3477"
       style="stroke-width:3.89276;stroke-dasharray:none"
       transform="matrix(0.00200183,0,0,-0.00196904,12.696409,13.518069)">
      <path
         d="m 0,-300 c 0,-100 100,-200 200,-200 100,0 200,100 200,250 C 400,0 0,400 0,500 0,400 -400,0 -400,-250 c 0,-150 100,-250 200,-250 100,0 200,100 200,200 z"
         fill="#ff0000"
         id="path866" />
    </g>
  </g>
</svg>
