<?xml version="1.0" encoding="UTF-8" standalone="no"?>
<!-- Created with Inkscape (http://www.inkscape.org/) -->

<svg
   width="16"
   height="16"
   viewBox="0 0 16 16"
   version="1.1"
   id="svg15263"
   xmlns="http://www.w3.org/2000/svg"
   xmlns:svg="http://www.w3.org/2000/svg">
  <defs
     id="defs15260" />
  <rect
     width="10.697515"
     height="14.748782"
     x="1.9361943"
     y="0.37241769"
     rx="0.53711373"
     ry="0.52831459"
     fill="#ffffff"
     stroke="#000000"
     id="rect3270"
     style="stroke-width:0.172805;stroke-dasharray:none;fill:none" />
  <g
     id="use3296"
     transform="matrix(0.0014323,0,0,0.00140884,2.8806186,1.583138)">
    <path
       d="m -260,100 c 300,0 220,360 520,360 M -175,0 v -285 a 175,175 0 0 1 350,0 v 570 a 175,175 0 0 1 -350,0 z"
       stroke="#000000"
       stroke-width="80"
       stroke-linecap="square"
       stroke-miterlimit="1.5"
       fill="none"
       id="path878" />
  </g>
  <g
     id="use3298"
     transform="matrix(9.9847207e-4,0,0,9.8211487e-4,2.8806412,3.0969575)">
    <path
       d="m 0,-500 c 100,250 355,400 355,685 a 150,150 0 0 1 -300,0 10,10 0 0 0 -20,0 c 0,200 50,215 95,315 h -260 c 45,-100 95,-115 95,-315 a 10,10 0 0 0 -20,0 150,150 0 0 1 -300,0 c 0,-285 255,-435 355,-685 z"
       fill="#000000"
       id="path874" />
  </g>
  <rect
     width="10.697515"
     height="14.748784"
     x="3.3655736"
     y="0.87950945"
     rx="0.53711379"
     ry="0.52831465"
     fill="#ffffff"
     stroke="#000000"
     id="rect3471"
     style="stroke-width:0.172805;stroke-dasharray:none" />
  <g
     id="use3473"
     style="stroke-width:3.89276;stroke-dasharray:none"
     transform="matrix(0.00261097,0,0,0.0025682,8.7143314,8.2539013)">
    <path
       d="m 0,-300 c 0,-100 100,-200 200,-200 100,0 200,100 200,250 C 400,0 0,400 0,500 0,400 -400,0 -400,-250 c 0,-150 100,-250 200,-250 100,0 200,100 200,200 z"
       fill="#ff0000"
       id="path862" />
  </g>
  <g
     id="use3475"
     style="stroke-width:3.89276;stroke-dasharray:none"
     transform="matrix(0.0014323,0,0,0.00140884,4.3099985,2.0902305)">
    <path
       d="m -270,460 h 160 M -200,450 0,-460 200,450 m -90,10 H 270 M -120,130 h 240"
       stroke="#ff0000"
       stroke-width="80"
       stroke-linecap="square"
       stroke-miterlimit="1.5"
       fill="none"
       id="path854" />
  </g>
  <g
     id="use3477"
     style="stroke-width:3.89276;stroke-dasharray:none"
     transform="matrix(9.984721e-4,0,0,9.821149e-4,4.3100211,3.6040501)">
    <path
       d="m 0,-300 c 0,-100 100,-200 200,-200 100,0 200,100 200,250 C 400,0 0,400 0,500 0,400 -400,0 -400,-250 c 0,-150 100,-250 200,-250 100,0 200,100 200,200 z"
       fill="#ff0000"
       id="path866" />
  </g>
  <g
     transform="matrix(-0.04475948,0,0,-0.04402622,8.7143314,8.2539013)"
     id="g3483"
     style="stroke-width:3.89276;stroke-dasharray:none">
    <g
       id="use3479"
       style="stroke-width:3.89276;stroke-dasharray:none"
       transform="matrix(0.032,0,0,0.032,-98.400002,-140)">
      <path
         d="m -270,460 h 160 M -200,450 0,-460 200,450 m -90,10 H 270 M -120,130 h 240"
         stroke="#ff0000"
         stroke-width="80"
         stroke-linecap="square"
         stroke-miterlimit="1.5"
         fill="none"
         id="path858" />
    </g>
    <g
       id="use3481"
       style="stroke-width:3.89276;stroke-dasharray:none"
       transform="matrix(0.0223075,0,0,0.0223075,-98.399497,-105.6155)">
      <path
         d="m 0,-300 c 0,-100 100,-200 200,-200 100,0 200,100 200,250 C 400,0 0,400 0,500 0,400 -400,0 -400,-250 c 0,-150 100,-250 200,-250 100,0 200,100 200,200 z"
         fill="#ff0000"
         id="path870" />
    </g>
  </g>
</svg>
