<?xml version="1.0" encoding="UTF-8" standalone="no"?>
<svg
   viewBox="0 0 16 16"
   version="1.1"
   id="svg12"
   sodipodi:docname="html5.svg"
   width="16"
   height="16"
   inkscape:version="1.2.1 (9c6d41e410, 2022-07-14)"
   xmlns:inkscape="http://www.inkscape.org/namespaces/inkscape"
   xmlns:sodipodi="http://sodipodi.sourceforge.net/DTD/sodipodi-0.dtd"
   xmlns="http://www.w3.org/2000/svg"
   xmlns:svg="http://www.w3.org/2000/svg">
  <defs
     id="defs16" />
  <sodipodi:namedview
     id="namedview14"
     pagecolor="#ffffff"
     bordercolor="#666666"
     borderopacity="1.0"
     inkscape:showpageshadow="2"
     inkscape:pageopacity="0.0"
     inkscape:pagecheckerboard="0"
     inkscape:deskcolor="#d1d1d1"
     showgrid="false"
     inkscape:zoom="32"
     inkscape:cx="7.984375"
     inkscape:cy="8"
     inkscape:window-width="1366"
     inkscape:window-height="715"
     inkscape:window-x="-8"
     inkscape:window-y="-8"
     inkscape:window-maximized="1"
     inkscape:current-layer="svg12" />
  <g
     id="g304"
     transform="matrix(0.12721686,0,0,0.12721686,-0.14187904,-0.14187904)">
    <path
       fill="#e44d26"
       d="M 27.854,116.354 19.811,26.143 h 88.378 l -8.051,90.197 -36.192,10.033 z"
       id="path2" />
    <path
       fill="#f16529"
       d="m 64,118.704 29.244,-8.108 6.881,-77.076 H 64 Z"
       id="path4" />
    <path
       fill="#ebebeb"
       d="M 64,66.978 H 49.359 L 48.349,55.647 H 64 V 44.583 H 36.257 l 0.264,2.969 2.72,30.489 H 64 Z M 64,95.711 63.951,95.724 51.63,92.396 50.842,83.573 H 39.735 l 1.55,17.372 22.664,6.292 0.051,-0.015 z"
       id="path6" />
    <path
       d="m 28.034,1.627 h 5.622 V 7.183 H 38.8 V 1.627 h 5.623 V 18.449 H 38.8 v -5.633 h -5.143 v 5.633 h -5.623 z m 23.782,5.579 h -4.95 V 1.627 H 62.391 V 7.206 H 57.439 V 18.449 H 51.816 Z M 64.855,1.627 h 5.862 l 3.607,5.911 3.603,-5.911 h 5.865 v 16.822 h -5.601 v -8.338 l -3.867,5.981 h -0.098 l -3.87,-5.981 v 8.338 H 64.854 V 1.627 Z m 21.736,0 h 5.624 v 11.262 h 7.907 V 18.45 H 86.591 Z"
       id="path8" />
    <path
       fill="#ffffff"
       d="m 63.962,66.978 v 11.063 h 13.624 l -1.284,14.349 -12.34,3.331 v 11.51 l 22.682,-6.286 0.166,-1.87 2.6,-29.127 0.27,-2.97 h -2.982 z m 0,-22.395 v 11.064 h 26.725 l 0.221,-2.487 0.505,-5.608 0.265,-2.969 z"
       id="path10" />
  </g>
</svg>
