<?xml version="1.0" encoding="UTF-8" standalone="no"?>
<!-- Generator: Adobe Illustrator 24.1.0, SVG Export Plug-In . SVG Version: 6.00 Build 0)  -->

<svg
   version="1.1"
   id="Layer_1"
   x="0px"
   y="0px"
   viewBox="0 0 16 16"
   xml:space="preserve"
   sodipodi:docname="adobe-illustrator-seeklogo.com.svg"
   width="16"
   height="16"
   inkscape:version="1.2.1 (9c6d41e410, 2022-07-14)"
   xmlns:inkscape="http://www.inkscape.org/namespaces/inkscape"
   xmlns:sodipodi="http://sodipodi.sourceforge.net/DTD/sodipodi-0.dtd"
   xmlns="http://www.w3.org/2000/svg"
   xmlns:svg="http://www.w3.org/2000/svg"><defs
   id="defs19" /><sodipodi:namedview
   id="namedview17"
   pagecolor="#ffffff"
   bordercolor="#666666"
   borderopacity="1.0"
   inkscape:showpageshadow="2"
   inkscape:pageopacity="0.0"
   inkscape:pagecheckerboard="0"
   inkscape:deskcolor="#d1d1d1"
   showgrid="false"
   inkscape:zoom="32"
   inkscape:cx="7.984375"
   inkscape:cy="8"
   inkscape:window-width="1366"
   inkscape:window-height="715"
   inkscape:window-x="-8"
   inkscape:window-y="-8"
   inkscape:window-maximized="1"
   inkscape:current-layer="Layer_1" />
<style
   type="text/css"
   id="style2">
	.st0{fill:#330000;}
	.st1{fill:#FF9A00;}
</style>
<g
   id="Layer_2_1_"
   transform="matrix(0.06641839,0,0,0.06641839,0.0297932,0.22904837)">
	<g
   id="Surfaces">
		<g
   id="Drawing_Surface">
			<g
   id="Outline_no_shadow">
				<path
   class="st0"
   d="m 42.5,0 h 155 C 221,0 240,19 240,42.5 v 149 C 240,215 221,234 197.5,234 H 42.5 C 19,234 0,215 0,191.5 V 42.5 C 0,19 19,0 42.5,0 Z"
   id="path4" />
			</g>
		</g>
	</g>
	<g
   id="Outlined_Mnemonics_Logos">
		<g
   id="Ai">
			<path
   class="st1"
   d="M 116.3,140.4 H 79.1 l -7.6,23.5 c -0.2,0.9 -1,1.5 -1.9,1.4 H 50.8 c -1.1,0 -1.4,-0.6 -1.1,-1.8 L 81.9,70.8 c 0.3,-1 0.6,-2.1 1,-3.3 0.4,-2.1 0.6,-4.3 0.6,-6.5 -0.1,-0.5 0.3,-1 0.8,-1.1 0.1,0 0.2,0 0.3,0 h 25.6 c 0.8,0 1.2,0.3 1.3,0.8 l 36.5,103 c 0.3,1.1 0,1.6 -1,1.6 h -20.9 c -0.7,0.1 -1.4,-0.4 -1.6,-1.1 z M 84.9,120.1 h 25.4 c -0.6,-2.1 -1.4,-4.6 -2.3,-7.2 -0.9,-2.7 -1.8,-5.6 -2.7,-8.6 -1,-3.1 -1.9,-6.1 -2.9,-9.2 -1,-3.1 -1.9,-6 -2.7,-8.9 -0.8,-2.8 -1.5,-5.4 -2.2,-7.8 h -0.2 c -0.9,4.3 -2,8.6 -3.4,12.9 -1.5,4.8 -3,9.8 -4.6,14.8 -1.4,5.1 -2.9,9.8 -4.4,14 z"
   id="path9" />
			<path
   class="st1"
   d="m 169.8,77 c -3.3,0.1 -6.5,-1.2 -8.9,-3.5 -2.3,-2.5 -3.5,-5.8 -3.4,-9.2 -0.1,-3.4 1.2,-6.6 3.6,-8.9 2.4,-2.3 5.6,-3.5 8.9,-3.5 3.9,0 6.9,1.2 9.1,3.5 2.2,2.4 3.4,5.6 3.3,8.9 0.1,3.4 -1.1,6.7 -3.5,9.2 -2.3,2.4 -5.7,3.7 -9.1,3.5 z m -11.2,86.8 v -77 c 0,-1 0.4,-1.4 1.3,-1.4 h 19.8 c 0.9,0 1.3,0.5 1.3,1.4 v 77 c 0,1.1 -0.4,1.6 -1.3,1.6 h -19.6 c -1,0 -1.5,-0.6 -1.5,-1.6 z"
   id="path11" />
		</g>
	</g>
</g>
</svg>
