<?xml version="1.0" encoding="UTF-8" standalone="no"?>
<svg
   height="16"
   viewBox="-0.118 -0.109 1.6119744 2.0658225"
   width="16"
   version="1.1"
   id="svg6"
   sodipodi:docname="indeed-seeklogo.com.svg"
   inkscape:version="1.2.1 (9c6d41e410, 2022-07-14)"
   xmlns:inkscape="http://www.inkscape.org/namespaces/inkscape"
   xmlns:sodipodi="http://sodipodi.sourceforge.net/DTD/sodipodi-0.dtd"
   xmlns="http://www.w3.org/2000/svg"
   xmlns:svg="http://www.w3.org/2000/svg">
  <defs
     id="defs10" />
  <sodipodi:namedview
     id="namedview8"
     pagecolor="#ffffff"
     bordercolor="#666666"
     borderopacity="1.0"
     inkscape:showpageshadow="2"
     inkscape:pageopacity="0.0"
     inkscape:pagecheckerboard="0"
     inkscape:deskcolor="#d1d1d1"
     showgrid="false"
     inkscape:zoom="32"
     inkscape:cx="7.984375"
     inkscape:cy="8"
     inkscape:window-width="1366"
     inkscape:window-height="715"
     inkscape:window-x="-8"
     inkscape:window-y="-8"
     inkscape:window-maximized="1"
     inkscape:current-layer="svg6" />
  <g
     id="g295"
     transform="matrix(0.00816888,0,0,0.00816888,-0.34027889,0.65743278)">
    <path
       d="m 245.106,11.497 h 1.107 c 0.53,0 0.892,-0.08 1.087,-0.236 a 0.765,0.765 0 0 0 0.286,-0.624 0.757,0.757 0 0 0 -0.139,-0.448 0.81,0.81 0 0 0 -0.387,-0.293 c -0.163,-0.07 -0.47,-0.098 -0.917,-0.098 h -1.037 z m -0.915,3.186 V 9.028 h 1.944 c 0.663,0 1.146,0.053 1.445,0.156 0.296,0.104 0.532,0.288 0.71,0.55 0.176,0.257 0.265,0.534 0.265,0.824 0,0.415 -0.15,0.773 -0.444,1.08 -0.296,0.305 -0.688,0.478 -1.175,0.515 0.2,0.083 0.36,0.183 0.481,0.299 0.224,0.221 0.503,0.596 0.833,1.122 l 0.688,1.11 h -1.123 l -0.498,-0.893 c -0.397,-0.698 -0.711,-1.137 -0.946,-1.314 -0.168,-0.133 -0.409,-0.2 -0.728,-0.2 h -0.537 v 2.406 z m 2.302,-7.304 c -0.74,0 -1.46,0.19 -2.162,0.568 a 4.105,4.105 0 0 0 -1.644,1.629 4.425,4.425 0 0 0 -0.592,2.202 c 0,0.759 0.193,1.486 0.58,2.184 0.39,0.694 0.933,1.236 1.633,1.624 a 4.397,4.397 0 0 0 2.185,0.585 c 0.76,0 1.488,-0.194 2.184,-0.585 a 4.098,4.098 0 0 0 1.626,-1.624 4.421,4.421 0 0 0 0.582,-2.184 c 0,-0.764 -0.197,-1.5 -0.59,-2.202 a 4.067,4.067 0 0 0 -1.644,-1.63 c -0.703,-0.378 -1.423,-0.567 -2.158,-0.567 m 0,-0.868 c 0.883,0 1.748,0.227 2.588,0.68 a 4.814,4.814 0 0 1 1.966,1.946 c 0.473,0.846 0.706,1.725 0.706,2.641 0,0.906 -0.23,1.779 -0.693,2.616 a 4.919,4.919 0 0 1 -1.95,1.952 5.317,5.317 0 0 1 -2.617,0.692 5.323,5.323 0 0 1 -2.62,-0.692 4.949,4.949 0 0 1 -1.95,-1.952 5.32,5.32 0 0 1 -0.698,-2.616 c 0,-0.916 0.236,-1.795 0.71,-2.641 a 4.858,4.858 0 0 1 1.968,-1.945 c 0.844,-0.454 1.705,-0.681 2.59,-0.681"
       fill="#808080"
       id="path2" />
    <path
       d="M 28.664,0.008 C 26.027,0.078 23.373,0.629 20.85,1.538 11.079,5.616 4.284,14.514 1.21,25.19 0.691,27.194 0.27,29.2 0.044,31.27 c 0,0.067 -0.162,2.105 0.129,1.555 0.291,-0.484 0.42,-1.197 0.582,-1.748 C 2.243,26.063 4.057,21.5 6.839,17.165 13.505,7.36 24.214,1.052 35.537,4.547 c 2.104,0.71 3.98,1.747 5.856,2.976 0.355,0.259 2.976,2.33 2.394,0.453 C 43.302,6.49 42.073,5.225 41.004,4.222 37.406,1.108 33.06,-0.109 28.664,0.008 Z m 82.643,9.81 c -1.52,0 -2.684,0.52 -3.494,1.588 -0.842,1.034 -1.229,2.588 -1.229,4.627 v 14.754 c -1.877,-2.07 -3.817,-3.56 -5.79,-4.565 a 14.287,14.287 0 0 0 -4.306,-1.293 21.666,21.666 0 0 0 -2.974,-0.193 c -4.95,0 -8.995,1.745 -12.035,5.238 -3.043,3.495 -4.563,8.35 -4.563,14.594 0,2.945 0.39,5.693 1.133,8.217 0.778,2.524 1.909,4.723 3.397,6.6 a 15.871,15.871 0 0 0 5.304,4.337 c 2.039,1 4.238,1.52 6.633,1.52 1.069,0 2.104,-0.1 3.105,-0.293 a 12.156,12.156 0 0 0 1.877,-0.451 15.966,15.966 0 0 0 4.239,-2.2 c 1.328,-0.972 2.621,-2.233 3.98,-3.753 v 0.968 c 0,1.847 0.454,3.238 1.326,4.24 0.873,0.97 2.04,1.489 3.397,1.489 1.326,0 2.491,-0.485 3.365,-1.424 0.874,-0.971 1.293,-2.393 1.293,-4.305 v -44 c 0,-1.843 -0.387,-3.267 -1.197,-4.238 -0.839,-0.97 -2.005,-1.457 -3.461,-1.457 z m 122.1,0 c -1.52,0 -2.685,0.52 -3.493,1.588 -0.81,1.034 -1.23,2.588 -1.23,4.627 v 14.754 c -1.876,-2.07 -3.818,-3.56 -5.79,-4.565 -1.23,-0.615 -2.685,-1.065 -4.304,-1.293 a 21.668,21.668 0 0 0 -2.977,-0.193 c -4.948,0 -8.96,1.745 -12.035,5.238 -3.04,3.495 -4.562,8.35 -4.562,14.594 0,2.945 0.388,5.693 1.164,8.217 0.776,2.524 1.876,4.723 3.365,6.6 a 15.854,15.854 0 0 0 5.307,4.337 c 2.037,1 4.239,1.52 6.633,1.52 1.098,0 2.134,-0.1 3.105,-0.293 0.648,-0.096 1.26,-0.257 1.875,-0.451 a 15.947,15.947 0 0 0 4.238,-2.2 c 1.328,-0.972 2.655,-2.233 3.98,-3.753 v 0.968 c 0,1.847 0.453,3.238 1.327,4.24 0.906,0.97 2.038,1.489 3.396,1.489 1.393,0 2.523,-0.485 3.399,-1.424 0.874,-0.971 1.326,-2.393 1.326,-4.305 v -44 c 0,-1.843 -0.42,-3.267 -1.228,-4.238 -0.842,-0.97 -1.974,-1.457 -3.497,-1.457 z M 26.114,12.513 a 8.148,8.148 0 0 0 -3.939,0.899 c -4.044,2.037 -5.663,6.987 -3.592,11.031 2.038,4.045 6.986,5.664 11.031,3.594 4.044,-2.039 5.662,-6.989 3.592,-11.031 A 8.17,8.17 0 0 0 26.114,12.513 Z M 138.84,24.605 c -2.88,0.033 -5.5,0.518 -7.894,1.422 -2.46,0.973 -4.529,2.365 -6.211,4.145 -1.684,1.81 -2.978,3.98 -3.852,6.502 -0.874,2.525 -1.326,5.275 -1.326,8.218 0,6.277 1.812,11.193 5.37,14.848 3.365,3.464 7.993,5.274 13.913,5.467 0.355,0.034 0.679,0.035 1.035,0.035 2.815,0 5.274,-0.357 7.442,-1.1 2.167,-0.746 3.946,-1.65 5.369,-2.752 1.457,-1.13 2.492,-2.296 3.205,-3.494 0.712,-1.196 1.066,-2.263 1.066,-3.136 0,-1.003 -0.322,-1.812 -0.937,-2.364 -0.645,-0.548 -1.489,-0.841 -2.492,-0.841 -0.97,0 -1.68,0.228 -2.2,0.648 a 105.113,105.113 0 0 1 -3.04,2.783 27.532,27.532 0 0 1 -2.557,1.908 c -0.94,0.582 -1.876,1.037 -2.88,1.295 -0.97,0.29 -2.07,0.42 -3.267,0.42 -0.26,0 -0.518,0 -0.744,-0.033 -1.487,-0.097 -2.88,-0.517 -4.14,-1.295 -1.457,-0.872 -2.655,-2.165 -3.526,-3.848 -0.907,-1.747 -1.361,-3.753 -1.393,-6.017 h 19.541 c 2.59,0 4.627,-0.388 6.082,-1.1 1.425,-0.776 2.137,-2.395 2.137,-4.886 0,-2.718 -0.68,-5.37 -2.072,-7.99 -1.391,-2.59 -3.493,-4.723 -6.275,-6.376 -2.784,-1.648 -6.15,-2.459 -10.03,-2.459 z m 39.957,0 c -2.88,0.033 -5.533,0.518 -7.894,1.422 -2.46,0.973 -4.53,2.365 -6.247,4.145 -1.65,1.81 -2.942,3.98 -3.814,6.502 -0.875,2.525 -1.328,5.275 -1.328,8.218 0,6.277 1.779,11.193 5.338,14.848 3.363,3.464 8.024,5.274 13.945,5.467 0.325,0.034 0.677,0.035 1.033,0.035 2.784,0 5.275,-0.357 7.442,-1.1 2.167,-0.746 3.947,-1.65 5.37,-2.752 1.426,-1.13 2.491,-2.296 3.204,-3.494 0.711,-1.196 1.068,-2.263 1.068,-3.136 0,-1.003 -0.325,-1.812 -0.972,-2.364 -0.614,-0.548 -1.454,-0.841 -2.49,-0.841 -0.94,0 -1.651,0.228 -2.169,0.648 -1.262,1.165 -2.262,2.103 -3.039,2.783 a 27.98,27.98 0 0 1 -2.59,1.908 c -0.903,0.582 -1.876,1.037 -2.845,1.295 -1.005,0.29 -2.07,0.42 -3.268,0.42 -0.26,0 -0.518,0 -0.744,-0.033 -1.489,-0.097 -2.881,-0.517 -4.143,-1.295 -1.488,-0.872 -2.653,-2.165 -3.558,-3.848 -0.874,-1.747 -1.328,-3.753 -1.36,-6.017 h 19.508 c 2.622,0 4.66,-0.388 6.084,-1.1 1.457,-0.776 2.166,-2.395 2.166,-4.886 0,-2.718 -0.709,-5.37 -2.101,-7.99 -1.391,-2.59 -3.463,-4.723 -6.278,-6.376 -2.783,-1.648 -6.113,-2.459 -10.029,-2.459 z M 42.914,24.672 c -1.456,0 -2.59,0.484 -3.398,1.422 -0.841,0.906 -1.262,2.33 -1.262,4.238 v 28.826 c 0,1.94 0.453,3.462 1.39,4.498 0.94,1.066 2.103,1.586 3.56,1.586 1.488,0 2.684,-0.52 3.624,-1.52 0.938,-1.036 1.424,-2.527 1.424,-4.564 V 46.703 c 0,-4.11 0.226,-6.859 0.711,-8.348 0.679,-1.875 1.781,-3.33 3.236,-4.398 1.457,-1.036 3.074,-1.586 4.854,-1.586 2.715,0 4.56,0.874 5.467,2.619 0.905,1.749 1.36,4.27 1.36,7.572 v 16.596 c 0,1.94 0.451,3.462 1.39,4.498 0.937,1.066 2.135,1.586 3.623,1.586 1.455,0 2.652,-0.52 3.558,-1.555 0.907,-1.001 1.391,-2.524 1.391,-4.529 V 40.621 c 0,-2.199 -0.096,-4.013 -0.291,-5.404 -0.194,-1.424 -0.613,-2.748 -1.293,-3.979 -1.035,-2.102 -2.556,-3.72 -4.627,-4.853 -2.071,-1.133 -4.431,-1.713 -7.053,-1.713 -2.718,0 -5.112,0.548 -7.215,1.617 -2.07,1.099 -3.978,2.782 -5.76,5.11 v -1.227 c 0,-1.165 -0.193,-2.168 -0.613,-3.01 -0.42,-0.84 -1.003,-1.456 -1.714,-1.877 -0.714,-0.421 -1.49,-0.613 -2.362,-0.613 z m 95.895,6.89 h 0.031 c 2.586,0 4.69,0.841 6.275,2.524 1.62,1.681 2.524,4.238 2.782,7.668 H 129.78 c 0.357,-3.364 1.327,-5.921 2.912,-7.635 1.585,-1.715 3.623,-2.557 6.116,-2.557 z m 39.955,0 h 0.033 c 2.588,0 4.688,0.841 6.273,2.524 1.587,1.681 2.525,4.238 2.752,7.668 h -18.085 c 0.323,-3.364 1.294,-5.921 2.912,-7.635 1.586,-1.715 3.624,-2.557 6.115,-2.557 z m -82.402,0.582 h 0.126 c 1.715,0 3.301,0.518 4.725,1.522 1.488,1.002 2.655,2.458 3.527,4.367 0.843,1.909 1.295,4.206 1.295,6.86 0,2.846 -0.452,5.207 -1.295,7.083 -0.872,1.877 -2.039,3.267 -3.494,4.172 -1.425,0.906 -3.043,1.362 -4.758,1.362 h -0.03 c -1.747,0 -3.334,-0.486 -4.79,-1.424 -1.486,-0.97 -2.62,-2.394 -3.46,-4.27 -0.842,-1.909 -1.262,-4.206 -1.262,-6.924 0,-2.556 0.39,-4.821 1.166,-6.73 0.808,-1.94 1.908,-3.43 3.363,-4.465 1.424,-1.069 3.074,-1.553 4.887,-1.553 z m 122.13,0 h 0.098 c 1.715,0 3.3,0.518 4.756,1.522 1.456,1.002 2.622,2.458 3.494,4.367 0.874,1.909 1.295,4.206 1.295,6.86 0,2.846 -0.421,5.207 -1.295,7.083 -0.872,1.877 -2.04,3.267 -3.463,4.172 a 8.857,8.857 0 0 1 -4.787,1.362 h -0.031 c -1.746,0 -3.334,-0.486 -4.79,-1.424 -1.454,-0.97 -2.619,-2.394 -3.46,-4.27 -0.841,-1.909 -1.262,-4.206 -1.262,-6.924 0,-2.556 0.385,-4.82 1.195,-6.73 0.777,-1.94 1.91,-3.43 3.334,-4.465 1.458,-1.069 3.073,-1.553 4.916,-1.553 z M 31.654,32.469 c -2.59,1.55 -5.63,2.425 -8.865,2.425 -0.678,0 -1.326,-0.031 -2.006,-0.097 v 23.812 c 0,2.2 0.518,3.85 1.522,4.951 1.035,1.132 2.298,1.682 3.883,1.682 1.616,0 2.945,-0.55 3.945,-1.65 1.005,-1.1 1.521,-2.75 1.521,-4.983 V 32.47 Z"
       fill="#2164f3"
       fill-rule="evenodd"
       id="path4" />
  </g>
</svg>
