<?xml version="1.0" encoding="UTF-8" standalone="no"?>
<svg
   width="16"
   height="16"
   viewBox="0 0 16 16"
   version="1.1"
   id="svg18"
   sodipodi:docname="instagram.svg"
   inkscape:version="1.2.1 (9c6d41e410, 2022-07-14)"
   xmlns:inkscape="http://www.inkscape.org/namespaces/inkscape"
   xmlns:sodipodi="http://sodipodi.sourceforge.net/DTD/sodipodi-0.dtd"
   xmlns="http://www.w3.org/2000/svg"
   xmlns:svg="http://www.w3.org/2000/svg">
  <sodipodi:namedview
     id="namedview20"
     pagecolor="#ffffff"
     bordercolor="#666666"
     borderopacity="1.0"
     inkscape:showpageshadow="2"
     inkscape:pageopacity="0.0"
     inkscape:pagecheckerboard="0"
     inkscape:deskcolor="#d1d1d1"
     showgrid="false"
     inkscape:zoom="32"
     inkscape:cx="7.984375"
     inkscape:cy="8"
     inkscape:window-width="1366"
     inkscape:window-height="715"
     inkscape:window-x="-8"
     inkscape:window-y="-8"
     inkscape:window-maximized="1"
     inkscape:current-layer="svg18" />
  <defs
     id="defs12">
    <radialGradient
       id="a"
       cx="13.551"
       cy="102.482"
       r="133.147"
       gradientUnits="userSpaceOnUse">
      <stop
         offset=".09"
         stop-color="#fa8f21"
         id="stop2" />
      <stop
         offset=".78"
         stop-color="#d82d7e"
         id="stop4" />
    </radialGradient>
    <radialGradient
       id="b"
       cx="61.859001"
       cy="107.051"
       r="104.938"
       gradientUnits="userSpaceOnUse">
      <stop
         offset=".64"
         stop-color="#8c3aaa"
         stop-opacity="0"
         id="stop7" />
      <stop
         offset="1"
         stop-color="#8c3aaa"
         id="stop9" />
    </radialGradient>
  </defs>
  <g
     id="g328"
     transform="matrix(0.15626001,0,0,0.15626001,0.03144266,0.03066136)">
    <path
       fill="url(#a)"
       d="M 34,51 A 17,17 0 1 1 51,68 17,17 0 0 1 34,51 m -9.191,0 A 26.188,26.188 0 1 0 51,24.812 26.187,26.187 0 0 0 24.812,51 M 72.1,23.774 a 6.12,6.12 0 1 0 6.122,-6.118 v 0 a 6.123,6.123 0 0 0 -6.12,6.118 M 30.4,92.513 A 28.187,28.187 0 0 1 20.929,90.759 15.85,15.85 0 0 1 15.063,86.944 15.735,15.735 0 0 1 11.248,81.082 28.161,28.161 0 0 1 9.49,71.611 c -0.247,-5.376 -0.3,-6.991 -0.3,-20.61 0,-13.619 0.053,-15.23 0.3,-20.61 a 28.374,28.374 0 0 1 1.754,-9.471 15.85,15.85 0 0 1 3.815,-5.866 15.718,15.718 0 0 1 5.866,-3.815 28.161,28.161 0 0 1 9.475,-1.755 c 5.376,-0.247 6.991,-0.3 20.6,-0.3 13.609,0 15.23,0.053 20.61,0.3 a 28.373,28.373 0 0 1 9.471,1.754 15.8,15.8 0 0 1 5.866,3.815 15.8,15.8 0 0 1 3.815,5.866 28.162,28.162 0 0 1 1.754,9.471 c 0.247,5.38 0.3,6.991 0.3,20.61 0,13.619 -0.049,15.23 -0.3,20.61 a 28.294,28.294 0 0 1 -1.754,9.471 16.886,16.886 0 0 1 -9.681,9.677 28.161,28.161 0 0 1 -9.471,1.754 c -5.376,0.247 -6.991,0.3 -20.61,0.3 -13.619,0 -15.23,-0.049 -20.6,-0.3 M 29.974,0.309 A 37.4,37.4 0 0 0 17.595,2.678 25.015,25.015 0 0 0 8.56,8.56 24.918,24.918 0 0 0 2.677,17.594 37.407,37.407 0 0 0 0.309,29.974 C 0.058,35.412 0,37.15 0,51 0,64.85 0.058,66.588 0.309,72.026 a 37.405,37.405 0 0 0 2.369,12.379 24.931,24.931 0 0 0 5.882,9.035 25.076,25.076 0 0 0 9.034,5.883 37.43,37.43 0 0 0 12.379,2.369 c 5.441,0.247 7.176,0.309 21.026,0.309 13.85,0 15.588,-0.058 21.026,-0.309 a 37.405,37.405 0 0 0 12.379,-2.369 26.075,26.075 0 0 0 14.918,-14.918 37.3,37.3 0 0 0 2.369,-12.379 c 0.247,-5.442 0.3,-7.176 0.3,-21.026 0,-13.85 -0.058,-15.588 -0.3,-21.026 A 37.394,37.394 0 0 0 99.322,17.595 25.08,25.08 0 0 0 93.44,8.56 24.955,24.955 0 0 0 84.41,2.677 37.347,37.347 0 0 0 72.03,0.309 C 66.593,0.062 64.854,0 51,0 37.146,0 35.41,0.058 29.97,0.309"
       data-name="Path 14"
       id="path14"
       style="fill:url(#a)" />
    <path
       fill="url(#b)"
       d="M 34,51 A 17,17 0 1 1 51,68 17,17 0 0 1 34,51 m -9.191,0 A 26.188,26.188 0 1 0 51,24.812 26.187,26.187 0 0 0 24.812,51 M 72.1,23.774 a 6.12,6.12 0 1 0 6.122,-6.118 v 0 a 6.123,6.123 0 0 0 -6.12,6.118 M 30.4,92.513 A 28.187,28.187 0 0 1 20.929,90.759 15.85,15.85 0 0 1 15.063,86.944 15.735,15.735 0 0 1 11.248,81.082 28.161,28.161 0 0 1 9.49,71.611 c -0.247,-5.376 -0.3,-6.991 -0.3,-20.61 0,-13.619 0.053,-15.23 0.3,-20.61 a 28.374,28.374 0 0 1 1.754,-9.471 15.85,15.85 0 0 1 3.815,-5.866 15.718,15.718 0 0 1 5.866,-3.815 28.161,28.161 0 0 1 9.475,-1.755 c 5.376,-0.247 6.991,-0.3 20.6,-0.3 13.609,0 15.23,0.053 20.61,0.3 a 28.373,28.373 0 0 1 9.471,1.754 15.8,15.8 0 0 1 5.866,3.815 15.8,15.8 0 0 1 3.815,5.866 28.162,28.162 0 0 1 1.754,9.471 c 0.247,5.38 0.3,6.991 0.3,20.61 0,13.619 -0.049,15.23 -0.3,20.61 a 28.294,28.294 0 0 1 -1.754,9.471 16.886,16.886 0 0 1 -9.681,9.677 28.161,28.161 0 0 1 -9.471,1.754 c -5.376,0.247 -6.991,0.3 -20.61,0.3 -13.619,0 -15.23,-0.049 -20.6,-0.3 M 29.974,0.309 A 37.4,37.4 0 0 0 17.595,2.678 25.015,25.015 0 0 0 8.56,8.56 24.918,24.918 0 0 0 2.677,17.594 37.407,37.407 0 0 0 0.309,29.974 C 0.058,35.412 0,37.15 0,51 0,64.85 0.058,66.588 0.309,72.026 a 37.405,37.405 0 0 0 2.369,12.379 24.931,24.931 0 0 0 5.882,9.035 25.076,25.076 0 0 0 9.034,5.883 37.43,37.43 0 0 0 12.379,2.369 c 5.441,0.247 7.176,0.309 21.026,0.309 13.85,0 15.588,-0.058 21.026,-0.309 a 37.405,37.405 0 0 0 12.379,-2.369 26.075,26.075 0 0 0 14.918,-14.918 37.3,37.3 0 0 0 2.369,-12.379 c 0.247,-5.442 0.3,-7.176 0.3,-21.026 0,-13.85 -0.058,-15.588 -0.3,-21.026 A 37.394,37.394 0 0 0 99.322,17.595 25.08,25.08 0 0 0 93.44,8.56 24.955,24.955 0 0 0 84.41,2.677 37.347,37.347 0 0 0 72.03,0.309 C 66.593,0.062 64.854,0 51,0 37.146,0 35.41,0.058 29.97,0.309"
       data-name="Path 15"
       id="path16"
       style="fill:url(#b)" />
  </g>
</svg>
