<?xml version="1.0" encoding="UTF-8" standalone="no"?>
<svg
   clip-rule="evenodd"
   fill-rule="evenodd"
   stroke-linejoin="round"
   stroke-miterlimit="2"
   viewBox="0 0 16 16"
   version="1.1"
   id="svg12"
   sodipodi:docname="adobe-lightroom-seeklogo.com.svg"
   width="16"
   height="16"
   inkscape:version="1.2.1 (9c6d41e410, 2022-07-14)"
   xmlns:inkscape="http://www.inkscape.org/namespaces/inkscape"
   xmlns:sodipodi="http://sodipodi.sourceforge.net/DTD/sodipodi-0.dtd"
   xmlns="http://www.w3.org/2000/svg"
   xmlns:svg="http://www.w3.org/2000/svg">
  <defs
     id="defs16" />
  <sodipodi:namedview
     id="namedview14"
     pagecolor="#ffffff"
     bordercolor="#666666"
     borderopacity="1.0"
     inkscape:showpageshadow="2"
     inkscape:pageopacity="0.0"
     inkscape:pagecheckerboard="0"
     inkscape:deskcolor="#d1d1d1"
     showgrid="false"
     inkscape:zoom="32"
     inkscape:cx="7.984375"
     inkscape:cy="8"
     inkscape:window-width="1366"
     inkscape:window-height="715"
     inkscape:window-x="-8"
     inkscape:window-y="-8"
     inkscape:window-maximized="1"
     inkscape:current-layer="svg12" />
  <g
     fill-rule="nonzero"
     id="g10"
     transform="matrix(0.06626802,0,0,0.06626802,0.0478376,0.24664166)">
    <path
       d="m 42.5,0 h 155 C 221,0 240,19 240,42.5 v 149 C 240,215 221,234 197.5,234 H 42.5 C 19,234 0,215 0,191.5 V 42.5 C 0,19 19,0 42.5,0 Z"
       fill="#001e36"
       id="path2" />
    <g
       fill="#31a8ff"
       id="g8">
      <path
         d="M 126,165.4 H 62.6 c -1.1,0 -1.6,-0.6 -1.6,-1.8 V 61.4 c -0.1,-0.7 0.4,-1.3 1.1,-1.4 h 20 c 0.5,-0.1 1.1,0.3 1.1,0.8 v 84.3 h 46.2 c 1,0 1.3,0.5 1.1,1.4 l -2.9,17.4 c 0,0.5 -0.3,0.9 -0.6,1.2 -0.3,0.2 -0.6,0.3 -1,0.3 z"
         id="path4" />
      <path
         d="m 142,85.4 h 17.5 c 1,0 1.8,0.7 2.1,1.6 0.4,0.7 0.7,1.5 0.8,2.3 0.2,1 0.4,2.1 0.5,3.1 0.1,1.1 0.2,2.3 0.2,3.6 3,-3.5 6.6,-6.4 10.7,-8.6 4.6,-2.5 9.7,-3.7 14.9,-3.6 0.7,-0.1 1.3,0.4 1.4,1.1 v 19.9 c 0,0.8 -0.5,1.1 -1.6,1.1 -6.5,-0.4 -13,0.8 -18.9,3.4 -2,0.9 -3.9,2.1 -5.4,3.7 v 51 c 0,1 -0.4,1.4 -1.3,1.4 h -19.5 c -0.8,0.1 -1.5,-0.4 -1.6,-1.2 v -55.8 c 0,-2.4 0,-4.9 -0.1,-7.5 -0.1,-2.6 -0.1,-5.2 -0.2,-7.8 -0.1,-2.2 -0.3,-4.4 -0.6,-6.6 -0.1,-0.5 0.2,-1 0.7,-1.1 0.1,-0.1 0.2,-0.1 0.4,0 z"
         id="path6" />
    </g>
  </g>
</svg>
