<?xml version="1.0" encoding="UTF-8" standalone="no"?>
<svg
   width="16"
   height="16"
   viewBox="0 0 16 16"
   version="1.1"
   preserveAspectRatio="xMidYMid"
   id="svg6"
   sodipodi:docname="linkedin.svg"
   inkscape:version="1.2.1 (9c6d41e410, 2022-07-14)"
   xmlns:inkscape="http://www.inkscape.org/namespaces/inkscape"
   xmlns:sodipodi="http://sodipodi.sourceforge.net/DTD/sodipodi-0.dtd"
   xmlns="http://www.w3.org/2000/svg"
   xmlns:svg="http://www.w3.org/2000/svg">
  <defs
     id="defs10" />
  <sodipodi:namedview
     id="namedview8"
     pagecolor="#ffffff"
     bordercolor="#666666"
     borderopacity="1.0"
     inkscape:showpageshadow="2"
     inkscape:pageopacity="0.0"
     inkscape:pagecheckerboard="0"
     inkscape:deskcolor="#d1d1d1"
     showgrid="false"
     inkscape:zoom="32"
     inkscape:cx="7.984375"
     inkscape:cy="8"
     inkscape:window-width="1366"
     inkscape:window-height="715"
     inkscape:window-x="-8"
     inkscape:window-y="-8"
     inkscape:window-maximized="1"
     inkscape:current-layer="svg6" />
  <g
     id="g4"
     transform="matrix(0.0625,0,0,0.0625,-9.375e-4,-7.791288e-4)">
    <path
       d="m 218.12312,218.12739 h -37.93119 v -59.40313 c 0,-14.16524 -0.25288,-32.40027 -19.72817,-32.40027 -19.75583,0 -22.77848,15.43359 -22.77848,31.369 v 60.43045 H 99.754089 V 95.966521 h 36.413951 v 16.694039 h 0.5097 c 7.42501,-12.695557 21.2309,-20.278107 35.92795,-19.732552 38.44484,0 45.53324,25.288012 45.53324,58.186142 z M 56.955059,79.268528 C 44.798197,79.27071 34.941344,69.41718 34.939162,57.260052 34.93698,45.102924 44.790295,35.245856 56.947157,35.243674 c 12.156861,-0.0022 22.013714,9.851348 22.015897,22.008475 0.001,5.838059 -2.317056,11.437422 -6.444356,15.566294 -4.1273,4.128872 -9.725708,6.449037 -15.563639,6.450085 M 75.920656,218.12739 H 37.94995 V 95.966521 H 75.920656 Z M 237.0334,0.01825771 H 18.889525 C 8.5795947,-0.0980924 0.12482704,8.1605623 -0.001,18.470607 V 237.52409 c 0.12151905,10.31501 8.5756063,18.58184 18.890525,18.47361 H 237.0334 c 10.33533,0.12812 18.82252,-8.13824 18.9656,-18.47361 V 18.454802 C 255.85162,8.1243898 247.36374,-0.13379287 237.0334,7.9080706e-4"
       fill="#0a66c2"
       id="path2" />
  </g>
</svg>
