<?xml version="1.0" encoding="UTF-8" standalone="no"?>
<svg
   aria-label="Mailchimp"
   viewBox="0 0 16 16"
   version="1.1"
   id="svg6"
   sodipodi:docname="mailchimp.svg"
   width="16"
   height="16"
   inkscape:version="1.2.1 (9c6d41e410, 2022-07-14)"
   xmlns:inkscape="http://www.inkscape.org/namespaces/inkscape"
   xmlns:sodipodi="http://sodipodi.sourceforge.net/DTD/sodipodi-0.dtd"
   xmlns="http://www.w3.org/2000/svg"
   xmlns:svg="http://www.w3.org/2000/svg">
  <defs
     id="defs10" />
  <sodipodi:namedview
     id="namedview8"
     pagecolor="#ffffff"
     bordercolor="#666666"
     borderopacity="1.0"
     inkscape:showpageshadow="2"
     inkscape:pageopacity="0.0"
     inkscape:pagecheckerboard="0"
     inkscape:deskcolor="#d1d1d1"
     showgrid="false"
     inkscape:zoom="32"
     inkscape:cx="7.984375"
     inkscape:cy="8"
     inkscape:window-width="1366"
     inkscape:window-height="715"
     inkscape:window-x="-8"
     inkscape:window-y="-8"
     inkscape:window-maximized="1"
     inkscape:current-layer="svg6" />
  <g
     id="g295"
     transform="scale(0.03125)">
    <rect
       width="512"
       height="512"
       fill="#ffe01b"
       rx="15.000001%"
       id="rect2"
       x="0"
       y="0" />
    <path
       fill="#1e1e1e"
       d="m 418,306 -6,-17 c 0,0 25,-38 -37,-51 0,0 4,-47 -18,-69 C 405,122 394,51 285,97 229,-10 13,241 103,281 c -9,12 -9,72 53,78 42,90 144,96 203,69 59,-27 93,-113 59,-122 z m -263,40 c -51,-5 -56,-75 -12,-82 44,-7 55,86 12,82 z m -15,-95 c -14,0 -31,19 -31,19 -68,-33 123,-252 164,-167 0,0 -100,48 -133,148 z m 200,85 c 0,-4 -21,6 -59,-7 3,-21 48,18 123,-33 l 6,21 c 28,-5 0,90 -90,89 -73,-1 -96,-76 -56,-117 8,-8 -29,-24 -22,-59 3,-15 16,-37 49,-31 33,6 40,-24 62,-13 22,11 9,53 12,59 3,6 35,7 41,24 6,17 -41,54 -114,44 -17,-2 -27,20 -16,34 22,32 112,11 127,-20 -38,29 -116,40 -122,9 22,10 59,4 59,0 z m -58,-6 z M 209,178 c 22,-27 51,-43 51,-43 l -6,15 c 0,0 21,-16 44,-16 l -8,8 c 26,1 37,11 37,11 0,0 -61,-18 -118,25 z m 135,39 c 13,-1 9,29 9,29 h -8 c 0,0 -14,-28 -1,-29 z m -59,33 c -9,1 -19,6 -18,2 4,-16 41,-12 40,2 -1,14 -9,-6 -22,-4 z m 21,12 c 1,2 -7,0 -13,1 -6,1 -12,4 -12,2 0,-2 23,-11 25,-3 z m 20,3 c 3,-6 15,0 12,6 -3,6 -15,0 -12,-6 z m 25,2 c -6,0 -6,-13 0,-13 6,0 6,14 0,14 z m -180,53 c 3,3 -6,9 -13,4 -7,-5 8,-29 -10,-35 -18,-6 -13,17 -18,14 -5,-3 7,-35 28,-22 21,13 -6,33 6,39 12,6 5,-2 7,0 z"
       id="path4" />
  </g>
</svg>
