<?xml version="1.0" encoding="UTF-8" standalone="no"?>
<svg
   viewBox="0 0 16 16"
   version="1.1"
   id="svg8"
   sodipodi:docname="mastercard.svg"
   width="16"
   height="16"
   inkscape:version="1.2.1 (9c6d41e410, 2022-07-14)"
   xmlns:inkscape="http://www.inkscape.org/namespaces/inkscape"
   xmlns:sodipodi="http://sodipodi.sourceforge.net/DTD/sodipodi-0.dtd"
   xmlns="http://www.w3.org/2000/svg"
   xmlns:svg="http://www.w3.org/2000/svg">
  <defs
     id="defs12" />
  <sodipodi:namedview
     id="namedview10"
     pagecolor="#ffffff"
     bordercolor="#666666"
     borderopacity="1.0"
     inkscape:showpageshadow="2"
     inkscape:pageopacity="0.0"
     inkscape:pagecheckerboard="0"
     inkscape:deskcolor="#d1d1d1"
     showgrid="false"
     inkscape:zoom="32"
     inkscape:cx="7.984375"
     inkscape:cy="8"
     inkscape:window-width="1366"
     inkscape:window-height="715"
     inkscape:window-x="-8"
     inkscape:window-y="-8"
     inkscape:window-maximized="1"
     inkscape:current-layer="svg8" />
  <g
     id="g298"
     transform="matrix(0.65981308,0,0,0.68243997,0.08224304,-0.18927964)">
    <path
       fill="#ff5f00"
       d="M 15.245,17.831 H 8.755 V 6.168 h 6.49 z"
       id="path2" />
    <path
       fill="#eb001b"
       d="M 9.167,12 A 7.404,7.404 0 0 1 12,6.169 7.417,7.417 0 0 0 0,12 7.417,7.417 0 0 0 11.999,17.831 7.406,7.406 0 0 1 9.167,12 Z"
       id="path4" />
    <path
       fill="#f79e1b"
       d="M 24,12 A 7.417,7.417 0 0 1 12,17.831 C 13.725,16.473 14.833,14.366 14.833,12 14.833,9.634 13.725,7.527 12,6.169 A 7.417,7.417 0 0 1 24,12 Z"
       id="path6" />
  </g>
</svg>
