<?xml version="1.0" encoding="UTF-8" standalone="no"?>
<svg
   width="16"
   height="16"
   viewBox="0 0 16 16"
   version="1.1"
   preserveAspectRatio="xMidYMid"
   id="svg6"
   sodipodi:docname="medium-seeklogo.com.svg"
   inkscape:version="1.2.1 (9c6d41e410, 2022-07-14)"
   xmlns:inkscape="http://www.inkscape.org/namespaces/inkscape"
   xmlns:sodipodi="http://sodipodi.sourceforge.net/DTD/sodipodi-0.dtd"
   xmlns="http://www.w3.org/2000/svg"
   xmlns:svg="http://www.w3.org/2000/svg">
  <defs
     id="defs10" />
  <sodipodi:namedview
     id="namedview8"
     pagecolor="#ffffff"
     bordercolor="#666666"
     borderopacity="1.0"
     inkscape:showpageshadow="2"
     inkscape:pageopacity="0.0"
     inkscape:pagecheckerboard="0"
     inkscape:deskcolor="#d1d1d1"
     showgrid="false"
     inkscape:zoom="32"
     inkscape:cx="7.984375"
     inkscape:cy="8"
     inkscape:window-width="1366"
     inkscape:window-height="715"
     inkscape:window-x="-8"
     inkscape:window-y="-8"
     inkscape:window-maximized="1"
     inkscape:current-layer="svg6" />
  <g
     id="g4"
     transform="matrix(0.06197755,0,0,0.06197755,0.0668736,3.4945302)">
    <path
       d="m 72.200914,0 c 39.875586,0 72.198456,32.548547 72.198456,72.696415 0,40.147865 -32.32532,72.693965 -72.198456,72.693965 C 32.327779,145.39038 0,112.84428 0,72.696415 0,32.548547 32.325326,0 72.200914,0 Z M 187.50063,4.2583674 c 19.93779,0 36.10045,30.6376776 36.10045,68.4380476 h 0.002 c 0,37.790555 -16.16267,68.438045 -36.10046,68.438045 -19.93779,0 -36.10046,-30.64749 -36.10046,-68.438045 0,-37.790558 16.16021,-68.4380476 36.09801,-68.4380476 z m 55.80276,7.1283506 c 7.01061,0 12.69661,27.448808 12.69661,61.309697 0,33.851075 -5.68355,61.309695 -12.69661,61.309695 -7.01306,0 -12.69415,-27.45126 -12.69415,-61.309695 0,-33.858436 5.68355,-61.309697 12.69415,-61.309697 z"
       fill="#000000"
       id="path2" />
  </g>
</svg>
