<?xml version="1.0" encoding="UTF-8" standalone="no"?>
<svg
   width="16"
   height="16"
   viewBox="0 0 16 16"
   version="1.1"
   preserveAspectRatio="xMidYMid"
   id="svg14"
   sodipodi:docname="microsoft-seeklogo.com.svg"
   inkscape:version="1.2.1 (9c6d41e410, 2022-07-14)"
   xmlns:inkscape="http://www.inkscape.org/namespaces/inkscape"
   xmlns:sodipodi="http://sodipodi.sourceforge.net/DTD/sodipodi-0.dtd"
   xmlns="http://www.w3.org/2000/svg"
   xmlns:svg="http://www.w3.org/2000/svg">
  <defs
     id="defs18" />
  <sodipodi:namedview
     id="namedview16"
     pagecolor="#ffffff"
     bordercolor="#666666"
     borderopacity="1.0"
     inkscape:showpageshadow="2"
     inkscape:pageopacity="0.0"
     inkscape:pagecheckerboard="0"
     inkscape:deskcolor="#d1d1d1"
     showgrid="false"
     inkscape:zoom="32"
     inkscape:cx="7.984375"
     inkscape:cy="8"
     inkscape:window-width="1366"
     inkscape:window-height="715"
     inkscape:window-x="-8"
     inkscape:window-y="-8"
     inkscape:window-maximized="1"
     inkscape:current-layer="svg14" />
  <g
     id="g12"
     transform="matrix(0.03116411,0,0,0.03116411,0.02395149,6.2971882)">
    <path
       d="M 511.87398,49.436472 V 40.434383 H 500.695 V 26.43918 l -0.37628,0.115745 -10.49998,3.212379 -0.20673,0.06313 V 40.434383 H 473.03947 V 34.52769 c 0,-2.750638 0.61525,-4.855706 1.82716,-6.259497 1.20387,-1.387079 2.9258,-2.092069 5.12124,-2.092069 1.57895,0 3.21361,0.371992 4.85818,1.105454 l 0.41223,0.18383 v -9.480542 l -0.19374,-0.07118 c -1.53439,-0.55149 -3.62213,-0.829401 -6.20874,-0.829401 -3.26066,0 -6.2236,0.709323 -8.80712,2.11559 -2.58538,1.408124 -4.61926,3.418492 -6.04348,5.974778 -1.41989,2.553191 -2.14035,5.501895 -2.14035,8.765029 v 6.4947 h -7.78398 v 9.002089 h 7.78398 v 37.924023 h 11.17462 V 49.436472 h 16.57254 v 24.100271 c 0,9.92557 4.68178,14.955822 13.91474,14.955822 1.51768,0 3.11399,-0.178259 4.74491,-0.526731 1.65944,-0.357138 2.78966,-0.714275 3.45501,-1.095552 l 0.14731,-0.08665 v -9.085648 l -0.45431,0.300812 c -0.60658,0.404797 -1.3617,0.7347 -2.24741,0.979807 -0.88946,0.250058 -1.63221,0.375706 -2.20719,0.375706 -2.16327,0 -3.76325,-0.583057 -4.7567,-1.733076 -1.00394,-1.160541 -1.51332,-3.190716 -1.51332,-6.029864 V 49.436472 Z m -82.74779,29.9187 c -4.05602,0 -7.25354,-1.34499 -9.50716,-3.99412 -2.26723,-2.662746 -3.41601,-6.4588 -3.41601,-11.281702 0,-4.975783 1.14878,-8.870251 3.41725,-11.580039 2.25486,-2.691837 5.42205,-4.057872 9.41493,-4.057872 3.87467,0 6.95892,1.304758 9.16797,3.880232 2.22082,2.588472 3.34731,6.451992 3.34731,11.485958 0,5.09586 -1.05965,9.010135 -3.14924,11.628317 -2.07474,2.598994 -5.1949,3.919226 -9.27505,3.919226 z m 0.49764,-40.051373 c -7.73818,0 -13.88441,2.267234 -18.266,6.739187 -4.37911,4.472573 -6.59992,10.661509 -6.59992,18.397215 0,7.347002 2.16758,13.256789 6.44271,17.562244 4.27513,4.307311 10.09331,6.489129 17.29114,6.489129 7.50112,0 13.5248,-2.2988 17.90514,-6.832649 4.37973,-4.529517 6.59869,-10.659652 6.59869,-18.214623 0,-7.462128 -2.08217,-13.415861 -6.19079,-17.692844 -4.11049,-4.278839 -9.89215,-6.447659 -17.18097,-6.447659 z m -42.88279,-2.48e-4 c -5.2636,0 -9.61733,1.346228 -12.9436,4.000929 -3.34607,2.670174 -5.04325,6.172843 -5.04325,10.410831 0,2.202863 0.36643,4.16 1.08751,5.81942 0.72542,1.665609 1.8482,3.131296 3.33927,4.36178 1.48054,1.22058 3.76448,2.499342 6.79241,3.799768 2.54453,1.047272 4.44286,1.933617 5.64859,2.631798 1.17849,0.683946 2.01532,1.372225 2.48758,2.041935 0.45865,0.655474 0.69199,1.55234 0.69199,2.66027 0,3.152341 -2.36069,4.686113 -7.21887,4.686113 -1.80178,0 -3.85733,-0.375706 -6.10909,-1.117834 -2.253,-0.74089 -4.35807,-1.806112 -6.25579,-3.172147 l -0.4636,-0.332379 v 10.758066 l 0.17022,0.07923 c 1.58143,0.729748 3.57447,1.34499 5.92402,1.829632 2.34522,0.484643 4.47567,0.731606 6.32696,0.731606 5.71173,0 10.31118,-1.353037 13.66716,-4.023211 3.37764,-2.688743 5.08967,-6.273733 5.08967,-10.659033 0,-3.162863 -0.92162,-5.875745 -2.73826,-8.063133 -1.80363,-2.170058 -4.93431,-4.161857 -9.30166,-5.922786 -3.47915,-1.396363 -5.70801,-2.555667 -6.62716,-3.445106 -0.88634,-0.859729 -1.33632,-2.075358 -1.33632,-3.6147 0,-1.364797 0.5552,-2.457873 1.69594,-3.343598 1.1494,-0.890058 2.74878,-1.342514 4.75543,-1.342514 1.86182,0 3.76696,0.294003 5.66097,0.870251 1.89338,0.576248 3.5559,1.348085 4.94421,2.292611 l 0.45618,0.311954 V 41.347961 l -0.17517,-0.07551 c -1.28062,-0.549014 -2.96913,-1.018801 -5.01973,-1.400078 -2.04255,-0.377563 -3.89509,-0.56882 -5.50561,-0.56882 z m -47.11861,40.051621 c -4.05477,0 -7.25354,-1.34499 -9.50653,-3.99412 -2.26786,-2.662746 -3.41478,-6.457563 -3.41478,-11.281702 0,-4.975783 1.14816,-8.870251 3.41725,-11.580039 2.253,-2.691837 5.41958,-4.057872 9.41432,-4.057872 3.87342,0 6.95767,1.304758 9.16735,3.880232 2.22081,2.588472 3.34731,6.451992 3.34731,11.485958 0,5.09586 -1.06027,9.010135 -3.14987,11.628317 -2.07474,2.598994 -5.19365,3.919226 -9.27505,3.919226 z m 0.49888,-40.051373 c -7.74004,0 -13.88626,2.267234 -18.26599,6.739187 -4.37911,4.472573 -6.60116,10.661509 -6.60116,18.397215 0,7.350097 2.16882,13.256789 6.44394,17.562244 4.27513,4.307311 10.09269,6.489129 17.29114,6.489129 7.49927,0 13.5248,-2.2988 17.90515,-6.832649 4.37849,-4.529517 6.59868,-10.659652 6.59868,-18.214623 0,-7.462128 -2.08278,-13.415861 -6.19203,-17.692844 -4.11172,-4.278839 -9.89215,-6.447659 -17.17973,-6.447659 z m -41.82988,9.256851 v -8.126267 h -11.03845 v 46.924874 h 11.03845 V 63.355544 c 0,-4.082012 0.92534,-7.434894 2.75126,-9.96766 1.80302,-2.502437 4.2058,-3.770677 7.13903,-3.770677 0.99404,0 2.11002,0.164023 3.31884,0.488356 1.19644,0.322476 2.06298,0.672186 2.57424,1.040464 l 0.4636,0.336093 V 40.353919 l -0.17888,-0.07675 c -1.02809,-0.436982 -2.48201,-0.65733 -4.32217,-0.65733 -2.77354,0 -5.25617,0.891295 -7.38228,2.646034 -1.86615,1.542437 -3.21548,3.657408 -4.24666,6.294778 z m -30.80572,-9.257099 c -5.06368,0 -9.58081,1.086267 -13.42329,3.226615 -3.8499,2.1453 -6.82708,5.208511 -8.85292,9.103598 -2.01656,3.885803 -3.04031,8.424604 -3.04031,13.485803 0,4.433578 0.99281,8.502592 2.95489,12.088201 1.96333,3.591799 4.74244,6.401857 8.25997,8.350948 3.51257,1.946615 7.5723,2.933849 12.06715,2.933849 5.24565,0 9.72441,-1.04913 13.31559,-3.11706 l 0.14484,-0.08356 V 75.179451 l -0.4636,0.338568 c -1.62661,1.184681 -3.44449,2.130445 -5.40039,2.811915 -1.95094,0.680851 -3.72982,1.024991 -5.28897,1.024991 -4.33145,0 -7.80813,-1.355513 -10.33223,-4.026925 -2.52967,-2.675745 -3.81214,-6.432186 -3.81214,-11.159768 0,-4.757292 1.33756,-8.61029 3.97369,-11.453772 2.62747,-2.834816 6.11095,-4.27265 10.35265,-4.27265 3.62832,0 7.16379,1.228627 10.50863,3.654933 l 0.46236,0.336093 v -10.65532 l -0.14917,-0.08418 c -1.25895,-0.704372 -2.97532,-1.28619 -5.107,-1.727505 -2.12178,-0.440078 -4.19714,-0.662283 -6.16975,-0.662283 z m -32.9189,1.130956 h -11.03845 v 46.924874 h 11.03845 z m -5.40658,-19.990406 c -1.81663,0 -3.40116,0.618336 -4.70282,1.843868 -1.30724,1.229246 -1.97076,2.776634 -1.97076,4.602553 0,1.797447 0.65548,3.316364 1.94971,4.512805 1.28619,1.192727 2.87567,1.797447 4.72387,1.797447 1.84758,0 3.44325,-0.60472 4.74491,-1.79559 1.31033,-1.198298 1.97447,-2.717215 1.97447,-4.514662 0,-1.762166 -0.64619,-3.294081 -1.92062,-4.553037 -1.27257,-1.256479 -2.88742,-1.893384 -4.79876,-1.893384 z m -27.54098,16.52834 v 50.386692 h 11.26499 V 21.881068 H 197.29337 L 177.47565,70.516116 158.24408,21.881068 h -16.22592 v 65.478065 h 10.586 V 36.967489 h 0.36395 l 20.30793,50.391644 h 7.98885 l 19.99103,-50.386692 z"
       fill="#706d6e"
       id="path2" />
    <path
       d="M 51.926654,51.926654 H 0 V 0 h 51.926654 z"
       fill="#f1511b"
       id="path4" />
    <path
       d="M 109.25988,51.926654 H 57.333849 V 0 h 51.926031 z"
       fill="#80cc28"
       id="path6" />
    <path
       d="M 51.925416,109.28031 H 0 V 57.353656 h 51.925416 z"
       fill="#00adef"
       id="path8" />
    <path
       d="M 109.25988,109.28031 H 57.333849 V 57.353656 h 51.926031 z"
       fill="#fbbc09"
       id="path10" />
  </g>
</svg>
