<?xml version="1.0" encoding="UTF-8" standalone="no"?>
<svg
   width="16"
   height="16"
   viewBox="0 0 16 16"
   version="1.1"
   preserveAspectRatio="xMidYMid"
   id="svg6"
   sodipodi:docname="mozilla-seeklogo.com.svg"
   inkscape:version="1.2.1 (9c6d41e410, 2022-07-14)"
   xmlns:inkscape="http://www.inkscape.org/namespaces/inkscape"
   xmlns:sodipodi="http://sodipodi.sourceforge.net/DTD/sodipodi-0.dtd"
   xmlns="http://www.w3.org/2000/svg"
   xmlns:svg="http://www.w3.org/2000/svg">
  <defs
     id="defs10" />
  <sodipodi:namedview
     id="namedview8"
     pagecolor="#ffffff"
     bordercolor="#666666"
     borderopacity="1.0"
     inkscape:showpageshadow="2"
     inkscape:pageopacity="0.0"
     inkscape:pagecheckerboard="0"
     inkscape:deskcolor="#d1d1d1"
     showgrid="false"
     inkscape:zoom="32"
     inkscape:cx="7.984375"
     inkscape:cy="8"
     inkscape:window-width="1366"
     inkscape:window-height="715"
     inkscape:window-x="-8"
     inkscape:window-y="-8"
     inkscape:window-maximized="1"
     inkscape:current-layer="svg6" />
  <g
     id="g4"
     transform="matrix(0.03104007,0,0,0.03104007,0.05374208,5.4516486)">
    <path
       d="M 0,0 H 512 V 164.19753 H 0 Z m 144.94056,123.834 -0.009,-14.68167 H 135.9314 V 78.231441 c 0,-16.053375 -11.10638,-23.407485 -23.25704,-23.407485 -10.65505,0 -18.301197,5.557619 -22.053475,14.557774 -3.300942,-9.902826 -12.318797,-14.557774 -22.053478,-14.557774 -9.442641,0 -16.49586,4.354058 -20.549028,11.548873 V 56.177962 H 18.929531 v 14.699369 h 9.734681 v 38.274999 h -9.000155 v 14.69937 h 41.25735 V 109.15233 H 48.053928 V 85.5767 c 0,-9.45149 3.752277,-16.053374 13.053323,-16.053374 7.654999,0 11.548872,4.504502 11.548872,16.203819 V 123.8517 H 100.9752 V 109.15233 H 92.01929 V 85.5767 c 0,-9.45149 3.752277,-16.053374 13.05332,-16.053374 7.64615,0 11.54888,4.504502 11.54888,16.203819 V 123.834 Z m 43.05384,1.4956 v 0.009 c 21.60214,0 37.20418,-13.6551 37.18648,-35.266097 0,-18.902981 -11.87631,-35.257246 -36.15991,-35.257246 -24.28361,0 -36.28382,16.354265 -36.28382,36.159917 0,21.602146 14.40733,34.354576 35.25725,34.354576 z m 0.74337,-55.655829 v 0 c 9.15946,0 16.50472,6.150548 16.53126,19.805652 0,12.902877 -6.60188,21.000367 -16.65515,21.000367 -10.53116,0 -15.92948,-9.00016 -15.92948,-20.699477 0,-12.761283 6.15055,-20.106542 16.05337,-20.106542 z m 106.97531,54.160229 4.15936,-23.69068 -15.30115,-1.495597 -3.1505,10.504607 h -21.86763 l 37.52277,-42.779501 -1.4956,-10.203717 h -59.47005 l -2.39828,23.708375 13.956,1.495601 3.00005,-10.504606 h 21.15081 l -37.16879,42.761798 1.94694,10.20372 z m 36.6024,-43.363583 V 56.177962 h -20.25699 v 24.292455 z m 0,43.363583 V 99.532694 H 312.05849 V 123.834 Z m 10.61965,0 h 19.07998 L 391.27225,20.655224 h -19.05343 z m 39.31041,0 h 19.07998 L 430.56496,20.655224 h -19.05342 z m 100.81591,1.4956 0.0266,0.009 c 4.26082,-0.054 8.444,-1.14761 12.18605,-3.1859 l -0.15045,-10.20371 c -0.92361,0.285 -1.88312,0.43697 -2.8496,0.45133 -3.15935,0 -4.65495,-1.354 -4.65495,-5.25672 V 77.735857 c 0,-15.451595 -12.3011,-22.956149 -26.85887,-22.956149 -11.10639,0 -17.10649,1.389404 -28.95626,6.194797 l -3.00005,17.548976 15.4516,1.654896 2.50446,-9.601936 c 3.1505,-1.646046 6.301,-1.946936 10.35417,-1.946936 10.95594,0 11.10638,8.24793 11.10638,15.150704 v 2.247827 c -3.68589,-0.43274 -7.39531,-0.633729 -11.10638,-0.601781 -15.4516,0 -31.50497,3.893873 -31.50497,20.549025 0,14.09759 11.11523,19.35432 20.84991,19.35432 10.9471,0 17.84987,-6.60188 21.75259,-13.50466 0.90267,8.24793 5.84966,13.50466 14.84982,13.50466 z m -37.47853,-21.60214 v 0 c 0,-7.345263 6.00011,-9.292199 12.92943,-9.28335 3.26127,0.07276 6.51375,0.368443 9.73468,0.884971 -0.44248,11.247979 -7.79659,16.203819 -14.69937,16.203819 -5.86736,0 -7.96474,-3.45139 -7.96474,-7.80544 z"
       fill="#000000"
       fill-rule="nonzero"
       id="path2" />
  </g>
</svg>
