<?xml version="1.0" encoding="UTF-8" standalone="no"?>
<svg
   viewBox="0 0 16 16"
   version="1.1"
   id="svg116"
   sodipodi:docname="netlify.svg"
   width="16"
   height="16"
   inkscape:version="1.2.1 (9c6d41e410, 2022-07-14)"
   xmlns:inkscape="http://www.inkscape.org/namespaces/inkscape"
   xmlns:sodipodi="http://sodipodi.sourceforge.net/DTD/sodipodi-0.dtd"
   xmlns="http://www.w3.org/2000/svg"
   xmlns:svg="http://www.w3.org/2000/svg">
  <defs
     id="defs120" />
  <sodipodi:namedview
     id="namedview118"
     pagecolor="#ffffff"
     bordercolor="#666666"
     borderopacity="1.0"
     inkscape:showpageshadow="2"
     inkscape:pageopacity="0.0"
     inkscape:pagecheckerboard="0"
     inkscape:deskcolor="#d1d1d1"
     showgrid="false"
     inkscape:zoom="22.291667"
     inkscape:cx="11.95514"
     inkscape:cy="8.4785045"
     inkscape:window-width="1366"
     inkscape:window-height="715"
     inkscape:window-x="-8"
     inkscape:window-y="-8"
     inkscape:window-maximized="1"
     inkscape:current-layer="svg116" />
  <linearGradient
     id="a"
     x1="14.937"
     x2="14.937"
     y1="2.125"
     y2="22.753"
     gradientUnits="userSpaceOnUse">
    <stop
       offset="0"
       stop-color="#39c4b6"
       id="stop4" />
    <stop
       offset="1"
       stop-color="#529ac3"
       id="stop6" />
  </linearGradient>
  <linearGradient
     id="b"
     x1="3.046"
     x2="3.046"
     y1="2.125"
     y2="22.753"
     gradientUnits="userSpaceOnUse">
    <stop
       offset="0"
       stop-color="#39c4b6"
       id="stop11" />
    <stop
       offset="1"
       stop-color="#529ac3"
       id="stop13" />
  </linearGradient>
  <linearGradient
     id="c"
     x1="6.9590001"
     x2="6.9590001"
     y1="2.125"
     y2="22.753"
     gradientUnits="userSpaceOnUse">
    <stop
       offset="0"
       stop-color="#39c4b6"
       id="stop18" />
    <stop
       offset="1"
       stop-color="#529ac3"
       id="stop20" />
  </linearGradient>
  <linearGradient
     id="d"
     x1="14.411"
     x2="14.411"
     y1="2.125"
     y2="22.753"
     gradientUnits="userSpaceOnUse">
    <stop
       offset="0"
       stop-color="#39c4b6"
       id="stop25" />
    <stop
       offset="1"
       stop-color="#529ac3"
       id="stop27" />
  </linearGradient>
  <linearGradient
     id="e"
     x1="19.684999"
     x2="19.684999"
     y1="2.125"
     y2="22.753"
     gradientUnits="userSpaceOnUse">
    <stop
       offset="0"
       stop-color="#39c4b6"
       id="stop32" />
    <stop
       offset="1"
       stop-color="#529ac3"
       id="stop34" />
  </linearGradient>
  <linearGradient
     id="f"
     x1="20.868999"
     x2="20.868999"
     y1="2.125"
     y2="22.753"
     gradientUnits="userSpaceOnUse">
    <stop
       offset="0"
       stop-color="#39c4b6"
       id="stop39" />
    <stop
       offset="1"
       stop-color="#529ac3"
       id="stop41" />
  </linearGradient>
  <linearGradient
     id="g"
     x1="3.0309999"
     x2="3.0309999"
     y1="2.125"
     y2="22.753"
     gradientUnits="userSpaceOnUse">
    <stop
       offset="0"
       stop-color="#39c4b6"
       id="stop46" />
    <stop
       offset="1"
       stop-color="#529ac3"
       id="stop48" />
  </linearGradient>
  <linearGradient
     id="h"
     x1="11.826"
     x2="11.826"
     y1="2.125"
     y2="22.753"
     gradientUnits="userSpaceOnUse">
    <stop
       offset="0"
       stop-color="#39c4b6"
       id="stop53" />
    <stop
       offset="1"
       stop-color="#529ac3"
       id="stop55" />
  </linearGradient>
  <linearGradient
     id="i"
     x1="4.6570001"
     x2="4.6570001"
     y1="2.125"
     y2="22.753"
     gradientUnits="userSpaceOnUse">
    <stop
       offset="0"
       stop-color="#39c4b6"
       id="stop60" />
    <stop
       offset="1"
       stop-color="#529ac3"
       id="stop62" />
  </linearGradient>
  <linearGradient
     id="j"
     x1="17.209999"
     x2="17.209999"
     y1="2.125"
     y2="22.753"
     gradientUnits="userSpaceOnUse">
    <stop
       offset="0"
       stop-color="#39c4b6"
       id="stop67" />
    <stop
       offset="1"
       stop-color="#529ac3"
       id="stop69" />
  </linearGradient>
  <linearGradient
     id="k"
     x1="18.288"
     x2="18.288"
     y1="2.125"
     y2="22.753"
     gradientUnits="userSpaceOnUse">
    <stop
       offset="0"
       stop-color="#39c4b6"
       id="stop74" />
    <stop
       offset="1"
       stop-color="#529ac3"
       id="stop76" />
  </linearGradient>
  <linearGradient
     id="l"
     x1="15.446"
     x2="15.446"
     y1="2.125"
     y2="22.753"
     gradientUnits="userSpaceOnUse">
    <stop
       offset="0"
       stop-color="#39c4b6"
       id="stop81" />
    <stop
       offset="1"
       stop-color="#529ac3"
       id="stop83" />
  </linearGradient>
  <linearGradient
     id="m"
     x1="9.1049995"
     x2="9.1049995"
     y1="2.125"
     y2="22.753"
     gradientUnits="userSpaceOnUse">
    <stop
       offset="0"
       stop-color="#39c4b6"
       id="stop88" />
    <stop
       offset="1"
       stop-color="#529ac3"
       id="stop90" />
  </linearGradient>
  <linearGradient
     id="n"
     x1="12.103"
     x2="12.103"
     y1="2.125"
     y2="22.753"
     gradientUnits="userSpaceOnUse">
    <stop
       offset="0"
       stop-color="#39c4b6"
       id="stop95" />
    <stop
       offset="1"
       stop-color="#529ac3"
       id="stop97" />
  </linearGradient>
  <linearGradient
     id="o"
     x1="10.536"
     x2="10.536"
     y1="2.125"
     y2="22.753"
     gradientUnits="userSpaceOnUse">
    <stop
       offset="0"
       stop-color="#39c4b6"
       id="stop102" />
    <stop
       offset="1"
       stop-color="#529ac3"
       id="stop104" />
  </linearGradient>
  <linearGradient
     id="p"
     x1="11.6"
     x2="11.6"
     y1="2.125"
     y2="22.753"
     gradientUnits="userSpaceOnUse">
    <stop
       offset="0"
       stop-color="#39c4b6"
       id="stop109" />
    <stop
       offset="1"
       stop-color="#529ac3"
       id="stop111" />
  </linearGradient>
  <g
     id="g443"
     transform="matrix(0.65607476,0,0,0.65607476,0.12710288,0.12710288)">
    <path
       d="m 23.961,11.954 -0.017,-0.007 0.049,0.049 c 0.021,0 -0.032,-0.042 -0.032,-0.042 z m -0.689,0.564 v 0.044 l 0.094,0.04 z"
       id="path2" />
    <path
       fill="url(#a)"
       d="m 14.933,16.276 v 0.004 c 0.013,0.006 0.007,10e-4 0,-0.004 z"
       id="path9"
       style="fill:url(#a)" />
    <path
       fill="url(#b)"
       d="M 2.743,14.98 5.526,13.796 5.557,13.787 0.534,12.738 Z"
       id="path16"
       style="fill:url(#b)" />
    <path
       fill="url(#c)"
       d="m 6.886,12.313 c 0.055,0 0.11,0.003 0.164,0.008 L 7.044,12.32 a 1.31,1.31 0 0 1 0.351,10e-4 L 7.388,12.32 10.129,8.055 A 1.19,1.19 0 0 1 9.795,7.229 1.166,1.166 0 0 1 9.796,6.952 L 9.795,6.958 6.467,5.418 3.789,8.026 6.729,12.32 c 0.047,-0.005 0.102,-0.007 0.157,-0.007 z"
       id="path23"
       style="fill:url(#c)" />
    <path
       fill="url(#d)"
       d="M 16.159,8.413 16.734,4.851 14.599,2.609 12.088,6.474 v 0.053 c 0.109,0.164 0.184,0.359 0.208,0.57 l 0.001,0.006 3.505,1.487 c 0.101,-0.078 0.22,-0.139 0.349,-0.176 z"
       id="path30"
       style="fill:url(#d)" />
    <path
       fill="url(#e)"
       d="m 23.327,12.605 -5.933,-2.537 c -0.166,0.22 -0.414,0.37 -0.697,0.407 l -0.005,0.001 -0.649,3.971 c 0.186,0.189 0.303,0.448 0.304,0.733 l 3.641,0.765 3.338,-3.321 v -0.019 z"
       id="path37"
       style="fill:url(#e)" />
    <path
       fill="url(#f)"
       d="M 20.293,8.276 17.739,9.324 24,11.988 Z"
       id="path44"
       style="fill:url(#f)" />
    <path
       fill="url(#g)"
       d="M 5.818,13.085 H 5.82 A 1.55,1.55 0 0 1 6.062,12.749 L 6.06,12.75 3.286,8.601 0,11.796 Z"
       id="path51"
       style="fill:url(#g)" />
    <path
       fill="url(#h)"
       d="M 15.446,9.439 A 0.862,0.862 0 0 1 15.447,9.278 V 9.282 L 15.448,9.273 A 0.052,0.052 0 0 0 15.437,9.241 L 12.161,7.846 c -0.218,0.33 -0.587,0.546 -1.007,0.546 L 11.113,8.391 h -0.197 l -2.71,4.191 z"
       id="path58"
       style="fill:url(#h)" />
    <path
       fill="url(#i)"
       d="M 3.339,15.494 4.574,16.72 5.976,14.541 5.882,14.446 Z"
       id="path65"
       style="fill:url(#i)" />
    <path
       fill="url(#j)"
       d="m 16.21,15.913 c -0.119,0.152 -0.275,0.27 -0.454,0.342 l -0.007,0.003 -0.763,4.736 4.447,-4.411 c 0,0 -0.01,0.02 -0.021,0.02 v -0.03 z"
       id="path72"
       style="fill:url(#j)" />
    <path
       fill="url(#k)"
       d="m 16.974,8.507 c 0.118,0.06 0.218,0.137 0.303,0.23 l 10e-4,10e-4 2.354,-1.049 -2.197,-2.178 -0.492,2.964 z"
       id="path79"
       style="fill:url(#k)" />
    <path
       fill="url(#l)"
       d="m 15.446,9.439 v 0.01 z"
       id="path86"
       style="fill:url(#l)" />
    <path
       fill="url(#m)"
       d="M 11.899,24 13.092,22.816 7.681,14.97 c -0.165,0.078 -0.36,0.124 -0.564,0.125 H 7.111 c -0.159,0 -0.313,-0.027 -0.455,-0.076 l 0.01,0.003 -1.548,2.253 z"
       id="path93"
       style="fill:url(#m)" />
    <path
       fill="url(#n)"
       d="m 8.373,13.399 c 0.034,0.052 0.068,0.114 0.099,0.178 l 0.005,0.011 5.892,1.215 a 1.05,1.05 0 0 1 0.822,-0.524 h 0.004 l 0.639,-3.907 -0.135,-0.115 z"
       id="path100"
       style="fill:url(#n)" />
    <path
       fill="url(#o)"
       d="M 11.951,0 7.033,4.829 c 0,0 -0.01,0.052 0,0.063 l 3.245,1.383 a 1.236,1.236 0 0 1 0.839,-0.283 h -0.002 c 0.142,0.001 0.28,0.024 0.408,0.066 l -0.01,-0.003 2.532,-3.96 z"
       id="path107"
       style="fill:url(#o)" />
    <path
       fill="url(#p)"
       d="m 14.318,15.543 -0.002,-0.007 -5.964,-1.226 -0.084,0.136 5.411,7.837 0.324,-0.325 0.921,-5.689 0.01,0.007 v -0.028 a 1.048,1.048 0 0 1 -0.616,-0.705 z"
       id="path114"
       style="fill:url(#p)" />
  </g>
</svg>
