<?xml version="1.0" encoding="UTF-8" standalone="no"?>
<svg
   width="16"
   height="16"
   viewBox="0 0 16 16"
   version="1.1"
   preserveAspectRatio="xMidYMid"
   id="svg28"
   sodipodi:docname="opera-seeklogo.com.svg"
   inkscape:version="1.2.1 (9c6d41e410, 2022-07-14)"
   xmlns:inkscape="http://www.inkscape.org/namespaces/inkscape"
   xmlns:sodipodi="http://sodipodi.sourceforge.net/DTD/sodipodi-0.dtd"
   xmlns="http://www.w3.org/2000/svg"
   xmlns:svg="http://www.w3.org/2000/svg">
  <sodipodi:namedview
     id="namedview30"
     pagecolor="#ffffff"
     bordercolor="#666666"
     borderopacity="1.0"
     inkscape:showpageshadow="2"
     inkscape:pageopacity="0.0"
     inkscape:pagecheckerboard="0"
     inkscape:deskcolor="#d1d1d1"
     showgrid="false"
     inkscape:zoom="32"
     inkscape:cx="7.984375"
     inkscape:cy="8"
     inkscape:window-width="1366"
     inkscape:window-height="715"
     inkscape:window-x="-8"
     inkscape:window-y="-8"
     inkscape:window-maximized="1"
     inkscape:current-layer="svg28" />
  <defs
     id="defs20">
    <linearGradient
       x1="116.84438"
       y1="3.8098431"
       x2="116.84438"
       y2="230.27635"
       id="linearGradient-1"
       gradientTransform="scale(0.91279961,1.0955307)"
       gradientUnits="userSpaceOnUse">
      <stop
         stop-color="#FF1B2D"
         offset="30%"
         id="stop2" />
      <stop
         stop-color="#FA1A2C"
         offset="43.81%"
         id="stop4" />
      <stop
         stop-color="#ED1528"
         offset="59.39%"
         id="stop6" />
      <stop
         stop-color="#D60E21"
         offset="75.81%"
         id="stop8" />
      <stop
         stop-color="#B70519"
         offset="92.72%"
         id="stop10" />
      <stop
         stop-color="#A70014"
         offset="100%"
         id="stop12" />
    </linearGradient>
    <linearGradient
       x1="195.45303"
       y1="16.438921"
       x2="195.45303"
       y2="208.34428"
       id="linearGradient-2"
       gradientTransform="scale(0.87455024,1.1434449)"
       gradientUnits="userSpaceOnUse">
      <stop
         stop-color="#9C0000"
         offset="0%"
         id="stop15" />
      <stop
         stop-color="#FF4B4B"
         offset="70%"
         id="stop17" />
    </linearGradient>
  </defs>
  <g
     id="g26"
     transform="scale(0.0625)">
    <path
       d="M 85.9,200.1 C 71.7,183.4 62.6,158.7 62,131 v -6 c 0.6,-27.7 9.8,-52.4 23.9,-69.1 18.4,-23.8 45.4,-34.5 75.9,-34.5 18.8,0 36.5,1.3 51.5,11.3 C 190.8,12.4 161.1,0.1 128.5,0 H 128 C 57.3,0 0,57.3 0,128 c 0,68.6 54,124.7 121.9,127.9 2,0.1 4.1,0.1 6.1,0.1 32.8,0 62.7,-12.3 85.3,-32.6 -15,10 -31.7,10.4 -50.5,10.4 -30.4,0.1 -58.6,-9.8 -76.9,-33.7 z"
       fill="url(#linearGradient-1)"
       id="path22"
       style="fill:url(#linearGradient-1)" />
    <path
       d="M 85.9,55.9 C 97.6,42 112.8,33.7 129.4,33.7 c 37.3,0 67.5,42.2 67.5,94.4 0,52.2 -30.2,94.4 -67.5,94.4 -16.6,0 -31.7,-8.4 -43.5,-22.2 18.4,23.8 45.7,39 76.1,39 18.7,0 36.3,-5.7 51.3,-15.7 C 239.5,200 256,165.9 256,128 256,90.1 239.5,56 213.3,32.6 198.3,22.6 180.8,16.9 162,16.9 c -30.5,0 -57.8,15.1 -76.1,39 z"
       fill="url(#linearGradient-2)"
       id="path24"
       style="fill:url(#linearGradient-2)" />
  </g>
</svg>
