<?xml version="1.0" encoding="UTF-8" standalone="no"?>
<svg
   id="Layer_1"
   data-name="Layer 1"
   viewBox="0 0 16 16"
   version="1.1"
   sodipodi:docname="pandas-seeklogo.com.svg"
   width="16"
   height="16"
   inkscape:version="1.2.1 (9c6d41e410, 2022-07-14)"
   xmlns:inkscape="http://www.inkscape.org/namespaces/inkscape"
   xmlns:sodipodi="http://sodipodi.sourceforge.net/DTD/sodipodi-0.dtd"
   xmlns="http://www.w3.org/2000/svg"
   xmlns:svg="http://www.w3.org/2000/svg"
   xmlns:rdf="http://www.w3.org/1999/02/22-rdf-syntax-ns#"
   xmlns:cc="http://creativecommons.org/ns#"
   xmlns:dc="http://purl.org/dc/elements/1.1/">
  <sodipodi:namedview
     id="namedview37"
     pagecolor="#ffffff"
     bordercolor="#666666"
     borderopacity="1.0"
     inkscape:showpageshadow="2"
     inkscape:pageopacity="0.0"
     inkscape:pagecheckerboard="0"
     inkscape:deskcolor="#d1d1d1"
     showgrid="false"
     inkscape:zoom="32"
     inkscape:cx="7.359375"
     inkscape:cy="8"
     inkscape:window-width="1366"
     inkscape:window-height="715"
     inkscape:window-x="-8"
     inkscape:window-y="-8"
     inkscape:window-maximized="1"
     inkscape:current-layer="Layer_1" />
  <defs
     id="defs4">
    <style
       id="style2">.cls-1{fill:#fff;}.cls-2{fill:#ffca00;}.cls-3{fill:#e70488;}</style>
  </defs>
  <title
     id="title6">Artboard 63 copy 2</title>
  <g
     id="g3172">
    <rect
       style="fill:#130654;stroke:none;stroke-width:0.102302;stroke-linecap:square;stroke-linejoin:miter;stroke-dasharray:none;fill-opacity:1"
       id="rect392"
       width="16"
       height="16"
       x="0"
       y="0" />
    <path
       class="cls-1"
       d="m 5.6266815,8.72617 c -0.2057743,0 -0.4153556,-0.091838 -0.5465943,-0.2718411 V 9.4267335 H 4.6679374 V 7.0261908 h 0.372678 l 0.014226,0.2640618 C 5.182674,7.0873442 5.409687,6.9801636 5.626281,6.9801636 c 0.4153556,0 0.7213122,0.3753482 0.7213122,0.8730032 0,0.497655 -0.3055559,0.8732193 -0.7209117,0.8730032 z M 5.4990493,7.3097007 c -0.2414392,0 -0.4365942,0.2029084 -0.4365942,0.5436822 0,0.3407738 0.195155,0.5441144 0.4365942,0.5441144 0.2414393,0 0.4365943,-0.2029085 0.4365943,-0.5436822 0,-0.3407738 -0.195155,-0.5441144 -0.4365943,-0.5441144 z"
       id="path8"
       style="stroke:#000000;stroke-width:0.0208079" />
    <path
       class="cls-1"
       d="M 7.901019,8.680575 7.8867931,8.4165132 C 7.7589605,8.6194216 7.5317472,8.7266022 7.3151532,8.7263861 6.8997976,8.7263861 6.593841,8.351254 6.593841,7.853599 c 0,-0.4976551 0.3053555,-0.8730032 0.7213122,-0.8727871 0.216594,0 0.4438073,0.1080449 0.5716399,0.310089 L 7.901019,7.026839 H 8.2744984 V 8.680575 Z M 7.4431861,7.3099168 c -0.2414392,0 -0.4365943,0.2029084 -0.4367946,0.5436822 -2.004e-4,0.3407738 0.195155,0.5438983 0.4365942,0.5438983 0.2414392,0 0.4367946,-0.2029085 0.4367946,-0.5436822 0,-0.3407738 -0.195155,-0.5438983 -0.4365942,-0.5438983 z"
       id="path10"
       style="stroke:none;stroke-width:0.0208079" />
    <path
       class="cls-1"
       d="M 9.7145181,8.6807911 V 7.7658665 c 0,-0.3215418 -0.102787,-0.4287224 -0.2909293,-0.4287224 -0.1953554,0 -0.4083429,0.1912396 -0.4083429,0.4209431 V 8.6807911 H 8.6032965 V 7.026839 h 0.3764849 l 0.017832,0.3064155 C 9.1006012,7.1225668 9.3312208,6.981028 9.5656472,6.981028 c 0.4081425,0 0.5610208,0.3064154 0.5610208,0.7159058 v 0.9840734 z"
       id="path12"
       style="stroke:none;stroke-width:0.0208079" />
    <path
       class="cls-1"
       d="m 11.636014,8.6812233 -0.01423,-0.2642779 c -0.127833,0.2029084 -0.355046,0.310089 -0.57144,0.310089 -0.415355,0 -0.721312,-0.3753482 -0.721312,-0.8730032 0,-0.4976551 0.305355,-0.8727871 0.721312,-0.8727871 0.205775,0 0.415155,0.092054 0.546595,0.271841 V 6.3841877 h 0.411949 V 8.6812233 Z M 11.178181,7.3105651 c -0.240438,0 -0.436595,0.2029084 -0.436595,0.5434661 0,0.3405576 0.195156,0.5434661 0.436595,0.5434661 0.241439,0 0.436594,-0.2026924 0.436594,-0.5434661 0,-0.3407738 -0.194554,-0.5434661 -0.436594,-0.5434661 z"
       id="path14"
       style="stroke:none;stroke-width:0.0208079" />
    <path
       class="cls-1"
       d="m 13.556107,8.6814394 -0.01423,-0.2640619 c -0.127833,0.2029084 -0.355046,0.3098729 -0.57164,0.3098729 -0.415356,0 -0.721312,-0.375132 -0.721312,-0.8730031 0,-0.4978712 0.305355,-0.8727872 0.721312,-0.8727872 0.216594,0 0.443807,0.108045 0.57164,0.3103051 l 0.01423,-0.2642779 h 0.372678 v 1.653736 z M 13.098274,7.3107812 c -0.240438,0 -0.436595,0.2029084 -0.436795,0.5436821 -2e-4,0.3407738 0.195356,0.543034 0.436594,0.543034 0.241239,0 0.436795,-0.2029085 0.436795,-0.5436822 0,-0.3407738 -0.195155,-0.5430339 -0.436594,-0.5430339 z"
       id="path16"
       style="stroke:none;stroke-width:0.0208079" />
    <path
       class="cls-1"
       d="M 14.841044,8.7352458 A 1.2053928,1.2999968 0 0 1 14.226927,8.5474637 l 0.06752,-0.3061994 c 0.124226,0.080385 0.312368,0.1838925 0.539581,0.1838925 0.163297,0 0.276904,-0.05359 0.276904,-0.1914557 0,-0.1186333 -0.117213,-0.1607709 -0.326594,-0.2143612 -0.376285,-0.088165 -0.51113,-0.3025258 -0.51113,-0.536119 0,-0.2603883 0.188142,-0.5052182 0.603498,-0.5052182 0.252059,0 0.472259,0.1186334 0.520948,0.1493181 l -0.06752,0.2910731 A 0.89342531,0.96354486 0 0 0 14.886527,7.2805286 c -0.166703,0 -0.248452,0.061153 -0.248452,0.1607709 0,0.1108541 0.106594,0.1607708 0.269691,0.2029084 0.404736,0.091838 0.568033,0.2947466 0.568033,0.516887 8.01e-4,0.3559001 -0.240638,0.5741509 -0.634755,0.5741509 z"
       id="path18"
       style="stroke:none;stroke-width:0.0208079" />
    <rect
       class="cls-1"
       x="1.2994094"
       y="5.89993"
       width="0.48267809"
       height="1.0808817"
       id="rect20"
       style="stroke:none;stroke-width:0.0208079" />
    <rect
       class="cls-1"
       x="1.2994094"
       y="8.1202536"
       width="0.48267809"
       height="1.0808817"
       id="rect22"
       style="stroke:none;stroke-width:0.0208079" />
    <rect
       class="cls-2"
       x="1.2994094"
       y="7.2963028"
       width="0.48267809"
       height="0.50997216"
       id="rect24"
       style="stroke:none;stroke-width:0.0208079" />
    <rect
       class="cls-1"
       x="0.52419913"
       y="6.7887082"
       width="0.48267809"
       height="3.5929267"
       id="rect26"
       style="stroke:none;stroke-width:0.0208079" />
    <rect
       class="cls-1"
       x="2.0587909"
       y="9.0120573"
       width="0.48267809"
       height="1.0808817"
       id="rect28"
       style="stroke:none;stroke-width:0.0208079" />
    <rect
       class="cls-1"
       x="2.0587909"
       y="6.7900047"
       width="0.48267809"
       height="1.0808817"
       id="rect30"
       style="stroke:none;stroke-width:0.0208079" />
    <rect
       class="cls-3"
       x="2.0587909"
       y="8.1863775"
       width="0.48267809"
       height="0.50997216"
       id="rect32"
       style="stroke:none;stroke-width:0.0208079" />
    <rect
       class="cls-1"
       x="2.8179719"
       y="5.6183648"
       width="0.48267809"
       height="3.5929267"
       id="rect34"
       style="stroke:none;stroke-width:0.0208079" />
  </g>
  <metadata
     id="metadata336">
    <rdf:RDF>
      <cc:Work
         rdf:about="">
        <dc:title>Artboard 63 copy 2</dc:title>
      </cc:Work>
    </rdf:RDF>
  </metadata>
</svg>
