<?xml version="1.0" encoding="UTF-8" standalone="no"?>
<svg
   width="16"
   height="16"
   viewBox="-11.153 -13.144 16 16"
   version="1.1"
   id="svg32"
   sodipodi:docname="paypal.svg"
   inkscape:version="1.2.1 (9c6d41e410, 2022-07-14)"
   xmlns:inkscape="http://www.inkscape.org/namespaces/inkscape"
   xmlns:sodipodi="http://sodipodi.sourceforge.net/DTD/sodipodi-0.dtd"
   xmlns:xlink="http://www.w3.org/1999/xlink"
   xmlns="http://www.w3.org/2000/svg"
   xmlns:svg="http://www.w3.org/2000/svg">
  <defs
     id="defs36" />
  <sodipodi:namedview
     id="namedview34"
     pagecolor="#ffffff"
     bordercolor="#666666"
     borderopacity="1.0"
     inkscape:showpageshadow="2"
     inkscape:pageopacity="0.0"
     inkscape:pagecheckerboard="0"
     inkscape:deskcolor="#d1d1d1"
     showgrid="false"
     inkscape:zoom="32"
     inkscape:cx="7.984375"
     inkscape:cy="8"
     inkscape:window-width="1366"
     inkscape:window-height="715"
     inkscape:window-x="-8"
     inkscape:window-y="-8"
     inkscape:window-maximized="1"
     inkscape:current-layer="svg32" />
  <g
     transform="matrix(0.11197584,0,0,-0.11197584,-11.842216,-2.2738353)"
     id="g30">
    <defs
       id="defs3">
      <path
         id="a"
         d="m -84.525,-27.457 h 326.05 V 78.457 h -326.05 z" />
    </defs>
    <clipPath
       id="b">
      <use
         overflow="visible"
         xlink:href="#a"
         id="use5" />
    </clipPath>
    <g
       clip-path="url(#b)"
       id="g28">
      <path
         fill="#003087"
         d="m 32.419,40.982 c -1.674,1.908 -4.7,2.726 -8.571,2.726 H 12.613 a 1.609,1.609 0 0 1 -1.59,-1.357 L 6.347,12.68 A 0.964,0.964 0 0 1 7.3,11.566 h 6.936 l 1.742,11.049 -0.054,-0.346 a 1.604,1.604 0 0 0 1.583,1.357 h 3.296 c 6.475,0 11.545,2.63 13.026,10.238 0.044,0.225 0.082,0.444 0.115,0.658 0.44,2.812 -0.003,4.726 -1.524,6.459"
         id="path8" />
      <path
         fill="#009cde"
         d="m 117.331,26.863 c -0.424,-2.784 -2.55,-2.784 -4.606,-2.784 h -1.17 l 0.821,5.198 c 0.05,0.314 0.32,0.545 0.638,0.545 h 0.537 c 1.4,0 2.722,0 3.404,-0.797 0.407,-0.477 0.53,-1.185 0.376,-2.162 m -0.895,7.264 h -7.756 a 1.08,1.08 0 0 1 -1.066,-0.91 L 104.48,13.33 a 0.647,0.647 0 0 1 0.638,-0.747 h 3.98 c 0.371,0 0.687,0.27 0.745,0.636 l 0.89,5.64 c 0.082,0.523 0.534,0.91 1.064,0.91 h 2.454 c 5.11,0 8.058,2.471 8.828,7.372 0.347,2.142 0.014,3.826 -0.989,5.005 -1.103,1.296 -3.058,1.982 -5.653,1.982"
         id="path10" />
      <path
         fill="#003087"
         d="m 62.011,26.863 c -0.424,-2.784 -2.55,-2.784 -4.607,-2.784 h -1.17 l 0.821,5.198 c 0.05,0.314 0.32,0.545 0.638,0.545 h 0.537 c 1.4,0 2.722,0 3.404,-0.797 0.408,-0.477 0.531,-1.185 0.377,-2.162 m -0.895,7.264 H 53.36 c -0.53,0 -0.982,-0.386 -1.065,-0.91 L 49.16,13.33 a 0.646,0.646 0 0 1 0.638,-0.747 h 3.704 c 0.53,0 0.981,0.386 1.064,0.91 l 0.847,5.365 c 0.082,0.524 0.534,0.91 1.064,0.91 h 2.454 c 5.11,0 8.058,2.472 8.828,7.373 0.347,2.142 0.014,3.826 -0.989,5.005 -1.103,1.296 -3.058,1.982 -5.653,1.982 M 79.123,19.723 c -0.36,-2.122 -2.043,-3.547 -4.192,-3.547 -1.077,0 -1.94,0.347 -2.494,1.003 -0.55,0.65 -0.756,1.577 -0.582,2.608 0.334,2.104 2.046,3.574 4.162,3.574 1.055,0 1.91,-0.35 2.476,-1.012 0.569,-0.667 0.793,-1.599 0.63,-2.626 m 5.176,7.23 h -3.714 a 0.647,0.647 0 0 1 -0.64,-0.547 l -0.162,-1.038 -0.26,0.376 c -0.804,1.167 -2.597,1.558 -4.387,1.558 -4.103,0 -7.608,-3.11 -8.29,-7.47 -0.355,-2.177 0.149,-4.256 1.383,-5.707 1.133,-1.333 2.75,-1.888 4.677,-1.888 3.308,0 5.142,2.124 5.142,2.124 l -0.166,-1.032 a 0.646,0.646 0 0 1 0.639,-0.747 h 3.344 c 0.53,0 0.982,0.385 1.065,0.91 l 2.008,12.713 a 0.647,0.647 0 0 1 -0.64,0.747"
         id="path12" />
      <path
         fill="#009cde"
         d="m 134.443,19.723 c -0.36,-2.122 -2.043,-3.547 -4.192,-3.547 -1.077,0 -1.94,0.347 -2.494,1.003 -0.55,0.65 -0.756,1.577 -0.582,2.608 0.334,2.104 2.045,3.574 4.162,3.574 1.055,0 1.91,-0.35 2.476,-1.012 0.569,-0.667 0.793,-1.599 0.63,-2.626 m 5.176,7.23 h -3.714 a 0.647,0.647 0 0 1 -0.64,-0.547 l -0.162,-1.038 -0.26,0.376 c -0.804,1.167 -2.597,1.558 -4.387,1.558 -4.102,0 -7.607,-3.11 -8.29,-7.47 -0.355,-2.177 0.15,-4.256 1.384,-5.707 1.133,-1.333 2.75,-1.888 4.677,-1.888 3.309,0 5.143,2.124 5.143,2.124 l -0.166,-1.032 a 0.644,0.644 0 0 1 0.637,-0.747 h 3.343 c 0.53,0 0.982,0.385 1.066,0.91 l 2.008,12.713 a 0.647,0.647 0 0 1 -0.64,0.747"
         id="path14" />
      <path
         fill="#003087"
         d="m 104.08,26.952 h -3.734 c -0.357,0 -0.69,-0.177 -0.89,-0.473 l -5.15,-7.584 -2.183,7.288 a 1.08,1.08 0 0 1 -1.033,0.77 h -3.669 a 0.647,0.647 0 0 1 -0.612,-0.856 l 4.11,-12.066 -3.866,-5.455 a 0.647,0.647 0 0 1 0.528,-1.02 h 3.73 c 0.352,0 0.683,0.173 0.885,0.463 l 12.414,17.918 a 0.646,0.646 0 0 1 -0.53,1.015"
         id="path16" />
      <path
         fill="#009cde"
         d="m 143.996,33.58 -3.184,-20.251 a 0.647,0.647 0 0 1 0.639,-0.747 h 3.201 c 0.53,0 0.982,0.386 1.065,0.91 l 3.139,19.888 a 0.646,0.646 0 0 1 -0.639,0.747 h -3.582 a 0.645,0.645 0 0 1 -0.639,-0.546"
         id="path18" />
      <path
         fill="#003087"
         d="m 32.419,40.982 c -1.674,1.908 -4.7,2.726 -8.571,2.726 H 12.613 a 1.609,1.609 0 0 1 -1.59,-1.357 L 6.347,12.68 A 0.964,0.964 0 0 1 7.3,11.566 h 6.936 l 1.742,11.049 -0.054,-0.346 a 1.604,1.604 0 0 0 1.583,1.357 h 3.296 c 6.475,0 11.545,2.63 13.026,10.238 0.044,0.225 0.082,0.444 0.115,0.658 0.44,2.812 -0.003,4.726 -1.524,6.459"
         id="path20" />
      <path
         fill="#003087"
         d="m 17.849,34.485 a 1.408,1.408 0 0 0 1.389,1.187 h 8.808 c 1.043,0 2.016,-0.068 2.905,-0.21 a 12.206,12.206 0 0 0 1.44,-0.322 7.957,7.957 0 0 0 1.551,-0.618 c 0.442,2.813 -0.002,4.726 -1.523,6.46 -1.675,1.907 -4.7,2.725 -8.571,2.725 H 12.612 A 1.609,1.609 0 0 1 11.024,42.35 L 6.346,12.682 a 0.964,0.964 0 0 1 0.952,-1.115 h 6.937 l 1.742,11.05 z"
         id="path22" />
      <path
         fill="#009cde"
         d="M 33.943,34.523 A 18.294,18.294 0 0 0 33.828,33.865 C 32.347,26.258 27.277,23.627 20.802,23.627 H 17.505 A 1.602,1.602 0 0 1 15.923,22.27 L 14.235,11.568 13.755,8.532 a 0.844,0.844 0 0 1 0.834,-0.976 h 5.847 c 0.692,0 1.28,0.504 1.389,1.187 l 0.057,0.298 1.102,6.984 0.07,0.386 a 1.407,1.407 0 0 0 1.39,1.187 h 0.875 c 5.664,0 10.099,2.3 11.395,8.956 0.54,2.78 0.26,5.103 -1.17,6.734 a 5.584,5.584 0 0 1 -1.601,1.235"
         id="path24" />
      <path
         fill="#012169"
         d="m 32.392,35.14 c -0.226,0.067 -0.459,0.127 -0.699,0.18 -0.24,0.053 -0.488,0.1 -0.742,0.14 -0.89,0.145 -1.862,0.213 -2.906,0.213 H 19.238 A 1.404,1.404 0 0 1 17.849,34.485 L 15.977,22.615 15.923,22.27 a 1.602,1.602 0 0 0 1.582,1.357 h 3.297 c 6.475,0 11.545,2.63 13.026,10.238 0.044,0.225 0.081,0.443 0.115,0.658 a 7.998,7.998 0 0 1 -1.218,0.514 c -0.109,0.036 -0.22,0.07 -0.333,0.104"
         id="path26" />
    </g>
  </g>
</svg>
