<?xml version="1.0" encoding="UTF-8" standalone="no"?>
<svg
   viewBox="0 0 16 16"
   version="1.1"
   id="svg6"
   sodipodi:docname="pinterest.svg"
   width="16"
   height="16"
   inkscape:version="1.2.1 (9c6d41e410, 2022-07-14)"
   xmlns:inkscape="http://www.inkscape.org/namespaces/inkscape"
   xmlns:sodipodi="http://sodipodi.sourceforge.net/DTD/sodipodi-0.dtd"
   xmlns="http://www.w3.org/2000/svg"
   xmlns:svg="http://www.w3.org/2000/svg">
  <defs
     id="defs10" />
  <sodipodi:namedview
     id="namedview8"
     pagecolor="#ffffff"
     bordercolor="#666666"
     borderopacity="1.0"
     inkscape:showpageshadow="2"
     inkscape:pageopacity="0.0"
     inkscape:pagecheckerboard="0"
     inkscape:deskcolor="#d1d1d1"
     showgrid="false"
     inkscape:zoom="32"
     inkscape:cx="7.984375"
     inkscape:cy="8"
     inkscape:window-width="1366"
     inkscape:window-height="715"
     inkscape:window-x="-8"
     inkscape:window-y="-8"
     inkscape:window-maximized="1"
     inkscape:current-layer="svg6" />
  <g
     id="g295"
     transform="matrix(0.49158879,0,0,0.49158879,0.1370373,0.13457936)">
    <path
       fill="#e02f2f"
       d="m 15.995,0 c -8.837,0 -16,7.163 -16,16 0,8.836 7.163,16 16,16 8.837,0 16,-7.164 16,-16 0,-8.837 -7.164,-16 -16,-16 z"
       id="path2" />
    <path
       fill="#ffffff"
       d="m 24.002,12.466 c 0,4.658 -2.59,8.139 -6.407,8.139 -1.283,0 -2.488,-0.693 -2.901,-1.481 0,0 -0.69,2.736 -0.835,3.264 -0.514,1.866 -2.027,3.733 -2.144,3.886 -0.082,0.106 -0.263,0.073 -0.282,-0.068 -0.033,-0.238 -0.418,-2.592 0.036,-4.513 l 1.527,-6.471 c 0,0 -0.379,-0.758 -0.379,-1.879 0,-1.76 1.02,-3.074 2.29,-3.074 1.08,0 1.601,0.81 1.601,1.782 0,1.086 -0.691,2.71 -1.048,4.214 -0.298,1.26 0.632,2.288 1.874,2.288 2.25,0 3.765,-2.89 3.765,-6.314 0,-2.602 -1.752,-4.551 -4.941,-4.551 -3.601,0 -5.846,2.686 -5.846,5.687 0,1.035 0.306,1.765 0.784,2.329 0.219,0.26 0.25,0.364 0.17,0.662 -0.058,0.219 -0.187,0.744 -0.243,0.953 -0.079,0.301 -0.323,0.408 -0.594,0.297 -1.659,-0.677 -2.432,-2.495 -2.432,-4.537 0,-3.373 2.845,-7.418 8.487,-7.418 4.535,0.002 7.518,3.282 7.518,6.805 z"
       id="path4" />
  </g>
</svg>
