<?xml version="1.0" encoding="UTF-8" standalone="no"?>
<svg
   viewBox="0 0 16 16"
   version="1.1"
   id="svg16"
   sodipodi:docname="postgresql.svg"
   width="16"
   height="16"
   inkscape:version="1.2.1 (9c6d41e410, 2022-07-14)"
   xmlns:inkscape="http://www.inkscape.org/namespaces/inkscape"
   xmlns:sodipodi="http://sodipodi.sourceforge.net/DTD/sodipodi-0.dtd"
   xmlns="http://www.w3.org/2000/svg"
   xmlns:svg="http://www.w3.org/2000/svg">
  <defs
     id="defs20" />
  <sodipodi:namedview
     id="namedview18"
     pagecolor="#ffffff"
     bordercolor="#666666"
     borderopacity="1.0"
     inkscape:showpageshadow="2"
     inkscape:pageopacity="0.0"
     inkscape:pagecheckerboard="0"
     inkscape:deskcolor="#d1d1d1"
     showgrid="false"
     inkscape:zoom="32"
     inkscape:cx="7.984375"
     inkscape:cy="8"
     inkscape:window-width="1366"
     inkscape:window-height="715"
     inkscape:window-x="-8"
     inkscape:window-y="-8"
     inkscape:window-maximized="1"
     inkscape:current-layer="svg16" />
  <g
     id="g310"
     transform="matrix(0.12917481,0,0,0.12917481,-0.26718784,-0.39824421)">
    <path
       d="m 85.988,76.075 c 0.632,-5.262 0.443,-6.034 4.362,-5.182 l 0.995,0.088 c 3.014,0.137 6.957,-0.485 9.272,-1.561 4.986,-2.313 7.942,-6.177 3.026,-5.162 C 92.428,66.571 91.657,62.775 91.657,62.775 103.5,45.204 108.451,22.9 104.178,17.44 92.524,2.548 72.35,9.59 72.012,9.773 L 71.904,9.794 C 69.688,9.333 67.209,9.059 64.423,9.014 59.348,8.931 55.497,10.345 52.576,12.56 c 0,0 -35.989,-14.827 -34.315,18.646 0.356,7.121 10.207,53.882 21.956,39.758 4.294,-5.164 8.444,-9.531 8.444,-9.531 2.061,1.369 4.528,2.067 7.116,1.816 l 0.2,-0.17 c -0.062,0.641 -0.035,1.268 0.081,2.01 -3.027,3.383 -2.137,3.977 -8.189,5.222 -6.122,1.262 -2.525,3.508 -0.178,4.095 2.848,0.713 9.433,1.722 13.884,-4.509 l -0.177,0.711 c 1.188,0.95 1.107,6.827 1.275,11.026 0.168,4.199 0.45,8.117 1.306,10.429 0.856,2.31 1.866,8.261 9.819,6.557 6.646,-1.426 11.727,-3.476 12.19,-22.545"
       id="path2" />
    <path
       d="m 71.208,102.77 c -3.518,0 -5.808,-1.36 -7.2,-2.674 -2.1,-1.981 -2.933,-4.534 -3.43,-6.059 L 60.363,93.4 c -1.002,-2.705 -1.341,-6.599 -1.542,-11.613 -0.03,-0.752 -0.052,-1.529 -0.075,-2.352 -0.017,-0.601 -0.038,-1.355 -0.068,-2.146 -1.25,0.599 -2.588,1.022 -3.997,1.264 -2.48,0.424 -5.146,0.286 -7.926,-0.409 -1.961,-0.49 -3.999,-1.506 -5.16,-3.076 -3.385,2.965 -6.614,2.562 -8.373,1.976 -3.103,-1.035 -5.88,-3.942 -8.491,-8.89 C 22.872,64.631 21.073,60.039 19.384,54.508 16.444,44.875 14.576,34.729 14.41,31.399 13.888,20.972 16.694,13.516 22.75,9.239 32.305,2.49 46.78,6.458 52.057,8.26 c 3.545,-2.137 7.716,-3.178 12.43,-3.102 2.532,0.041 4.942,0.264 7.181,0.662 2.335,-0.734 6.949,-1.788 12.23,-1.723 9.73,0.116 17.793,3.908 23.316,10.966 3.941,5.036 1.993,15.61 0.48,21.466 -2.127,8.235 -5.856,16.996 -10.436,24.622 1.244,0.009 3.045,-0.141 5.607,-0.669 5.054,-1.044 6.531,1.666 6.932,2.879 1.607,4.867 -5.378,8.544 -7.557,9.555 -2.792,1.297 -7.343,2.086 -11.071,1.915 L 91.006,74.82 90.027,74.734 89.93,75.55 89.837,76.349 c -0.25,9.664 -1.631,15.784 -4.472,19.829 -2.977,4.239 -7.116,5.428 -10.761,6.209 -1.241,0.267 -2.371,0.383 -3.396,0.383 z M 63.806,67.596 c 2.271,1.817 2.47,5.236 2.647,11.626 0.022,0.797 0.043,1.552 0.071,2.257 0.086,2.134 0.287,7.132 1.069,9.244 0.111,0.298 0.21,0.602 0.314,0.922 0.872,2.672 1.31,4.011 5.081,3.203 3.167,-0.678 4.794,-1.287 6.068,-3.101 1.852,-2.638 2.888,-7.941 3.078,-15.767 l 3.852,0.094 -3.826,-0.459 0.112,-0.955 c 0.367,-3.148 0.631,-5.424 2.736,-6.928 1.688,-1.207 3.613,-1.09 5.146,-0.814 -1.684,-1.271 -2.15,-2.765 -2.274,-3.377 l -0.321,-1.582 0.902,-1.34 c 5.2,-7.716 9.489,-17.199 11.767,-26.018 2.34,-9.062 1.626,-13.875 0.913,-14.785 C 91.695,7.745 75.312,12.728 73.602,13.295 l -0.29,0.156 -1.45,0.271 -0.743,-0.154 c -2.047,-0.425 -4.321,-0.66 -6.76,-0.7 -3.831,-0.064 -6.921,0.841 -9.455,2.764 l -1.758,1.333 -2.041,-0.841 c -4.358,-1.782 -17.162,-5.365 -23.918,-0.58 -3.75,2.656 -5.458,7.861 -5.078,15.47 0.125,2.512 1.833,12.021 4.647,21.245 3.891,12.746 7.427,16.979 8.903,17.472 0.257,0.087 0.926,-0.433 1.591,-1.231 4.326,-5.203 8.44,-9.54 8.613,-9.723 l 2.231,-2.347 2.697,1.792 c 1.087,0.723 2.286,1.132 3.518,1.209 l 6.433,-5.486 -0.932,9.51 c -0.021,0.214 -0.031,0.504 0.053,1.044 l 0.28,1.803 -1.213,1.358 -0.14,0.157 3.534,1.632 z"
       id="path4" />
    <path
       fill="#336791"
       d="M 103.646,64.258 C 92.43,66.571 91.659,62.774 91.659,62.774 103.501,45.203 108.451,22.898 104.179,17.439 92.524,2.547 72.35,9.59 72.013,9.773 L 71.904,9.792 C 69.688,9.333 67.209,9.059 64.422,9.014 c -5.075,-0.083 -8.925,1.33 -11.846,3.545 0,0 -35.99,-14.826 -34.316,18.647 0.356,7.121 10.207,53.882 21.956,39.758 4.294,-5.164 8.443,-9.531 8.443,-9.531 2.061,1.369 4.528,2.067 7.115,1.816 l 0.201,-0.17 c -0.062,0.641 -0.034,1.268 0.08,2.01 -3.026,3.383 -2.138,3.977 -8.188,5.222 -6.123,1.262 -2.526,3.508 -0.177,4.095 2.847,0.713 9.433,1.722 13.883,-4.509 l -0.178,0.711 c 1.186,0.95 2.019,6.179 1.879,10.919 -0.14,4.74 -0.233,7.994 0.702,10.536 0.935,2.541 1.866,8.261 9.82,6.557 6.646,-1.425 10.09,-5.116 10.57,-11.272 0.34,-4.377 1.109,-3.73 1.158,-7.644 l 0.618,-1.853 c 0.711,-5.934 0.113,-7.848 4.208,-6.957 l 0.995,0.087 c 3.014,0.138 6.958,-0.485 9.273,-1.561 4.986,-2.314 7.943,-6.177 3.028,-5.162 z"
       id="path6" />
    <path
       fill="#ffffff"
       d="m 71.61,100.394 c -6.631,10e-4 -8.731,-5.25 -9.591,-7.397 -1.257,-3.146 -1.529,-15.358 -1.249,-25.373 0.02,-0.71 0.607,-1.271 1.321,-1.249 0.709,0.02 1.268,0.611 1.249,1.321 -0.323,11.551 0.136,22.018 1.066,24.346 1.453,3.632 3.656,6.809 9.887,5.475 5.915,-1.269 8.13,-3.512 9.116,-9.23 0.758,-4.389 2.254,-16.874 2.438,-19.338 0.053,-0.708 0.667,-1.24 1.377,-1.186 0.708,0.053 1.239,0.67 1.186,1.377 -0.192,2.564 -1.682,15.026 -2.469,19.584 -1.165,6.755 -4.176,9.819 -11.11,11.306 -1.177,0.251 -2.248,0.364 -3.221,0.364 z M 35.659,74.749 C 35.026,74.75 34.452,74.634 33.955,74.468 29.648,73.031 25.546,66.017 21.762,53.619 18.882,44.181 17.057,34.331 16.897,31.13 c -0.475,-9.49 1.97,-16.205 7.265,-19.957 10.476,-7.423 28.1,-0.354 28.845,-0.05 0.657,0.269 0.972,1.019 0.703,1.676 -0.268,0.656 -1.019,0.972 -1.675,0.703 v 10e-4 c -0.17,-0.07 -17.07,-6.84 -26.392,-0.229 -4.528,3.211 -6.607,9.175 -6.18,17.729 0.135,2.696 1.84,12.311 4.757,21.867 3.378,11.067 7.223,18.052 10.548,19.16 0.521,0.175 2.109,0.704 4.381,-2.026 4.272,-5.14 8.197,-9.242 8.236,-9.283 0.491,-0.513 1.305,-0.529 1.817,-0.039 0.512,0.491 0.53,1.305 0.039,1.817 -0.039,0.04 -3.904,4.081 -8.116,9.148 -1.995,2.398 -3.908,3.102 -5.466,3.102 z M 91.579,63.92 c -0.247,0 -0.497,-0.071 -0.717,-0.22 C 90.273,63.304 90.117,62.505 90.514,61.916 102.485,44.152 106.687,22.689 103.088,18.091 98.558,12.303 92.161,9.279 84.076,9.106 78.089,8.976 73.33,10.505 72.553,10.772 l -0.195,0.079 C 71.576,11.097 70.976,10.668 70.75,10.167 70.482,9.574 70.702,8.873 71.258,8.536 L 71.604,8.394 71.587,8.399 71.605,8.393 C 72.926,7.91 77.757,6.46 83.742,6.529 c 8.947,0.094 16.337,3.545 21.371,9.977 2.382,3.044 2.387,10.057 0.015,19.24 -2.418,9.362 -6.968,19.425 -12.482,27.607 -0.248,0.369 -0.654,0.567 -1.067,0.567 z m 0.611,8.223 c -2.044,0 -3.876,-0.287 -4.973,-0.945 -1.128,-0.675 -1.343,-1.594 -1.371,-2.081 -0.308,-5.404 2.674,-6.345 4.195,-6.774 -0.212,-0.32 -0.514,-0.697 -0.825,-1.086 C 88.329,60.149 87.115,58.631 86.179,56.361 86.033,56.007 85.573,55.182 85.041,54.228 82.158,49.059 76.16,38.302 80.013,32.793 81.797,30.244 85.347,29.241 90.579,29.801 89.04,25.112 81.71,10.443 64.32,10.158 c -5.231,-0.088 -9.521,1.521 -12.744,4.775 -7.217,7.289 -6.955,20.477 -6.952,20.608 0.019,0.71 -0.542,1.3 -1.251,1.318 -0.71,0.022 -1.3,-0.541 -1.318,-1.251 C 42.039,35.023 41.769,21.184 49.75,13.124 53.485,9.352 58.401,7.49 64.362,7.587 75.49,7.77 82.651,13.426 86.7,18.14 c 4.412,5.136 6.576,10.802 6.754,12.692 0.133,1.406 -0.876,1.688 -1.08,1.729 l -0.463,0.011 c -5.135,-0.822 -8.429,-0.252 -9.791,1.695 -2.931,4.188 2.743,14.363 5.166,18.709 0.619,1.108 1.065,1.909 1.269,2.404 0.796,1.93 1.834,3.227 2.668,4.269 0.733,0.917 1.369,1.711 1.597,2.645 0.105,0.185 1.603,2.399 10.488,0.565 2.227,-0.459 3.562,-0.066 3.97,1.168 0.803,2.429 -3.702,5.261 -6.196,6.42 -2.238,1.039 -5.805,1.696 -8.892,1.696 z m -3.781,-3.238 c 0.281,0.285 1.691,0.775 4.612,0.65 2.596,-0.112 5.335,-0.677 6.979,-1.439 2.102,-0.976 3.504,-2.067 4.231,-2.812 l -0.404,0.074 c -5.681,1.173 -9.699,1.017 -11.942,-0.465 -0.161,-0.105 -0.304,-0.215 -0.435,-0.323 -0.243,0.096 -0.468,0.159 -0.628,0.204 -1.273,0.357 -2.589,0.726 -2.413,4.111 z m -36.697,7.179 c -1.411,0 -2.896,-0.191 -4.413,-0.572 -1.571,-0.393 -4.221,-1.576 -4.18,-3.519 0.045,-2.181 3.216,-2.835 4.411,-3.081 4.312,-0.888 4.593,-1.244 5.941,-2.955 0.393,-0.499 0.882,-1.12 1.548,-1.865 0.99,-1.107 2.072,-1.669 3.216,-1.669 0.796,0 1.45,0.271 1.881,0.449 1.376,0.57 2.524,1.948 2.996,3.598 0.426,1.488 0.223,2.92 -0.572,4.032 -2.608,3.653 -6.352,5.582 -10.828,5.582 z m -5.817,-3.98 c 0.388,0.299 1.164,0.699 2.027,0.916 1.314,0.328 2.588,0.495 3.79,0.495 3.662,0 6.601,-1.517 8.737,-4.506 0.445,-0.624 0.312,-1.415 0.193,-1.832 -0.25,-0.872 -0.87,-1.665 -1.509,-1.931 -0.347,-0.144 -0.634,-0.254 -0.898,-0.254 -0.142,0 -0.573,0 -1.3,0.813 -0.614,0.686 -1.055,1.246 -1.446,1.741 -1.678,2.131 -2.447,2.854 -7.441,3.883 -1.218,0.252 -1.843,0.506 -2.153,0.675 z m 9.882,-5.928 c -0.624,0 -1.171,-0.455 -1.269,-1.09 -0.033,-0.213 -0.054,-0.428 -0.064,-0.644 -3.274,-0.062 -6.432,-1.466 -8.829,-3.968 -3.031,-3.163 -4.411,-7.545 -3.785,-12.022 0.68,-4.862 0.426,-9.154 0.289,-11.46 -0.038,-0.641 -0.065,-1.104 -0.063,-1.425 0.002,-0.406 0.01,-1.485 3.615,-3.312 1.282,-0.65 3.853,-1.784 6.661,-2.075 4.654,-0.48 7.721,1.592 8.639,5.836 2.478,11.46 0.196,16.529 -1.47,20.23 -0.311,0.688 -0.604,1.34 -0.838,1.97 l -0.207,0.557 c -0.88,2.36 -1.641,4.399 -1.407,5.923 0.107,0.702 -0.374,1.357 -1.075,1.466 z M 44.634,35.922 44.685,36.84 c 0.142,2.395 0.406,6.853 -0.31,11.969 -0.516,3.692 0.612,7.297 3.095,9.888 1.962,2.048 4.546,3.178 7.201,3.178 h 0.055 c 0.298,-1.253 0.791,-2.575 1.322,-4 l 0.206,-0.553 c 0.265,-0.712 0.575,-1.401 0.903,-2.13 1.604,-3.564 3.6,-8 1.301,-18.633 -0.456,-2.105 -1.56,-3.324 -3.375,-3.726 -3.728,-0.824 -9.283,1.98 -10.449,3.089 z m 7.756,-0.545 c -0.064,0.454 0.833,1.667 2.001,1.829 1.167,0.163 2.166,-0.785 2.229,-1.239 0.063,-0.455 -0.833,-0.955 -2.002,-1.118 -1.167,-0.163 -2.166,0.073 -2.228,0.528 z m 2.27,2.277 -0.328,-0.023 c -0.725,-0.101 -1.458,-0.558 -1.959,-1.223 -0.176,-0.233 -0.464,-0.687 -0.407,-1.091 0.082,-0.593 0.804,-0.947 1.933,-0.947 0.253,0 0.515,0.019 0.78,0.055 0.616,0.086 1.189,0.264 1.612,0.5 0.733,0.41 0.787,0.866 0.754,1.103 -0.091,0.653 -1.133,1.626 -2.385,1.626 z m -1.844,-2.201 c 0.037,0.28 0.73,1.205 1.634,1.33 l 0.209,0.015 c 0.834,0 1.458,-0.657 1.531,-0.872 -0.077,-0.146 -0.613,-0.511 -1.631,-0.651 -0.225,-0.032 -0.448,-0.048 -0.661,-0.048 -0.652,-10e-4 -1.001,0.146 -1.082,0.226 z M 87.937,34.45 c 0.063,0.455 -0.832,1.668 -2.001,1.83 -1.168,0.162 -2.167,-0.785 -2.231,-1.24 -0.062,-0.454 0.834,-0.955 2.002,-1.117 1.168,-0.164 2.166,0.074 2.23,0.527 z m -2.27,2.062 c -1.125,0 -2.094,-0.875 -2.174,-1.442 -0.092,-0.681 1.029,-1.199 2.185,-1.359 0.254,-0.036 0.506,-0.054 0.749,-0.054 0.997,0 1.657,0.293 1.723,0.764 0.043,0.306 -0.191,0.777 -0.595,1.201 -0.266,0.28 -0.826,0.765 -1.588,0.87 z m 0.759,-2.427 c -0.223,0 -0.455,0.017 -0.69,0.049 -1.162,0.161 -1.853,0.628 -1.82,0.878 0.039,0.274 0.78,1.072 1.75,1.072 l 0.239,-0.017 c 0.634,-0.089 1.11,-0.502 1.337,-0.741 0.356,-0.375 0.498,-0.727 0.481,-0.848 -0.021,-0.157 -0.449,-0.393 -1.297,-0.393 z m 3.194,26.453 c -0.246,0 -0.494,-0.07 -0.714,-0.217 -0.59,-0.396 -0.748,-1.193 -0.353,-1.783 2.736,-4.087 2.235,-8.256 1.751,-12.286 -0.207,-1.718 -0.42,-3.493 -0.364,-5.198 0.056,-1.753 0.278,-3.199 0.494,-4.599 0.255,-1.657 0.496,-3.224 0.396,-5.082 -0.039,-0.708 0.505,-1.313 1.214,-1.353 0.711,-0.038 1.314,0.506 1.353,1.215 0.114,2.124 -0.159,3.896 -0.423,5.611 -0.204,1.323 -0.415,2.691 -0.466,4.29 -0.049,1.509 0.144,3.112 0.348,4.808 0.516,4.287 1.099,9.146 -2.167,14.023 -0.248,0.37 -0.655,0.571 -1.069,0.571 z"
       id="path8" />
    <path
       fill="none"
       stroke="#ffffff"
       stroke-linecap="round"
       stroke-linejoin="round"
       stroke-width="3"
       d="M 13.924,17.211"
       id="path10" />
    <path
       d="m 2.835,103.184 c 1.093,-0.182 2.522,-0.338 4.343,-0.338 2.235,0 3.874,0.52 4.914,1.456 0.962,0.832 1.534,2.106 1.534,3.667 0,1.586 -0.469,2.834 -1.353,3.744 -1.196,1.274 -3.146,1.924 -5.356,1.924 -0.676,0 -1.3,-0.026 -1.819,-0.156 v 7.021 H 2.835 Z m 2.263,8.45 c 0.494,0.13 1.118,0.182 1.872,0.182 2.729,0 4.394,-1.326 4.394,-3.744 0,-2.314 -1.638,-3.432 -4.134,-3.432 -0.988,0 -1.742,0.078 -2.132,0.182 z m 22.23,2.47 c 0,4.654 -3.225,6.683 -6.267,6.683 -3.406,0 -6.032,-2.496 -6.032,-6.475 0,-4.212 2.756,-6.682 6.24,-6.682 3.615,-10e-4 6.059,2.626 6.059,6.474 z m -9.984,0.13 c 0,2.756 1.586,4.836 3.822,4.836 2.184,0 3.821,-2.054 3.821,-4.888 0,-2.132 -1.065,-4.836 -3.77,-4.836 -2.705,0 -3.873,2.496 -3.873,4.888 z m 12.557,3.926 c 0.676,0.442 1.872,0.91 3.016,0.91 1.664,0 2.444,-0.832 2.444,-1.872 0,-1.092 -0.649,-1.69 -2.34,-2.314 -2.262,-0.806 -3.328,-2.054 -3.328,-3.562 0,-2.028 1.638,-3.692 4.342,-3.692 1.274,0 2.393,0.364 3.095,0.78 l -0.572,1.664 c -0.494,-0.312 -1.404,-0.728 -2.574,-0.728 -1.352,0 -2.106,0.78 -2.106,1.716 0,1.04 0.755,1.508 2.393,2.132 2.184,0.832 3.302,1.924 3.302,3.796 0,2.21 -1.716,3.77 -4.706,3.77 -1.378,0 -2.652,-0.338 -3.536,-0.858 z m 13.365,-13.859 v 3.614 h 3.275 v 1.742 h -3.275 v 6.786 c 0,1.56 0.441,2.444 1.716,2.444 0.598,0 1.04,-0.078 1.326,-0.156 l 0.104,1.716 c -0.441,0.182 -1.144,0.312 -2.027,0.312 -1.066,0 -1.925,-0.338 -2.471,-0.962 -0.649,-0.676 -0.884,-1.794 -0.884,-3.276 v -6.864 h -1.95 v -1.742 h 1.95 v -3.016 z m 16.536,3.615 c -0.053,0.91 -0.104,1.924 -0.104,3.458 v 7.306 c 0,2.886 -0.572,4.654 -1.794,5.747 -1.222,1.144 -2.99,1.508 -4.576,1.508 -1.508,0 -3.172,-0.364 -4.187,-1.04 l 0.572,-1.742 c 0.832,0.52 2.132,0.988 3.692,0.988 2.34,0 4.056,-1.222 4.056,-4.394 v -1.404 h -0.052 c -0.702,1.17 -2.054,2.106 -4.004,2.106 -3.12,0 -5.356,-2.652 -5.356,-6.137 0,-4.264 2.782,-6.682 5.668,-6.682 2.185,0 3.381,1.144 3.927,2.184 h 0.052 l 0.104,-1.898 z m -2.366,4.966 c 0,-0.39 -0.026,-0.728 -0.13,-1.04 -0.416,-1.326 -1.534,-2.418 -3.198,-2.418 -2.185,0 -3.744,1.846 -3.744,4.758 0,2.47 1.248,4.524 3.718,4.524 1.404,0 2.678,-0.884 3.172,-2.34 0.13,-0.39 0.183,-0.832 0.183,-1.222 v -2.262 z m 5.901,-1.04 c 0,-1.482 -0.026,-2.756 -0.104,-3.926 h 2.003 l 0.077,2.47 h 0.104 c 0.572,-1.69 1.95,-2.756 3.484,-2.756 0.26,0 0.441,0.026 0.649,0.078 v 2.158 c -0.233,-0.052 -0.468,-0.078 -0.779,-0.078 -1.612,0 -2.757,1.222 -3.068,2.938 -0.052,0.312 -0.104,0.676 -0.104,1.066 v 6.708 h -2.262 z m 9.517,2.782 c 0.052,3.094 2.027,4.368 4.315,4.368 1.639,0 2.626,-0.286 3.484,-0.65 l 0.39,1.638 c -0.806,0.364 -2.184,0.78 -4.186,0.78 -3.874,0 -6.188,-2.548 -6.188,-6.344 0,-3.796 2.236,-6.787 5.902,-6.787 4.108,0 5.2,3.614 5.2,5.928 0,0.468 -0.052,0.832 -0.078,1.066 h -8.839 z m 6.708,-1.638 c 0.025,-1.456 -0.599,-3.718 -3.172,-3.718 -2.314,0 -3.328,2.132 -3.511,3.718 z"
       id="path12" />
    <path
       fill="#336791"
       d="m 84.371,117.744 c 1.014,0.624 2.496,1.144 4.056,1.144 2.314,0 3.666,-1.222 3.666,-2.99 0,-1.638 -0.936,-2.574 -3.302,-3.484 -2.86,-1.014 -4.628,-2.496 -4.628,-4.966 0,-2.73 2.262,-4.758 5.668,-4.758 1.794,0 3.094,0.416 3.874,0.858 l -0.624,1.846 c -0.572,-0.312 -1.742,-0.832 -3.328,-0.832 -2.392,0 -3.302,1.43 -3.302,2.626 0,1.638 1.065,2.444 3.484,3.38 2.964,1.145 4.472,2.574 4.472,5.148 0,2.704 -2.002,5.044 -6.136,5.044 -1.69,0 -3.536,-0.494 -4.473,-1.118 z m 27.586,5.33 c -2.366,-0.624 -4.68,-1.326 -6.708,-2.028 -0.364,-0.13 -0.728,-0.26 -1.066,-0.26 -4.16,-0.156 -7.722,-3.224 -7.722,-8.866 0,-5.616 3.432,-9.23 8.164,-9.23 4.758,0 7.853,3.692 7.853,8.866 0,4.498 -2.08,7.384 -4.992,8.398 v 0.104 c 1.742,0.442 3.64,0.858 5.122,1.118 z m -1.872,-11.414 c 0,-3.51 -1.819,-7.125 -5.538,-7.125 -3.822,0 -5.694,3.536 -5.668,7.333 -0.026,3.718 2.028,7.072 5.564,7.072 3.615,0 5.642,-3.276 5.642,-7.28 z m 5.329,-8.684 h 2.263 v 15.626 h 7.488 v 1.898 h -9.751 z"
       id="path14" />
  </g>
</svg>
