<?xml version="1.0" encoding="UTF-8" standalone="no"?>
<svg
   width="16"
   height="16"
   viewBox="0 0 16 16"
   fill="none"
   version="1.1"
   id="svg57"
   sodipodi:docname="power-bi-seeklogo.com.svg"
   inkscape:version="1.2.1 (9c6d41e410, 2022-07-14)"
   xmlns:inkscape="http://www.inkscape.org/namespaces/inkscape"
   xmlns:sodipodi="http://sodipodi.sourceforge.net/DTD/sodipodi-0.dtd"
   xmlns="http://www.w3.org/2000/svg"
   xmlns:svg="http://www.w3.org/2000/svg">
  <sodipodi:namedview
     id="namedview59"
     pagecolor="#ffffff"
     bordercolor="#666666"
     borderopacity="1.0"
     inkscape:showpageshadow="2"
     inkscape:pageopacity="0.0"
     inkscape:pagecheckerboard="0"
     inkscape:deskcolor="#d1d1d1"
     showgrid="false"
     inkscape:zoom="32"
     inkscape:cx="7.984375"
     inkscape:cy="8"
     inkscape:window-width="1366"
     inkscape:window-height="715"
     inkscape:window-x="-8"
     inkscape:window-y="-8"
     inkscape:window-maximized="1"
     inkscape:current-layer="svg57" />
  <mask
     id="mask0_8592:56198"
     maskUnits="userSpaceOnUse"
     x="200"
     y="0"
     width="1200"
     height="1600">
    <path
       d="m 1333.25,0 c 36.86,0 66.75,29.8849 66.75,66.75 v 1466.5 c 0,36.86 -29.89,66.75 -66.75,66.75 H 266.667 C 229.848,1600 200,1570.15 200,1533.33 V 866.667 C 200,829.848 229.848,800 266.667,800 H 525 V 466.667 C 525,429.848 554.848,400 591.667,400 H 850 V 66.75 C 850,29.885 879.885,0 916.75,0 Z"
       fill="#ffffff"
       id="path2" />
  </mask>
  <g
     mask="url(#mask0_8592:56198)"
     id="g13"
     transform="matrix(0.00995516,0,0,0.00995516,0.03587285,0.035873)">
    <path
       d="m 1400,66.75 v 1466.5 c 0,36.86 -29.89,66.75 -66.75,66.75 H 916.75 C 879.885,1600 850,1570.11 850,1533.25 V 66.75 C 850,29.885 879.885,0 916.75,0 h 416.5 c 36.87,0 66.75,29.8849 66.75,66.75 z"
       fill="url(#paint0_linear_8592:56198)"
       id="path5"
       style="fill:url(#paint0_linear_8592:56198)" />
    <g
       filter="url(#filter0_dd_8592:56198)"
       id="g9">
      <path
         d="M 1075,466.667 V 1600 H 525 V 466.667 C 525,429.848 554.848,400 591.667,400 h 416.663 c 36.82,0 66.67,29.848 66.67,66.667 z"
         fill="url(#paint1_linear_8592:56198)"
         id="path7"
         style="fill:url(#paint1_linear_8592:56198)" />
    </g>
    <path
       d="m 200,866.667 v 666.663 c 0,36.82 29.848,66.67 66.667,66.67 H 750 V 866.667 C 750,829.848 720.152,800 683.333,800 H 266.667 C 229.848,800 200,829.848 200,866.667 Z"
       fill="url(#paint2_linear_8592:56198)"
       id="path11"
       style="fill:url(#paint2_linear_8592:56198)" />
  </g>
  <defs
     id="defs55">
    <filter
       id="filter0_dd_8592:56198"
       x="391.66699"
       y="300"
       width="816.66699"
       height="1466.67"
       filterUnits="userSpaceOnUse"
       color-interpolation-filters="sRGB">
      <feFlood
         flood-opacity="0"
         result="BackgroundImageFix"
         id="feFlood15" />
      <feColorMatrix
         in="SourceAlpha"
         type="matrix"
         values="0 0 0 0 0 0 0 0 0 0 0 0 0 0 0 0 0 0 127 0"
         result="hardAlpha"
         id="feColorMatrix17" />
      <feOffset
         dy="6.33333"
         id="feOffset19" />
      <feGaussianBlur
         stdDeviation="6.33333"
         id="feGaussianBlur21" />
      <feColorMatrix
         type="matrix"
         values="0 0 0 0 0 0 0 0 0 0 0 0 0 0 0 0 0 0 0.2 0"
         id="feColorMatrix23" />
      <feBlend
         mode="normal"
         in2="BackgroundImageFix"
         result="effect1_dropShadow_8592:56198"
         id="feBlend25" />
      <feColorMatrix
         in="SourceAlpha"
         type="matrix"
         values="0 0 0 0 0 0 0 0 0 0 0 0 0 0 0 0 0 0 127 0"
         result="hardAlpha"
         id="feColorMatrix27" />
      <feOffset
         dy="33.3333"
         id="feOffset29" />
      <feGaussianBlur
         stdDeviation="66.6667"
         id="feGaussianBlur31" />
      <feColorMatrix
         type="matrix"
         values="0 0 0 0 0 0 0 0 0 0 0 0 0 0 0 0 0 0 0.18 0"
         id="feColorMatrix33" />
      <feBlend
         mode="normal"
         in2="effect1_dropShadow_8592:56198"
         result="effect2_dropShadow_8592:56198"
         id="feBlend35" />
      <feBlend
         mode="normal"
         in="SourceGraphic"
         in2="effect2_dropShadow_8592:56198"
         result="shape"
         id="feBlend37" />
    </filter>
    <linearGradient
       id="paint0_linear_8592:56198"
       x1="758.33301"
       y1="-1.49632e-05"
       x2="1447.8199"
       y2="1507.15"
       gradientUnits="userSpaceOnUse">
      <stop
         stop-color="#E6AD10"
         id="stop40" />
      <stop
         offset="1"
         stop-color="#C87E0E"
         id="stop42" />
    </linearGradient>
    <linearGradient
       id="paint1_linear_8592:56198"
       x1="524.95502"
       y1="400"
       x2="1105.79"
       y2="1561.67"
       gradientUnits="userSpaceOnUse">
      <stop
         stop-color="#F6D751"
         id="stop45" />
      <stop
         offset="1"
         stop-color="#E6AD10"
         id="stop47" />
    </linearGradient>
    <linearGradient
       id="paint2_linear_8592:56198"
       x1="199.955"
       y1="800"
       x2="519.784"
       y2="1581.6801"
       gradientUnits="userSpaceOnUse">
      <stop
         stop-color="#F9E589"
         id="stop50" />
      <stop
         offset="1"
         stop-color="#F6D751"
         id="stop52" />
    </linearGradient>
  </defs>
</svg>
