<?xml version="1.0" encoding="UTF-8" standalone="no"?>
<svg
   clip-rule="evenodd"
   fill-rule="evenodd"
   stroke-linejoin="round"
   stroke-miterlimit="2"
   viewBox="0 0 16 16"
   version="1.1"
   id="svg12"
   sodipodi:docname="premiere.svg"
   width="16"
   height="16"
   inkscape:version="1.2.1 (9c6d41e410, 2022-07-14)"
   xmlns:inkscape="http://www.inkscape.org/namespaces/inkscape"
   xmlns:sodipodi="http://sodipodi.sourceforge.net/DTD/sodipodi-0.dtd"
   xmlns="http://www.w3.org/2000/svg"
   xmlns:svg="http://www.w3.org/2000/svg">
  <defs
     id="defs16" />
  <sodipodi:namedview
     id="namedview14"
     pagecolor="#ffffff"
     bordercolor="#666666"
     borderopacity="1.0"
     inkscape:showpageshadow="2"
     inkscape:pageopacity="0.0"
     inkscape:pagecheckerboard="0"
     inkscape:deskcolor="#d1d1d1"
     showgrid="false"
     inkscape:zoom="32"
     inkscape:cx="7.984375"
     inkscape:cy="8"
     inkscape:window-width="1366"
     inkscape:window-height="715"
     inkscape:window-x="-8"
     inkscape:window-y="-8"
     inkscape:window-maximized="1"
     inkscape:current-layer="svg12" />
  <g
     fill-rule="nonzero"
     id="g10"
     transform="matrix(0.06609329,0,0,0.06609329,0.0688052,0.26708507)">
    <path
       d="m 42.5,0 h 155 C 221,0 240,19 240,42.5 v 149 C 240,215 221,234 197.5,234 H 42.5 C 19,234 0,215 0,191.5 V 42.5 C 0,19 19,0 42.5,0 Z"
       fill="#00005b"
       id="path2" />
    <g
       fill="#9999ff"
       id="g8">
      <path
         d="M 57,164.1 V 61.2 c 0,-0.7 0.3,-1.1 1,-1.1 1.7,0 3.3,0 5.6,-0.1 2.4,-0.1 4.9,-0.1 7.6,-0.2 2.7,-0.1 5.6,-0.1 8.7,-0.2 3.1,-0.1 6.1,-0.1 9.1,-0.1 8.2,0 15,1 20.6,3.1 5,1.7 9.6,4.5 13.4,8.2 3.2,3.2 5.7,7.1 7.3,11.4 1.5,4.2 2.3,8.5 2.3,13 0,8.6 -2,15.7 -6,21.3 -4,5.6 -9.6,9.8 -16.1,12.2 -6.8,2.5 -14.3,3.4 -22.5,3.4 -2.4,0 -4,0 -5,-0.1 -1,-0.1 -2.4,-0.1 -4.3,-0.1 V 164 c 0.1,0.7 -0.4,1.3 -1.1,1.4 H 58.2 C 57.4,165.4 57,165 57,164.1 Z M 78.8,79.4 V 113 c 1.4,0.1 2.7,0.2 3.9,0.2 H 88 c 3.9,0 7.8,-0.6 11.5,-1.8 3.2,-0.9 6,-2.8 8.2,-5.3 2.1,-2.5 3.1,-5.9 3.1,-10.3 0.1,-3.1 -0.7,-6.2 -2.3,-8.9 -1.7,-2.6 -4.1,-4.6 -7,-5.7 -3.7,-1.5 -7.7,-2.1 -11.8,-2 -2.6,0 -4.9,0 -6.8,0.1 -2,-0.1 -3.4,0 -4.1,0.1 z"
         id="path4" />
      <path
         d="m 146.6,85.2 h 17.5 c 1,0 1.8,0.7 2.1,1.6 0.3,0.8 0.5,1.6 0.6,2.5 0.2,1 0.4,2.1 0.5,3.1 0.1,1.1 0.2,2.3 0.2,3.6 3,-3.5 6.6,-6.4 10.7,-8.6 4.6,-2.6 9.9,-3.9 15.2,-3.9 0.7,-0.1 1.3,0.4 1.4,1.1 v 19.9 c 0,0.8 -0.5,1.1 -1.6,1.1 -3.6,-0.1 -7.3,0.2 -10.8,1 -2.9,0.6 -5.7,1.5 -8.4,2.7 -1.9,0.9 -3.7,2.1 -5.1,3.7 v 51 c 0,1 -0.4,1.4 -1.3,1.4 h -19.7 c -0.8,0.1 -1.5,-0.4 -1.6,-1.2 v -55.8 c 0,-2.4 0,-4.9 -0.1,-7.5 -0.1,-2.6 -0.1,-5.2 -0.2,-7.8 0,-2.3 -0.2,-4.5 -0.4,-6.8 -0.1,-0.5 0.2,-1 0.7,-1.1 0,-0.1 0.2,-0.1 0.3,0 z"
         id="path6" />
    </g>
  </g>
</svg>
