<?xml version="1.0" encoding="UTF-8" standalone="no"?>
<svg
   width="16"
   height="16"
   viewBox="0 0 16 16"
   version="1.1"
   preserveAspectRatio="xMidYMid"
   id="svg150"
   sodipodi:docname="pypi.svg"
   inkscape:version="1.2.1 (9c6d41e410, 2022-07-14)"
   xmlns:inkscape="http://www.inkscape.org/namespaces/inkscape"
   xmlns:sodipodi="http://sodipodi.sourceforge.net/DTD/sodipodi-0.dtd"
   xmlns="http://www.w3.org/2000/svg"
   xmlns:svg="http://www.w3.org/2000/svg"
   xmlns:rdf="http://www.w3.org/1999/02/22-rdf-syntax-ns#"
   xmlns:cc="http://creativecommons.org/ns#"
   xmlns:dc="http://purl.org/dc/elements/1.1/">
  <defs
     id="defs154" />
  <sodipodi:namedview
     id="namedview152"
     pagecolor="#ffffff"
     bordercolor="#666666"
     borderopacity="1.0"
     inkscape:showpageshadow="2"
     inkscape:pageopacity="0.0"
     inkscape:pagecheckerboard="0"
     inkscape:deskcolor="#d1d1d1"
     showgrid="false"
     inkscape:zoom="32"
     inkscape:cx="7.984375"
     inkscape:cy="8"
     inkscape:window-width="1366"
     inkscape:window-height="715"
     inkscape:window-x="-8"
     inkscape:window-y="-8"
     inkscape:window-maximized="1"
     inkscape:current-layer="svg150" />
  <title
     id="title2">Pypi</title>
  <g
     id="g148"
     transform="matrix(0.06174887,0,0,0.06174887,0.09614464,1.0323446)">
    <polygon
       fill="#f7f7f4"
       points="73.337857,99.914275 109.97803,86.578326 73.872191,73.436861 37.232014,86.772821 "
       id="polygon4" />
    <path
       d="m 74.20335,72.527012 h -0.662317 l -36.640177,13.33596 v 1.819698 l 36.105843,13.14145 h 0.662316 L 110.30919,87.488175 V 85.668477 Z M 73.871367,74.465269 107.14401,86.57603 73.336898,98.884311 40.064258,86.769678 Z"
       fill="#cccccc"
       id="path6" />
    <polygon
       fill="#efeeea"
       points="73.337857,99.914275 73.337857,142.35035 37.232014,129.2089 37.232014,86.772821 "
       id="polygon8" />
    <path
       d="m 37.563172,85.862971 -1.299399,0.90985 V 129.2089 l 0.637083,0.90985 36.105843,13.14145 1.299399,-0.90985 V 99.914275 l -0.637083,-0.909849 z m 0.634317,2.289355 34.171168,12.436094 v 40.37953 L 38.197489,128.52798 Z"
       fill="#cccccc"
       id="path10" />
    <polygon
       fill="#f7f7f4"
       points="109.60125,70.244105 146.24143,56.908157 110.13559,43.766692 73.495411,57.102651 "
       id="polygon12" />
    <path
       d="m 110.46675,42.856843 h -0.66232 L 73.164252,56.192802 V 58.0125 l 36.105838,13.141454 h 0.66232 l 36.64018,-13.335948 v -1.819698 z m -0.33281,1.937643 33.27264,12.110761 -33.81099,12.308282 -33.276509,-12.110761 z"
       fill="#cccccc"
       id="path14" />
    <polygon
       fill="#efeeea"
       points="109.60125,70.244105 109.60125,112.68018 73.495411,99.53873 73.495411,57.102651 "
       id="polygon16" />
    <path
       d="M 73.826569,56.192802 72.52717,57.102651 V 99.53873 l 0.637083,0.90985 36.105837,13.14145 1.2994,-0.90985 V 70.244105 l -0.63708,-0.909849 z m 0.633489,2.288741 34.171172,12.439963 V 111.29716 L 74.460058,98.861074 Z"
       fill="#cccccc"
       id="path18" />
    <polygon
       fill="#f7f7f4"
       points="37.074083,155.95781 73.71426,142.62186 37.608418,129.4804 0.96824118,142.81636 "
       id="polygon20" />
    <path
       d="M 37.939576,128.57055 H 37.277259 L 0.63708263,141.90651 v 1.81969 L 36.742925,156.86766 h 0.662317 l 36.640176,-13.33595 v -1.8197 z m -0.330777,1.93652 33.276513,12.11076 -33.814856,12.30828 -33.2726396,-12.11076 z"
       fill="#cccccc"
       id="path22" />
    <polygon
       fill="#efeeea"
       points="37.074083,155.95781 37.074083,198.39389 0.96824118,185.25243 0.96824118,142.81636 "
       id="polygon24" />
    <path
       d="M 1.2993992,141.90651 0,142.81636 v 42.43607 l 0.63708315,0.90985 36.10584185,13.14146 1.299399,-0.90985 v -42.43608 l -0.637083,-0.90985 z m 0.6355212,2.29149 34.1672946,12.43609 v 40.37566 L 1.9349204,184.57366 Z"
       fill="#cccccc"
       id="path26" />
    <polygon
       fill="#efeeea"
       points="73.337668,169.14453 73.337668,211.58061 37.231826,198.43915 37.231826,156.00308 "
       id="polygon28" />
    <path
       d="m 37.562984,155.09323 -1.299399,0.90985 v 42.43607 l 0.637083,0.90985 36.105842,13.14146 1.299399,-0.90985 v -42.43608 l -0.637083,-0.90985 z m 0.634505,2.28834 34.171168,12.43996 v 40.37566 L 38.197489,197.7611 Z"
       fill="#cccccc"
       id="path30" />
    <polygon
       fill="#f7f7f4"
       points="73.337668,126.28768 109.97785,112.95173 73.872003,99.810264 37.231826,113.14622 "
       id="polygon32" />
    <path
       d="M 74.203161,98.900415 H 73.540844 L 36.900667,112.23637 v 1.8197 l 36.105843,13.14146 h 0.662316 L 110.309,113.86158 v -1.8197 z m -0.331794,1.939745 33.272643,12.11076 -33.807112,12.30441 -33.27264,-12.11076 z"
       fill="#cccccc"
       id="path34" />
    <polygon
       fill="#efeeea"
       points="73.337668,126.28768 73.337668,168.72376 37.231826,155.5823 37.231826,113.14622 "
       id="polygon36" />
    <path
       d="m 37.562984,112.23637 -1.299399,0.90985 v 42.43608 l 0.637083,0.90985 36.105842,13.14145 1.299399,-0.90984 v -42.43608 l -0.637083,-0.90985 z m 0.634505,2.29085 34.171168,12.43609 v 40.37565 L 38.197489,154.90287 Z"
       fill="#cccccc"
       id="path38" />
    <polygon
       fill="#ffffff"
       points="218.39158,185.20714 255.03176,171.8712 255.03176,129.43512 218.39158,142.77107 "
       id="polygon40" />
    <path
       d="m 254.7006,128.52527 -36.64018,13.33595 -0.63708,0.90985 v 42.43607 l 1.2994,0.90985 36.64018,-13.33594 L 256,171.8712 v -42.43608 z m -0.63955,2.29164 v 40.37565 l -34.70176,12.62974 v -40.37566 z"
       fill="#cccccc"
       id="path42" />
    <polygon
       fill="#ffd242"
       points="182.12819,198.39389 218.76836,185.05794 218.76836,142.62187 182.12819,155.95781 "
       id="polygon44" />
    <path
       d="m 218.4372,141.71202 -36.64017,13.33594 -0.63709,0.90985 v 42.43608 l 1.2994,0.90985 36.64018,-13.33595 0.63708,-0.90985 v -42.43607 z m -0.63872,2.28846 v 40.37953 l -34.70563,12.62974 v -40.37566 z"
       fill="#cccccc"
       id="path46" />
    <polygon
       fill="#ffd242"
       points="145.86479,211.58061 182.50496,198.24467 182.50496,155.80859 145.86479,169.14453 "
       id="polygon48" />
    <path
       d="m 182.17381,154.89874 -36.64018,13.33595 -0.63708,0.90984 v 42.43608 l 1.2994,0.90985 36.64017,-13.33595 0.63709,-0.90984 v -42.43608 z m -0.6379,2.28918 v 40.37566 l -34.70563,12.63361 v -40.37566 z"
       fill="#cccccc"
       id="path50" />
    <polygon
       fill="#ffffff"
       points="109.60114,224.76734 146.24132,211.43139 146.24132,168.99531 109.60114,182.33126 "
       id="polygon52" />
    <path
       d="m 145.91016,168.08546 -36.64018,13.33595 -0.63708,0.90985 v 42.43607 l 1.2994,0.90985 36.64017,-13.33594 0.63709,-0.90985 v -42.43608 z m -0.64069,2.28991 v 40.37565 l -34.70176,12.63362 V 183.0051 Z"
       fill="#cccccc"
       id="path54" />
    <polygon
       fill="#efeeea"
       points="109.60114,182.33126 109.60114,224.76734 73.495298,211.62588 73.495298,169.1898 "
       id="polygon56" />
    <path
       d="m 73.826456,168.27995 -1.2994,0.90985 v 42.43608 l 0.637084,0.90985 36.10584,13.14145 1.2994,-0.90985 v -42.43607 l -0.63708,-0.90985 z m 0.633602,2.28907 34.171172,12.43608 v 40.37954 L 74.460058,210.94467 Z"
       fill="#cccccc"
       id="path58" />
    <polygon
       fill="#ffd242"
       points="218.39158,142.35031 255.03176,129.01436 255.03176,86.578284 218.39158,99.914232 "
       id="polygon60" />
    <path
       d="m 254.7006,85.668435 -36.64018,13.335949 -0.63708,0.909848 v 42.436078 l 1.2994,0.90985 36.64018,-13.33595 L 256,129.01436 V 86.578284 Z m -0.63955,2.290243 v 40.375652 l -34.70176,12.63362 v -40.37953 z"
       fill="#cccccc"
       id="path62" />
    <polygon
       fill="#353564"
       points="182.28574,86.351999 218.92592,73.016039 218.92592,30.57996 182.28574,43.91592 "
       id="polygon64" />
    <path
       d="m 218.59476,29.670112 -36.64018,13.335959 -0.63708,0.909849 v 42.436079 l 1.2994,0.909849 36.64017,-13.33596 0.63709,-0.909849 V 30.57996 Z m -0.63749,2.289369 V 72.335138 L 183.25164,84.968749 V 44.593092 Z"
       fill="#cccccc"
       id="path66" />
    <polygon
       fill="#ffc91d"
       points="218.39158,57.057374 255.03176,43.721426 218.92592,30.57996 182.28574,43.91592 "
       id="polygon68" />
    <path
       d="m 219.25707,29.670111 h -0.66231 l -36.64018,13.33596 v 1.819698 l 36.10584,13.141454 h 0.66232 l 36.64018,-13.335948 v -1.819698 z m -0.33155,1.93693 33.28038,12.110761 -33.81485,12.308282 -33.27264,-12.110761 z"
       fill="#cccccc"
       id="path70" />
    <polygon
       fill="#ffd242"
       points="218.39158,99.493453 255.03176,86.157505 255.03176,43.721426 218.39158,57.057374 "
       id="polygon72" />
    <path
       d="m 254.7006,42.811577 -36.64018,13.335948 -0.63708,0.909849 v 42.436079 l 1.2994,0.909847 L 255.36292,87.067354 256,86.157505 V 43.721426 Z m -0.63955,2.288873 V 85.47998 L 219.35929,98.109718 V 57.734061 Z"
       fill="#cccccc"
       id="path74" />
    <polygon
       fill="#ffd242"
       points="182.12819,155.53703 218.76836,142.20109 218.76836,99.765006 182.12819,113.10095 "
       id="polygon76" />
    <path
       d="m 218.4372,98.855157 -36.64017,13.335943 -0.63709,0.90985 v 42.43608 l 1.2994,0.90985 36.64018,-13.33595 0.63708,-0.90985 V 99.765006 Z m -0.63872,2.290963 v 40.37566 l -34.70563,12.62974 v -40.37566 z"
       fill="#cccccc"
       id="path78" />
    <polygon
       fill="#3775a9"
       points="182.12819,112.68018 218.76836,99.344227 218.76836,56.908148 182.12819,70.244096 "
       id="polygon80" />
    <path
       d="m 218.4372,55.998299 -36.64017,13.335948 -0.63709,0.909849 v 42.436084 l 1.2994,0.90984 36.64018,-13.33594 0.63708,-0.909853 V 56.908148 Z m -0.63872,2.289596 V 98.663552 L 183.09285,111.29716 V 70.921506 Z"
       fill="#cccccc"
       id="path82" />
    <polygon
       fill="#2f6491"
       points="182.12819,27.387262 218.76836,14.051314 182.66252,0.90984899 146.02234,14.245808 "
       id="polygon84" />
    <path
       d="m 182.99368,0 h -0.66232 l -36.64018,13.33596 v 1.819698 l 36.10585,13.141453 h 0.66231 L 219.09952,14.961163 V 13.141465 Z M 182.65907,1.9362581 215.93171,14.050892 182.1246,26.355301 148.85196,14.24454 Z"
       fill="#cccccc"
       id="path86" />
    <polygon
       fill="#3775a9"
       points="182.12819,69.823341 218.76836,56.487393 218.76836,14.051314 182.12819,27.387262 "
       id="polygon88" />
    <path
       d="m 218.4372,13.141465 -36.64017,13.335948 -0.63709,0.909849 v 42.436079 l 1.2994,0.909849 36.64018,-13.335948 0.63708,-0.909849 V 14.051314 Z m -0.63872,2.292075 V 55.809198 L 183.09285,68.438936 V 28.063278 Z"
       fill="#cccccc"
       id="path90" />
    <polygon
       fill="#afafde"
       points="145.86479,168.72376 182.50496,155.38781 146.39912,142.24634 109.75895,155.5823 "
       id="polygon92" />
    <path
       d="m 146.73028,141.33649 h -0.66232 l -36.64017,13.33596 v 1.8197 l 36.10584,13.14145 h 0.66232 l 36.64017,-13.33594 v -1.8197 z m -0.33378,1.93974 33.27264,12.11076 -33.8071,12.30441 -33.27264,-12.11076 z"
       fill="#cccccc"
       id="path94" />
    <polygon
       fill="#ffd242"
       points="145.86479,168.72376 182.50496,155.38781 182.50496,112.95173 145.86479,126.28768 "
       id="polygon96" />
    <path
       d="m 182.17381,112.04188 -36.64018,13.33595 -0.63708,0.90985 v 42.43607 l 1.2994,0.90985 36.64017,-13.33594 0.63709,-0.90985 v -42.43608 z m -0.6379,2.29169 v 40.37565 l -34.70563,12.62974 v -40.37565 z"
       fill="#cccccc"
       id="path98" />
    <polygon
       fill="#3775a9"
       points="145.86479,125.8669 182.50496,112.53095 182.50496,70.09487 145.86479,83.430818 "
       id="polygon100" />
    <path
       d="m 182.17381,69.18502 -36.64018,13.335949 -0.63708,0.909849 V 125.8669 l 1.2994,0.90985 36.64017,-13.33595 0.63709,-0.90985 V 70.09487 Z m -0.6379,2.29032 V 111.851 l -34.70563,12.62973 V 84.105078 Z"
       fill="#cccccc"
       id="path102" />
    <polygon
       fill="#e9e9ff"
       points="146.24132,126.13845 146.24132,168.57453 110.13547,155.43306 110.13547,112.99698 "
       id="polygon104" />
    <path
       d="m 110.46663,112.08714 -1.2994,0.90984 v 42.43608 l 0.63709,0.90985 36.10584,13.14147 1.2994,-0.90985 v -42.43608 l -0.63709,-0.90985 z m 0.63555,2.28903 34.16729,12.43609 v 40.37953 l -34.16729,-12.43996 z"
       fill="#cccccc"
       id="path106" />
    <polygon
       fill="#3775a9"
       points="109.60114,181.91048 146.24132,168.57453 146.24132,126.13845 109.60114,139.4744 "
       id="polygon108" />
    <path
       d="m 145.91016,125.2286 -36.64018,13.33595 -0.63708,0.90985 v 42.43608 l 1.2994,0.90985 36.64017,-13.33595 0.63709,-0.90985 v -42.43608 z m -0.64069,2.28854 v 40.37953 l -34.70176,12.62974 v -40.37566 z"
       fill="#cccccc"
       id="path110" />
    <polygon
       fill="#2f6491"
       points="109.60114,139.4744 109.60114,181.91048 73.495298,168.76902 73.495298,126.33294 "
       id="polygon112" />
    <path
       d="m 73.826456,125.4231 -1.2994,0.90984 v 42.43608 l 0.637084,0.90985 36.10584,13.14146 1.2994,-0.90985 V 139.4744 l -0.63708,-0.90985 z m 0.633602,2.29156 34.171172,12.43609 v 40.37566 L 74.460058,168.09032 Z"
       fill="#cccccc"
       id="path114" />
    <polygon
       fill="#2f6491"
       points="109.60114,96.617539 146.24132,83.281591 110.13547,70.140126 73.495298,83.476085 "
       id="polygon116" />
    <path
       d="m 110.46663,69.230277 h -0.66231 l -36.640181,13.33596 v 1.819698 l 36.105841,13.141453 h 0.66232 L 146.57247,84.19144 v -1.819698 z m -0.33269,1.939099 33.27264,12.11076 -33.80711,12.30441 -33.272643,-12.110761 z"
       fill="#cccccc"
       id="path118" />
    <polygon
       fill="#3775a9"
       points="109.60114,139.05362 146.24132,125.71767 146.24132,83.281591 109.60114,96.617539 "
       id="polygon120" />
    <path
       d="m 145.91016,82.371742 -36.64018,13.335948 -0.63708,0.909849 v 42.436081 l 1.2994,0.90985 36.64017,-13.33595 0.63709,-0.90985 V 83.281591 Z m -0.64069,2.291043 v 40.375655 l -34.70176,12.62974 V 97.292523 Z"
       fill="#cccccc"
       id="path122" />
    <polygon
       fill="#2f6491"
       points="109.60114,96.617539 109.60114,139.05362 73.495298,125.91216 73.495298,83.476085 "
       id="polygon124" />
    <path
       d="m 73.826456,82.566236 -1.2994,0.909849 v 42.436075 l 0.637084,0.90985 36.10584,13.14146 1.2994,-0.90985 V 96.617539 L 109.9323,95.70769 Z m 0.633602,2.290197 34.171172,12.43609 V 137.66818 L 74.460058,125.23209 Z"
       fill="#cccccc"
       id="path126" />
    <polygon
       fill="#353564"
       points="109.75895,69.868609 146.39912,56.53265 146.39912,14.096571 109.75895,27.43253 "
       id="polygon128" />
    <path
       d="m 146.06796,13.186722 -36.64017,13.335959 -0.63708,0.909849 v 42.436079 l 1.29939,0.909849 36.64018,-13.33596 0.63708,-0.909848 V 14.096571 Z m -0.6397,2.289421 V 55.8518 L 110.7265,68.485411 V 28.109754 Z"
       fill="#cccccc"
       id="path130" />
    <polygon
       fill="#2f6491"
       points="145.86479,40.573984 182.50496,27.238036 146.39912,14.096571 109.75895,27.43253 "
       id="polygon132" />
    <path
       d="m 146.73028,13.186722 h -0.66232 l -36.64017,13.335959 v 1.819698 l 36.10584,13.141454 h 0.66232 l 36.64017,-13.335948 v -1.819698 z m -0.3299,1.936981 33.26876,12.110761 -33.8071,12.308282 -33.27264,-12.110761 z"
       fill="#cccccc"
       id="path134" />
    <polygon
       fill="#3775a9"
       points="145.86479,83.010063 182.50496,69.674115 182.50496,27.238036 145.86479,40.573984 "
       id="polygon136" />
    <path
       d="m 182.17381,26.328187 -36.64018,13.335948 -0.63708,0.909849 v 42.436079 l 1.2994,0.909849 36.64017,-13.335948 0.63709,-0.909849 V 27.238036 Z m -0.6379,2.288925 V 68.996643 L 146.83028,81.626381 V 41.250723 Z"
       fill="#cccccc"
       id="path138" />
    <polygon
       fill="#2f6491"
       points="145.86479,40.573984 145.86479,83.010063 109.75895,69.868609 109.75895,27.43253 "
       id="polygon140" />
    <path
       d="m 110.0901,26.522681 -1.29939,0.909849 v 42.436079 l 0.63708,0.909849 36.10584,13.141454 1.2994,-0.909849 V 40.573984 l -0.63708,-0.909849 z m 0.6364,2.291952 34.16729,12.43609 V 81.626381 L 110.7265,69.190291 Z"
       fill="#cccccc"
       id="path142" />
    <ellipse
       fill="#ffffff"
       cx="205.09058"
       cy="168.86642"
       rx="7.0369196"
       ry="4.9273043"
       id="ellipse144" />
    <ellipse
       fill="#ffffff"
       cx="159.54265"
       cy="56.765224"
       rx="7.0369196"
       ry="4.9273043"
       id="ellipse146" />
  </g>
  <metadata
     id="metadata437">
    <rdf:RDF>
      <cc:Work
         rdf:about="">
        <dc:title>Pypi</dc:title>
      </cc:Work>
    </rdf:RDF>
  </metadata>
</svg>
