<?xml version="1.0" encoding="UTF-8" standalone="no"?>
<svg
   width="16"
   height="16"
   preserveAspectRatio="xMinYMin"
   viewBox="0 0 16 16"
   version="1.1"
   id="svg18"
   sodipodi:docname="python.svg"
   inkscape:version="1.2.1 (9c6d41e410, 2022-07-14)"
   xmlns:inkscape="http://www.inkscape.org/namespaces/inkscape"
   xmlns:sodipodi="http://sodipodi.sourceforge.net/DTD/sodipodi-0.dtd"
   xmlns="http://www.w3.org/2000/svg"
   xmlns:svg="http://www.w3.org/2000/svg">
  <sodipodi:namedview
     id="namedview20"
     pagecolor="#ffffff"
     bordercolor="#666666"
     borderopacity="1.0"
     inkscape:showpageshadow="2"
     inkscape:pageopacity="0.0"
     inkscape:pagecheckerboard="0"
     inkscape:deskcolor="#d1d1d1"
     showgrid="false"
     inkscape:zoom="32"
     inkscape:cx="7.984375"
     inkscape:cy="8"
     inkscape:window-width="1366"
     inkscape:window-height="715"
     inkscape:window-x="-8"
     inkscape:window-y="-8"
     inkscape:window-maximized="1"
     inkscape:current-layer="svg18" />
  <defs
     id="defs12">
    <linearGradient
       id="a"
       x1="24.714632"
       x2="151.13583"
       y1="22.897127"
       y2="148.33623"
       gradientTransform="scale(0.99888681,1.0011144)"
       gradientUnits="userSpaceOnUse">
      <stop
         offset="0%"
         stop-color="#387EB8"
         id="stop2" />
      <stop
         offset="100%"
         stop-color="#366994"
         id="stop4" />
    </linearGradient>
    <linearGradient
       id="b"
       x1="102.48345"
       x2="238.2592"
       y1="103.26573"
       y2="231.90517"
       gradientTransform="scale(0.99888668,1.0011146)"
       gradientUnits="userSpaceOnUse">
      <stop
         offset="0%"
         stop-color="#FFE052"
         id="stop7" />
      <stop
         offset="100%"
         stop-color="#FFC331"
         id="stop9" />
    </linearGradient>
  </defs>
  <g
     id="g328"
     transform="matrix(0.06207135,0,0,0.06207135,0.0650469,0.11079349)">
    <path
       fill="url(#a)"
       d="m 126.916,0.072 c -64.832,0 -60.784,28.115 -60.784,28.115 l 0.072,29.128 h 61.868 V 66.06 H 41.631 c 0,0 -41.486,-4.705 -41.486,60.71 0,65.417 36.21,63.097 36.21,63.097 h 21.61 v -30.356 c 0,0 -1.165,-36.21 35.632,-36.21 h 61.362 c 0,0 34.475,0.557 34.475,-33.319 V 33.97 c 0,0 5.236,-33.898 -62.518,-33.898 z M 92.802,19.66 a 11.12,11.12 0 0 1 11.13,11.13 11.12,11.12 0 0 1 -11.13,11.13 11.12,11.12 0 0 1 -11.13,-11.13 11.12,11.12 0 0 1 11.13,-11.13 z"
       id="path14"
       style="fill:url(#a)" />
    <path
       fill="url(#b)"
       d="m 128.757,254.126 c 64.832,0 60.784,-28.115 60.784,-28.115 l -0.072,-29.127 H 127.6 v -8.745 h 86.441 c 0,0 41.486,4.705 41.486,-60.712 0,-65.416 -36.21,-63.096 -36.21,-63.096 h -21.61 v 30.355 c 0,0 1.165,36.21 -35.632,36.21 h -61.362 c 0,0 -34.475,-0.557 -34.475,33.32 v 56.013 c 0,0 -5.235,33.897 62.518,33.897 z m 34.114,-19.586 a 11.12,11.12 0 0 1 -11.13,-11.13 11.12,11.12 0 0 1 11.13,-11.131 11.12,11.12 0 0 1 11.13,11.13 11.12,11.12 0 0 1 -11.13,11.13 z"
       id="path16"
       style="fill:url(#b)" />
  </g>
</svg>
