<?xml version="1.0" encoding="UTF-8" standalone="no"?>
<svg
   width="16"
   height="16"
   viewBox="5.591 3.262 16 16"
   version="1.1"
   id="svg27"
   sodipodi:docname="python_with_name.svg"
   inkscape:version="1.2.1 (9c6d41e410, 2022-07-14)"
   xmlns:inkscape="http://www.inkscape.org/namespaces/inkscape"
   xmlns:sodipodi="http://sodipodi.sourceforge.net/DTD/sodipodi-0.dtd"
   xmlns="http://www.w3.org/2000/svg"
   xmlns:svg="http://www.w3.org/2000/svg">
  <defs
     id="defs31" />
  <sodipodi:namedview
     id="namedview29"
     pagecolor="#ffffff"
     bordercolor="#666666"
     borderopacity="1.0"
     inkscape:showpageshadow="2"
     inkscape:pageopacity="0.0"
     inkscape:pagecheckerboard="0"
     inkscape:deskcolor="#d1d1d1"
     showgrid="false"
     inkscape:zoom="32"
     inkscape:cx="11.484375"
     inkscape:cy="8"
     inkscape:window-width="1366"
     inkscape:window-height="715"
     inkscape:window-x="-8"
     inkscape:window-y="-8"
     inkscape:window-maximized="1"
     inkscape:current-layer="svg27" />
  <linearGradient
     id="a"
     x1="-2031.312"
     x2="-1922.296"
     y1="275.86801"
     y2="182.075"
     gradientTransform="matrix(0.5625,0,0,-0.568,1145.56,166.282)"
     gradientUnits="userSpaceOnUse">
    <stop
       offset="0"
       stop-color="#5a9fd4"
       id="stop4" />
    <stop
       offset="1"
       stop-color="#306998"
       id="stop6" />
  </linearGradient>
  <linearGradient
     id="b"
     x1="-1880.151"
     x2="-1919.08"
     y1="125.305"
     y2="180.384"
     gradientTransform="matrix(0.5625,0,0,-0.568,1145.56,166.282)"
     gradientUnits="userSpaceOnUse">
    <stop
       offset="0"
       stop-color="#ffd43b"
       id="stop11" />
    <stop
       offset="1"
       stop-color="#ffe873"
       id="stop13" />
  </linearGradient>
  <radialGradient
     id="c"
     cx="-3393.238"
     cy="376.79099"
     r="29.037001"
     gradientTransform="matrix(0,-0.2399,-1.0547,0,458.797,-680.1)"
     gradientUnits="userSpaceOnUse">
    <stop
       offset="0"
       stop-color="#b8b8b8"
       stop-opacity=".498"
       id="stop20" />
    <stop
       offset="1"
       stop-color="#7f7f7f"
       stop-opacity="0"
       id="stop22" />
  </radialGradient>
  <g
     id="g319"
     transform="matrix(0.03333061,0,0,0.03333061,5.491955,8.8567465)">
    <path
       fill="#646464"
       d="m 184.614,61.929 c 0,-14.562 -4.152,-22.038 -12.457,-22.447 -3.305,-0.156 -6.53,0.37 -9.669,1.589 -2.505,0.896 -4.191,1.784 -5.078,2.681 V 78.51 c 5.312,3.334 10.029,4.884 14.143,4.64 8.703,-0.577 13.061,-7.643 13.061,-21.221 z m 10.244,0.604 c 0,7.398 -1.735,13.539 -5.225,18.422 -3.889,5.527 -9.279,8.373 -16.17,8.529 -5.195,0.165 -10.547,-1.462 -16.054,-4.874 v 31.591 l -8.909,-3.178 v -70.12 c 1.462,-1.793 3.344,-3.333 5.624,-4.64 5.303,-3.09 11.745,-4.678 19.329,-4.756 l 0.126,0.126 c 6.931,-0.087 12.271,2.759 16.024,8.529 3.5,5.293 5.255,12.077 5.255,20.371 z m 54.447,20.733 c 0,9.923 -0.994,16.794 -2.982,20.615 -1.998,3.82 -5.8,6.871 -11.414,9.143 -4.552,1.793 -9.475,2.768 -14.757,2.934 l -1.473,-5.614 c 5.371,-0.73 9.153,-1.462 11.346,-2.193 4.318,-1.462 7.281,-3.703 8.909,-6.706 1.306,-2.446 1.949,-7.115 1.949,-14.025 V 85.1 c -6.092,2.769 -12.476,4.143 -19.152,4.143 -4.387,0 -8.256,-1.374 -11.59,-4.143 -3.743,-3.012 -5.614,-6.832 -5.614,-11.462 v -37.08 l 8.909,-3.051 v 37.321 c 0,3.986 1.286,7.057 3.859,9.211 2.573,2.154 5.907,3.188 9.991,3.109 4.084,-0.088 8.46,-1.667 13.109,-4.757 v -43.54 h 8.909 v 48.415 z m 34.777,5.731 a 35.51,35.51 0 0 1 -2.934,0.126 c -5.039,0 -8.968,-1.198 -11.774,-3.606 -2.798,-2.407 -4.201,-5.73 -4.201,-9.971 v -35.09 h -6.102 v -5.604 h 6.102 V 19.968 l 8.899,-3.168 v 18.052 h 10.01 v 5.604 h -10.01 v 34.846 c 0,3.344 0.896,5.712 2.689,7.097 1.54,1.14 3.987,1.793 7.32,1.959 v 4.639 z m 53.941,-0.731 h -8.909 V 53.878 c 0,-3.499 -0.818,-6.511 -2.446,-9.025 -1.881,-2.847 -4.493,-4.27 -7.847,-4.27 -4.084,0 -9.191,2.154 -15.322,6.462 v 41.221 h -8.908 V 6.069 l 8.908,-2.807 V 40.7 c 5.692,-4.143 11.911,-6.219 18.666,-6.219 4.718,0 8.538,1.589 11.463,4.757 2.934,3.167 4.396,7.115 4.396,11.833 v 37.195 z m 47.351,-27.74 c 0,-5.595 -1.062,-10.215 -3.178,-13.87 -2.515,-4.454 -6.423,-6.804 -11.706,-7.047 -9.767,0.565 -14.641,7.563 -14.641,20.976 0,6.15 1.014,11.287 3.061,15.41 2.612,5.254 6.531,7.847 11.756,7.759 9.805,-0.079 14.708,-7.818 14.708,-23.228 z m 9.757,0.058 c 0,7.964 -2.037,14.592 -6.102,19.884 -4.475,5.927 -10.653,8.899 -18.539,8.899 -7.817,0 -13.909,-2.973 -18.305,-8.899 -3.987,-5.292 -5.976,-11.92 -5.976,-19.884 0,-7.485 2.154,-13.782 6.463,-18.909 4.552,-5.439 10.536,-8.168 17.935,-8.168 7.397,0 13.421,2.729 18.061,8.168 4.309,5.127 6.463,11.424 6.463,18.909 z m 51.074,27.682 h -8.909 V 51.929 c 0,-3.986 -1.198,-7.096 -3.596,-9.338 -2.398,-2.232 -5.596,-3.314 -9.582,-3.227 -4.229,0.078 -8.256,1.462 -12.076,4.143 v 44.759 h -8.909 v -45.86 c 5.127,-3.732 9.845,-6.17 14.153,-7.31 4.064,-1.062 7.651,-1.589 10.741,-1.589 2.114,0 4.104,0.204 5.975,0.614 3.499,0.809 6.346,2.31 8.538,4.513 2.447,2.437 3.665,5.36 3.665,8.782 z"
       id="path2" />
    <path
       fill="url(#a)"
       d="M 60.51,6.398 C 55.926,6.419 51.549,6.81 47.698,7.492 36.352,9.497 34.292,13.692 34.292,21.43 v 10.219 h 26.812 v 3.406 H 24.229 c -7.792,0 -14.616,4.684 -16.75,13.594 -2.462,10.213 -2.571,16.586 0,27.25 1.906,7.938 6.458,13.594 14.25,13.594 h 9.219 v -12.25 c 0,-8.85 7.657,-16.656 16.75,-16.656 h 26.781 c 7.455,0 13.406,-6.138 13.406,-13.625 V 21.429 C 87.885,14.163 81.755,8.704 74.479,7.491 69.872,6.725 65.094,6.376 60.51,6.398 Z m -14.5,8.218 c 2.77,0 5.031,2.299 5.031,5.125 0,2.816 -2.262,5.094 -5.031,5.094 -2.779,0 -5.031,-2.277 -5.031,-5.094 0,-2.826 2.252,-5.125 5.031,-5.125 z"
       id="path9"
       style="fill:url(#a)" />
    <path
       fill="url(#b)"
       d="M 91.229,35.054 V 46.96 c 0,9.231 -7.826,17 -16.75,17 H 47.698 c -7.336,0 -13.406,6.278 -13.406,13.625 v 25.531 c 0,7.267 6.318,11.541 13.406,13.625 8.487,2.496 16.626,2.947 26.781,0 6.75,-1.954 13.406,-5.888 13.406,-13.625 V 92.898 H 61.104 v -3.406 h 40.187 c 7.793,0 10.696,-5.436 13.406,-13.594 2.8,-8.398 2.681,-16.476 0,-27.25 -1.926,-7.757 -5.604,-13.594 -13.406,-13.594 H 91.229 Z M 76.166,99.71 c 2.779,0 5.031,2.277 5.031,5.094 0,2.826 -2.252,5.125 -5.031,5.125 -2.77,0 -5.031,-2.299 -5.031,-5.125 0,-2.816 2.262,-5.094 5.031,-5.094 z"
       id="path16"
       style="fill:url(#b)" />
    <path
       fill="#646464"
       d="m 463.554,26.909 h 1.562 v -9.796 h 3.699 v -1.168 h -8.962 v 1.168 h 3.7 v 9.796 m 6.648,0 h 1.334 v -8.947 l 2.896,8.946 h 1.485 l 3.019,-8.916 v 8.917 h 1.456 V 15.946 h -1.926 l -3.299,9.393 -2.812,-9.393 h -2.153 v 10.963"
       id="path18" />
    <path
       fill="url(#c)"
       d="m 97.339,134.098 c 0,3.848 -16.087,6.967 -35.932,6.967 -19.844,0 -35.931,-3.119 -35.931,-6.967 0,-3.848 16.087,-6.968 35.931,-6.968 19.845,0 35.932,3.12 35.932,6.968 z"
       opacity="0.444"
       id="path25"
       style="fill:url(#c)" />
  </g>
</svg>
