<?xml version="1.0" encoding="UTF-8" standalone="no"?>
<svg
   width="16"
   height="16"
   preserveAspectRatio="xMidYMid"
   viewBox="0 0 16 16"
   version="1.1"
   id="svg13"
   sodipodi:docname="r.svg"
   inkscape:version="1.2.1 (9c6d41e410, 2022-07-14)"
   xmlns:inkscape="http://www.inkscape.org/namespaces/inkscape"
   xmlns:sodipodi="http://sodipodi.sourceforge.net/DTD/sodipodi-0.dtd"
   xmlns="http://www.w3.org/2000/svg"
   xmlns:svg="http://www.w3.org/2000/svg">
  <sodipodi:namedview
     id="namedview15"
     pagecolor="#ffffff"
     bordercolor="#666666"
     borderopacity="1.0"
     inkscape:showpageshadow="2"
     inkscape:pageopacity="0.0"
     inkscape:pagecheckerboard="0"
     inkscape:deskcolor="#d1d1d1"
     showgrid="false"
     inkscape:zoom="32"
     inkscape:cx="7.984375"
     inkscape:cy="8"
     inkscape:window-width="1366"
     inkscape:window-height="715"
     inkscape:window-x="-8"
     inkscape:window-y="-8"
     inkscape:window-maximized="1"
     inkscape:current-layer="svg13" />
  <defs
     id="defs7">
    <linearGradient
       id="a"
       x1="78.820557"
       x2="189.13988"
       y1="35.284828"
       y2="158.42989"
       gradientTransform="scale(1.2333188,0.81082038)"
       gradientUnits="userSpaceOnUse">
      <stop
         offset="0%"
         stop-color="#C9CBCE"
         id="stop2" />
      <stop
         offset="100%"
         stop-color="#7B7A81"
         id="stop4" />
    </linearGradient>
  </defs>
  <g
     id="g300"
     transform="matrix(0.0618046,0,0,0.0618046,0.0890112,2.037772)">
    <path
       fill="url(#a)"
       d="M 149.333,149.333 C 96,149.333 50.674,122.62 50.674,90.62 50.674,58.62 90.667,32 144,32 c 67.357,0 98.572,25.911 98.572,57.911 0,32 -34.407,59.422 -93.239,59.422 M 128,0 C 58.667,0 0,37.333 0,85.333 0,130.667 58.312,168.302 127.646,168.302 196.979,168.302 256,133.333 256,85.333 256,37.333 197.333,0 128,0"
       id="path9"
       style="fill:url(#a)" />
    <path
       fill="#2165b6"
       d="m 105.946,51.829 v 141.109 h 42.643 v -54.875 c 10.661,0 17.011,-2.328 23.986,10.452 10.661,18.292 23.987,44.423 23.987,44.423 H 247.2 c 0,0 -31.982,-52.262 -34.647,-54.875 -4.915,-5.227 -10.661,-5.227 -18.656,-7.84 15.991,-2.613 30.899,-9.248 36.082,-23.464 4.531,-13.065 3.998,-29.685 -5.714,-40.83 -8.411,-8.819 -17.042,-14.1 -38.364,-14.1 z m 42.643,29.388 h 27.984 c 6.636,0 11.993,6.533 11.993,13.065 0,6.533 -5.33,13.066 -11.993,13.066 h -27.984 z"
       id="path11" />
  </g>
</svg>
