<?xml version="1.0" encoding="UTF-8" standalone="no"?>
<!-- Created with Inkscape (http://www.inkscape.org/) -->

<svg
   width="16"
   height="16"
   viewBox="0 0 16 16"
   version="1.1"
   id="svg14339"
   xmlns="http://www.w3.org/2000/svg"
   xmlns:svg="http://www.w3.org/2000/svg">
  <defs
     id="defs14336" />
  <g
     transform="matrix(0.09308192,0,0,0.09308192,-16.324811,-1.0938122)"
     id="g1219">
    <path
       style="fill:#000000;fill-opacity:1;stroke:#000000;stroke-width:1;stroke-linejoin:round;stroke-opacity:1"
       d="m 343.91952,72.969105 h -86.60254 l -24.99996,86.602605 h 86.6025 z"
       id="path1213" />
    <path
       style="fill:#000000;fill-opacity:1;stroke:#000000;stroke-width:1;stroke-linejoin:round;stroke-opacity:1"
       d="m 343.91952,72.969105 -43.3013,-50 h -86.6025 l 43.30126,50 z"
       id="path1215" />
    <path
       style="fill:#000000;fill-opacity:1;stroke:#000000;stroke-width:1;stroke-linejoin:round;stroke-opacity:1"
       d="m 257.31698,72.969105 -43.30126,-50 -25,86.602605 43.3013,50 z"
       id="path1217" />
  </g>
  <path
     id="rect9661-2-7"
     style="fill:#ffff00;fill-rule:evenodd;stroke:#000000;stroke-width:0.175886"
     d="m 11.960848,4.1467382 2.079721,-1.259e-4 c 0.167568,-1.02e-5 0.371327,0.078411 0.455109,0.1751565 l 1.03974,1.2006316 c 0.08377,0.096738 0.01586,0.175171 -0.151698,0.1751861 l -2.079556,1.893e-4 c -0.16757,1.51e-5 -0.371335,-0.078398 -0.455123,-0.1751404 L 11.809137,4.3219408 c -0.0838,-0.096751 -0.01587,-0.1751924 0.151711,-0.1752026 z m -2.686801,1.629e-4 2.079939,-1.259e-4 c 0.167586,-1.02e-5 0.37137,0.078414 0.455165,0.1751656 l 1.039904,1.2006946 c 0.08379,0.096743 0.01587,0.1751801 -0.151706,0.1751956 l -2.079775,1.889e-4 C 10.449987,5.698035 10.246196,5.6196185 10.162395,5.5228704 L 9.1223275,4.3221129 C 9.0385192,4.2253567 9.1064469,4.1469113 9.274047,4.1469011 Z M 6.5869635,4.147064 8.6671206,4.146938 c 0.1676033,-1.02e-5 0.3714119,0.078419 0.4552202,0.1751749 l 1.0400682,1.2007575 c 0.0838,0.096748 0.01588,0.1751896 -0.151714,0.1752048 L 7.9307021,5.6982644 C 7.7630974,5.6982796 7.5592817,5.6198585 7.4754678,5.5231054 L 6.4352358,4.3222853 C 6.3514145,4.2255238 6.4193448,4.1470742 6.5869635,4.147064 Z m 4.0304355,-1.5515181 2.079884,-6.3e-5 c 0.167581,-4.9e-6 0.371359,0.078428 0.455149,0.1751843 l 1.039849,1.2007576 c 0.08378,0.096748 0.01586,0.1751854 -0.151705,0.1751956 l -2.079721,1.259e-4 c -0.167582,1.02e-5 -0.371366,-0.078415 -0.455162,-0.1751678 L 10.465679,2.7707576 c -0.0838,-0.096761 -0.01588,-0.1752064 0.15172,-0.1752117 z m -2.6870132,8.16e-5 2.0801022,-6.3e-5 c 0.167599,-5.2e-6 0.371401,0.078432 0.455205,0.1751931 l 1.040014,1.2008209 c 0.0838,0.096753 0.01587,0.1751946 -0.151714,0.1752048 L 9.2740541,4.1469092 C 9.1064536,4.1469194 8.902645,4.0684902 8.8188356,3.9717323 L 7.7786582,2.7708484 C 7.6948411,2.674082 7.7627706,2.5956324 7.9303858,2.5956275 Z m -2.6872957,8.13e-5 2.0803215,-6.3e-5 c 0.1676162,-4.9e-6 0.3714428,0.078436 0.4552599,0.1752026 L 8.818849,3.9717323 c 0.08381,0.096758 0.01588,0.1752036 -0.1517214,0.1752138 l -2.0801574,1.26e-4 C 6.4193521,4.1470823 6.2155188,4.0686489 6.1316961,3.9718857 L 5.0913548,2.7709392 C 5.0075246,2.6741675 5.0754602,2.595714 5.2430901,2.5957088 Z M 9.2738074,1.0441903 h 2.0800486 c 0.167595,0 0.371389,0.078445 0.455189,0.1752118 l 1.039959,1.2008838 c 0.08379,0.096758 0.01587,0.1751998 -0.151714,0.1752048 l -2.079884,6.29e-5 c -0.167597,5.3e-6 -0.371398,-0.078432 -0.455203,-0.1751956 L 9.1220801,1.2194112 C 9.0382673,1.1226396 9.1061996,1.0441903 9.2738074,1.0441903 Z m -2.6872246,0 h 2.0802669 c 0.1676121,0 0.3714316,0.078449 0.4552442,0.1752209 L 10.162217,2.420358 c 0.0838,0.096763 0.01588,0.175209 -0.151722,0.1752143 l -2.0801025,6.29e-5 c -0.1676138,5e-6 -0.3714401,-0.078437 -0.4552582,-0.1752047 L 6.4348474,1.2194207 C 6.3510215,1.1226438 6.4189564,1.0441903 6.5865828,1.0441903 Z m -2.6875071,0 h 2.080485 c 0.16763,0 0.3714742,0.078453 0.4553001,0.1752304 l 1.0402868,1.2010098 c 0.083819,0.096768 0.015888,0.1752181 -0.1517294,0.175223 l -2.0803214,6.3e-5 C 5.0754658,2.5957218 4.8716145,2.5172765 4.787783,2.4205026 L 3.7473322,1.2194299 C 3.6634933,1.122648 3.7314306,1.0441903 3.8990757,1.0441903 Z" />
  <path
     id="rect9661-2-7-8"
     style="fill:#008000;fill-rule:evenodd;stroke:#000000;stroke-width:0.175886"
     d="m 11.75315,11.072341 2.079987,6.1e-5 c 0.167593,5e-6 0.264233,0.135883 0.215853,0.303494 l -0.600427,2.080164 c -0.04838,0.167612 -0.223463,0.303488 -0.391058,0.303488 h -2.080017 c -0.167604,0 -0.264251,-0.135881 -0.215869,-0.303497 l 0.600458,-2.080225 c 0.04838,-0.167615 0.223472,-0.30349 0.391073,-0.303485 z m -2.6870341,-7.8e-5 2.0801081,6.1e-5 c 0.167603,5e-6 0.264249,0.135887 0.215867,0.303502 l -0.600458,2.080225 c -0.04838,0.167616 -0.223475,0.303497 -0.39108,0.303497 H 8.2904147 c -0.1676131,0 -0.2642669,-0.135885 -0.215882,-0.303506 l 0.6004884,-2.080285 c 0.048385,-0.16762 0.2234841,-0.303499 0.3910948,-0.303494 z m -2.6871905,-7.8e-5 2.0802292,6.1e-5 c 0.1676121,4e-6 0.2642648,0.135891 0.2158802,0.303511 l -0.6004883,2.080285 c -0.048385,0.167621 -0.2234873,0.303506 -0.3911018,0.303506 H 5.6031852 c -0.1676226,0 -0.2642824,-0.135888 -0.215895,-0.303515 l 0.6005186,-2.080346 c 0.048387,-0.167624 0.2234965,-0.303507 0.3911166,-0.303502 z m 6.1498736,-2.6870034 2.079956,1.21e-4 c 0.16759,9.8e-6 0.26423,0.1358911 0.21585,0.3034992 l -0.60042,2.0801382 c -0.04838,0.16761 -0.22346,0.30348 -0.391052,0.303475 l -2.079987,-6e-5 c -0.167601,-5e-6 -0.264247,-0.135888 -0.215866,-0.303502 L 12.137731,8.6886541 C 12.186111,8.521041 12.3612,8.3851721 12.528799,8.3851816 Z m -2.6869956,-1.562e-4 2.0800786,1.21e-4 c 0.1676,9.8e-6 0.264245,0.1358946 0.215863,0.3035077 l -0.60045,2.0801989 c -0.04838,0.167614 -0.223472,0.303489 -0.391075,0.303484 l -2.080108,-6e-5 c -0.167611,-5e-6 -0.264263,-0.135892 -0.2158784,-0.303511 L 9.4507142,8.6885067 c 0.048384,-0.167618 0.223481,-0.3034912 0.3910892,-0.3034813 z m -2.6871511,-1.566e-4 2.0801986,1.21e-4 c 0.1676099,9.9e-6 0.2642613,0.1358989 0.215877,0.3035169 l -0.600481,2.0802593 c -0.048385,0.167619 -0.2234841,0.303498 -0.3910965,0.303493 l -2.0802289,-6e-5 C 6.211301,11.072194 6.114643,10.936303 6.1630297,10.768679 L 6.763541,8.6883593 c 0.048387,-0.167623 0.2234932,-0.3035 0.3911113,-0.3034905 z m 6.1497847,-2.686814 2.079927,1.815e-4 c 0.167588,1.44e-5 0.264226,0.1358978 0.215847,0.3035042 l -0.600413,2.0801124 c -0.04838,0.1676078 -0.223457,0.3034733 -0.391047,0.3034634 l -2.079957,-1.21e-4 c -0.167598,-9.9e-6 -0.264243,-0.1358946 -0.215861,-0.3035074 l 0.600443,-2.0801733 c 0.04838,-0.167611 0.223465,-0.3034746 0.391061,-0.3034598 z m -2.686955,-2.347e-4 2.080047,1.815e-4 c 0.167598,1.48e-5 0.264242,0.135902 0.215861,0.303513 l -0.600444,2.0801733 c -0.04838,0.1676128 -0.223469,0.3034817 -0.391069,0.3034718 L 9.8417995,8.3850387 C 9.6741913,8.3850292 9.5775407,8.2491402 9.6259246,8.0815226 L 10.226398,6.0012888 c 0.04838,-0.1676156 0.223478,-0.3034835 0.391084,-0.3034687 z M 7.9303696,5.6975854 10.010538,5.697767 c 0.167607,1.47e-5 0.264257,0.1359062 0.215873,0.3035218 L 9.6259379,8.0815226 C 9.577554,8.2491402 9.402457,8.3850134 9.234847,8.3850035 L 7.1546484,8.3848825 C 6.9870304,8.3848727 6.8903738,8.2489798 6.9387601,8.0813572 L 7.539264,6.0010633 C 7.5876496,5.8334424 7.7627541,5.697571 7.9303696,5.6975854 Z" />
  <path
     id="rect9661-2-7-5"
     style="fill:#ff0000;fill-opacity:1;fill-rule:evenodd;stroke:#000000;stroke-width:0.175886"
     d="M 4.8825427,9.6980162 5.9224935,10.89935 c 0.083802,0.09681 0.1124929,0.311149 0.064083,0.478742 l -0.6006872,2.079531 c -0.048392,0.167528 -0.1555359,0.224858 -0.2393136,0.128056 L 4.1069274,12.384408 c -0.083764,-0.09679 -0.112458,-0.311052 -0.064091,-0.478585 L 4.643221,9.8262292 C 4.691607,9.6586312 4.7987551,9.6012262 4.8825427,9.6980162 Z M 3.5393965,8.1464364 4.5791324,9.3475219 c 0.083785,0.096787 0.1124816,0.3111173 0.064096,0.4787153 L 4.0428438,11.905831 c -0.048367,0.167533 -0.1554775,0.224883 -0.239238,0.128102 L 2.7641717,10.83291 C 2.6804257,10.736145 2.6517253,10.52189 2.700068,10.354352 L 3.3001501,8.2746944 C 3.3485118,8.1070918 3.4556262,8.0496662 3.5393965,8.1464364 Z M 2.1965272,6.5951765 3.2360489,7.7960143 c 0.083767,0.096767 0.1124696,0.3110853 0.064108,0.4786882 L 2.7000747,10.354359 C 2.6517317,10.521897 2.5446552,10.579268 2.460912,10.482506 L 1.4216929,9.281732 C 1.3379641,9.1849867 1.3092581,8.9707435 1.3575766,8.8032004 L 1.9573564,6.7234802 C 2.0056935,6.5558724 2.1127742,6.4984263 2.1965272,6.5951765 Z m 3.4619862,0.4152182 1.0402534,1.2013967 c 0.083827,0.096812 0.1125188,0.3112215 0.064086,0.4788916 L 6.1618881,10.771176 C 6.113474,10.938782 6.006292,10.996171 5.9224897,10.899363 L 4.8825388,9.6980302 C 4.7987509,9.6012402 4.7700548,9.3869055 4.8184443,9.2192952 L 5.4191068,7.1387385 C 5.467515,6.9710634 5.5747012,6.9135994 5.6585134,7.0103947 Z M 4.314976,5.4587334 5.3550148,6.6598818 c 0.083809,0.096792 0.1125072,0.3111894 0.064099,0.4788647 L 4.8184514,9.219303 C 4.7700618,9.3869136 4.6629137,9.4443232 4.5791286,9.3475359 L 3.5393927,8.1464501 C 3.455622,8.0496799 3.4269202,7.8353575 3.4752855,7.6677423 L 4.0756451,5.5871225 C 4.124029,5.4194422 4.2311814,5.3619578 4.314976,5.4587334 Z M 2.9717162,3.9073922 4.0115401,5.1082926 c 0.083792,0.096772 0.1124956,0.3111574 0.064112,0.4788377 L 3.4752922,7.66775 C 3.4269269,7.8353656 3.3198125,7.8927951 3.2360447,7.796028 L 2.1965234,6.5951906 C 2.1127703,6.4984404 2.0840626,6.28413 2.1324035,6.1165095 L 2.7324606,4.0358268 C 2.7808202,3.8681416 2.8879389,3.8106367 2.9717162,3.9073922 Z m 3.463127,0.4141363 1.0405563,1.2014594 c 0.083851,0.096817 0.1125449,0.3112939 0.06409,0.4790418 L 6.9382461,8.0834863 C 6.8898098,8.2511691 6.7825895,8.3086169 6.6987629,8.2118048 L 5.6585095,7.010408 C 5.5746973,6.9136128 5.5459994,6.6992112 5.5944115,6.5315236 L 6.1953519,4.4500035 C 6.2437826,4.2822508 6.3510064,4.224728 6.4348432,4.3215285 Z M 5.0909146,2.7697856 6.1312564,3.970997 c 0.083834,0.096797 0.1125332,0.3112619 0.064103,0.4790146 L 5.5944185,6.5315313 C 5.5460065,6.6992193 5.4388203,6.7566872 5.3550109,6.6598955 L 4.3149721,5.4587467 C 4.2311772,5.3619715 4.2024737,5.147582 4.2508614,4.979889 L 4.851499,2.8983064 C 4.8999054,2.7305483 5.0070954,2.6730051 5.0909146,2.7697856 Z M 3.747264,1.2183632 4.7873904,2.4193266 c 0.083816,0.096777 0.1125217,0.3112298 0.064115,0.4789875 L 4.2508681,4.9798971 C 4.2024807,5.14759 4.0953283,5.2050783 4.0115362,5.1083063 L 2.9717123,3.9074056 C 2.8879346,3.8106504 2.8592255,3.5962732 2.9075886,3.4285749 L 3.5079236,1.3469293 C 3.5563057,1.1791664 3.663462,1.1216028 3.747264,1.2183632 Z" />
</svg>
