<?xml version="1.0" encoding="UTF-8" standalone="no"?>
<svg
   width="16"
   height="16"
   viewBox="0 0 16 16"
   version="1.1"
   preserveAspectRatio="xMidYMid"
   id="svg325"
   sodipodi:docname="safari-seeklogo.com.svg"
   inkscape:version="1.2.1 (9c6d41e410, 2022-07-14)"
   xmlns:inkscape="http://www.inkscape.org/namespaces/inkscape"
   xmlns:sodipodi="http://sodipodi.sourceforge.net/DTD/sodipodi-0.dtd"
   xmlns="http://www.w3.org/2000/svg"
   xmlns:svg="http://www.w3.org/2000/svg">
  <sodipodi:namedview
     id="namedview327"
     pagecolor="#ffffff"
     bordercolor="#666666"
     borderopacity="1.0"
     inkscape:showpageshadow="2"
     inkscape:pageopacity="0.0"
     inkscape:pagecheckerboard="0"
     inkscape:deskcolor="#d1d1d1"
     showgrid="false"
     inkscape:zoom="32"
     inkscape:cx="7.984375"
     inkscape:cy="8"
     inkscape:window-width="1366"
     inkscape:window-height="715"
     inkscape:window-x="-8"
     inkscape:window-y="-8"
     inkscape:window-maximized="1"
     inkscape:current-layer="svg325" />
  <defs
     id="defs45">
    <linearGradient
       x1="124.48043"
       y1="253.81657"
       x2="124.48043"
       y2="-4.7814741"
       id="linearGradient-1"
       gradientTransform="scale(0.99614048,1.0038745)"
       gradientUnits="userSpaceOnUse">
      <stop
         stop-color="#DBDBDA"
         offset="25%"
         id="stop2" />
      <stop
         stop-color="#FFFFFF"
         offset="100%"
         id="stop4" />
    </linearGradient>
    <filter
       x="-0.019354839"
       y="-0.019354839"
       width="1.0387097"
       height="1.0467742"
       filterUnits="objectBoundingBox"
       id="filter-2">
      <feOffset
         dx="0"
         dy="2"
         in="SourceAlpha"
         result="shadowOffsetOuter1"
         id="feOffset7" />
      <feGaussianBlur
         stdDeviation="2"
         in="shadowOffsetOuter1"
         result="shadowBlurOuter1"
         id="feGaussianBlur9" />
      <feColorMatrix
         values="0 0 0 0 0   0 0 0 0 0   0 0 0 0 0  0 0 0 0.266007133 0"
         in="shadowBlurOuter1"
         type="matrix"
         result="shadowMatrixOuter1"
         id="feColorMatrix11" />
      <feMerge
         id="feMerge17">
        <feMergeNode
           in="shadowMatrixOuter1"
           id="feMergeNode13" />
        <feMergeNode
           in="SourceGraphic"
           id="feMergeNode15" />
      </feMerge>
    </filter>
    <radialGradient
       cx="140.1163"
       cy="98.804398"
       fx="140.1163"
       fy="98.804398"
       r="140.00641"
       id="radialGradient-3"
       gradientUnits="userSpaceOnUse">
      <stop
         stop-color="#2ABCE1"
         offset="0%"
         id="stop20" />
      <stop
         stop-color="#2ABBE1"
         offset="11.3629426%"
         id="stop22" />
      <stop
         stop-color="#3375F8"
         offset="100%"
         id="stop24" />
    </radialGradient>
    <linearGradient
       x1="112.8119"
       y1="82.388084"
       x2="59.276009"
       y2="178.4343"
       id="linearGradient-4"
       gradientUnits="userSpaceOnUse">
      <stop
         stop-color="#000000"
         stop-opacity="0"
         offset="0%"
         id="stop27" />
      <stop
         stop-color="#000000"
         offset="100%"
         id="stop29" />
    </linearGradient>
    <filter
       x="-0.03190494"
       y="-0.031025907"
       width="1.0638099"
       height="1.0685155"
       filterUnits="objectBoundingBox"
       id="filter-5">
      <feOffset
         dx="0"
         dy="1"
         in="SourceAlpha"
         result="shadowOffsetOuter1"
         id="feOffset32" />
      <feGaussianBlur
         stdDeviation="2"
         in="shadowOffsetOuter1"
         result="shadowBlurOuter1"
         id="feGaussianBlur34" />
      <feColorMatrix
         values="0 0 0 0 0   0 0 0 0 0   0 0 0 0 0  0 0 0 13 0"
         in="shadowBlurOuter1"
         type="matrix"
         result="shadowMatrixOuter1"
         id="feColorMatrix36" />
      <feMerge
         id="feMerge42">
        <feMergeNode
           in="shadowMatrixOuter1"
           id="feMergeNode38" />
        <feMergeNode
           in="SourceGraphic"
           id="feMergeNode40" />
      </feMerge>
    </filter>
  </defs>
  <g
     id="g323"
     transform="matrix(0.06149795,0,0,0.06149795,0.12826268,0.18976069)">
    <g
       transform="translate(4,2)"
       id="g321">
      <circle
         fill="url(#linearGradient-1)"
         filter="url(#filter-2)"
         cx="124"
         cy="124"
         r="124"
         id="circle47"
         style="fill:url(#linearGradient-1)" />
      <circle
         fill="url(#radialGradient-3)"
         cx="124"
         cy="124"
         r="114.7"
         id="circle49"
         style="fill:url(#radialGradient-3)" />
      <g
         transform="translate(9.6875,8.71875)"
         id="g309">
        <path
           d="m 114.50625,28.48125 c -0.775,0 -1.45313,-0.58125 -1.45313,-1.35625 V 6.878125 c 0,-0.775 0.67813,-1.35625 1.45313,-1.35625 0.775,0 1.45312,0.58125 1.45312,1.35625 V 27.125 c -0.0969,0.775 -0.67812,1.35625 -1.45312,1.35625 z"
           fill="#f3f3f3"
           id="path51" />
        <path
           d="m 114.50625,28.578125 c -0.87187,0 -1.55,-0.678125 -1.55,-1.453125 V 6.878125 c 0,-0.775 0.67813,-1.453125 1.55,-1.453125 0.87187,0 1.55,0.678125 1.55,1.453125 V 27.125 c 0,0.775 -0.775,1.453125 -1.55,1.453125 z m 0,-22.959375 C 113.82813,5.61875 113.15,6.2 113.15,6.878125 V 27.125 c 0,0.678125 0.58125,1.259375 1.35625,1.259375 0.67813,0 1.35625,-0.58125 1.35625,-1.259375 V 6.878125 C 115.76563,6.2 115.18438,5.61875 114.50625,5.61875 Z"
           fill="#ffffff"
           id="path53" />
        <path
           d="m 124.19375,17.63125 c -0.775,-0.09688 -1.35625,-0.678125 -1.35625,-1.453125 l 0.67813,-9.009375 c 0.0969,-0.775 0.775,-1.35625 1.54999,-1.259375 0.77501,0.096875 1.35626,0.678125 1.35626,1.453125 l -0.67813,9.009375 c -0.0969,0.775 -0.775,1.35625 -1.55,1.259375 z"
           fill="#f3f3f3"
           id="path55" />
        <path
           d="m 124.19375,17.728125 c -0.87187,-0.09687 -1.45313,-0.775 -1.45313,-1.55 l 0.67813,-9.009375 c 0.0969,-0.775 0.775,-1.453125 1.64687,-1.35625 0.87188,0.096875 1.45313,0.775 1.45313,1.55 l -0.67812,9.009375 c -0.0969,0.871875 -0.77501,1.453125 -1.64688,1.35625 z M 125.06562,6.00625 c -0.67812,0 -1.35625,0.484375 -1.35625,1.1625 l -0.67812,9.009375 c 0,0.678125 0.48438,1.259375 1.25938,1.35625 0.67812,0 1.35624,-0.484375 1.35624,-1.1625 L 126.325,7.3625 c 0,-0.678125 -0.58125,-1.259375 -1.25938,-1.35625 z"
           fill="#ffffff"
           id="path57" />
        <path
           d="m 131.45937,30.225 c -0.775,-0.19375 -1.25937,-0.871875 -1.1625,-1.646875 L 134.26875,8.71875 c 0.19375,-0.775 0.87187,-1.259375 1.64687,-1.065625 0.775,0.19375 1.25938,0.871875 1.1625,1.646875 l -3.97187,19.859375 c -0.0969,0.678125 -0.87188,1.1625 -1.64688,1.065625 z"
           fill="#f3f3f3"
           id="path59" />
        <path
           d="m 131.45937,30.321875 c -0.87187,-0.19375 -1.35625,-0.96875 -1.25937,-1.74375 L 134.17187,8.71875 c 0.19375,-0.775 0.96875,-1.35625 1.84063,-1.1625 C 136.88437,7.75 137.36875,8.525 137.27187,9.3 L 133.3,29.159375 c -0.19375,0.775 -0.96875,1.259375 -1.84063,1.1625 z M 136.0125,7.75 c -0.67813,-0.096875 -1.35625,0.290625 -1.55,0.96875 l -3.97188,19.859375 c -0.0969,0.678125 0.29063,1.35625 1.06563,1.55 0.67812,0.09688 1.35625,-0.290625 1.55,-0.96875 L 137.07812,9.3 c 0.0969,-0.775 -0.3875,-1.35625 -1.06562,-1.55 z"
           fill="#ffffff"
           id="path61" />
        <path
           d="m 143.08437,21.50625 c -0.775,-0.19375 -1.25937,-0.96875 -1.06562,-1.74375 l 2.42187,-8.71875 c 0.19375,-0.775 0.96875,-1.1625 1.74375,-0.96875 0.775,0.19375 1.25938,0.96875 1.06563,1.74375 l -2.42188,8.71875 c -0.19375,0.775 -0.96875,1.1625 -1.74375,0.96875 z"
           fill="#f3f3f3"
           id="path63" />
        <path
           d="m 143.08437,21.603125 c -0.775,-0.19375 -1.35625,-1.065625 -1.06562,-1.840625 l 2.42187,-8.71875 c 0.19375,-0.775 1.06563,-1.259375 1.84063,-1.065625 0.775,0.19375 1.35625,1.065625 1.06562,1.840625 L 144.925,20.5375 c -0.19375,0.775 -0.96875,1.259375 -1.84063,1.065625 z m 3.19688,-11.334375 c -0.67813,-0.19375 -1.45313,0.19375 -1.64688,0.871875 l -2.42187,8.71875 c -0.19375,0.678125 0.19375,1.35625 0.96875,1.55 0.67812,0.19375 1.45312,-0.19375 1.64687,-0.871875 L 147.25,11.81875 c 0.0969,-0.678125 -0.29063,-1.35625 -0.96875,-1.55 z"
           fill="#ffffff"
           id="path65" />
        <path
           d="m 147.83125,35.165625 c -0.775,-0.290625 -1.06563,-1.1625 -0.775,-1.840625 l 7.75,-18.696875 C 155.09687,13.95 155.96875,13.5625 156.64687,13.95 c 0.775,0.290625 1.06563,1.1625 0.775,1.840625 l -7.75,18.696875 c -0.29062,0.678125 -1.1625,1.065625 -1.84062,0.678125 z"
           fill="#f3f3f3"
           id="path67" />
        <path
           d="m 147.83125,35.2625 c -0.775,-0.290625 -1.1625,-1.1625 -0.87188,-1.9375 l 7.75,-18.696875 c 0.29063,-0.775 1.1625,-1.065625 2.03438,-0.775 0.775,0.290625 1.1625,1.1625 0.87187,1.9375 l -7.75,18.696875 c -0.3875,0.775 -1.25937,1.1625 -2.03437,0.775 z m 8.81562,-21.215625 c -0.67812,-0.290625 -1.45312,0 -1.74375,0.678125 l -7.75,18.696875 c -0.29062,0.678125 0.0969,1.35625 0.775,1.646875 0.67813,0.290625 1.45313,0 1.74375,-0.678125 l 7.75,-18.696875 c 0.19375,-0.58125 -0.0969,-1.35625 -0.775,-1.646875 z"
           fill="#ffffff"
           id="path69" />
        <path
           d="m 160.90937,28.965625 c -0.67812,-0.3875 -0.96875,-1.1625 -0.67812,-1.840625 L 164.3,19.084375 c 0.3875,-0.678125 1.1625,-0.96875 1.9375,-0.58125 0.67812,0.3875 0.96875,1.1625 0.67812,1.840625 l -4.06875,8.040625 c -0.3875,0.678125 -1.1625,0.96875 -1.9375,0.58125 z"
           fill="#f3f3f3"
           id="path71" />
        <path
           d="m 160.90937,29.0625 c -0.775,-0.3875 -1.06562,-1.259375 -0.67812,-2.034375 L 164.3,18.9875 c 0.3875,-0.775 1.25937,-1.065625 2.03437,-0.678125 0.775,0.3875 1.06563,1.259375 0.67813,2.034375 l -4.06875,8.040625 c -0.3875,0.775 -1.25938,1.065625 -2.03438,0.678125 z m 5.32813,-10.559375 c -0.67813,-0.290625 -1.45313,-0.09688 -1.74375,0.58125 L 160.425,27.125 c -0.29063,0.58125 0,1.35625 0.58125,1.74375 0.67812,0.290625 1.45312,0.09688 1.74375,-0.58125 l 4.06875,-8.040625 c 0.29062,-0.58125 0,-1.35625 -0.58125,-1.74375 z"
           fill="#ffffff"
           id="path73" />
        <path
           d="m 162.84687,43.303125 c -0.67812,-0.484375 -0.87187,-1.35625 -0.3875,-1.9375 l 11.2375,-16.759375 c 0.3875,-0.678125 1.25938,-0.775 1.9375,-0.3875 0.67813,0.484375 0.87188,1.35625 0.3875,1.9375 l -11.2375,16.759375 c -0.3875,0.678125 -1.25937,0.871875 -1.9375,0.3875 z"
           fill="#f3f3f3"
           id="path75" />
        <path
           d="M 162.84687,43.4 C 162.16875,42.915625 161.975,41.946875 162.3625,41.26875 L 173.6,24.509375 c 0.48437,-0.678125 1.35625,-0.871875 2.13125,-0.3875 0.67812,0.484375 0.87187,1.453125 0.48437,2.13125 L 164.97812,43.0125 c -0.48437,0.678125 -1.45312,0.871875 -2.13125,0.3875 z m 12.7875,-19.084375 c -0.58125,-0.3875 -1.45312,-0.290625 -1.84062,0.290625 l -11.2375,16.759375 c -0.3875,0.58125 -0.19375,1.35625 0.3875,1.74375 0.58125,0.3875 1.45312,0.290625 1.84062,-0.290625 l 11.2375,-16.6625 c 0.3875,-0.58125 0.19375,-1.453125 -0.3875,-1.840625 z"
           fill="#ffffff"
           id="path77" />
        <path
           d="m 176.99062,39.71875 c -0.58125,-0.484375 -0.775,-1.35625 -0.29062,-1.9375 l 5.61875,-7.071875 c 0.48437,-0.58125 1.35625,-0.678125 1.9375,-0.19375 0.58125,0.484375 0.775,1.35625 0.29062,1.9375 L 178.92812,39.525 c -0.48437,0.58125 -1.35625,0.678125 -1.9375,0.19375 z"
           fill="#f3f3f3"
           id="path79" />
        <path
           d="m 176.89375,39.815625 c -0.67813,-0.484375 -0.775,-1.453125 -0.29063,-2.13125 l 5.61875,-7.071875 c 0.48438,-0.678125 1.45313,-0.775 2.13125,-0.19375 0.67813,0.484375 0.775,1.453125 0.29063,2.13125 l -5.61875,7.071875 c -0.48438,0.678125 -1.45313,0.775 -2.13125,0.19375 z m 7.26562,-9.203125 c -0.58125,-0.484375 -1.35625,-0.3875 -1.84062,0.19375 L 176.7,37.878125 c -0.3875,0.58125 -0.29063,1.35625 0.29062,1.840625 0.58125,0.484375 1.35625,0.3875 1.84063,-0.19375 L 184.45,32.453125 C 184.8375,31.871875 184.74062,31 184.15937,30.6125 Z"
           fill="#ffffff"
           id="path81" />
        <path
           d="m 176.02187,54.25 c -0.58125,-0.58125 -0.58125,-1.453125 0,-1.9375 l 14.3375,-14.240625 c 0.58125,-0.58125 1.45313,-0.484375 1.9375,0 0.48438,0.484375 0.58125,1.453125 0,1.9375 L 178.05625,54.25 c -0.58125,0.58125 -1.45313,0.58125 -2.03438,0 z"
           fill="#f3f3f3"
           id="path83" />
        <path
           d="m 175.925,54.346875 c -0.58125,-0.58125 -0.58125,-1.55 0,-2.13125 L 190.2625,37.975 c 0.58125,-0.58125 1.55,-0.58125 2.13125,0 0.58125,0.58125 0.58125,1.55 0,2.13125 l -14.3375,14.240625 c -0.58125,0.58125 -1.55,0.58125 -2.13125,0 z m 16.37187,-16.275 c -0.48437,-0.484375 -1.35625,-0.484375 -1.84062,0 L 176.11875,52.3125 c -0.48438,0.484375 -0.48438,1.35625 0,1.840625 0.48437,0.484375 1.35625,0.484375 1.84062,0 L 192.29687,39.9125 c 0.48438,-0.484375 0.48438,-1.259375 0,-1.840625 z"
           fill="#ffffff"
           id="path85" />
        <path
           d="m 190.55312,53.475 c -0.48437,-0.58125 -0.48437,-1.453125 0.0969,-1.9375 l 6.87812,-5.8125 c 0.58125,-0.484375 1.45313,-0.3875 1.9375,0.19375 0.48438,0.58125 0.48438,1.453125 -0.0969,1.9375 l -6.87813,5.8125 c -0.58125,0.484375 -1.45312,0.3875 -1.9375,-0.19375 z"
           fill="#f3f3f3"
           id="path87" />
        <path
           d="m 190.45625,53.571875 c -0.58125,-0.678125 -0.48438,-1.646875 0.0969,-2.13125 l 6.87813,-5.8125 c 0.58125,-0.58125 1.55,-0.484375 2.13125,0.19375 0.58125,0.678125 0.48437,1.646875 -0.0969,2.13125 l -6.87812,5.8125 c -0.58125,0.58125 -1.55,0.484375 -2.13125,-0.19375 z m 8.9125,-7.653125 C 198.88437,45.3375 198.10937,45.3375 197.52812,45.725 L 190.65,51.5375 c -0.48438,0.484375 -0.58125,1.259375 -0.0969,1.840625 0.48438,0.58125 1.25938,0.58125 1.84063,0.19375 l 6.87812,-5.8125 C 199.85312,47.275 199.85312,46.5 199.36875,45.91875 Z"
           fill="#ffffff"
           id="path89" />
        <path
           d="m 186.67812,67.425 c -0.48437,-0.678125 -0.29062,-1.55 0.3875,-1.9375 L 203.92187,54.25 c 0.67813,-0.3875 1.55,-0.19375 1.9375,0.3875 0.48438,0.678125 0.29063,1.55 -0.3875,1.9375 l -16.85625,11.2375 c -0.58125,0.3875 -1.45312,0.19375 -1.9375,-0.3875 z"
           fill="#f3f3f3"
           id="path91" />
        <path
           d="m 186.58125,67.425 c -0.48438,-0.678125 -0.29063,-1.646875 0.3875,-2.13125 L 203.825,54.05625 c 0.67812,-0.484375 1.64687,-0.290625 2.13125,0.484375 0.48437,0.678125 0.29062,1.646875 -0.3875,2.13125 l -16.85625,11.2375 C 188.03437,68.39375 187.06562,68.2 186.58125,67.425 Z M 205.7625,54.734375 c -0.3875,-0.58125 -1.1625,-0.775 -1.74375,-0.3875 l -16.85625,11.2375 c -0.58125,0.3875 -0.775,1.1625 -0.29063,1.840625 0.3875,0.58125 1.1625,0.775 1.74375,0.3875 L 205.47187,56.575 c 0.58125,-0.484375 0.67813,-1.259375 0.29063,-1.840625 z"
           fill="#ffffff"
           id="path93" />
        <path
           d="m 201.1125,69.459375 c -0.3875,-0.678125 -0.19375,-1.55 0.48437,-1.9375 l 7.84688,-4.45625 c 0.67812,-0.3875 1.55,-0.09687 1.9375,0.58125 0.3875,0.678125 0.19375,1.55 -0.48438,1.9375 l -7.84687,4.45625 c -0.67813,0.3875 -1.55,0.09687 -1.9375,-0.58125 z"
           fill="#f3f3f3"
           id="path95" />
        <path
           d="m 201.01562,69.55625 c -0.3875,-0.775 -0.19375,-1.646875 0.48438,-2.034375 l 7.84687,-4.45625 c 0.67813,-0.3875 1.64688,-0.09687 2.03438,0.58125 0.3875,0.775 0.19375,1.646875 -0.48438,2.034375 L 203.05,70.1375 c -0.67813,0.3875 -1.64688,0.09687 -2.03438,-0.58125 z m 10.26875,-5.8125 c -0.3875,-0.678125 -1.1625,-0.871875 -1.74375,-0.484375 l -7.84687,4.45625 c -0.58125,0.3875 -0.775,1.1625 -0.48438,1.74375 0.3875,0.678125 1.1625,0.871875 1.74375,0.484375 L 210.8,65.4875 c 0.58125,-0.290625 0.775,-1.065625 0.48437,-1.74375 z"
           fill="#ffffff"
           id="path97" />
        <path
           d="m 194.62187,82.34375 c -0.29062,-0.775 0,-1.55 0.775,-1.840625 l 18.69688,-7.75 c 0.67812,-0.290625 1.55,0.09687 1.84062,0.775 0.29063,0.775 0,1.55 -0.775,1.840625 l -18.69687,7.75 c -0.67813,0.290625 -1.55,0 -1.84063,-0.775 z"
           fill="#f3f3f3"
           id="path99" />
        <path
           d="m 194.525,82.440625 c -0.29063,-0.775 0,-1.646875 0.775,-2.034375 l 18.69687,-7.75 c 0.775,-0.290625 1.64688,0.09687 1.9375,0.871875 0.29063,0.775 0,1.646875 -0.775,2.034375 l -18.69687,7.75 c -0.775,0.290625 -1.64688,-0.09687 -1.9375,-0.871875 z M 215.74062,73.625 C 215.45,72.946875 214.675,72.65625 214.09375,72.85 l -18.69688,7.75 c -0.67812,0.290625 -0.96875,1.065625 -0.67812,1.74375 0.29062,0.678125 1.06562,0.96875 1.64687,0.775 l 18.69688,-7.75 c 0.67812,-0.290625 0.96875,-1.065625 0.67812,-1.74375 z"
           fill="#ffffff"
           id="path101" />
        <path
           d="m 208.28125,87.1875 c -0.29063,-0.775 0.0969,-1.55 0.87187,-1.840625 l 8.525,-2.809375 c 0.67813,-0.290625 1.55,0.19375 1.74375,0.871875 0.29063,0.775 -0.0969,1.55 -0.87187,1.840625 l -8.525,2.809375 C 209.34687,88.35 208.57187,87.9625 208.28125,87.1875 Z"
           fill="#f3f3f3"
           id="path103" />
        <path
           d="m 208.18437,87.284375 c -0.29062,-0.775 0.0969,-1.646875 0.96875,-1.9375 l 8.525,-2.809375 c 0.775,-0.290625 1.64688,0.19375 1.9375,0.96875 0.29063,0.775 -0.0969,1.646875 -0.96875,1.9375 l -8.525,2.809375 c -0.775,0.19375 -1.64687,-0.19375 -1.9375,-0.96875 z m 11.2375,-3.68125 C 219.22812,82.925 218.45312,82.5375 217.775,82.73125 l -8.525,2.809375 c -0.67813,0.19375 -0.96875,0.96875 -0.775,1.646875 0.19375,0.678125 0.96875,1.065625 1.64687,0.871875 l 8.525,-2.809375 c 0.67813,-0.290625 0.96875,-0.96875 0.775,-1.646875 z"
           fill="#ffffff"
           id="path105" />
        <path
           d="m 199.5625,98.715625 c -0.19375,-0.775 0.29062,-1.55 1.06562,-1.646875 l 19.85938,-3.875 c 0.775,-0.19375 1.45312,0.3875 1.64687,1.1625 0.19375,0.775 -0.29062,1.55 -1.06562,1.646875 l -19.85938,3.875 c -0.775,0.09687 -1.55,-0.3875 -1.64687,-1.1625 z"
           fill="#f3f3f3"
           id="path107" />
        <path
           d="M 199.36875,98.715625 C 199.175,97.84375 199.75625,97.06875 200.53125,96.875 L 220.39062,93 c 0.775,-0.19375 1.55,0.3875 1.74375,1.259375 0.19375,0.871875 -0.3875,1.646875 -1.1625,1.840625 l -19.85937,3.875 c -0.775,0.19375 -1.55,-0.3875 -1.74375,-1.259375 z m 22.57187,-4.359375 c -0.0969,-0.678125 -0.775,-1.1625 -1.45312,-1.065625 l -19.85938,3.875 c -0.67812,0.09687 -1.1625,0.871875 -0.96875,1.55 0.0969,0.678125 0.775,1.1625 1.45313,1.065625 l 19.85937,-3.875 c 0.67813,-0.19375 1.1625,-0.871875 0.96875,-1.55 z"
           fill="#ffffff"
           id="path109" />
        <path
           d="m 211.9625,106.175 c -0.0969,-0.775 0.3875,-1.45313 1.1625,-1.55 l 8.9125,-1.06562 c 0.775,-0.0969 1.45312,0.48437 1.55,1.25937 0.0969,0.775 -0.3875,1.45312 -1.1625,1.55 l -8.9125,1.06563 c -0.67813,0.0969 -1.45313,-0.48438 -1.55,-1.25938 z"
           fill="#f3f3f3"
           id="path111" />
        <path
           d="m 211.86562,106.175 c -0.0969,-0.87188 0.48438,-1.64687 1.25938,-1.74375 l 8.9125,-1.06563 c 0.775,-0.0969 1.55,0.48438 1.64687,1.35625 0.0969,0.87188 -0.48437,1.64688 -1.25937,1.74376 l -8.9125,1.06562 c -0.775,0.0969 -1.55,-0.48437 -1.64688,-1.35625 z m 11.72188,-1.35625 c -0.0969,-0.67812 -0.775,-1.25937 -1.45313,-1.1625 l -8.9125,1.06562 c -0.67812,0.0969 -1.1625,0.77501 -1.06562,1.45313 0.0969,0.67813 0.775,1.25938 1.45312,1.1625 l 8.9125,-1.06563 c 0.67813,-0.0969 1.1625,-0.77499 1.06563,-1.45312 z"
           fill="#ffffff"
           id="path113" />
        <path
           d="m 201.1125,115.57188 c 0,-0.775 0.58125,-1.45313 1.35625,-1.45313 h 20.24687 c 0.775,0 1.35625,0.67813 1.35625,1.45313 0,0.77499 -0.58125,1.45312 -1.35625,1.45312 h -20.24687 c -0.775,0 -1.35625,-0.67813 -1.35625,-1.45312 z"
           fill="#f3f3f3"
           id="path115" />
        <path
           d="m 201.01562,115.57188 c 0,-0.87188 0.67813,-1.55001 1.45313,-1.55001 h 20.24687 c 0.775,0 1.45313,0.67813 1.45313,1.55001 0,0.87187 -0.67813,1.55 -1.45313,1.55 h -20.24687 c -0.775,0 -1.45313,-0.67813 -1.45313,-1.55 z m 22.95938,0.0969 c 0,-0.67813 -0.58125,-1.35625 -1.25938,-1.35625 h -20.24687 c -0.67813,0 -1.25938,0.58125 -1.25938,1.35625 0,0.67812 0.58125,1.35625 1.25938,1.35625 h 20.24687 c 0.67813,-0.0969 1.25938,-0.67813 1.25938,-1.35625 z"
           fill="#ffffff"
           id="path117" />
        <path
           d="M 211.86562,125.35625 C 211.9625,124.58125 212.54375,124 213.31875,124 l 9.00937,0.67812 c 0.775,0.0969 1.35625,0.77501 1.25938,1.55001 -0.0969,0.77499 -0.67813,1.35624 -1.45313,1.35624 l -9.00937,-0.67812 c -0.67813,-0.0969 -1.25938,-0.775 -1.25938,-1.55 z"
           fill="#f3f3f3"
           id="path119" />
        <path
           d="m 211.76875,125.35625 c 0.0969,-0.87187 0.775,-1.45312 1.55,-1.45312 l 9.00937,0.67812 c 0.775,0.0969 1.45313,0.775 1.35625,1.64688 -0.0969,0.87187 -0.775,1.45312 -1.55,1.45312 l -9.00937,-0.67813 c -0.775,-0.0969 -1.35625,-0.87187 -1.35625,-1.64687 z m 11.81875,0.87188 c 0.0969,-0.67813 -0.48438,-1.35625 -1.1625,-1.35625 l -9.00938,-0.67813 c -0.67812,0 -1.25937,0.48437 -1.35625,1.25938 -0.0969,0.67812 0.48438,1.35625 1.1625,1.35625 l 9.00938,0.67812 c 0.67812,0 1.25937,-0.58125 1.35625,-1.25937 z"
           fill="#ffffff"
           id="path121" />
        <path
           d="m 199.36875,132.42812 c 0.19375,-0.775 0.87187,-1.25937 1.64687,-1.1625 l 19.85938,3.97188 c 0.775,0.19375 1.25937,0.87187 1.06562,1.64687 -0.19375,0.775 -0.87187,1.25938 -1.64687,1.1625 L 200.43437,134.075 c -0.67812,-0.0969 -1.1625,-0.87188 -1.06562,-1.64688 z"
           fill="#f3f3f3"
           id="path123" />
        <path
           d="m 199.27187,132.42812 c 0.19375,-0.87187 0.96875,-1.35625 1.74375,-1.25937 l 19.85938,3.97187 c 0.775,0.19375 1.35625,0.96875 1.1625,1.84063 -0.19375,0.87187 -0.96875,1.35625 -1.74375,1.25937 l -19.85938,-3.97187 c -0.775,-0.19375 -1.25937,-0.96875 -1.1625,-1.84063 z m 22.57188,4.55313 c 0.0969,-0.67813 -0.29063,-1.35625 -0.96875,-1.55 l -19.85938,-3.97188 c -0.67812,-0.0969 -1.35625,0.29063 -1.55,1.06563 -0.0969,0.67812 0.29063,1.35625 0.96875,1.55 l 19.85938,3.97187 c 0.775,0.0969 1.35625,-0.3875 1.55,-1.06562 z"
           fill="#ffffff"
           id="path125" />
        <path
           d="m 208.0875,144.05312 c 0.19375,-0.775 0.96875,-1.25937 1.74375,-1.06562 l 8.71875,2.42187 c 0.775,0.19375 1.1625,0.96875 0.96875,1.74375 -0.19375,0.775 -0.96875,1.25938 -1.74375,1.06563 l -8.71875,-2.42188 c -0.775,-0.19375 -1.1625,-0.96875 -0.96875,-1.74375 z"
           fill="#f3f3f3"
           id="path127" />
        <path
           d="m 207.99062,144.05312 c 0.19375,-0.775 1.06563,-1.35625 1.84063,-1.06562 l 8.71875,2.42187 c 0.775,0.19375 1.25937,1.06563 1.06562,1.84063 -0.19375,0.775 -1.06562,1.35625 -1.84062,1.06562 l -8.71875,-2.42187 c -0.775,-0.19375 -1.25938,-0.96875 -1.06563,-1.84063 z M 219.325,147.25 c 0.19375,-0.67813 -0.19375,-1.45313 -0.87188,-1.64688 l -8.71875,-2.42187 c -0.67812,-0.19375 -1.35625,0.19375 -1.55,0.96875 -0.19375,0.67812 0.19375,1.45312 0.87188,1.64687 l 8.71875,2.42188 c 0.67812,0.0969 1.35625,-0.29063 1.55,-0.96875 z"
           fill="#ffffff"
           id="path129" />
        <path
           d="m 194.42812,148.70312 c 0.29063,-0.775 1.1625,-1.06562 1.84063,-0.775 l 18.69687,7.75 c 0.67813,0.29063 1.06563,1.1625 0.775,1.84063 -0.29062,0.775 -1.1625,1.06562 -1.84062,0.775 l -18.69688,-7.75 c -0.775,-0.29063 -1.06562,-1.1625 -0.775,-1.84063 z"
           fill="#f3f3f3"
           id="path131" />
        <path
           d="m 194.33125,148.60625 c 0.29062,-0.775 1.1625,-1.1625 1.9375,-0.87188 l 18.69687,7.75 c 0.775,0.29063 1.06563,1.1625 0.775,2.03438 -0.29062,0.775 -1.1625,1.1625 -1.9375,0.87187 l -18.69687,-7.75 c -0.775,-0.3875 -1.06563,-1.25937 -0.775,-2.03437 z m 21.21562,8.81562 c 0.29063,-0.67812 0,-1.45312 -0.67812,-1.74375 l -18.69688,-7.75 c -0.67812,-0.29062 -1.35625,0.0969 -1.64687,0.775 -0.29063,0.67813 0,1.45313 0.67812,1.74375 l 18.69688,7.75 c 0.67812,0.19375 1.45312,-0.0969 1.64687,-0.775 z"
           fill="#ffffff"
           id="path133" />
        <path
           d="m 200.725,161.78125 c 0.3875,-0.67813 1.1625,-0.96875 1.84062,-0.67813 l 8.04063,4.06875 c 0.67812,0.29063 0.96875,1.1625 0.58125,1.9375 -0.3875,0.67813 -1.1625,0.96875 -1.84063,0.67813 l -8.04062,-4.06875 c -0.67813,-0.3875 -0.96875,-1.25938 -0.58125,-1.9375 z"
           fill="#f3f3f3"
           id="path135" />
        <path
           d="m 200.62812,161.68437 c 0.3875,-0.775 1.25938,-1.06562 2.03438,-0.67812 l 8.04062,4.06875 c 0.775,0.3875 1.06563,1.25937 0.67813,2.03437 -0.3875,0.775 -1.25938,1.06563 -2.03438,0.67813 l -8.04062,-4.06875 c -0.775,-0.29063 -1.06563,-1.25938 -0.67813,-2.03438 z m 10.4625,5.32813 c 0.29063,-0.67813 0.0969,-1.45313 -0.58125,-1.74375 L 202.46875,161.2 c -0.58125,-0.29063 -1.35625,0 -1.74375,0.58125 -0.29063,0.67812 -0.0969,1.45312 0.58125,1.74375 l 8.04062,4.06875 c 0.67813,0.29062 1.45313,0.0969 1.74375,-0.58125 z"
           fill="#ffffff"
           id="path137" />
        <path
           d="m 186.48437,163.62187 c 0.48438,-0.67812 1.25938,-0.87187 1.9375,-0.3875 l 16.85625,11.2375 c 0.67813,0.3875 0.775,1.25938 0.3875,1.9375 -0.48437,0.67813 -1.25937,0.87188 -1.9375,0.3875 l -16.85625,-11.2375 c -0.67812,-0.48437 -0.87187,-1.35625 -0.3875,-1.9375 z"
           fill="#f3f3f3"
           id="path139" />
        <path
           d="m 186.3875,163.525 c 0.48437,-0.67813 1.45312,-0.87188 2.13125,-0.48438 l 16.85625,11.2375 c 0.67812,0.48438 0.87187,1.35625 0.3875,2.13125 -0.48438,0.67813 -1.45313,0.87188 -2.13125,0.48438 L 186.775,165.65625 c -0.775,-0.48438 -0.87188,-1.45313 -0.3875,-2.13125 z m 19.08437,12.7875 c 0.3875,-0.58125 0.29063,-1.45313 -0.29062,-1.84063 L 188.325,163.23437 c -0.58125,-0.3875 -1.35625,-0.19375 -1.74375,0.3875 -0.3875,0.58125 -0.29063,1.45313 0.29062,1.84063 L 203.72812,176.7 c 0.58125,0.3875 1.35625,0.19375 1.74375,-0.3875 z"
           fill="#ffffff"
           id="path141" />
        <path
           d="m 190.06875,177.66875 c 0.48437,-0.58125 1.35625,-0.775 1.9375,-0.29063 l 7.07187,5.52188 c 0.58125,0.48437 0.67813,1.35625 0.19375,1.9375 -0.48437,0.58125 -1.35625,0.775 -1.9375,0.29062 l -7.07187,-5.52187 c -0.58125,-0.48438 -0.67813,-1.35625 -0.19375,-1.9375 z"
           fill="#f3f3f3"
           id="path143" />
        <path
           d="m 189.97187,177.57187 c 0.48438,-0.67812 1.45313,-0.775 2.13125,-0.29062 l 7.07188,5.52187 c 0.67812,0.48438 0.775,1.45313 0.29062,2.13125 -0.48437,0.67813 -1.45312,0.775 -2.13125,0.29063 l -7.07187,-5.52188 c -0.67813,-0.48437 -0.775,-1.45312 -0.29063,-2.13125 z m 9.3,7.26563 c 0.48438,-0.58125 0.3875,-1.35625 -0.19375,-1.84063 l -7.07187,-5.52187 c -0.58125,-0.3875 -1.35625,-0.29063 -1.84063,0.29062 -0.48437,0.58125 -0.3875,1.35625 0.19375,1.84063 l 7.07188,5.52187 c 0.58125,0.3875 1.35625,0.29063 1.84062,-0.29062 z"
           fill="#ffffff"
           id="path145" />
        <path
           d="m 175.63437,176.7 c 0.58125,-0.58125 1.45313,-0.58125 1.9375,0 l 14.3375,14.24062 c 0.58125,0.58125 0.48438,1.45313 0,1.9375 -0.58125,0.58125 -1.45312,0.58125 -1.9375,0 l -14.3375,-14.24062 c -0.48437,-0.48438 -0.48437,-1.45313 0,-1.9375 z"
           fill="#f3f3f3"
           id="path147" />
        <path
           d="m 175.63437,176.60312 c 0.58125,-0.58125 1.55,-0.58125 2.13125,0 l 14.3375,14.24063 c 0.58125,0.58125 0.58125,1.55 0,2.13125 -0.58125,0.58125 -1.55,0.58125 -2.13125,0 l -14.3375,-14.24063 c -0.67812,-0.58125 -0.67812,-1.55 0,-2.13125 z m 16.275,16.17813 c 0.48438,-0.48438 0.48438,-1.35625 0,-1.84063 L 177.57187,176.7 c -0.48437,-0.48438 -1.35625,-0.48438 -1.84062,0 -0.48438,0.48437 -0.48438,1.35625 0,1.84062 l 14.3375,14.24063 c 0.48437,0.58125 1.25937,0.58125 1.84062,0 z"
           fill="#ffffff"
           id="path149" />
        <path
           d="m 176.50625,191.13437 c 0.58125,-0.48437 1.45312,-0.48437 1.9375,0.0969 l 5.90937,6.78125 c 0.48438,0.58125 0.3875,1.45312 -0.19375,1.9375 -0.58125,0.48437 -1.45312,0.48437 -1.9375,-0.0969 l -5.90937,-6.78125 c -0.48438,-0.48437 -0.3875,-1.35625 0.19375,-1.9375 z"
           fill="#f3f3f3"
           id="path151" />
        <path
           d="m 176.40937,191.13437 c 0.67813,-0.58125 1.55,-0.48437 2.13125,0.0969 l 5.90938,6.78125 c 0.58125,0.58125 0.48437,1.55 -0.19375,2.13125 -0.67813,0.58125 -1.55,0.48437 -2.13125,-0.0969 l -5.90938,-6.78125 c -0.48437,-0.67812 -0.48437,-1.64687 0.19375,-2.13125 z m 7.75,8.81563 c 0.58125,-0.48438 0.58125,-1.25938 0.19375,-1.84063 l -5.90937,-6.78125 c -0.48438,-0.48437 -1.25938,-0.58125 -1.84063,-0.0969 -0.58125,0.48437 -0.58125,1.25937 -0.19375,1.84062 l 5.90938,6.78125 c 0.48437,0.58125 1.25937,0.58125 1.84062,0.0969 z"
           fill="#ffffff"
           id="path153" />
        <path
           d="m 162.55625,187.45312 c 0.67812,-0.48437 1.55,-0.29062 1.9375,0.3875 L 175.73125,204.6 c 0.3875,0.67812 0.19375,1.55 -0.3875,1.9375 -0.67813,0.48437 -1.55,0.29062 -1.9375,-0.3875 l -11.2375,-16.75938 c -0.3875,-0.67812 -0.19375,-1.55 0.3875,-1.9375 z"
           fill="#f3f3f3"
           id="path155" />
        <path
           d="m 162.55625,187.35625 c 0.67812,-0.48438 1.64687,-0.29063 2.13125,0.3875 l 11.2375,16.75937 c 0.48437,0.67813 0.29062,1.64688 -0.48438,2.13125 -0.67812,0.48438 -1.64687,0.29063 -2.13125,-0.3875 l -11.2375,-16.75937 c -0.48437,-0.775 -0.29062,-1.64688 0.48438,-2.13125 z m 12.7875,19.08437 c 0.58125,-0.3875 0.775,-1.1625 0.3875,-1.74375 l -11.2375,-16.75937 c -0.3875,-0.58125 -1.1625,-0.67813 -1.84063,-0.29063 -0.58125,0.3875 -0.775,1.1625 -0.3875,1.74375 l 11.2375,16.75938 c 0.3875,0.48437 1.25938,0.67812 1.84063,0.29062 z"
           fill="#ffffff"
           id="path157" />
        <path
           d="m 160.52187,201.79062 c 0.67813,-0.3875 1.55,-0.19375 1.9375,0.48438 l 4.45625,7.84687 c 0.3875,0.67813 0.0969,1.55 -0.58125,1.9375 -0.67812,0.3875 -1.55,0.19375 -1.9375,-0.48437 l -4.45625,-7.84688 c -0.29062,-0.67812 -0.0969,-1.55 0.58125,-1.9375 z"
           fill="#f3f3f3"
           id="path159" />
        <path
           d="m 160.52187,201.69375 c 0.775,-0.3875 1.64688,-0.19375 2.03438,0.48437 l 4.45625,7.84688 c 0.3875,0.67812 0.19375,1.64687 -0.58125,2.03437 -0.775,0.3875 -1.64688,0.19375 -2.03438,-0.48437 l -4.45625,-7.84688 c -0.3875,-0.67812 -0.19375,-1.55 0.58125,-2.03437 z m 5.8125,10.26875 c 0.58125,-0.3875 0.87188,-1.1625 0.48438,-1.74375 l -4.45625,-7.84688 c -0.3875,-0.58125 -1.1625,-0.775 -1.74375,-0.48437 -0.58125,0.3875 -0.87188,1.1625 -0.48438,1.74375 l 4.45625,7.84687 c 0.29063,0.58125 1.1625,0.87188 1.74375,0.48438 z"
           fill="#ffffff"
           id="path161" />
        <path
           d="m 147.6375,195.39687 c 0.775,-0.29062 1.55,0 1.84062,0.67813 l 7.84688,18.69687 c 0.29062,0.67813 -0.0969,1.55 -0.775,1.84063 -0.67813,0.29062 -1.55,0 -1.84063,-0.67813 L 146.8625,197.2375 c -0.29063,-0.67813 0.0969,-1.55 0.775,-1.84063 z"
           fill="#f3f3f3"
           id="path163" />
        <path
           d="m 147.6375,195.3 c 0.775,-0.29063 1.64687,0 2.03437,0.775 l 7.84688,18.69687 c 0.29062,0.775 -0.0969,1.64688 -0.87188,1.9375 -0.775,0.29063 -1.64687,0 -2.03437,-0.775 l -7.84688,-18.69687 c -0.29062,-0.67813 0.0969,-1.55 0.87188,-1.9375 z m 8.81562,21.21562 c 0.67813,-0.29062 0.96875,-1.06562 0.67813,-1.64687 l -7.84688,-18.69688 c -0.29062,-0.67812 -1.06562,-0.96875 -1.74375,-0.67812 -0.67812,0.29062 -0.96875,1.06562 -0.67812,1.64687 l 7.84687,18.69688 c 0.3875,0.67812 1.06563,0.96875 1.74375,0.67812 z"
           fill="#ffffff"
           id="path165" />
        <path
           d="m 142.89062,209.15312 c 0.775,-0.29062 1.55,0.0969 1.84063,0.87188 l 2.80937,8.525 c 0.29063,0.67812 -0.19375,1.55 -0.87187,1.74375 -0.775,0.29062 -1.55,-0.0969 -1.84063,-0.87188 l -2.80937,-8.525 c -0.29063,-0.67812 0.0969,-1.45312 0.87187,-1.74375 z"
           fill="#f3f3f3"
           id="path167" />
        <path
           d="m 142.79375,209.05625 c 0.775,-0.29063 1.64687,0.0969 1.9375,0.87187 l 2.80937,8.525 c 0.29063,0.775 -0.19375,1.64688 -0.96875,1.9375 -0.775,0.29063 -1.64687,-0.0969 -1.9375,-0.87187 l -2.80937,-8.525 c -0.19375,-0.775 0.19375,-1.64688 0.96875,-1.9375 z m 3.77812,11.14062 c 0.67813,-0.19375 1.06563,-0.96875 0.87188,-1.64687 l -2.80938,-8.525 c -0.19375,-0.67813 -0.96875,-0.96875 -1.64687,-0.775 -0.67813,0.19375 -1.06563,0.96875 -0.87188,1.64687 l 2.80938,8.525 c 0.19375,0.67813 0.96875,1.06563 1.64687,0.775 z"
           fill="#ffffff"
           id="path169" />
        <path
           d="m 131.45937,200.3375 c 0.775,-0.19375 1.55,0.29062 1.64688,1.06562 l 4.06875,19.85938 c 0.19375,0.775 -0.3875,1.45312 -1.1625,1.64687 -0.775,0.19375 -1.55,-0.29062 -1.64688,-1.06562 l -4.06875,-19.85938 c -0.0969,-0.67812 0.3875,-1.45312 1.1625,-1.64687 z"
           fill="#f3f3f3"
           id="path171" />
        <path
           d="m 131.45937,200.24062 c 0.87188,-0.19375 1.64688,0.3875 1.84063,1.1625 l 4.06875,19.85938 c 0.19375,0.775 -0.3875,1.64687 -1.1625,1.74375 -0.87188,0.19375 -1.64688,-0.3875 -1.84063,-1.1625 l -4.06875,-19.85938 c -0.19375,-0.775 0.29063,-1.55 1.1625,-1.74375 z m 4.55313,22.57188 c 0.67812,-0.0969 1.1625,-0.775 1.06562,-1.55 l -4.06875,-19.85938 c -0.0969,-0.67812 -0.87187,-1.1625 -1.55,-0.96875 -0.67812,0.0969 -1.1625,0.775 -1.06562,1.55 l 4.06875,19.85938 c 0.19375,0.67812 0.87187,1.06562 1.55,0.96875 z"
           fill="#ffffff"
           id="path173" />
        <path
           d="m 124.09687,212.93125 c 0.77501,-0.0969 1.45313,0.3875 1.64688,1.1625 l 1.1625,8.9125 c 0.0969,0.775 -0.48437,1.45312 -1.25938,1.55 -0.77499,0.0969 -1.45312,-0.3875 -1.64687,-1.1625 l -1.1625,-8.9125 c -0.0969,-0.775 0.48438,-1.45313 1.25937,-1.55 z"
           fill="#f3f3f3"
           id="path175" />
        <path
           d="m 124.09687,212.83437 c 0.87188,-0.0969 1.64688,0.48438 1.74376,1.25938 l 1.16249,8.9125 c 0.0969,0.775 -0.48437,1.55 -1.35625,1.64687 C 124.775,224.75 124,224.16875 123.90313,223.39375 l -1.16251,-8.9125 c -0.0969,-0.775 0.48438,-1.55 1.35625,-1.64688 z m 1.45313,11.625 c 0.67813,-0.0969 1.25938,-0.775 1.1625,-1.45312 l -1.1625,-8.9125 c -0.0969,-0.67813 -0.775,-1.1625 -1.45313,-1.06563 -0.67812,0.0969 -1.25937,0.775 -1.16249,1.45313 l 1.16249,8.9125 c 0.0969,0.67812 0.77501,1.1625 1.45313,1.06562 z"
           fill="#ffffff"
           id="path177" />
        <path
           d="m 114.11875,202.08125 c 0.775,0 1.45313,0.58125 1.45313,1.35625 v 20.24687 c 0,0.775 -0.67813,1.35625 -1.45313,1.35625 -0.775,0 -1.45312,-0.58125 -1.45312,-1.35625 V 203.4375 c 0.0969,-0.775 0.67812,-1.35625 1.45312,-1.35625 z"
           fill="#f3f3f3"
           id="path179" />
        <path
           d="m 114.11875,201.98437 c 0.87187,0 1.55,0.67813 1.55,1.45313 v 20.24687 c 0,0.775 -0.67813,1.45313 -1.55,1.45313 -0.87187,0 -1.55,-0.67813 -1.55,-1.45313 V 203.4375 c 0,-0.775 0.775,-1.45313 1.55,-1.45313 z m 0,22.95938 c 0.67813,0 1.35625,-0.58125 1.35625,-1.25938 V 203.4375 c 0,-0.67813 -0.58125,-1.25938 -1.35625,-1.25938 -0.67813,0 -1.35625,0.58125 -1.35625,1.25938 v 20.24687 c 0.0969,0.67813 0.67812,1.25938 1.35625,1.25938 z"
           fill="#ffffff"
           id="path181" />
        <path
           d="m 104.43125,212.93125 c 0.775,0.0969 1.35625,0.67812 1.35625,1.45312 l -0.67812,9.00938 c -0.0969,0.775 -0.77501,1.35625 -1.55,1.25937 -0.77501,-0.0969 -1.35625,-0.67812 -1.35625,-1.45312 l 0.67812,-9.00938 c 0.0969,-0.775 0.775,-1.35625 1.55,-1.25937 z"
           fill="#f3f3f3"
           id="path183" />
        <path
           d="m 104.43125,212.83437 c 0.87187,0.0969 1.45313,0.775 1.45313,1.55 l -0.67813,9.00938 c -0.0969,0.775 -0.775,1.45312 -1.64687,1.35625 -0.87188,-0.0969 -1.45313,-0.775 -1.45313,-1.55 l 0.67812,-9.00938 c 0.0969,-0.87187 0.77501,-1.45312 1.64688,-1.35625 z m -0.87187,11.72188 c 0.67812,0 1.35625,-0.48438 1.35625,-1.1625 l 0.67812,-9.00938 c 0,-0.67812 -0.48437,-1.25937 -1.25938,-1.35625 -0.67812,0 -1.35624,0.48438 -1.35624,1.1625 L 102.3,223.2 c 0,0.67812 0.58125,1.25937 1.25938,1.35625 z"
           fill="#ffffff"
           id="path185" />
        <path
           d="m 97.165625,200.3375 c 0.775,0.19375 1.259375,0.87187 1.1625,1.64687 l -3.971875,19.85938 c -0.19375,0.775 -0.871875,1.25937 -1.646875,1.06562 -0.775,-0.19375 -1.259375,-0.87187 -1.1625,-1.64687 l 3.971875,-19.85938 c 0.09687,-0.67812 0.871875,-1.1625 1.646875,-1.06562 z"
           fill="#f3f3f3"
           id="path187" />
        <path
           d="m 97.165625,200.24062 c 0.871875,0.19375 1.35625,0.96875 1.259375,1.74375 l -3.971875,19.85938 c -0.19375,0.775 -0.96875,1.35625 -1.840625,1.1625 -0.871875,-0.19375 -1.35625,-0.96875 -1.259375,-1.74375 L 95.325,201.40312 c 0.19375,-0.775 0.96875,-1.25937 1.840625,-1.1625 z M 92.6125,222.8125 c 0.678125,0.0969 1.35625,-0.29063 1.55,-0.96875 l 3.971875,-19.85938 c 0.09687,-0.67812 -0.290625,-1.35625 -1.065625,-1.55 -0.678125,-0.0969 -1.35625,0.29063 -1.55,0.96875 l -3.971875,19.85938 c -0.09687,0.775 0.3875,1.35625 1.065625,1.55 z"
           fill="#ffffff"
           id="path189" />
        <path
           d="M 85.540625,209.05625 C 86.315625,209.25 86.8,210.025 86.60625,210.8 l -2.421875,8.71875 c -0.19375,0.775 -0.96875,1.1625 -1.74375,0.96875 -0.775,-0.19375 -1.259375,-0.96875 -1.065625,-1.74375 l 2.421875,-8.71875 c 0.19375,-0.775 0.96875,-1.1625 1.74375,-0.96875 z"
           fill="#f3f3f3"
           id="path191" />
        <path
           d="m 85.540625,208.95937 c 0.775,0.19375 1.35625,1.06563 1.065625,1.84063 l -2.421875,8.71875 c -0.19375,0.775 -1.065625,1.25937 -1.840625,1.06562 -0.775,-0.19375 -1.35625,-1.06562 -1.065625,-1.84062 L 83.7,210.025 c 0.19375,-0.775 0.96875,-1.25938 1.840625,-1.06563 z m -3.196875,11.33438 c 0.678125,0.19375 1.453125,-0.19375 1.646875,-0.87188 l 2.421875,-8.71875 c 0.19375,-0.67812 -0.19375,-1.35625 -0.96875,-1.55 -0.678125,-0.19375 -1.453125,0.19375 -1.646875,0.87188 L 81.375,218.74375 c -0.09687,0.67812 0.290625,1.35625 0.96875,1.55 z"
           fill="#ffffff"
           id="path193" />
        <path
           d="m 80.79375,195.39687 c 0.775,0.29063 1.065625,1.1625 0.775,1.84063 l -7.75,18.69687 C 73.528125,216.6125 72.65625,217 71.978125,216.6125 71.3,216.225 70.9125,215.45 71.203125,214.77187 l 7.75,-18.69687 c 0.290625,-0.67813 1.1625,-1.06563 1.840625,-0.67813 z"
           fill="#f3f3f3"
           id="path195" />
        <path
           d="m 80.79375,195.3 c 0.775,0.29062 1.1625,1.1625 0.871875,1.9375 l -7.75,18.69687 c -0.290625,0.775 -1.1625,1.06563 -2.034375,0.775 -0.775,-0.29062 -1.1625,-1.1625 -0.871875,-1.9375 l 7.75,-18.69687 c 0.3875,-0.775 1.259375,-1.1625 2.034375,-0.775 z m -8.815625,21.21562 c 0.678125,0.29063 1.453125,0 1.74375,-0.67812 l 7.75,-18.69688 c 0.290625,-0.67812 -0.09687,-1.35625 -0.775,-1.64687 -0.678125,-0.29063 -1.453125,0 -1.74375,0.67812 l -7.75,18.69688 c -0.19375,0.58125 0.09687,1.35625 0.775,1.64687 z"
           fill="#ffffff"
           id="path197" />
        <path
           d="m 67.715625,201.59687 c 0.678125,0.3875 0.96875,1.1625 0.678125,1.84063 l -4.06875,8.04062 c -0.3875,0.67813 -1.1625,0.96875 -1.9375,0.58125 -0.678125,-0.3875 -0.96875,-1.1625 -0.678125,-1.84062 l 4.06875,-8.04063 c 0.3875,-0.67812 1.1625,-0.96875 1.9375,-0.58125 z"
           fill="#f3f3f3"
           id="path199" />
        <path
           d="m 67.715625,201.5 c 0.775,0.3875 1.065625,1.25937 0.678125,2.03437 L 64.325,211.575 c -0.3875,0.775 -1.259375,1.06562 -2.034375,0.67812 -0.775,-0.3875 -1.065625,-1.25937 -0.678125,-2.03437 l 4.06875,-8.04063 c 0.3875,-0.775 1.259375,-1.06562 2.034375,-0.67812 z M 62.3875,212.05937 c 0.678125,0.29063 1.453125,0.0969 1.74375,-0.58125 L 68.2,203.4375 c 0.290625,-0.58125 0,-1.35625 -0.58125,-1.74375 -0.678125,-0.29063 -1.453125,-0.0969 -1.74375,0.58125 l -4.06875,8.04062 c -0.290625,0.58125 0,1.35625 0.58125,1.74375 z"
           fill="#ffffff"
           id="path201" />
        <path
           d="m 65.778125,187.25937 c 0.678125,0.48438 0.871875,1.35625 0.3875,1.9375 l -11.2375,16.75938 c -0.3875,0.67812 -1.259375,0.775 -1.9375,0.3875 -0.678125,-0.48438 -0.871875,-1.35625 -0.3875,-1.9375 l 11.2375,-16.75938 c 0.3875,-0.67812 1.259375,-0.87187 1.9375,-0.3875 z"
           fill="#f3f3f3"
           id="path203" />
        <path
           d="m 65.778125,187.1625 c 0.678125,0.48437 0.871875,1.45312 0.484375,2.13125 L 55.025,206.05312 c -0.484375,0.67813 -1.35625,0.87188 -2.13125,0.3875 -0.678125,-0.48437 -0.871875,-1.45312 -0.484375,-2.13125 L 63.646875,187.55 c 0.484375,-0.67813 1.453125,-0.87188 2.13125,-0.3875 z m -12.7875,19.08437 c 0.58125,0.3875 1.453125,0.29063 1.840625,-0.29062 l 11.2375,-16.75938 c 0.3875,-0.58125 0.19375,-1.35625 -0.3875,-1.74375 -0.58125,-0.3875 -1.453125,-0.29062 -1.840625,0.29063 l -11.2375,16.6625 c -0.3875,0.58125 -0.19375,1.45312 0.3875,1.84062 z"
           fill="#ffffff"
           id="path205" />
        <path
           d="m 51.634375,190.84375 c 0.58125,0.48437 0.775,1.35625 0.290625,1.9375 l -5.61875,7.07187 c -0.484375,0.58125 -1.35625,0.67813 -1.9375,0.19375 -0.58125,-0.48437 -0.775,-1.35625 -0.290625,-1.9375 l 5.61875,-7.07187 c 0.484375,-0.58125 1.35625,-0.67813 1.9375,-0.19375 z"
           fill="#f3f3f3"
           id="path207" />
        <path
           d="m 51.73125,190.74687 c 0.678125,0.48438 0.775,1.45313 0.290625,2.13125 l -5.61875,7.07188 c -0.484375,0.67812 -1.453125,0.775 -2.13125,0.19375 -0.678125,-0.48438 -0.775,-1.45313 -0.290625,-2.13125 L 49.6,190.94062 c 0.484375,-0.67812 1.453125,-0.775 2.13125,-0.19375 z M 44.465625,199.95 c 0.58125,0.48437 1.35625,0.3875 1.840625,-0.19375 l 5.61875,-7.07188 c 0.3875,-0.58125 0.290625,-1.35625 -0.290625,-1.84062 -0.58125,-0.48438 -1.35625,-0.3875 -1.840625,0.19375 l -5.61875,7.07187 c -0.3875,0.58125 -0.290625,1.45313 0.290625,1.84063 z"
           fill="#ffffff"
           id="path209" />
        <path
           d="m 52.603125,176.3125 c 0.58125,0.58125 0.58125,1.45312 0,1.9375 l -14.3375,14.24062 c -0.58125,0.58125 -1.453125,0.48438 -1.9375,0 -0.484375,-0.48437 -0.58125,-1.45312 0,-1.9375 L 50.56875,176.3125 c 0.58125,-0.58125 1.453125,-0.58125 2.034375,0 z"
           fill="#f3f3f3"
           id="path211" />
        <path
           d="m 52.7,176.21562 c 0.58125,0.58125 0.58125,1.55 0,2.13125 L 38.3625,192.5875 c -0.58125,0.58125 -1.55,0.58125 -2.13125,0 -0.58125,-0.58125 -0.58125,-1.55 0,-2.13125 l 14.3375,-14.24063 c 0.58125,-0.58125 1.55,-0.58125 2.13125,0 z m -16.371875,16.275 c 0.484375,0.48438 1.35625,0.48438 1.840625,0 L 52.50625,178.25 c 0.484375,-0.48438 0.484375,-1.35625 0,-1.84063 -0.484375,-0.48437 -1.35625,-0.48437 -1.840625,0 L 36.328125,190.65 c -0.484375,0.48437 -0.484375,1.25937 0,1.84062 z"
           fill="#ffffff"
           id="path213" />
        <path
           d="m 38.071875,177.0875 c 0.484375,0.58125 0.484375,1.45312 -0.09687,1.9375 l -6.878125,5.8125 c -0.58125,0.48437 -1.453125,0.3875 -1.9375,-0.19375 -0.484375,-0.58125 -0.484375,-1.45313 0.09688,-1.9375 l 6.878125,-5.8125 c 0.58125,-0.48438 1.453125,-0.3875 1.9375,0.19375 z"
           fill="#f3f3f3"
           id="path215" />
        <path
           d="m 38.16875,176.99062 c 0.58125,0.67813 0.484375,1.64688 -0.09688,2.13125 l -6.878125,5.8125 c -0.58125,0.58125 -1.55,0.48438 -2.13125,-0.19375 -0.58125,-0.67812 -0.484375,-1.64687 0.09688,-2.13125 l 6.878125,-5.8125 c 0.58125,-0.58125 1.55,-0.48437 2.13125,0.19375 z m -8.9125,7.65313 c 0.484375,0.58125 1.259375,0.58125 1.840625,0.19375 L 37.975,179.025 c 0.484375,-0.48438 0.58125,-1.25938 0.09687,-1.84063 -0.484375,-0.58125 -1.259375,-0.58125 -1.840625,-0.19375 l -6.878125,5.8125 c -0.58125,0.48438 -0.58125,1.25938 -0.09687,1.84063 z"
           fill="#ffffff"
           id="path217" />
        <path
           d="m 41.946875,163.1375 c 0.484375,0.67812 0.290625,1.55 -0.3875,1.9375 l -16.85625,11.2375 c -0.678125,0.3875 -1.55,0.19375 -1.9375,-0.3875 -0.484375,-0.67813 -0.290625,-1.55 0.3875,-1.9375 L 40.009375,162.75 c 0.58125,-0.3875 1.453125,-0.19375 1.9375,0.3875 z"
           fill="#f3f3f3"
           id="path219" />
        <path
           d="m 42.04375,163.1375 c 0.484375,0.67812 0.290625,1.64687 -0.3875,2.13125 L 24.8,176.50625 c -0.678125,0.48437 -1.646875,0.29062 -2.13125,-0.48438 -0.484375,-0.67812 -0.290625,-1.64687 0.3875,-2.13125 l 16.85625,-11.2375 c 0.678125,-0.48437 1.646875,-0.29062 2.13125,0.48438 z M 22.8625,175.82812 c 0.3875,0.58125 1.1625,0.775 1.74375,0.3875 l 16.85625,-11.2375 c 0.58125,-0.3875 0.775,-1.1625 0.290625,-1.84062 -0.3875,-0.58125 -1.1625,-0.775 -1.74375,-0.3875 l -16.85625,11.2375 c -0.58125,0.48437 -0.678125,1.25937 -0.290625,1.84062 z"
           fill="#ffffff"
           id="path221" />
        <path
           d="m 27.5125,161.10312 c 0.3875,0.67813 0.19375,1.55 -0.484375,1.9375 l -7.846875,4.45625 c -0.678125,0.3875 -1.55,0.0969 -1.9375,-0.58125 -0.3875,-0.67812 -0.19375,-1.55 0.484375,-1.9375 L 25.575,160.52187 c 0.678125,-0.3875 1.55,-0.0969 1.9375,0.58125 z"
           fill="#f3f3f3"
           id="path223" />
        <path
           d="m 27.609375,161.00625 c 0.3875,0.775 0.19375,1.64687 -0.484375,2.03437 l -7.846875,4.45625 c -0.678125,0.3875 -1.646875,0.0969 -2.034375,-0.58125 -0.3875,-0.775 -0.19375,-1.64687 0.484375,-2.03437 L 25.575,160.425 c 0.678125,-0.3875 1.646875,-0.0969 2.034375,0.58125 z m -10.26875,5.8125 c 0.3875,0.67812 1.1625,0.87187 1.74375,0.48437 l 7.846875,-4.45625 c 0.58125,-0.3875 0.775,-1.1625 0.484375,-1.74375 -0.3875,-0.67812 -1.1625,-0.87187 -1.74375,-0.48437 L 17.825,165.075 c -0.58125,0.29062 -0.775,1.06562 -0.484375,1.74375 z"
           fill="#ffffff"
           id="path225" />
        <path
           d="m 34.003125,148.21875 c 0.290625,0.775 0,1.55 -0.775,1.84062 l -18.696875,7.75 c -0.678125,0.29063 -1.55,-0.0969 -1.840625,-0.775 -0.290625,-0.775 0,-1.55 0.775,-1.84062 l 18.696875,-7.75 c 0.678125,-0.29063 1.55,0 1.840625,0.775 z"
           fill="#f3f3f3"
           id="path227" />
        <path
           d="m 34.1,148.12187 c 0.290625,0.775 0,1.64688 -0.775,2.03438 l -18.696875,7.75 c -0.775,0.29062 -1.646875,-0.0969 -1.9375,-0.87188 -0.290625,-0.775 0,-1.64687 0.775,-2.03437 L 32.1625,147.25 c 0.775,-0.29063 1.646875,0.0969 1.9375,0.87187 z m -21.215625,8.81563 c 0.290625,0.67812 1.065625,0.96875 1.646875,0.775 l 18.696875,-7.75 c 0.678125,-0.29063 0.96875,-1.06563 0.678125,-1.74375 -0.290625,-0.67813 -1.065625,-0.96875 -1.646875,-0.775 l -18.696875,7.75 c -0.678125,0.29062 -0.96875,1.06562 -0.678125,1.74375 z"
           fill="#ffffff"
           id="path229" />
        <path
           d="m 20.34375,143.375 c 0.290625,0.775 -0.09688,1.55 -0.871875,1.84062 l -8.525,2.80938 c -0.678125,0.29062 -1.55,-0.19375 -1.74375,-0.87188 C 8.9125,146.37812 9.3,145.60312 10.075,145.3125 l 8.525,-2.80938 c 0.678125,-0.29062 1.453125,0.0969 1.74375,0.87188 z"
           fill="#f3f3f3"
           id="path231" />
        <path
           d="m 20.440625,143.27812 c 0.290625,0.775 -0.09688,1.64688 -0.96875,1.9375 l -8.525,2.80938 c -0.775,0.29062 -1.646875,-0.19375 -1.9375,-0.96875 -0.290625,-0.775 0.096875,-1.64688 0.96875,-1.9375 l 8.525,-2.80938 c 0.775,-0.19375 1.646875,0.19375 1.9375,0.96875 z m -11.2375,3.68125 c 0.19375,0.67813 0.96875,1.06563 1.646875,0.87188 l 8.525,-2.80938 c 0.678125,-0.19375 0.96875,-0.96875 0.775,-1.64687 -0.19375,-0.67813 -0.96875,-1.06563 -1.646875,-0.87188 l -8.525,2.80938 c -0.678125,0.29062 -0.96875,0.96875 -0.775,1.64687 z"
           fill="#ffffff"
           id="path233" />
        <path
           d="m 29.0625,131.84687 c 0.19375,0.775 -0.290625,1.55 -1.065625,1.64688 l -19.859375,3.875 c -0.775,0.19375 -1.453125,-0.3875 -1.646875,-1.1625 -0.19375,-0.775 0.290625,-1.55 1.065625,-1.64688 l 19.859375,-3.875 c 0.775,-0.0969 1.55,0.3875 1.646875,1.1625 z"
           fill="#f3f3f3"
           id="path235" />
        <path
           d="m 29.25625,131.84687 c 0.19375,0.87188 -0.3875,1.64688 -1.1625,1.84063 l -19.859375,3.875 c -0.775,0.19375 -1.55,-0.3875 -1.74375,-1.25938 -0.19375,-0.87187 0.3875,-1.64687 1.1625,-1.84062 l 19.859375,-3.875 c 0.775,-0.19375 1.55,0.3875 1.74375,1.25937 z m -22.571875,4.35938 c 0.096875,0.67812 0.775,1.1625 1.453125,1.06562 l 19.859375,-3.875 c 0.678125,-0.0969 1.1625,-0.87187 0.96875,-1.55 -0.09688,-0.67812 -0.775,-1.1625 -1.453125,-1.06562 l -19.859375,3.875 c -0.678125,0.19375 -1.1625,0.87187 -0.96875,1.55 z"
           fill="#ffffff"
           id="path237" />
        <path
           d="m 16.6625,124.3875 c 0.09687,0.775 -0.3875,1.45313 -1.1625,1.55 l -8.9125,1.06562 c -0.775,0.0969 -1.453125,-0.48437 -1.55,-1.25937 -0.096875,-0.775 0.3875,-1.45312 1.1625,-1.55 l 8.9125,-1.06563 c 0.678125,-0.0969 1.453125,0.48438 1.55,1.25938 z"
           fill="#f3f3f3"
           id="path239" />
        <path
           d="M 16.759375,124.3875 C 16.85625,125.25938 16.275,126.03437 15.5,126.13125 l -8.9125,1.06563 c -0.775,0.0969 -1.55,-0.48438 -1.646875,-1.35625 C 4.84375,124.96875 5.425,124.19375 6.2,124.09687 l 8.9125,-1.06562 c 0.775,-0.0969 1.55,0.48438 1.646875,1.35625 z M 5.0375,125.74375 c 0.096875,0.67813 0.775,1.25937 1.453125,1.1625 l 8.9125,-1.06562 c 0.678125,-0.0969 1.1625,-0.77501 1.065625,-1.45313 -0.09688,-0.67813 -0.775,-1.25938 -1.453125,-1.1625 l -8.9125,1.06563 c -0.678125,0.0969 -1.1625,0.77499 -1.065625,1.45312 z"
           fill="#ffffff"
           id="path241" />
        <path
           d="m 27.5125,114.99062 c 0,0.77501 -0.58125,1.45313 -1.35625,1.45313 H 5.909375 c -0.775,0 -1.35625,-0.67812 -1.35625,-1.45313 0,-0.77499 0.58125,-1.45312 1.35625,-1.45312 H 26.15625 c 0.775,0 1.35625,0.67813 1.35625,1.45312 z"
           fill="#f3f3f3"
           id="path243" />
        <path
           d="m 27.609375,114.99062 c 0,0.87188 -0.678125,1.55001 -1.453125,1.55001 H 5.909375 c -0.775,0 -1.453125,-0.67813 -1.453125,-1.55001 0,-0.87187 0.678125,-1.55 1.453125,-1.55 H 26.15625 c 0.775,0 1.453125,0.67813 1.453125,1.55 z M 4.65,114.89375 c 0,0.67813 0.58125,1.35625 1.259375,1.35625 H 26.15625 c 0.678125,0 1.259375,-0.58125 1.259375,-1.35625 0,-0.67812 -0.58125,-1.35625 -1.259375,-1.35625 H 5.909375 C 5.23125,113.63438 4.65,114.21563 4.65,114.89375 Z"
           fill="#ffffff"
           id="path245" />
        <path
           d="m 16.759375,105.20625 c -0.09687,0.775 -0.678125,1.35625 -1.453125,1.35625 l -9.009375,-0.67812 c -0.775,-0.0969 -1.35625,-0.775 -1.259375,-1.55001 0.096875,-0.77499 0.678125,-1.35624 1.453125,-1.35624 L 15.5,103.65625 c 0.678125,0.0969 1.259375,0.775 1.259375,1.55 z"
           fill="#e2e2e2"
           id="path247" />
        <path
           d="m 16.85625,105.20625 c -0.09688,0.87188 -0.775,1.45312 -1.55,1.45312 l -9.009375,-0.67812 c -0.775,-0.0969 -1.453125,-0.775 -1.35625,-1.64688 0.096875,-0.87187 0.775,-1.45312 1.55,-1.45312 L 15.5,103.55938 c 0.775,0.0969 1.35625,0.87187 1.35625,1.64687 z M 5.0375,104.33437 c -0.096875,0.67813 0.484375,1.35625 1.1625,1.35625 l 9.009375,0.67813 c 0.678125,0 1.259375,-0.48437 1.35625,-1.25937 0.09688,-0.67813 -0.484375,-1.35626 -1.1625,-1.35626 L 6.39375,103.075 c -0.678125,0 -1.259375,0.58125 -1.35625,1.25937 z"
           fill="#ffffff"
           id="path249" />
        <path
           d="m 29.25625,98.134375 c -0.19375,0.775 -0.871875,1.259375 -1.646875,1.1625 L 7.75,95.228125 C 6.975,95.034375 6.490625,94.35625 6.684375,93.58125 c 0.19375,-0.775 0.871875,-1.259375 1.646875,-1.1625 l 19.859375,3.971875 c 0.678125,0.19375 1.1625,0.96875 1.065625,1.74375 z"
           fill="#f3f3f3"
           id="path251" />
        <path
           d="m 29.353125,98.134375 c -0.19375,0.871875 -0.96875,1.35625 -1.74375,1.259375 L 7.75,95.421875 C 6.975,95.228125 6.39375,94.453125 6.5875,93.58125 6.78125,92.709375 7.55625,92.225 8.33125,92.321875 l 19.859375,3.971875 c 0.775,0.19375 1.259375,0.96875 1.1625,1.840625 z M 6.78125,93.58125 c -0.096875,0.678125 0.290625,1.35625 0.96875,1.55 l 19.859375,3.971875 c 0.678125,0.09687 1.35625,-0.290625 1.55,-1.065625 0.09688,-0.678125 -0.290625,-1.35625 -0.96875,-1.55 L 8.33125,92.515625 c -0.775,-0.09687 -1.35625,0.3875 -1.55,1.065625 z"
           fill="#ffffff"
           id="path253" />
        <path
           d="m 20.5375,86.509375 c -0.19375,0.775 -0.96875,1.259375 -1.74375,1.065625 L 10.075,85.153125 C 9.3,84.959375 8.9125,84.184375 9.10625,83.409375 9.3,82.634375 10.075,82.15 10.85,82.34375 l 8.71875,2.421875 c 0.775,0.19375 1.1625,0.96875 0.96875,1.74375 z"
           fill="#f3f3f3"
           id="path255" />
        <path
           d="m 20.634375,86.509375 c -0.19375,0.775 -1.065625,1.35625 -1.840625,1.065625 L 10.075,85.153125 C 9.3,84.959375 8.815625,84.0875 9.009375,83.3125 9.203125,82.5375 10.075,81.95625 10.85,82.246875 l 8.71875,2.421875 c 0.775,0.19375 1.259375,0.96875 1.065625,1.840625 z M 9.3,83.3125 c -0.19375,0.678125 0.19375,1.453125 0.871875,1.646875 l 8.71875,2.421875 c 0.678125,0.19375 1.35625,-0.19375 1.55,-0.96875 0.19375,-0.678125 -0.19375,-1.453125 -0.871875,-1.646875 L 10.85,82.34375 C 10.171875,82.246875 9.49375,82.634375 9.3,83.3125 Z"
           fill="#ffffff"
           id="path257" />
        <path
           d="m 34.196875,81.859375 c -0.290625,0.775 -1.1625,1.065625 -1.840625,0.775 l -18.696875,-7.75 c -0.678125,-0.290625 -1.065625,-1.1625 -0.775,-1.840625 0.290625,-0.775 1.1625,-1.065625 1.840625,-0.775 l 18.696875,7.75 c 0.775,0.290625 1.065625,1.1625 0.775,1.840625 z"
           fill="#f3f3f3"
           id="path259" />
        <path
           d="m 34.29375,81.95625 c -0.290625,0.775 -1.1625,1.1625 -1.9375,0.871875 l -18.696875,-7.75 c -0.775,-0.290625 -1.065625,-1.1625 -0.775,-2.034375 0.290625,-0.775 1.1625,-1.1625 1.9375,-0.871875 l 18.696875,7.75 c 0.775,0.3875 1.065625,1.259375 0.775,2.034375 z M 13.078125,73.140625 c -0.290625,0.678125 0,1.453125 0.678125,1.74375 l 18.696875,7.75 c 0.678125,0.290625 1.35625,-0.09688 1.646875,-0.775 0.290625,-0.678125 0,-1.453125 -0.678125,-1.74375 l -18.696875,-7.75 c -0.678125,-0.19375 -1.453125,0.09688 -1.646875,0.775 z"
           fill="#ffffff"
           id="path261" />
        <path
           d="M 27.9,68.78125 C 27.5125,69.459375 26.7375,69.75 26.059375,69.459375 L 18.01875,65.390625 C 17.340625,65.1 17.05,64.228125 17.4375,63.453125 17.825,62.775 18.6,62.484375 19.278125,62.775 l 8.040625,4.06875 c 0.678125,0.3875 0.96875,1.259375 0.58125,1.9375 z"
           fill="#f3f3f3"
           id="path263" />
        <path
           d="m 27.996875,68.878125 c -0.3875,0.775 -1.259375,1.065625 -2.034375,0.678125 L 17.921875,65.4875 c -0.775,-0.3875 -1.065625,-1.259375 -0.678125,-2.034375 0.3875,-0.775 1.259375,-1.065625 2.034375,-0.678125 l 8.040625,4.06875 c 0.775,0.290625 1.065625,1.259375 0.678125,2.034375 z M 17.534375,63.55 c -0.290625,0.678125 -0.09688,1.453125 0.58125,1.74375 l 8.040625,4.06875 c 0.58125,0.290625 1.35625,0 1.74375,-0.58125 0.290625,-0.678125 0.09688,-1.453125 -0.58125,-1.74375 l -8.1375,-4.06875 C 18.6,62.678125 17.825,62.871875 17.534375,63.55 Z"
           fill="#ffffff"
           id="path265" />
        <path
           d="m 42.140625,66.940625 c -0.484375,0.678125 -1.259375,0.871875 -1.9375,0.3875 L 23.44375,56.1875 c -0.678125,-0.3875 -0.775,-1.259375 -0.3875,-1.9375 0.3875,-0.678125 1.259375,-0.871875 1.9375,-0.3875 L 41.85,65.1 c 0.58125,0.3875 0.775,1.259375 0.290625,1.840625 z"
           fill="#f3f3f3"
           id="path267" />
        <path
           d="m 42.2375,67.0375 c -0.484375,0.678125 -1.453125,0.871875 -2.13125,0.484375 L 23.346875,56.284375 C 22.66875,55.8 22.475,54.928125 22.959375,54.153125 23.44375,53.475 24.4125,53.28125 25.090625,53.66875 L 41.85,64.90625 c 0.775,0.484375 0.871875,1.453125 0.3875,2.13125 z M 23.153125,54.25 c -0.3875,0.58125 -0.290625,1.453125 0.290625,1.840625 L 40.3,67.328125 c 0.58125,0.3875 1.35625,0.19375 1.74375,-0.3875 C 42.43125,66.359375 42.334375,65.4875 41.753125,65.1 L 24.896875,53.8625 c -0.58125,-0.3875 -1.35625,-0.19375 -1.74375,0.3875 z"
           fill="#ffffff"
           id="path269" />
        <path
           d="M 38.55625,52.89375 C 38.071875,53.475 37.2,53.66875 36.61875,53.184375 L 29.546875,47.6625 c -0.58125,-0.484375 -0.678125,-1.35625 -0.19375,-1.9375 0.484375,-0.58125 1.35625,-0.775 1.9375,-0.290625 L 38.3625,50.95625 c 0.58125,0.484375 0.678125,1.35625 0.19375,1.9375 z"
           fill="#f3f3f3"
           id="path271" />
        <path
           d="M 38.653125,52.990625 C 38.16875,53.66875 37.2,53.765625 36.521875,53.28125 L 29.45,47.759375 C 28.771875,47.275 28.675,46.30625 29.159375,45.628125 29.64375,44.95 30.6125,44.853125 31.290625,45.3375 l 7.071875,5.521875 c 0.678125,0.484375 0.775,1.453125 0.290625,2.13125 z m -9.3,-7.265625 c -0.484375,0.58125 -0.3875,1.35625 0.19375,1.840625 L 36.61875,53.0875 c 0.58125,0.3875 1.35625,0.290625 1.840625,-0.290625 0.484375,-0.58125 0.3875,-1.35625 -0.19375,-1.840625 L 31.19375,45.434375 C 30.6125,45.046875 29.8375,45.14375 29.353125,45.725 Z"
           fill="#ffffff"
           id="path273" />
        <path
           d="m 52.990625,53.8625 c -0.58125,0.58125 -1.453125,0.58125 -1.9375,0 L 36.61875,39.621875 c -0.58125,-0.58125 -0.484375,-1.453125 0,-1.9375 0.58125,-0.58125 1.453125,-0.58125 1.9375,0 L 52.89375,51.925 c 0.58125,0.484375 0.58125,1.453125 0.09688,1.9375 z"
           fill="#f3f3f3"
           id="path275" />
        <path
           d="m 52.990625,53.959375 c -0.58125,0.58125 -1.55,0.58125 -2.13125,0 L 36.521875,39.71875 c -0.58125,-0.58125 -0.58125,-1.55 0,-2.13125 0.58125,-0.58125 1.55,-0.58125 2.13125,0 l 14.3375,14.240625 c 0.678125,0.58125 0.678125,1.55 0,2.13125 z m -16.275,-16.178125 c -0.484375,0.484375 -0.484375,1.35625 0,1.840625 l 14.3375,14.240625 c 0.484375,0.484375 1.35625,0.484375 1.840625,0 0.484375,-0.484375 0.484375,-1.35625 0,-1.840625 l -14.3375,-14.3375 C 38.071875,37.2 37.296875,37.2 36.715625,37.78125 Z"
           fill="#ffffff"
           id="path277" />
        <path
           d="M 52.11875,39.428125 C 51.5375,39.9125 50.665625,39.9125 50.18125,39.33125 L 44.271875,32.55 c -0.484375,-0.58125 -0.3875,-1.453125 0.19375,-1.9375 0.58125,-0.484375 1.453125,-0.484375 1.9375,0.09688 l 5.909375,6.78125 c 0.484375,0.484375 0.3875,1.35625 -0.19375,1.9375 z"
           fill="#f3f3f3"
           id="path279" />
        <path
           d="m 52.215625,39.428125 c -0.678125,0.58125 -1.55,0.484375 -2.13125,-0.09688 L 44.175,32.55 c -0.58125,-0.58125 -0.484375,-1.55 0.19375,-2.13125 0.678125,-0.58125 1.55,-0.484375 2.13125,0.09688 l 5.909375,6.78125 c 0.484375,0.678125 0.484375,1.646875 -0.19375,2.13125 z m -7.75,-8.815625 c -0.58125,0.484375 -0.58125,1.259375 -0.19375,1.840625 l 5.909375,6.78125 c 0.484375,0.484375 1.259375,0.58125 1.840625,0.09687 0.58125,-0.484375 0.58125,-1.259375 0.19375,-1.840625 L 46.30625,30.70937 c -0.484375,-0.58125 -1.259375,-0.58125 -1.840625,-0.09688 z"
           fill="#ffffff"
           id="path281" />
        <path
           d="m 66.06875,43.109375 c -0.678125,0.484375 -1.55,0.290625 -1.9375,-0.3875 L 52.796875,25.9625 c -0.3875,-0.678125 -0.19375,-1.55 0.3875,-1.9375 0.678125,-0.484375 1.55,-0.290625 1.9375,0.3875 l 11.2375,16.759375 c 0.484375,0.678125 0.290625,1.55 -0.290625,1.9375 z"
           fill="#f3f3f3"
           id="path283" />
        <path
           d="m 66.06875,43.20625 c -0.678125,0.484375 -1.646875,0.290625 -2.13125,-0.3875 L 52.7,26.059375 C 52.215625,25.38125 52.409375,24.4125 53.184375,23.928125 53.8625,23.44375 54.83125,23.6375 55.315625,24.315625 L 66.553125,41.075 C 67.0375,41.85 66.84375,42.721875 66.06875,43.20625 Z M 53.28125,24.121875 c -0.58125,0.3875 -0.775,1.1625 -0.3875,1.74375 L 64.13125,42.625 c 0.3875,0.58125 1.1625,0.678125 1.840625,0.290625 0.58125,-0.3875 0.775,-1.1625 0.3875,-1.74375 l -11.2375,-16.6625 c -0.3875,-0.58125 -1.259375,-0.775 -1.840625,-0.3875 z"
           fill="#ffffff"
           id="path285" />
        <path
           d="m 68.103125,28.771875 c -0.678125,0.3875 -1.55,0.19375 -1.9375,-0.484375 l -4.45625,-7.846875 c -0.3875,-0.678125 -0.09688,-1.55 0.58125,-1.9375 0.678125,-0.3875 1.55,-0.19375 1.9375,0.484375 l 4.45625,7.846875 c 0.290625,0.678125 0.09687,1.55 -0.58125,1.9375 z"
           fill="#f3f3f3"
           id="path287" />
        <path
           d="m 68.103125,28.86875 c -0.775,0.3875 -1.646875,0.19375 -2.034375,-0.484375 L 61.6125,20.5375 c -0.3875,-0.678125 -0.19375,-1.646875 0.58125,-2.034375 0.775,-0.3875 1.646875,-0.19375 2.034375,0.484375 l 4.45625,7.846875 c 0.3875,0.678125 0.19375,1.55 -0.58125,2.034375 z M 62.290625,18.6 c -0.58125,0.3875 -0.871875,1.1625 -0.484375,1.74375 l 4.45625,7.846875 c 0.3875,0.58125 1.1625,0.775 1.74375,0.484375 0.58125,-0.3875 0.871875,-1.1625 0.484375,-1.74375 l -4.45625,-7.846875 C 63.74375,18.503125 62.871875,18.2125 62.290625,18.6 Z"
           fill="#ffffff"
           id="path289" />
        <path
           d="m 80.9875,35.165625 c -0.775,0.290625 -1.55,0 -1.840625,-0.678125 L 71.3,15.790625 c -0.290625,-0.678125 0.09687,-1.55 0.775,-1.840625 0.775,-0.290625 1.55,0 1.840625,0.678125 L 81.7625,33.325 c 0.290625,0.678125 -0.09687,1.55 -0.775,1.840625 z"
           fill="#f3f3f3"
           id="path291" />
        <path
           d="m 80.9875,35.2625 c -0.775,0.290625 -1.646875,0 -2.034375,-0.775 L 71.10625,15.790625 c -0.290625,-0.775 0.09687,-1.646875 0.871875,-1.9375 0.775,-0.290625 1.646875,0 2.034375,0.775 L 81.859375,33.325 C 82.15,34.003125 81.7625,34.875 80.9875,35.2625 Z M 72.171875,14.046875 C 71.49375,14.3375 71.203125,15.1125 71.49375,15.69375 l 7.846875,18.696875 c 0.290625,0.678125 1.065625,0.96875 1.74375,0.678125 0.678125,-0.290625 0.96875,-1.065625 0.678125,-1.646875 L 73.915625,14.725 C 73.528125,14.046875 72.85,13.75625 72.171875,14.046875 Z"
           fill="#ffffff"
           id="path293" />
        <path
           d="M 85.734375,21.409375 C 84.959375,21.7 84.184375,21.3125 83.89375,20.5375 l -2.809375,-8.525 c -0.290625,-0.678125 0.19375,-1.55 0.871875,-1.74375 0.678125,-0.19375 1.55,0.09687 1.840625,0.871875 l 2.809375,8.525 c 0.290625,0.678125 -0.09687,1.453125 -0.871875,1.74375 z"
           fill="#f3f3f3"
           id="path295" />
        <path
           d="m 85.83125,21.50625 c -0.775,0.290625 -1.646875,-0.09688 -1.9375,-0.871875 l -2.809375,-8.525 c -0.290625,-0.775 0.19375,-1.646875 0.96875,-1.9375 0.775,-0.290625 1.646875,0.09688 1.9375,0.871875 L 86.8,19.56875 c 0.19375,0.775 -0.19375,1.646875 -0.96875,1.9375 z M 82.053125,10.365625 C 81.375,10.559375 80.9875,11.334375 81.18125,12.0125 l 2.809375,8.525 c 0.19375,0.678125 0.96875,0.96875 1.646875,0.775 0.678125,-0.19375 1.065625,-0.96875 0.871875,-1.646875 L 83.7,11.140625 C 83.50625,10.4625 82.73125,10.075 82.053125,10.365625 Z"
           fill="#ffffff"
           id="path297" />
        <path
           d="m 97.165625,30.225 c -0.775,0.19375 -1.55,-0.290625 -1.646875,-1.065625 L 91.45,9.3 c -0.19375,-0.775 0.3875,-1.453125 1.1625,-1.646875 0.775,-0.19375 1.55,0.290625 1.646875,1.065625 l 4.06875,19.859375 c 0.09687,0.678125 -0.3875,1.453125 -1.1625,1.646875 z"
           fill="#f3f3f3"
           id="path299" />
        <path
           d="m 97.165625,30.321875 c -0.871875,0.19375 -1.646875,-0.3875 -1.840625,-1.1625 L 91.25625,9.3 c -0.19375,-0.775 0.3875,-1.646875 1.1625,-1.74375 0.871875,-0.19375 1.646875,0.3875 1.840625,1.1625 l 4.06875,19.859375 c 0.19375,0.775 -0.290625,1.55 -1.1625,1.74375 z M 92.6125,7.75 C 91.934375,7.846875 91.45,8.525 91.546875,9.3 l 4.06875,19.859375 c 0.09688,0.678125 0.871875,1.1625 1.55,0.96875 0.678125,-0.09688 1.1625,-0.775 1.065625,-1.55 L 94.1625,8.71875 C 93.96875,8.040625 93.290625,7.653125 92.6125,7.75 Z"
           fill="#ffffff"
           id="path301" />
        <path
           d="m 104.52813,17.63125 c -0.77501,0.09687 -1.45313,-0.3875 -1.64688,-1.1625 l -1.1625,-8.9125 c -0.0969,-0.775 0.48438,-1.453125 1.25938,-1.55 0.77499,-0.096875 1.45312,0.3875 1.64687,1.1625 l 1.1625,8.9125 c 0.0969,0.775 -0.48438,1.453125 -1.25937,1.55 z"
           fill="#f3f3f3"
           id="path303" />
        <path
           d="m 104.52813,17.728125 c -0.87188,0.09688 -1.64688,-0.484375 -1.74376,-1.259375 l -1.16249,-8.9125 c -0.0969,-0.775 0.48437,-1.55 1.35625,-1.646875 C 103.85,5.8125 104.625,6.39375 104.72187,7.16875 l 1.16251,8.9125 c 0.0969,0.775 -0.48438,1.55 -1.35625,1.646875 z m -1.45313,-11.625 c -0.67813,0.096875 -1.25938,0.775 -1.1625,1.453125 l 1.1625,8.9125 c 0.0969,0.678125 0.775,1.1625 1.45313,1.065625 0.67812,-0.09688 1.25937,-0.775 1.16249,-1.453125 l -1.16249,-8.9125 c -0.0969,-0.678125 -0.77501,-1.1625 -1.45313,-1.065625 z"
           fill="#ffffff"
           id="path305" />
        <circle
           fill-opacity="0.2"
           fill="url(#linearGradient-4)"
           cx="114.99062"
           cy="115.18437"
           r="114.7"
           id="circle307"
           style="fill:url(#linearGradient-4)" />
      </g>
      <path
         d="M 204.11562,51.15 111.6,110.4375 h -0.0969 v 0.0969 l -0.0969,0.0969 -57.7375,95.22812 84.8625,-68.29687 0.0969,-0.0969 v -0.0969 z"
         fill="#000000"
         fill-opacity="0.05"
         filter="url(#filter-5)"
         id="path311" />
      <path
         d="m 202.37187,45.628125 -91.44999,65.003125 27.12499,26.93125 64.325,-91.934375"
         fill="#cd151e"
         id="path313" />
      <path
         d="m 111.01875,110.4375 13.65937,13.46563 77.69375,-78.275005 z"
         fill="#fa5153"
         id="path315" />
      <path
         d="m 111.01875,110.4375 27.125,26.93125 -91.45,65.00312 z"
         fill="#acacac"
         id="path317" />
      <path
         d="M 46.69375,202.37187 124.67812,123.90313 111.01875,110.4375 Z"
         fill="#eeeeee"
         id="path319" />
    </g>
  </g>
</svg>
