<?xml version="1.0" encoding="UTF-8" standalone="no"?>
<svg
   width="16"
   height="16"
   viewBox="0 0 16 16"
   version="1.1"
   id="svg4"
   sodipodi:docname="sass.svg"
   inkscape:version="1.2.1 (9c6d41e410, 2022-07-14)"
   xmlns:inkscape="http://www.inkscape.org/namespaces/inkscape"
   xmlns:sodipodi="http://sodipodi.sourceforge.net/DTD/sodipodi-0.dtd"
   xmlns="http://www.w3.org/2000/svg"
   xmlns:svg="http://www.w3.org/2000/svg">
  <defs
     id="defs8" />
  <sodipodi:namedview
     id="namedview6"
     pagecolor="#ffffff"
     bordercolor="#666666"
     borderopacity="1.0"
     inkscape:showpageshadow="2"
     inkscape:pageopacity="0.0"
     inkscape:pagecheckerboard="0"
     inkscape:deskcolor="#d1d1d1"
     showgrid="false"
     inkscape:zoom="32"
     inkscape:cx="9.203125"
     inkscape:cy="8"
     inkscape:window-width="1366"
     inkscape:window-height="715"
     inkscape:window-x="-8"
     inkscape:window-y="-8"
     inkscape:window-maximized="1"
     inkscape:current-layer="svg4" />
  <path
     fill="#cf649a"
     d="m 13.666079,8.8736533 c -0.549008,0.0031 -1.024405,0.1349516 -1.423127,0.3312759 -0.14722,-0.291373 -0.294441,-0.5459718 -0.318945,-0.7361 -0.02761,-0.2208307 -0.06134,-0.3558131 -0.02761,-0.6195516 0.03371,-0.2637998 0.187063,-0.6379844 0.187063,-0.6686552 -0.0031,-0.027604 -0.03377,-0.1625553 -0.349648,-0.1656222 -0.315879,-0.00306 -0.588881,0.061342 -0.619552,0.1441527 -0.03066,0.082812 -0.09202,0.2729704 -0.131883,0.469264 -0.0552,0.2883063 -0.631819,1.3096456 -0.959998,1.8463852 C 9.9150335,9.2662404 9.8230215,9.0822153 9.8045881,8.9349644 9.777014,8.7141651 9.7432467,8.5791828 9.777014,8.315444 9.8107525,8.0516443 9.9641057,7.6774903 9.9641057,7.6468195 9.9610463,7.6192158 9.9303673,7.4842641 9.614489,7.4811968 9.2985483,7.4781368 9.0256087,7.5425385 8.994938,7.6253501 8.9642644,7.7081609 8.9305292,7.9044548 8.8630531,8.094614 8.7986141,8.2847734 8.0318426,9.990073 7.8324819,10.434799 c -0.101214,0.226965 -0.1901288,0.407923 -0.2545681,0.530606 -0.064408,0.122683 -0.00306,0.0092 -0.0092,0.02147 -0.055207,0.104278 -0.085879,0.162556 -0.085879,0.162556 v 0.0032 c -0.042938,0.07667 -0.088947,0.150256 -0.1104464,0.150256 -0.015333,0 -0.046008,-0.205494 0.00615,-0.487635 0.1134824,-0.591979 0.3895199,-1.5151404 0.3864831,-1.5488785 0,-0.015334 0.05211,-0.1779214 -0.1779214,-0.2607023 -0.223897,-0.082812 -0.3036105,0.055207 -0.3220438,0.055207 -0.018404,0 -0.033738,0.049074 -0.033738,0.049074 0,0 0.2484339,-1.0397111 -0.4753981,-1.0397111 -0.4539287,0 -1.079614,0.4938004 -1.3893897,0.9446622 C 5.1702231,9.1221592 4.7530995,9.3490928 4.3114392,9.5914232 4.1427496,9.6834357 3.9679256,9.781583 3.8023031,9.870528 L 3.7685951,9.833658 C 2.8914096,8.8981902 1.2689216,8.2357 1.3363975,6.9781948 1.3609342,6.5211992 1.5204225,5.315835 4.4525865,3.8559023 6.8541138,2.6597393 8.7771762,2.9879174 9.111458,3.7178837 9.5868561,4.7606925 8.0839842,6.6990902 5.5874081,6.9781948 4.6366116,7.0855432 4.1366461,6.7174926 4.0109262,6.5794738 3.8790416,6.435321 3.8606391,6.4291867 3.8115657,6.4567904 c -0.079744,0.042939 -0.030671,0.1717567 0,0.248434 0.07361,0.1932264 0.3803185,0.5367401 0.901723,0.7084968 C 5.1702537,7.5640081 6.2867031,7.6468195 7.6362204,7.125415 9.1482934,6.5396018 10.329122,4.9140468 9.9825411,3.5553281 9.6298259,2.1720727 7.3356463,1.7181441 5.1672174,2.4879825 3.8759437,2.9480453 2.4773529,3.6657432 1.4713491,4.6073383 0.27518601,5.7237572 0.08502674,6.6990902 0.16477096,7.1039453 0.44390636,8.5485426 2.4344138,9.4901374 3.2318559,10.186366 c -0.039872,0.02144 -0.076677,0.04291 -0.110415,0.06135 -0.398721,0.196261 -1.916928,0.990668 -2.29724671,1.831019 -0.42939184,0.950797 0.0674761,1.634787 0.39872111,1.726799 1.0244065,0.28524 2.0733495,-0.226963 2.6407602,-1.070413 0.5643128,-0.843447 0.4968678,-1.938396 0.2361655,-2.438332 l -0.00923,-0.01841 0.3128426,-0.184025 C 4.6059094,9.974737 4.8052699,9.864321 4.980063,9.769211 c -0.098116,0.266836 -0.1686898,0.582747 -0.205464,1.042808 -0.042939,0.539839 0.1778909,1.239103 0.4692642,1.51514 0.1288174,0.119587 0.2821718,0.122685 0.3772509,0.122685 0.3373794,0 0.4907343,-0.279136 0.6594232,-0.613418 0.2085622,-0.407923 0.3925872,-0.880252 0.3925872,-0.880252 0,0 -0.2300312,1.278974 0.398721,1.278974 0.2300317,0 0.4600628,-0.297508 0.5643435,-0.450862 v 0.0031 c 0,0 0.00615,-0.0092 0.018404,-0.03066 a 1.1081379,1.1081379 0 0 0 0.036805,-0.05824 v -0.0061 C 7.783409,11.532827 7.9889036,11.167845 8.2956119,10.563629 8.6912354,9.78459 9.0715844,8.8092563 9.0715844,8.8092563 c 0,0 0.036805,0.2392328 0.1502874,0.6318195 0.067445,0.2331291 0.2146654,0.4876672 0.3281475,0.7361002 -0.092013,0.128817 -0.1472206,0.202457 -0.1472206,0.202457 l 0.00306,0.0031 c -0.073582,0.09814 -0.1564239,0.202456 -0.2422716,0.306705 -0.3128426,0.374186 -0.6870266,0.800541 -0.7361001,0.923224 -0.058276,0.144123 -0.046008,0.25147 0.067475,0.337379 0.082812,0.06135 0.2300317,0.07358 0.386453,0.06135 0.2821718,-0.01843 0.4784655,-0.08894 0.5766122,-0.131916 0.153354,-0.05521 0.3281779,-0.138019 0.4968673,-0.260703 0.3067095,-0.226933 0.4938005,-0.548976 0.4753985,-0.978369 -0.0092,-0.236165 -0.08588,-0.469264 -0.180959,-0.690094 0.02761,-0.03987 0.05524,-0.07977 0.08281,-0.122683 0.484599,-0.7085272 0.858784,-1.4875358 0.858784,-1.4875358 0,0 0.0368,0.2392322 0.150289,0.6318195 0.05824,0.1993605 0.174823,0.4171537 0.279103,0.6318499 -0.453929,0.3711174 -0.739168,0.8005094 -0.837313,1.0826814 -0.180959,0.521405 -0.03988,0.757569 0.226963,0.812777 0.119586,0.02454 0.291373,-0.03067 0.42016,-0.08588 0.159488,-0.05214 0.352715,-0.141116 0.530637,-0.27297 0.306708,-0.226965 0.601149,-0.542874 0.585813,-0.969198 -0.0092,-0.196294 -0.06134,-0.38952 -0.131886,-0.5735454 0.386454,-0.1594886 0.886358,-0.2515013 1.521276,-0.174824 1.364852,0.1594886 1.634756,1.0121384 1.582646,1.3679194 -0.05212,0.355813 -0.337379,0.552076 -0.432489,0.613417 -0.09507,0.05827 -0.125751,0.07978 -0.116554,0.122684 0.01227,0.06444 0.05521,0.06135 0.138019,0.0491 0.113488,-0.01843 0.717702,-0.291373 0.742238,-0.947697 0.0368,-0.843572 -0.763703,-1.7636977 -2.183765,-1.7545272 z M 3.1398434,12.422271 C 2.688982,12.916072 2.0540953,13.103165 1.7841919,12.943676 1.4928188,12.774986 1.6062702,12.048087 2.1614433,11.523615 2.4988227,11.204638 2.9374157,10.910198 3.2257218,10.72924 c 0.064408,-0.03988 0.1625555,-0.09812 0.2791046,-0.16869 0.018403,-0.01224 0.030671,-0.01841 0.030671,-0.01841 0.021469,-0.01227 0.046006,-0.02761 0.070543,-0.04294 0.2054946,0.748369 0.0092,1.404725 -0.4661967,1.923064 z M 6.4369595,10.180232 C 6.2805382,10.563617 5.9492934,11.548152 5.7499329,11.492943 5.5781452,11.446936 5.4738953,10.701636 5.7161649,9.965535 5.8388481,9.5943879 6.0995504,9.1527583 6.2529044,8.9809706 6.5013688,8.7049334 6.7712416,8.6129207 6.8387484,8.7264029 6.9184925,8.8736533 6.5351068,9.941 6.4369595,10.180232 Z m 2.7205044,1.300444 c -0.067475,0.03377 -0.1288175,0.05827 -0.1564214,0.03989 -0.021469,-0.01227 0.027574,-0.05827 0.027574,-0.05827 0,0 0.3404465,-0.364982 0.4753982,-0.533672 0.076676,-0.09812 0.1686898,-0.211599 0.2668367,-0.340448 v 0.0368 c 3.02e-5,0.44163 -0.4232278,0.73607 -0.6133878,0.855688 z M 11.25532,11.00221 c -0.04907,-0.03681 -0.04291,-0.150286 0.122684,-0.506069 0.06444,-0.141086 0.211629,-0.377251 0.466197,-0.601148 0.03065,0.09201 0.0491,0.180927 0.04601,0.263768 -0.0031,0.552076 -0.395622,0.757571 -0.634887,0.843449 z"
     id="path2"
     style="stroke-width:0.0306709" />
</svg>
