<?xml version="1.0" encoding="UTF-8" standalone="no"?>
<svg
   viewBox="-0.12979373 0 16 16"
   width="16"
   height="16"
   version="1.1"
   id="svg22"
   sodipodi:docname="microsoft-sharepoint-seeklogo.com.svg"
   inkscape:version="1.2.1 (9c6d41e410, 2022-07-14)"
   xmlns:inkscape="http://www.inkscape.org/namespaces/inkscape"
   xmlns:sodipodi="http://sodipodi.sourceforge.net/DTD/sodipodi-0.dtd"
   xmlns="http://www.w3.org/2000/svg"
   xmlns:svg="http://www.w3.org/2000/svg">
  <defs
     id="defs26" />
  <sodipodi:namedview
     id="namedview24"
     pagecolor="#ffffff"
     bordercolor="#666666"
     borderopacity="1.0"
     inkscape:showpageshadow="2"
     inkscape:pageopacity="0.0"
     inkscape:pagecheckerboard="0"
     inkscape:deskcolor="#d1d1d1"
     showgrid="false"
     inkscape:zoom="32"
     inkscape:cx="7.984375"
     inkscape:cy="6.75"
     inkscape:window-width="1366"
     inkscape:window-height="715"
     inkscape:window-x="-8"
     inkscape:window-y="-8"
     inkscape:window-maximized="1"
     inkscape:current-layer="svg22" />
  <g
     id="g281"
     transform="matrix(0.49863911,0,0,0.49863911,-0.10801949,0.02177424)">
    <circle
       cx="15"
       cy="9.5"
       fill="#036c70"
       r="9.5"
       id="circle2" />
    <circle
       cx="23.875"
       cy="17.875"
       fill="#1a9ba1"
       r="8.125"
       id="circle4" />
    <circle
       cx="16"
       cy="25.5"
       fill="#37c6d0"
       r="6.5"
       id="circle6" />
    <path
       d="M 16.667,7 H 5.833 A 9.506,9.506 0 0 0 15,19 c 0.277,0 0.551,-0.013 0.823,-0.036 l 0.005,0.038 A 6.5,6.5 0 0 0 9.5,25.5 q 0,0.252 0.019,0.5 h 7.148 A 1.337,1.337 0 0 0 18,24.667 V 8.333 A 1.337,1.337 0 0 0 16.667,7 Z"
       opacity="0.1"
       id="path8" />
    <path
       d="M 15.667,8 H 5.617 A 9.505,9.505 0 0 0 15,19 c 0.277,0 0.551,-0.013 0.823,-0.036 l 0.005,0.038 A 6.505,6.505 0 0 0 9.674,27 h 5.993 A 1.337,1.337 0 0 0 17,25.667 V 9.333 A 1.337,1.337 0 0 0 15.667,8 Z"
       opacity="0.2"
       id="path10" />
    <path
       d="M 15.667,8 H 5.617 A 9.505,9.505 0 0 0 15,19 c 0.277,0 0.551,-0.013 0.823,-0.036 l 0.005,0.038 A 6.5,6.5 0 0 0 9.518,25 h 6.149 A 1.337,1.337 0 0 0 17,23.667 V 9.333 A 1.337,1.337 0 0 0 15.667,8 Z"
       opacity="0.2"
       id="path12" />
    <path
       d="M 14.667,8 H 5.617 A 9.505,9.505 0 0 0 15,19 c 0.277,0 0.551,-0.013 0.823,-0.036 l 0.005,0.038 A 6.5,6.5 0 0 0 9.518,25 h 5.149 A 1.337,1.337 0 0 0 16,23.667 V 9.333 A 1.337,1.337 0 0 0 14.667,8 Z"
       opacity="0.2"
       id="path14" />
    <path
       d="M 1.333,8 H 14.667 A 1.333,1.333 0 0 1 16,9.333 V 22.667 A 1.333,1.333 0 0 1 14.667,24 H 1.333 A 1.333,1.333 0 0 1 0,22.667 V 9.333 A 1.333,1.333 0 0 1 1.333,8 Z"
       fill="#03787c"
       id="path16" />
    <path
       d="M 5.67,15.825 A 2.645,2.645 0 0 1 4.848,14.955 2.361,2.361 0 0 1 4.561,13.765 2.29,2.29 0 0 1 5.094,12.224 3.142,3.142 0 0 1 6.51,11.3 5.982,5.982 0 0 1 8.445,11 a 7.354,7.354 0 0 1 2.549,0.357 v 1.8 A 3.986,3.986 0 0 0 9.841,12.686 5.596,5.596 0 0 0 8.492,12.524 2.926,2.926 0 0 0 7.106,12.817 0.91,0.91 0 0 0 6.557,13.65 0.844,0.844 0 0 0 6.79,14.24 2.122,2.122 0 0 0 7.417,14.688 q 0.394,0.196 1.176,0.52 a 1.232,1.232 0 0 1 0.169,0.067 9.697,9.697 0 0 1 1.483,0.732 2.654,2.654 0 0 1 0.877,0.883 2.558,2.558 0 0 1 0.317,1.332 A 2.48,2.48 0 0 1 10.94,19.827 2.789,2.789 0 0 1 9.605,20.723 6.049,6.049 0 0 1 7.703,21 10.028,10.028 0 0 1 5.981,20.858 5.912,5.912 0 0 1 4.581,20.454 v -1.902 a 4.5,4.5 0 0 0 1.416,0.675 5.513,5.513 0 0 0 1.558,0.25 2.68,2.68 0 0 0 1.413,-0.3 A 0.947,0.947 0 0 0 9.443,18.33 0.904,0.904 0 0 0 9.177,17.682 2.704,2.704 0 0 0 8.442,17.17 Q 7.973,16.934 7.056,16.55 A 7.86,7.86 0 0 1 5.67,15.825 Z"
       fill="#ffffff"
       id="path18" />
    <path
       d="M 0,0 H 32 V 32 H 0 Z"
       fill="none"
       id="path20" />
  </g>
</svg>
