<?xml version="1.0" encoding="UTF-8" standalone="no"?>
<svg
   width="16"
   height="16"
   viewBox="0 0 16 16"
   version="1.1"
   id="svg8"
   sodipodi:docname="stackoverflow.svg"
   inkscape:version="1.2.1 (9c6d41e410, 2022-07-14)"
   xmlns:inkscape="http://www.inkscape.org/namespaces/inkscape"
   xmlns:sodipodi="http://sodipodi.sourceforge.net/DTD/sodipodi-0.dtd"
   xmlns="http://www.w3.org/2000/svg"
   xmlns:svg="http://www.w3.org/2000/svg">
  <defs
     id="defs12" />
  <sodipodi:namedview
     id="namedview10"
     pagecolor="#ffffff"
     bordercolor="#666666"
     borderopacity="1.0"
     inkscape:showpageshadow="2"
     inkscape:pageopacity="0.0"
     inkscape:pagecheckerboard="0"
     inkscape:deskcolor="#d1d1d1"
     showgrid="false"
     inkscape:zoom="32"
     inkscape:cx="7.984375"
     inkscape:cy="8"
     inkscape:window-width="1366"
     inkscape:window-height="715"
     inkscape:window-x="-8"
     inkscape:window-y="-8"
     inkscape:window-maximized="1"
     inkscape:current-layer="svg8" />
  <g
     fill="none"
     fill-rule="evenodd"
     id="g6"
     transform="matrix(0.33182489,0,0,0.33182489,1.6953271,0.03620264)">
    <path
       fill="#ff810f"
       d="m 25.086,41.592 -19.111,0.01 -0.002,-4.048 19.11,-0.01 z M 38,18.671 34.73,0 30.71,0.692 33.979,19.362 38,18.672 Z m -12.454,13.684 -19.03,-1.739 -0.375,4.031 19.03,1.737 0.375,-4.03 z m 1.255,-5.282 -18.455,-4.92 -1.06,3.91 18.456,4.919 z m 2.41,-4.63 -16.462,-9.627 -2.074,3.486 16.462,9.627 2.073,-3.485 z m 4.036,-2.834 -10.768,-15.657 -3.372,2.28 10.768,15.656 3.372,-2.28 z"
       id="path2" />
    <path
       fill="#bebcbc"
       d="M 28.332,28.278 V 44.824 H 3.265 V 28.278 H 0 V 48 H 31.58 V 28.278 Z"
       id="path4" />
  </g>
</svg>
