<?xml version="1.0" encoding="UTF-8" standalone="no"?>
<svg
   viewBox="0 0 16 16"
   version="1.1"
   id="svg4"
   sodipodi:docname="stripe.svg"
   width="16"
   height="16"
   inkscape:version="1.2.1 (9c6d41e410, 2022-07-14)"
   xmlns:inkscape="http://www.inkscape.org/namespaces/inkscape"
   xmlns:sodipodi="http://sodipodi.sourceforge.net/DTD/sodipodi-0.dtd"
   xmlns="http://www.w3.org/2000/svg"
   xmlns:svg="http://www.w3.org/2000/svg">
  <defs
     id="defs8" />
  <sodipodi:namedview
     id="namedview6"
     pagecolor="#ffffff"
     bordercolor="#666666"
     borderopacity="1.0"
     inkscape:showpageshadow="2"
     inkscape:pageopacity="0.0"
     inkscape:pagecheckerboard="0"
     inkscape:deskcolor="#d1d1d1"
     showgrid="false"
     inkscape:zoom="32"
     inkscape:cx="7.984375"
     inkscape:cy="8"
     inkscape:window-width="1366"
     inkscape:window-height="715"
     inkscape:window-x="-8"
     inkscape:window-y="-8"
     inkscape:window-maximized="1"
     inkscape:current-layer="svg4" />
  <path
     fill="#646fde"
     d="M 7.551176,6.1822972 H 8.6537925 V 10.008173 H 7.551176 Z M 2.876425,8.8930325 c 0,-1.3214252 -1.6786397,-1.083503 -1.6786397,-1.5837335 l 6.591e-4,0.00132 c 0,-0.1726751 0.1436763,-0.2398998 0.3736901,-0.242536 A 2.438542,2.438542 0 0 1 2.664865,7.3527974 V 6.3088377 A 2.8998879,2.8998879 0 0 0 1.5747708,6.1065047 c -0.89039742,0 -1.4835563,0.4692545 -1.4835563,1.2535423 0,1.2284985 1.6687537,1.0288005 1.6687537,1.5586905 0,0.20431 -0.1753115,0.272193 -0.4204838,0.272193 -0.36314503,0 -0.83305868,-0.152243 -1.20147625,-0.354577 v 0.999144 A 3.0257694,3.0257694 0 0 0 1.3368482,10.08726 C 2.2489947,10.086601 2.876425,9.6918205 2.876425,8.8930325 Z M 7.5478807,5.8461738 8.6504972,5.6089103 V 4.7046725 L 7.5478807,4.941936 Z m 3.3968243,0.261649 A 1.2258617,1.2258617 0 0 0 10.084623,6.4551503 L 10.027944,6.18032 H 9.0610949 v 5.115007 l 1.0973441,-0.235286 0.0026,-1.2535435 c 0.158176,0.117314 0.392803,0.2801025 0.77638,0.2801025 0.786265,0 1.502668,-0.5793175 1.502668,-1.9877405 0.0026,-1.289132 -0.723653,-1.9910367 -1.495418,-1.9910367 z m -0.26165,3.0587227 c -0.257695,6.59e-4 -0.409938,-0.09425 -0.516707,-0.209583 L 10.159048,7.30864 c 0.114018,-0.1271996 0.272192,-0.2201278 0.523956,-0.2201278 0.400053,0 0.67686,0.4547552 0.67686,1.0340733 0.0033,0.597114 -0.268899,1.04396 -0.67686,1.04396 z m 3.6387,-3.0587227 c -1.0433,0 -1.678639,0.896329 -1.678639,2.0259667 0,1.335926 0.748699,1.9534705 1.817044,1.9534705 0.523956,0 0.91676,-0.1199505 1.215975,-0.2873525 v -0.834377 c -0.299215,0.152244 -0.642588,0.244513 -1.077572,0.244513 -0.427733,0 -0.803402,-0.152244 -0.852831,-0.671588 h 2.147895 c 0.0046,-0.05734 0.0145,-0.289988 0.0145,-0.396757 h 6.59e-4 c 0,-1.1368877 -0.543729,-2.0338757 -1.587031,-2.0338757 z m -0.585908,1.6133917 c 0,-0.4995712 0.304488,-0.709154 0.578659,-0.709154 0.269558,0 0.556251,0.2102419 0.556251,0.709154 z M 5.00257,7.126738 V 6.1822972 H 4.1695113 L 4.1668713,5.2207207 3.09589,5.4507345 3.09127,9.0070515 c 0,0.657088 0.4896855,1.0815265 1.139524,1.0815265 0.361168,0 0.6254532,-0.06788 0.7717657,-0.1476305 V 9.0966845 C 4.8615197,9.1540245 4.169501,9.3589925 4.169501,8.7045405 V 7.1260789 H 5.0025597 Z M 7.2862317,7.201871 V 6.1829562 C 7.137942,6.130231 6.6265072,6.0333484 6.3694717,6.5098527 L 6.302247,6.1829562 H 5.3531928 V 10.008831 H 6.4485595 V 7.4338624 C 6.7082314,7.0891712 7.1458508,7.157055 7.2862317,7.201871 Z"
     id="path2"
     style="stroke-width:0.659065" />
</svg>
