<?xml version="1.0" encoding="UTF-8" standalone="no"?>
<svg
   id="svg2"
   viewBox="0 0 16 16"
   width="16"
   height="16"
   version="1.1"
   sodipodi:docname="telegram-seeklogo.com.svg"
   inkscape:version="1.2.1 (9c6d41e410, 2022-07-14)"
   xmlns:inkscape="http://www.inkscape.org/namespaces/inkscape"
   xmlns:sodipodi="http://sodipodi.sourceforge.net/DTD/sodipodi-0.dtd"
   xmlns="http://www.w3.org/2000/svg"
   xmlns:svg="http://www.w3.org/2000/svg">
  <defs
     id="defs21" />
  <sodipodi:namedview
     id="namedview19"
     pagecolor="#ffffff"
     bordercolor="#666666"
     borderopacity="1.0"
     inkscape:showpageshadow="2"
     inkscape:pageopacity="0.0"
     inkscape:pagecheckerboard="0"
     inkscape:deskcolor="#d1d1d1"
     showgrid="false"
     inkscape:zoom="32"
     inkscape:cx="7.984375"
     inkscape:cy="8"
     inkscape:window-width="1366"
     inkscape:window-height="715"
     inkscape:window-x="-8"
     inkscape:window-y="-8"
     inkscape:window-maximized="1"
     inkscape:current-layer="svg2" />
  <style
     id="style2">.st0{fill:url(#path2995-1-0_1_)}.st1{fill:#c8daea}.st2{fill:#a9c9dd}.st3{fill:url(#path2991_1_)}</style>
  <linearGradient
     id="path2995-1-0_1_"
     gradientUnits="userSpaceOnUse"
     x1="-683.30499"
     y1="534.84497"
     x2="-693.30499"
     y2="511.51199"
     gradientTransform="matrix(6,0,0,-6,4255,3247)">
    <stop
       offset="0"
       stop-color="#37aee2"
       id="stop4" />
    <stop
       offset="1"
       stop-color="#1e96c8"
       id="stop6" />
  </linearGradient>
  <linearGradient
     id="path2991_1_"
     gradientUnits="userSpaceOnUse"
     x1="128.991"
     y1="118.245"
     x2="153.991"
     y2="78.245003"
     gradientTransform="matrix(1,0,0,-1,0,242)">
    <stop
       offset="0"
       stop-color="#eff7fc"
       id="stop12" />
    <stop
       offset="1"
       stop-color="#fff"
       id="stop14" />
  </linearGradient>
  <g
     id="g335"
     transform="matrix(0.06642604,0,0,0.06642604,0.0288752,0.0288752)">
    <path
       id="path2995-1-0"
       class="st0"
       d="M 240,120 C 240,186.3 186.3,240 120,240 53.7,240 0,186.3 0,120 0,53.7 53.7,0 120,0 186.3,0 240,53.7 240,120 Z"
       style="fill:url(#path2995-1-0_1_)" />
    <path
       id="path2993"
       class="st1"
       d="m 98,175 c -3.9,0 -3.2,-1.5 -4.6,-5.2 L 82,132.2 152.8,88 l 8.3,2.2 -6.9,18.8 z" />
    <path
       id="path2989"
       class="st2"
       d="m 98,175 c 3,0 4.3,-1.4 6,-3 2.6,-2.5 36,-35 36,-35 l -20.5,-5 -19,12 -2.5,30 z" />
    <g
       id="g328">
      <path
         id="path2991"
         class="st3"
         d="m 100,144.4 48.4,35.7 c 5.5,3 9.5,1.5 10.9,-5.1 L 179,82.2 c 2,-8.1 -3.1,-11.7 -8.4,-9.3 L 55,117.5 c -7.9,3.2 -7.8,7.6 -1.4,9.5 L 83.3,136.3 152,93 c 3.2,-2 6.2,-0.9 3.8,1.3 z"
         style="fill:url(#path2991_1_)" />
    </g>
  </g>
</svg>
