<?xml version="1.0" encoding="UTF-8" standalone="no"?>
<svg
   enable-background="new 0 0 500 500"
   height="16"
   viewBox="0 0 16 16"
   width="16"
   version="1.1"
   id="svg28"
   sodipodi:docname="tensorflow.svg"
   inkscape:version="1.2.1 (9c6d41e410, 2022-07-14)"
   xmlns:inkscape="http://www.inkscape.org/namespaces/inkscape"
   xmlns:sodipodi="http://sodipodi.sourceforge.net/DTD/sodipodi-0.dtd"
   xmlns="http://www.w3.org/2000/svg"
   xmlns:svg="http://www.w3.org/2000/svg">
  <defs
     id="defs32" />
  <sodipodi:namedview
     id="namedview30"
     pagecolor="#ffffff"
     bordercolor="#666666"
     borderopacity="1.0"
     inkscape:showpageshadow="2"
     inkscape:pageopacity="0.0"
     inkscape:pagecheckerboard="0"
     inkscape:deskcolor="#d1d1d1"
     showgrid="false"
     inkscape:zoom="32"
     inkscape:cx="7.984375"
     inkscape:cy="8"
     inkscape:window-width="1366"
     inkscape:window-height="715"
     inkscape:window-x="-8"
     inkscape:window-y="-8"
     inkscape:window-maximized="1"
     inkscape:current-layer="svg28" />
  <filter
     id="a"
     color-interpolation-filters="sRGB"
     height="1.1256243"
     width="1.2535163"
     x="-0.12675813"
     y="-0.062812166">
    <feGaussianBlur
       stdDeviation="4.1080607"
       id="feGaussianBlur2" />
  </filter>
  <filter
     id="b"
     color-interpolation-filters="sRGB"
     height="1.1143"
     width="1.1945532"
     x="-0.097276597"
     y="-0.057150001">
    <feGaussianBlur
       stdDeviation="4.0030989"
       id="feGaussianBlur5" />
  </filter>
  <g
     id="g325"
     transform="matrix(0.0470676,0,0,0.0470676,-0.1897624,1.3251825)">
    <path
       d="m 238.33507,11.868694 76.93839,43.52354 0.84239,30.32608 -51.10506,-24.99093 -0.56159,21.62137 27.51811,12.91666 1.12318,32.291656 -26.67572,-10.10869 1.96558,51.38586 -29.76448,-16.00543 z"
       fill="#a5aaaa"
       fill-opacity="0.392157"
       fill-rule="evenodd"
       filter="url(#a)"
       id="path8" />
    <path
       d="m 113.21066,174.81453 96.66276,-55.1608 2.10136,28.10575 -30.20711,17.59892 1.57603,108.74559 -26.00439,13.65888 -4.4654,-104.80555 -37.03654,21.27632 -2.36404,-28.36842 z"
       fill="#a5aaaa"
       fill-opacity="0.392157"
       fill-rule="evenodd"
       filter="url(#b)"
       transform="matrix(1.0262759,0,0,1.0262759,-79.722279,-112.93786)"
       id="path10" />
    <g
       transform="translate(-77,-105.12415)"
       id="g26">
      <path
         d="m 243.128,245.165 21.036,-12.168 20.736,12.168 -20.736,11.974 -21.036,-11.688 z"
         fill="#f6bd3a"
         id="path12" />
      <path
         d="m 180,209.098 84.164,-47.803 62.625,35.6 -20.818,36.101 -41.807,-23.898 -63.113,35.825 z"
         fill="#f6bd3a"
         id="path14" />
      <path
         d="m 243.128,292.969 v -23.83 l 20.749,-12 21.023,-11.974 v 23.974 l -20.736,11.91 v 23.845 l -21.036,12.217 z m 0,-47.804 -21.028,-11.914 -21.049,11.671 v -23.878 l 63.113,-35.852 v 47.803 z m 62.556,-24.12 v -11.947 l 21.105,-12.203 0.211,23.899 -21.029,12.202 z"
         fill="#eb8c23"
         id="path16" />
      <path
         d="m 222.1,304.453 v -71.202 l 20.741,-11.667 0.287,23.581 21.036,11.758 v 24.126 l -21.036,-11.197 v 47.259 z M 190.374,238.707 180,232.496 v -23.397 l 21.051,11.947 v 23.878 z m 73.79,-29.609 v -23.905 l 41.52,23.905 0.287,23.898 z"
         fill="#e35a2b"
         id="path18" />
      <path
         d="m 106.607,342.277 v 45.572 H 98.589 V 342.277 H 83 v -7.869 h 39.197 v 7.869 z"
         fill="#ef6639"
         id="path20" />
      <path
         d="m 148.737,358.865 c 0.7,2.412 0.72,5.693 0.649,6.016 l -25.888,7.721 c 0.221,1.923 0.137,1.145 0.762,2.486 0.627,1.402 1.369,2.594 2.297,3.449 0.918,0.853 1.951,1.52 3.061,1.995 1.11,0.433 2.32,0.651 3.502,0.646 1.672,0 3.24,-0.261 4.609,-0.87 1.438,-0.566 2.775,-1.313 4.088,-2.31 l 4.684,4.959 c -1.774,1.696 -3.769,2.99 -5.983,3.913 -2.148,0.979 -4.773,1.368 -7.869,1.368 -2.316,0 -4.563,-0.39 -6.669,-1.368 -2.107,-0.923 -3.97,-2.288 -5.524,-3.995 -1.607,-1.842 -2.843,-3.987 -3.742,-6.575 -0.947,-2.586 -1.393,-5.542 -1.393,-8.866 0,-3.467 0.409,-6.491 1.294,-9.081 0.885,-2.588 2.067,-4.717 3.584,-6.513 1.55,-1.747 3.405,-3.095 5.54,-3.983 2.163,-0.939 4.579,-1.402 7.167,-1.402 2.839,0 5.304,0.553 7.433,1.613 2.135,1.082 3.89,2.524 5.259,4.369 1.437,1.846 2.453,3.922 3.139,6.428 z m -7.517,1.758 c -0.077,-1.316 -1.044,-2.976 -1.848,-4.048 -0.677,-0.952 -1.727,-1.776 -2.83,-2.191 -1.181,-0.457 -2.768,-0.662 -4.19,-0.588 -2.629,0.103 -5.541,0.98 -7.017,3.033 -1.476,2.054 -1.895,5.427 -1.838,9.091 z m 36.608,26.835 V 364.74 c 0,-4.119 -0.741,-6.943 -2.197,-8.569 -1.441,-1.626 -3.466,-2.443 -6.077,-2.443 -2.639,0 -4.657,0.919 -6.08,2.632 -1.456,1.842 -2.136,4.32 -2.136,7.573 v 23.525 h -7.875 v -40.153 h 7.875 v 3.84 c 0.984,-1.478 2.432,-2.623 4.242,-3.436 1.81,-0.813 3.75,-1.254 5.821,-1.254 4.702,0 8.255,1.514 10.658,4.541 2.415,2.982 3.638,7.466 3.638,13.447 v 23.015 z m 40.196,-10.565 c 0,2.219 -0.41,4.072 -1.239,5.632 -0.849,1.446 -1.964,2.7 -3.341,3.639 -1.402,0.889 -2.974,1.553 -4.784,1.993 -1.81,0.35 -3.682,0.594 -5.672,0.594 -2.764,0 -5.52,-0.549 -8.219,-1.51 -2.748,-0.961 -5.115,-2.147 -7.181,-3.65 l 3.609,-5.906 c 1.892,1.313 3.833,2.291 5.863,2.947 2.012,0.656 3.97,0.99 5.821,0.99 4.891,0 7.348,-1.477 7.348,-4.433 0,-1.483 -0.816,-2.786 -2.458,-3.692 -1.66,-0.889 -3.938,-1.922 -6.884,-3.031 -2.141,-0.813 -3.943,-1.646 -5.423,-2.492 -1.506,-0.789 -2.76,-1.779 -3.685,-2.75 -0.926,-0.96 -1.608,-1.977 -2.048,-3.232 -0.373,-1.151 -0.593,-2.569 -0.593,-4.124 0,-1.839 0.333,-3.395 0.997,-4.729 0.646,-1.378 1.61,-2.571 2.843,-3.436 1.186,-0.957 2.654,-1.633 4.326,-2.102 1.698,-0.445 3.543,-0.682 5.538,-0.682 2.515,0 4.972,0.421 7.37,1.233 2.331,0.813 4.451,1.886 6.226,3.198 l -3.436,6.006 c -1.626,-1.115 -3.288,-1.986 -4.985,-2.581 -1.698,-0.527 -3.508,-0.796 -5.431,-0.796 -1.922,0 -3.344,0.334 -4.176,1.035 -0.885,0.683 -1.304,1.56 -1.304,2.651 0,0.462 0.087,0.985 0.307,1.333 0.189,0.477 0.557,0.965 1.145,1.348 0.521,0.513 1.312,0.932 2.236,1.455 0.925,0.455 2.196,1.051 3.698,1.644 2.267,0.818 4.225,1.717 5.906,2.429 1.646,0.842 3.102,1.694 4.248,2.691 1.145,0.998 1.987,2.223 2.533,3.535 0.585,1.312 0.845,2.941 0.845,4.793 z m 36.612,-9.272 c 0,3.324 -0.444,6.298 -1.401,8.92 -0.89,2.624 -2.151,4.807 -3.792,6.684 -1.641,1.743 -3.561,3.145 -5.746,4.068 -2.175,0.926 -4.594,1.457 -7.197,1.457 -2.515,0 -4.877,-0.564 -7.02,-1.557 -2.142,-0.979 -3.991,-2.324 -5.579,-4.237 -1.554,-1.779 -2.825,-3.96 -3.679,-6.576 -0.92,-2.516 -1.347,-5.327 -1.347,-8.54 0,-3.279 0.445,-6.201 1.364,-8.788 0.927,-2.587 2.167,-4.752 3.77,-6.562 1.641,-1.811 3.494,-3.211 5.673,-4.137 2.178,-0.941 4.499,-1.436 7.073,-1.436 2.516,0 4.914,0.494 7.109,1.48 2.133,0.982 4.098,2.431 5.692,4.187 1.589,1.796 2.839,3.97 3.732,6.521 0.908,2.552 1.348,5.454 1.348,8.516 z m -7.977,0.219 c 0,-4.099 -0.871,-7.368 -2.681,-9.839 -1.811,-2.335 -4.339,-3.596 -7.519,-3.596 -3.027,0 -5.392,1.261 -7.074,3.596 -1.733,2.471 -2.583,5.633 -2.583,9.62 0,4.479 0.939,7.779 2.784,10.106 1.81,2.326 4.251,3.556 7.22,3.556 1.48,0 2.833,-0.366 4.087,-1.103 1.186,-0.737 2.255,-1.681 3.132,-2.832 0.825,-1.282 1.489,-2.624 1.969,-4.259 0.476,-1.646 0.665,-3.365 0.665,-5.249 z m 33.369,-11.778 c -0.895,-0.369 -1.771,-0.745 -2.695,-1.021 -0.915,-0.278 -2.046,-0.389 -3.375,-0.389 -2.511,0 -4.433,0.853 -5.813,2.622 -1.356,1.704 -2.056,4.321 -2.056,7.653 v 22.923 h -7.87 v -40.103 h 7.87 v 3.841 c 0.903,-1.33 2.195,-2.421 3.785,-3.342 1.59,-0.854 3.382,-1.328 5.376,-1.328 1.625,0 2.974,0.166 4.043,0.438 1.05,0.261 1.977,0.712 2.73,1.239 z"
         fill="#ef6639"
         id="path22" />
      <path
         d="m 293.171,342.277 v 13.999 h 15.409 v 7.869 h -15.409 v 23.704 h -7.949 v -53.442 h 34.468 v 7.87 z m 27.818,45.573 v -51.555 l 7.87,-4.137 v 55.691 h -7.87 z m 47.994,-20.229 c 0,3.324 -0.378,6.298 -1.341,8.92 -0.948,2.624 -2.207,4.807 -3.832,6.684 -1.627,1.743 -3.514,3.145 -5.675,4.068 -2.268,0.926 -4.594,1.457 -7.219,1.457 -2.585,0 -4.931,-0.564 -7.021,-1.557 -2.166,-0.979 -4.025,-2.324 -5.579,-4.237 -1.555,-1.779 -2.83,-3.96 -3.747,-6.576 -0.853,-2.516 -1.346,-5.327 -1.346,-8.54 0,-3.279 0.511,-6.201 1.4,-8.788 0.889,-2.587 2.175,-4.752 3.824,-6.562 1.62,-1.811 3.469,-3.211 5.581,-4.137 2.245,-0.941 4.582,-1.436 7.142,-1.436 2.516,0 4.914,0.494 7.059,1.48 2.194,0.982 4.163,2.431 5.74,4.187 1.59,1.796 2.813,3.97 3.673,6.521 0.981,2.552 1.341,5.454 1.341,8.516 z m -7.903,0.219 c 0,-4.099 -0.944,-7.368 -2.688,-9.839 -1.877,-2.335 -4.337,-3.596 -7.517,-3.596 -3.028,0 -5.409,1.261 -7.142,3.596 -1.685,2.471 -2.535,5.633 -2.535,9.62 0,4.479 0.891,7.779 2.804,10.106 1.779,2.326 4.25,3.556 7.234,3.556 1.452,0 2.818,-0.366 4.005,-1.103 1.245,-0.737 2.254,-1.681 3.205,-2.832 0.818,-1.282 1.482,-2.624 1.978,-4.259 0.393,-1.646 0.656,-3.365 0.656,-5.249 z m 46.763,20.01 h -6.731 l -5.423,-20.229 c -0.452,-1.527 -0.803,-3.064 -1.14,-4.709 -0.396,-1.623 -0.674,-2.899 -0.961,-3.86 -0.259,1.298 -0.537,2.592 -0.835,3.881 -0.389,1.626 -0.812,3.251 -1.148,4.797 l -5.373,20.12 h -6.776 l -10.957,-40.103 h 7.763 l 4.795,19.471 c 0.368,1.601 0.732,3.247 1.078,4.882 0.368,1.646 0.629,2.959 0.917,3.938 l 0.996,-3.938 c 0.339,-1.635 0.746,-3.281 1.187,-4.882 l 5.378,-19.471 h 6.264 l 5.497,19.578 c 0.389,1.566 0.73,3.142 1.132,4.774 0.403,1.646 0.719,2.959 0.943,3.938 0.282,-0.979 0.602,-2.308 0.938,-3.969 0.319,-1.604 0.656,-3.25 1.057,-4.851 l 4.797,-19.471 H 419 Z"
         fill="#a6a7a9"
         id="path24" />
    </g>
  </g>
</svg>
