<?xml version="1.0" encoding="UTF-8" standalone="no"?>
<svg
   viewBox="0 0 16 16"
   width="16"
   height="16"
   version="1.1"
   id="svg16"
   sodipodi:docname="tiktok-app-icon-seeklogo.com.svg"
   inkscape:version="1.2.1 (9c6d41e410, 2022-07-14)"
   xmlns:inkscape="http://www.inkscape.org/namespaces/inkscape"
   xmlns:sodipodi="http://sodipodi.sourceforge.net/DTD/sodipodi-0.dtd"
   xmlns="http://www.w3.org/2000/svg"
   xmlns:svg="http://www.w3.org/2000/svg">
  <defs
     id="defs20" />
  <sodipodi:namedview
     id="namedview18"
     pagecolor="#ffffff"
     bordercolor="#666666"
     borderopacity="1.0"
     inkscape:showpageshadow="2"
     inkscape:pageopacity="0.0"
     inkscape:pagecheckerboard="0"
     inkscape:deskcolor="#d1d1d1"
     showgrid="false"
     inkscape:zoom="32"
     inkscape:cx="7.984375"
     inkscape:cy="7.75"
     inkscape:window-width="1366"
     inkscape:window-height="715"
     inkscape:window-x="-8"
     inkscape:window-y="-8"
     inkscape:window-maximized="1"
     inkscape:current-layer="svg16" />
  <g
     id="g319"
     transform="matrix(0.05464305,0,0,0.05464305,0.04697722,0.04670407)">
    <path
       d="M 219.51,291.1 H 71.58 C 32.05,291.1 0,259.05 0,219.51 V 71.58 C 0,32.05 32.05,0 71.58,0 h 147.93 c 39.53,0 71.58,32.05 71.58,71.58 v 147.93 c 0.01,39.54 -32.04,71.59 -71.58,71.59 z"
       id="path2" />
    <g
       fill="#25f4ee"
       id="g8">
      <path
         d="m 120.96,123.89 v -8.8 a 64.83,64.83 0 0 0 -9.23,-0.79 c -29.93,-0.06 -56.42,19.33 -65.41,47.87 -8.99,28.54 1.62,59.62 26.18,76.71 -25.77,-27.58 -24.3,-70.83 3.28,-96.6 a 68.425,68.425 0 0 1 45.18,-18.39 z"
         id="path4" />
      <path
         d="m 122.62,223.53 c 16.73,-0.02 30.48,-13.2 31.22,-29.92 V 44.44 h 27.25 A 50.7,50.7 0 0 1 180.3,35 h -37.27 v 149.02 c -0.62,16.8 -14.41,30.11 -31.22,30.14 -5.02,-0.04 -9.97,-1.28 -14.42,-3.6 a 31.276,31.276 0 0 0 25.23,12.97 z M 231.98,95.05 v -8.29 c -10.03,0 -19.84,-2.96 -28.19,-8.51 a 51.63,51.63 0 0 0 28.19,16.8 z"
         id="path6" />
    </g>
    <path
       d="M 203.8,78.26 A 51.301,51.301 0 0 1 191.04,44.37 h -9.95 a 51.564,51.564 0 0 0 22.71,33.89 z m -92.07,73.32 c -17.28,0.09 -31.22,14.17 -31.13,31.45 a 31.293,31.293 0 0 0 16.71,27.53 c -10.11,-13.96 -6.99,-33.48 6.97,-43.6 a 31.191,31.191 0 0 1 18.34,-5.93 c 3.13,0.04 6.24,0.53 9.23,1.45 v -37.93 c -3.05,-0.46 -6.14,-0.7 -9.23,-0.72 h -1.66 v 28.84 c -3.01,-0.82 -6.12,-1.18 -9.23,-1.09 z"
       fill="#fe2c55"
       id="path10" />
    <path
       d="m 231.98,95.05 v 28.84 a 88.442,88.442 0 0 1 -51.69,-16.8 v 75.77 c -0.08,37.81 -30.75,68.42 -68.56,68.42 a 67.816,67.816 0 0 1 -39.22,-12.4 c 25.73,27.67 69.02,29.25 96.7,3.52 a 68.397,68.397 0 0 0 21.83,-50.09 v -75.56 a 88.646,88.646 0 0 0 51.76,16.58 V 96.21 c -3.64,-0.02 -7.26,-0.4 -10.82,-1.16 z"
       fill="#fe2c55"
       id="path12" />
    <path
       d="M 180.29,182.87 V 107.1 a 88.505,88.505 0 0 0 51.76,16.58 V 94.84 A 51.73,51.73 0 0 1 203.79,78.26 51.634,51.634 0 0 1 181.08,44.37 h -27.25 v 149.24 c -0.71,17.27 -15.27,30.69 -32.54,29.99 A 31.278,31.278 0 0 1 97.23,210.7 C 81.94,202.65 76.07,183.73 84.12,168.44 a 31.274,31.274 0 0 1 27.53,-16.71 c 3.13,0.03 6.24,0.51 9.23,1.44 V 123.9 c -37.74,0.64 -67.82,32.19 -67.18,69.93 a 68.353,68.353 0 0 0 18.73,45.86 67.834,67.834 0 0 0 39.29,11.61 c 37.82,-0.01 68.49,-30.62 68.57,-68.43 z"
       fill="#ffffff"
       id="path14" />
  </g>
</svg>
