<?xml version="1.0" encoding="UTF-8" standalone="no"?>
<svg
   viewBox="0 0 16 16"
   version="1.1"
   id="svg4"
   sodipodi:docname="typescript.svg"
   width="16"
   height="16"
   inkscape:version="1.2.1 (9c6d41e410, 2022-07-14)"
   xmlns:inkscape="http://www.inkscape.org/namespaces/inkscape"
   xmlns:sodipodi="http://sodipodi.sourceforge.net/DTD/sodipodi-0.dtd"
   xmlns="http://www.w3.org/2000/svg"
   xmlns:svg="http://www.w3.org/2000/svg">
  <defs
     id="defs8" />
  <sodipodi:namedview
     id="namedview6"
     pagecolor="#ffffff"
     bordercolor="#666666"
     borderopacity="1.0"
     inkscape:showpageshadow="2"
     inkscape:pageopacity="0.0"
     inkscape:pagecheckerboard="0"
     inkscape:deskcolor="#d1d1d1"
     showgrid="false"
     inkscape:zoom="22.291667"
     inkscape:cx="11.95514"
     inkscape:cy="15.611215"
     inkscape:window-width="1366"
     inkscape:window-height="715"
     inkscape:window-x="-8"
     inkscape:window-y="-8"
     inkscape:window-maximized="1"
     inkscape:current-layer="svg4" />
  <path
     fill="#1677c7"
     d="M 0,7.9999999 V 16 H 16 V 0 H 0 Z M 9.7086666,13.084 c 0.072,-0.04066 0.3406664,-0.196 0.5946664,-0.343334 l 0.46,-0.266667 0.09666,0.142667 c 0.134667,0.205334 0.428666,0.487334 0.606667,0.581333 0.510666,0.269334 1.211333,0.231334 1.556667,-0.07867 a 0.58666666,0.58666666 0 0 0 0.209333,-0.45 l -6.67e-4,-0.03133 v 0.0013 c 0,-0.185333 -0.02334,-0.266666 -0.120001,-0.406667 C 12.987999,12.055333 12.734,11.906 12.012666,11.592667 11.187333,11.237333 10.832,11.016666 10.506666,10.666 A 2.1013333,2.1013333 0 0 1 10.071333,9.8806665 l -0.004,-0.014667 c -0.06067,-0.226 -0.076,-0.7926667 -0.028,-1.0206667 0.17,-0.7979999 0.772,-1.3533333 1.640667,-1.5186666 0.281999,-0.053334 0.937333,-0.033333 1.214,0.035333 v 6.667e-4 c 0.406666,0.1013333 0.716,0.282 1.000666,0.5766666 0.147334,0.1573333 0.366001,0.444 0.383334,0.5133334 0.0053,0.02 -0.690667,0.4866666 -1.112,0.7486666 -0.01533,0.010005 -0.07666,-0.056 -0.144666,-0.1573333 C 12.814666,8.7439999 12.599333,8.6146665 12.269333,8.5919999 11.784,8.5586665 11.472,8.8126666 11.474667,9.2366666 L 11.474,9.261333 c 0,0.1006667 0.02533,0.1953333 0.07,0.278 l -0.0013,-0.00333 c 0.106668,0.2206666 0.305334,0.3533333 0.926668,0.622 1.145999,0.493333 1.635999,0.817999 1.940666,1.28 0.34,0.515334 0.416667,1.338666 0.185333,1.950666 -0.253333,0.665333 -0.883333,1.117334 -1.77,1.266667 -0.273999,0.04866 -0.924,0.04133 -1.218666,-0.012 C 10.964,14.528666 10.354667,14.211333 9.9786665,13.794667 9.8313332,13.632666 9.5439999,13.208 9.5619999,13.178 A 1.0533333,1.0533333 0 0 1 9.7086666,13.084 Z M 3.5053333,8.0433333 c 0,-0.3560001 0.00733,-0.6533333 0.017334,-0.6600001 0.008,-0.010667 1.2753332,-0.016 2.8113332,-0.013334 l 2.7966667,0.008 0.00733,0.6526667 0.00533,0.6553333 H 7.06 V 14.603334 H 5.5866666 V 8.6859999 H 3.5053333 Z"
     id="path2"
     style="stroke-width:0.666667" />
</svg>
