<?xml version="1.0" encoding="UTF-8" standalone="no"?>
<svg
   viewBox="0 0 16 16"
   version="1.1"
   id="svg8"
   sodipodi:docname="visacard.svg"
   width="16"
   height="16"
   inkscape:version="1.2.1 (9c6d41e410, 2022-07-14)"
   xmlns:inkscape="http://www.inkscape.org/namespaces/inkscape"
   xmlns:sodipodi="http://sodipodi.sourceforge.net/DTD/sodipodi-0.dtd"
   xmlns="http://www.w3.org/2000/svg"
   xmlns:svg="http://www.w3.org/2000/svg">
  <defs
     id="defs12" />
  <sodipodi:namedview
     id="namedview10"
     pagecolor="#ffffff"
     bordercolor="#666666"
     borderopacity="1.0"
     inkscape:showpageshadow="2"
     inkscape:pageopacity="0.0"
     inkscape:pagecheckerboard="0"
     inkscape:deskcolor="#d1d1d1"
     showgrid="false"
     inkscape:zoom="32"
     inkscape:cx="7.984375"
     inkscape:cy="8"
     inkscape:window-width="1366"
     inkscape:window-height="715"
     inkscape:window-x="-8"
     inkscape:window-y="-8"
     inkscape:window-maximized="1"
     inkscape:current-layer="svg8" />
  <g
     data-name="Visa credit card"
     id="g6"
     transform="matrix(0.25609723,0,0,0.25609723,-0.19511136,-0.19378202)">
    <path
       fill="#273991"
       d="m 12.77,32.28 -1.69,-8.17 a 2,2 0 0 0 -2.2,-1.5 H 1.06 L 1,23 c 6.08,1.46 10.1,5 11.77,9.28 z M 18.45,22.79 13.51,35.4 13,33.5 A 19.77,19.77 0 0 0 6,25.84 l 4.51,15.41 h 5.33 l 7.94,-18.46 z m 7.38,0 -3.15,18.5 h 5 l 3.16,-18.5 z m 33.09,0 H 55 a 2.5,2.5 0 0 0 -2.64,1.54 l -7.45,16.94 h 5.29 c 0,0 0.86,-2.28 1.06,-2.78 h 6.45 c 0.15,0.64 0.61,2.76 0.61,2.76 H 63 Z m -6.21,11.92 c 0.42,-1.06 2,-5.17 2,-5.17 0,0 0.42,-1.06 0.67,-1.76 l 0.35,1.59 1.16,5.34 z M 41,30.2 c -1.75,-0.85 -2.83,-1.43 -2.82,-2.29 0.01,-0.86 0.91,-1.59 2.88,-1.59 a 9.08,9.08 0 0 1 3.77,0.71 l 0.46,0.21 0.68,-4 a 12.89,12.89 0 0 0 -4.51,-0.77 c -5,0 -8.49,2.5 -8.52,6.1 0,2.65 2.5,4.14 4.41,5 1.91,0.86 2.65,1.49 2.65,2.3 0,1.24 -1.57,1.81 -3,1.81 a 10.58,10.58 0 0 1 -4.74,-1 l -0.65,-0.3 -0.71,4.14 a 15.87,15.87 0 0 0 5.62,1 c 5.29,0 8.73,-2.48 8.77,-6.32 -0.01,-2.08 -1.35,-3.68 -4.29,-5 z"
       id="path2" />
    <path
       fill="#f99f1b"
       d="m 11.08,24.11 a 2,2 0 0 0 -2.2,-1.5 H 1.06 L 1,23 c 6.08,1.47 10.1,5 11.77,9.29 z"
       id="path4" />
  </g>
</svg>
