<?xml version="1.0" encoding="UTF-8" standalone="no"?>
<svg
   viewBox="0 0 16 16"
   version="1.1"
   id="svg6"
   sodipodi:docname="webpack.svg"
   width="16"
   height="16"
   inkscape:version="1.2.1 (9c6d41e410, 2022-07-14)"
   xmlns:inkscape="http://www.inkscape.org/namespaces/inkscape"
   xmlns:sodipodi="http://sodipodi.sourceforge.net/DTD/sodipodi-0.dtd"
   xmlns="http://www.w3.org/2000/svg"
   xmlns:svg="http://www.w3.org/2000/svg">
  <defs
     id="defs10" />
  <sodipodi:namedview
     id="namedview8"
     pagecolor="#ffffff"
     bordercolor="#666666"
     borderopacity="1.0"
     inkscape:showpageshadow="2"
     inkscape:pageopacity="0.0"
     inkscape:pagecheckerboard="0"
     inkscape:deskcolor="#d1d1d1"
     showgrid="false"
     inkscape:zoom="32"
     inkscape:cx="7.984375"
     inkscape:cy="8.15625"
     inkscape:window-width="1366"
     inkscape:window-height="715"
     inkscape:window-x="-8"
     inkscape:window-y="-8"
     inkscape:window-maximized="1"
     inkscape:current-layer="svg6" />
  <g
     id="g295"
     transform="matrix(0.12572125,0,0,0.12572125,-0.04616,-0.04616)">
    <path
       fill="#8ed6fb"
       d="M 117.29,98.1 66.24,127 V 104.49 L 98,87 Z m 3.5,-3.16 V 34.55 l -18.68,10.8 v 38.81 l 18.67,10.77 z m -110.08,3.16 51,28.88 V 104.49 L 29.94,87 Z M 7.21,94.94 V 34.55 l 18.68,10.8 V 84.16 Z M 9.4,30.64 61.76,1 v 21.76 l -33.55,18.45 -0.27,0.15 z m 109.18,0 L 66.24,1 v 21.76 l 33.55,18.44 0.27,0.15 18.54,-10.71 z"
       id="path2" />
    <path
       fill="#1c78c0"
       d="M 61.76,99.37 30.37,82.1 V 47.92 L 61.76,66 Z m 4.48,0 31.39,-17.25 V 47.92 L 66.24,66 Z M 32.5,44 64,26.66 95.5,44 64,62.16 Z"
       id="path4" />
  </g>
</svg>
