<?xml version="1.0" encoding="UTF-8" standalone="no"?>
<svg
   clip-rule="evenodd"
   fill-rule="evenodd"
   stroke-linejoin="round"
   stroke-miterlimit="2"
   viewBox="0 0 16 16"
   version="1.1"
   id="svg12"
   sodipodi:docname="adobe-xd-seeklogo.com.svg"
   width="16"
   height="16"
   inkscape:version="1.2.1 (9c6d41e410, 2022-07-14)"
   xmlns:inkscape="http://www.inkscape.org/namespaces/inkscape"
   xmlns:sodipodi="http://sodipodi.sourceforge.net/DTD/sodipodi-0.dtd"
   xmlns="http://www.w3.org/2000/svg"
   xmlns:svg="http://www.w3.org/2000/svg">
  <defs
     id="defs16" />
  <sodipodi:namedview
     id="namedview14"
     pagecolor="#ffffff"
     bordercolor="#666666"
     borderopacity="1.0"
     inkscape:showpageshadow="2"
     inkscape:pageopacity="0.0"
     inkscape:pagecheckerboard="0"
     inkscape:deskcolor="#d1d1d1"
     showgrid="false"
     inkscape:zoom="32"
     inkscape:cx="7.984375"
     inkscape:cy="8"
     inkscape:window-width="1366"
     inkscape:window-height="715"
     inkscape:window-x="-8"
     inkscape:window-y="-8"
     inkscape:window-maximized="1"
     inkscape:current-layer="svg12" />
  <g
     fill-rule="nonzero"
     id="g10"
     transform="matrix(0.06637037,0,0,0.06637037,0.0355556,0.23466671)">
    <path
       d="m 42.5,0 h 155 C 221,0 240,19 240,42.5 v 149 C 240,215 221,234 197.5,234 H 42.5 C 19,234 0,215 0,191.5 V 42.5 C 0,19 19,0 42.5,0 Z"
       fill="#470137"
       id="path2" />
    <g
       fill="#ff61f6"
       id="g8">
      <path
         d="m 126.2,61.5 -30,49.5 32,52.5 c 0.2,0.4 0.3,0.8 0.2,1.2 -0.1,0.4 -0.5,0.1 -1.1,0.2 h -22.9 c -1.6,0 -2.7,-0.1 -3.4,-1.1 -2.1,-4.2 -4.3,-8.3 -6.4,-12.5 -2.1,-4.1 -4.4,-8.3 -6.8,-12.6 -2.4,-4.3 -4.8,-8.6 -7.2,-13 h -0.2 c -2.1,4.3 -4.4,8.6 -6.7,12.9 -2.3,4.3 -4.6,8.6 -6.8,12.8 -2.3,4.2 -4.6,8.5 -6.9,12.6 -0.4,1 -1.2,1.1 -2.3,1.1 h -22 c -0.4,0 -0.7,0.2 -0.7,-0.3 -0.1,-0.4 0,-0.8 0.2,-1.1 L 66.3,112.7 36,61.4 C 35.7,61 35.6,60.6 35.8,60.4 36,60.1 36.4,60 36.8,60 h 22.7 c 0.5,0 1,0.1 1.4,0.2 0.4,0.2 0.7,0.5 1,0.9 1.9,4.3 4.1,8.6 6.4,12.9 2.4,4.3 4.7,8.5 7.2,12.7 2.4,4.2 4.6,8.4 6.7,12.7 h 0.2 c 2.1,-4.4 4.3,-8.7 6.5,-12.9 2.2,-4.2 4.5,-8.4 6.8,-12.6 2.3,-4.2 4.5,-8.5 6.7,-12.6 0.1,-0.4 0.3,-0.8 0.6,-1 0.4,-0.2 0.8,-0.3 1.3,-0.2 h 21.1 c 0.5,-0.1 1,0.2 1.1,0.7 0.1,0.1 -0.1,0.5 -0.3,0.7 z"
         id="path4" />
      <path
         d="m 172.4,167 c -7.4,0.1 -14.8,-1.4 -21.5,-4.5 -6.3,-2.9 -11.5,-7.7 -15.1,-13.6 -3.7,-6.1 -5.5,-13.7 -5.5,-22.8 -0.1,-7.4 1.8,-14.7 5.5,-21.1 3.8,-6.5 9.3,-11.9 15.9,-15.5 7,-3.9 15.4,-5.8 25.3,-5.8 0.5,0 1.2,0 2.1,0.1 0.9,0.1 1.9,0.1 3.1,0.2 V 52.4 c 0,-0.7 0.3,-1.1 1,-1.1 h 20.3 c 0.5,-0.1 0.9,0.3 1,0.7 v 95.4 c 0,1.8 0.1,3.8 0.2,6 0.2,2.1 0.3,4.1 0.4,5.8 0,0.7 -0.3,1.3 -1,1.6 -5.2,2.2 -10.7,3.8 -16.3,4.8 -5.1,0.9 -10.2,1.4 -15.4,1.4 z m 9.8,-20 v -44 c -0.9,-0.2 -1.8,-0.4 -2.7,-0.5 -1.1,-0.1 -2.2,-0.2 -3.3,-0.2 -3.9,0 -7.8,0.8 -11.3,2.6 -3.4,1.7 -6.3,4.2 -8.5,7.4 -2.2,3.2 -3.3,7.5 -3.3,12.7 -0.1,3.5 0.5,7 1.7,10.3 1,2.7 2.5,5.1 4.5,7.1 1.9,1.8 4.2,3.2 6.8,4 2.7,0.9 5.5,1.3 8.3,1.3 1.5,0 2.9,-0.1 4.2,-0.2 1.3,0.1 2.4,-0.1 3.6,-0.5 z"
         id="path6" />
    </g>
  </g>
</svg>
