<?xml version="1.0" encoding="UTF-8" standalone="no"?>
<!-- Generator: Adobe Illustrator 21.0.2, SVG Export Plug-In . SVG Version: 6.00 Build 0)  -->

<svg
   version="1.1"
   id="Layer_1"
   x="0px"
   y="0px"
   width="16"
   height="16"
   viewBox="0 0 16 16"
   xml:space="preserve"
   preserveAspectRatio="xMinYMin"
   sodipodi:docname="youtube-music-seeklogo.com.svg"
   inkscape:version="1.2.1 (9c6d41e410, 2022-07-14)"
   xmlns:inkscape="http://www.inkscape.org/namespaces/inkscape"
   xmlns:sodipodi="http://sodipodi.sourceforge.net/DTD/sodipodi-0.dtd"
   xmlns="http://www.w3.org/2000/svg"
   xmlns:svg="http://www.w3.org/2000/svg"><defs
   id="defs10" /><sodipodi:namedview
   id="namedview8"
   pagecolor="#ffffff"
   bordercolor="#666666"
   borderopacity="1.0"
   inkscape:showpageshadow="2"
   inkscape:pageopacity="0.0"
   inkscape:pagecheckerboard="0"
   inkscape:deskcolor="#d1d1d1"
   showgrid="false"
   inkscape:zoom="32"
   inkscape:cx="7.984375"
   inkscape:cy="8"
   inkscape:window-width="1366"
   inkscape:window-height="715"
   inkscape:window-x="-8"
   inkscape:window-y="-8"
   inkscape:window-maximized="1"
   inkscape:current-layer="Layer_1" />
<g
   id="XMLID_167_"
   transform="matrix(0.09090909,0,0,0.09090909,-0.72727264,-0.72727264)">
	<circle
   id="XMLID_791_"
   fill="#ff0000"
   cx="96"
   cy="96"
   r="88" />
	<g
   id="XMLID_41_">
		<path
   id="XMLID_42_"
   fill="#ffffff"
   d="m 96,54.04 c 23.14,0 41.96,18.82 41.96,41.96 0,23.14 -18.82,41.96 -41.96,41.96 C 72.86,137.96 54.04,119.14 54.04,96 54.04,72.86 72.86,54.04 96,54.04 M 96,50 c -25.41,0 -46,20.59 -46,46 0,25.41 20.59,46 46,46 25.41,0 46,-20.59 46,-46 0,-25.41 -20.59,-46 -46,-46 z" />
	</g>
	<polygon
   id="XMLID_274_"
   fill="#ffffff"
   points="80,73 80,119 119,95 " />
</g>
</svg>
