<?xml version="1.0" encoding="UTF-8" standalone="no"?>
<svg
   width="16"
   height="16"
   viewBox="0 0 16 16"
   version="1.1"
   preserveAspectRatio="xMidYMid"
   id="svg19"
   sodipodi:docname="youtube-seeklogo.com.svg"
   inkscape:version="1.2.1 (9c6d41e410, 2022-07-14)"
   xmlns:inkscape="http://www.inkscape.org/namespaces/inkscape"
   xmlns:sodipodi="http://sodipodi.sourceforge.net/DTD/sodipodi-0.dtd"
   xmlns="http://www.w3.org/2000/svg"
   xmlns:svg="http://www.w3.org/2000/svg">
  <sodipodi:namedview
     id="namedview21"
     pagecolor="#ffffff"
     bordercolor="#666666"
     borderopacity="1.0"
     inkscape:showpageshadow="2"
     inkscape:pageopacity="0.0"
     inkscape:pagecheckerboard="0"
     inkscape:deskcolor="#d1d1d1"
     showgrid="false"
     inkscape:zoom="32"
     inkscape:cx="7.984375"
     inkscape:cy="8"
     inkscape:window-width="1366"
     inkscape:window-height="715"
     inkscape:window-x="-8"
     inkscape:window-y="-8"
     inkscape:window-maximized="1"
     inkscape:current-layer="svg19" />
  <defs
     id="defs7">
    <linearGradient
       x1="107.28935"
       y1="1.8633864e-06"
       x2="107.28935"
       y2="214.72729"
       id="linearGradient-1"
       gradientTransform="scale(1.1925696,0.83852549)"
       gradientUnits="userSpaceOnUse">
      <stop
         stop-color="#E52D27"
         offset="0%"
         id="stop2" />
      <stop
         stop-color="#BF171D"
         offset="100%"
         id="stop4" />
    </linearGradient>
  </defs>
  <g
     id="g17"
     transform="matrix(0.06237668,0,0,0.06237668,0.01578496,2.3860988)">
    <g
       id="g15">
      <path
         d="M 101.6,123.2 170.8,87.4 101.6,51.3 Z"
         fill="#ffffff"
         id="path9" />
      <path
         d="m 101.6,51.3 60.7,40.5 8.5,-4.4 z"
         opacity="0.12"
         fill="#420000"
         id="path11" />
      <path
         d="m 253.30105,38.8 c 0,0 -2.49902,-17.6 -10.19601,-25.4 C 233.40882,3.2 222.51308,3.2 217.41507,2.6 181.72901,0 128.04998,0 128.04998,0 h -0.1 c 0,0 -53.679032,0 -89.565014,2.6 C 33.386958,3.2 22.491214,3.2 12.695041,13.4 5.0980086,21.2 2.5989848,38.8 2.5989848,38.8 2.5989848,38.8 0,59.6 0,80.3 v 19.4 c 0,20.7 2.5989848,41.4 2.5989848,41.4 0,0 2.4990238,17.6 10.1960172,25.4 9.696212,10.2 22.491214,9.9 28.188989,10.9 20.491995,2 86.966029,2.6 86.966029,2.6 0,0 53.77899,-0.1 89.56501,-2.7 4.99805,-0.6 15.89379,-0.6 25.68997,-10.8 7.69699,-7.8 10.19601,-25.4 10.19601,-25.4 0,0 2.59899,-20.7 2.59899,-41.4 V 80.3 C 255.9,59.6 253.30105,38.8 253.30105,38.8 Z M 101.56033,123.2 V 51.3 l 69.17298,36.1 z"
         fill="url(#linearGradient-1)"
         id="path13"
         style="fill:url(#linearGradient-1)" />
    </g>
  </g>
</svg>
